<svg xmlns="http://www.w3.org/2000/svg" viewBox="0 0 400 400"><defs><style>.cls-1{fill:#dbd6d5;}.cls-2{fill:#b79b95;}.cls-3{fill:#fcf9f7;}.cls-4{fill:#c6b5a1;}.cls-5{fill:#c9ad9d;}.cls-6{fill:#6b4e4e;}.cls-7{fill:#b1824b;}.cls-8{fill:#c0cec7;}.cls-9{fill:#abbfb6;}.cls-10,.cls-12,.cls-15{fill:none;stroke-miterlimit:10;}.cls-10{stroke:#d2e1da;}.cls-10,.cls-12{stroke-width:0.5px;}.cls-11{fill:#c8dad2;}.cls-12,.cls-15{stroke:#afc9bc;}.cls-13{fill:#afc9bc;}.cls-14{fill:#d2e1da;}.cls-15{stroke-width:0.52px;}</style></defs><title>Recurso 1</title><g id="Capa_2" data-name="Capa 2"><g id="Capa_3" data-name="Capa 3"><rect class="cls-1" width="400" height="400"/></g><g id="Capa_2-2" data-name="Capa 2"><path class="cls-2" d="M47.57,374a7.31,7.31,0,0,1-2.47-.41,7,7,0,0,1-2.12-1c-.63-.5-1.16-1.2-1.83-1.63a6.73,6.73,0,0,0-2.22-.87,11.86,11.86,0,0,1-2.31-.69,15.61,15.61,0,0,1-2.17-1,12.87,12.87,0,0,1-3.67-3.2l.1-.2a12.93,12.93,0,0,1,4.72,1.2,16.24,16.24,0,0,1,2,1.23,11.63,11.63,0,0,1,1.88,1.51,6.33,6.33,0,0,0,2,1.33c.73.31,1.6.34,2.37.58A6.72,6.72,0,0,1,45.94,372a7.61,7.61,0,0,1,1.74,1.79Z"/><path class="cls-2" d="M43.72,372.11a3.81,3.81,0,0,1-1.6.58,3.08,3.08,0,0,1-1.51-.14,11.77,11.77,0,0,0-1.41-.8,2.71,2.71,0,0,0-1.54.06,5.34,5.34,0,0,1-1.55.25,5.93,5.93,0,0,1-1.52-.07,5.84,5.84,0,0,1-2.84-1.52l0-.23a5.91,5.91,0,0,1,3.15-.7,5.83,5.83,0,0,1,1.47.35,5.16,5.16,0,0,1,1.44.66,2.67,2.67,0,0,0,1.46.46,11.2,11.2,0,0,0,1.57-.38,2.85,2.85,0,0,1,1.49.27,3.74,3.74,0,0,1,1.39,1Z"/><path class="cls-2" d="M34.41,363.22a4,4,0,0,1,1.71.51,3.2,3.2,0,0,1,1.21,1,12.78,12.78,0,0,0,.78,1.52,3,3,0,0,0,1.35.89,5.78,5.78,0,0,1,1.49.75,6.82,6.82,0,0,1,1.27,1,6.41,6.41,0,0,1,1.59,3l-.15.17a6.5,6.5,0,0,1-3.12-1.35,7.25,7.25,0,0,1-1.08-1.19,5.91,5.91,0,0,1-.86-1.42,2.92,2.92,0,0,0-1-1.28,12.44,12.44,0,0,0-1.58-.65,3.33,3.33,0,0,1-1.13-1.14,3.88,3.88,0,0,1-.64-1.66Z"/><path class="cls-2" d="M53,366.65a7.78,7.78,0,0,1-2.46-.41,7,7,0,0,1-2.13-1c-.63-.5-1.16-1.2-1.82-1.63a6.6,6.6,0,0,0-2.22-.87,11.75,11.75,0,0,1-2.32-.69,15,15,0,0,1-2.16-1,12.87,12.87,0,0,1-3.68-3.19l.11-.21a13.14,13.14,0,0,1,4.72,1.21,16.13,16.13,0,0,1,2,1.23A12.15,12.15,0,0,1,45,361.58a6.59,6.59,0,0,0,2,1.33c.74.31,1.61.34,2.38.58a7,7,0,0,1,2.07,1.15,7.62,7.62,0,0,1,1.73,1.8Z"/><path class="cls-2" d="M49.17,364.78a3.8,3.8,0,0,1-1.61.58,2.94,2.94,0,0,1-1.5-.15,13.34,13.34,0,0,0-1.42-.79,2.76,2.76,0,0,0-1.53.05,5.1,5.1,0,0,1-1.56.26,5.38,5.38,0,0,1-4.35-1.59l0-.23a5.8,5.8,0,0,1,3.14-.7,5.9,5.9,0,0,1,1.48.35,5.11,5.11,0,0,1,1.43.66,2.76,2.76,0,0,0,1.46.46,11.68,11.68,0,0,0,1.58-.38,2.87,2.87,0,0,1,1.49.27,3.74,3.74,0,0,1,1.39,1Z"/><path class="cls-2" d="M39.85,355.89a4.14,4.14,0,0,1,1.71.5,3.33,3.33,0,0,1,1.22,1,13.66,13.66,0,0,0,.77,1.53,3.05,3.05,0,0,0,1.36.89,6.12,6.12,0,0,1,1.49.75,7.16,7.16,0,0,1,1.27,1,6.5,6.5,0,0,1,1.59,3l-.16.17a6,6,0,0,1-4.19-2.54,6,6,0,0,1-.86-1.43,3.1,3.1,0,0,0-1-1.27,13.11,13.11,0,0,0-1.58-.66,3.22,3.22,0,0,1-1.13-1.13,4.07,4.07,0,0,1-.65-1.66Z"/><path class="cls-2" d="M57.52,360.53a7.53,7.53,0,0,1-2.47-.4,7.42,7.42,0,0,1-2.13-1.05,23.15,23.15,0,0,0-1.82-1.62,6.32,6.32,0,0,0-2.22-.87,12.62,12.62,0,0,1-2.31-.7,15.61,15.61,0,0,1-2.17-1,12.72,12.72,0,0,1-3.67-3.2l.1-.2a12.74,12.74,0,0,1,4.72,1.21,15.07,15.07,0,0,1,2,1.22,12.2,12.2,0,0,1,1.88,1.51,6.33,6.33,0,0,0,2,1.33,22.77,22.77,0,0,0,2.37.58,7.15,7.15,0,0,1,2.07,1.16,7.67,7.67,0,0,1,1.74,1.8Z"/><path class="cls-2" d="M53.67,358.66a3.68,3.68,0,0,1-1.6.58,3,3,0,0,1-1.51-.14,11.1,11.1,0,0,0-1.41-.79,2.62,2.62,0,0,0-1.54.05,5.39,5.39,0,0,1-1.55.25,6.39,6.39,0,0,1-1.52-.06A5.86,5.86,0,0,1,41.7,357l0-.22a5.92,5.92,0,0,1,3.15-.71,5.83,5.83,0,0,1,1.47.35,5.46,5.46,0,0,1,1.44.66,2.67,2.67,0,0,0,1.46.46,11.55,11.55,0,0,0,1.57-.38,3,3,0,0,1,1.49.27,3.74,3.74,0,0,1,1.39,1Z"/><path class="cls-2" d="M44.35,349.77a4,4,0,0,1,1.71.51,3.16,3.16,0,0,1,1.22,1,12.06,12.06,0,0,0,.78,1.52,3.07,3.07,0,0,0,1.35.9,5.46,5.46,0,0,1,1.49.74,6.87,6.87,0,0,1,1.27,1,6.38,6.38,0,0,1,1.59,3l-.15.17a6.5,6.5,0,0,1-3.12-1.35,7.25,7.25,0,0,1-1.08-1.19,5.72,5.72,0,0,1-.86-1.42,3,3,0,0,0-1-1.28,12.44,12.44,0,0,0-1.58-.65,3.33,3.33,0,0,1-1.13-1.14,3.88,3.88,0,0,1-.64-1.66Z"/><path class="cls-2" d="M62,354.41a7.51,7.51,0,0,1-2.46-.4,7.15,7.15,0,0,1-2.13-1c-.63-.5-1.16-1.2-1.82-1.63a6.68,6.68,0,0,0-2.22-.87,12.47,12.47,0,0,1-2.32-.69,15,15,0,0,1-2.16-1,12.87,12.87,0,0,1-3.68-3.19l.11-.21a12.79,12.79,0,0,1,4.72,1.21,14.63,14.63,0,0,1,2,1.23A11.63,11.63,0,0,1,54,349.35a6.82,6.82,0,0,0,2,1.33c.73.3,1.61.34,2.38.57a7.29,7.29,0,0,1,2.07,1.16,7.63,7.63,0,0,1,1.73,1.8Z"/><path class="cls-2" d="M58.17,352.55a3.69,3.69,0,0,1-1.6.57,2.83,2.83,0,0,1-1.5-.14,11.78,11.78,0,0,0-1.42-.79,2.76,2.76,0,0,0-1.53.05,5.08,5.08,0,0,1-1.56.25,5.31,5.31,0,0,1-4.36-1.58l0-.23a5.78,5.78,0,0,1,3.14-.7,6.47,6.47,0,0,1,1.48.34,5.41,5.41,0,0,1,1.43.66,2.69,2.69,0,0,0,1.46.47,11.68,11.68,0,0,0,1.58-.38,3,3,0,0,1,1.49.26,3.67,3.67,0,0,1,1.38,1Z"/><path class="cls-2" d="M48.86,343.65a4,4,0,0,1,1.71.51,3.33,3.33,0,0,1,1.22,1,13.51,13.51,0,0,0,.77,1.52,3,3,0,0,0,1.36.9,5.88,5.88,0,0,1,1.48.75,6.89,6.89,0,0,1,1.28,1,6.5,6.5,0,0,1,1.59,3l-.16.17A6.42,6.42,0,0,1,55,351.17,7.17,7.17,0,0,1,53.92,350a5.69,5.69,0,0,1-.87-1.43,3,3,0,0,0-1-1.28,12.29,12.29,0,0,0-1.57-.65,3.25,3.25,0,0,1-1.14-1.13,4.2,4.2,0,0,1-.64-1.67Z"/><path class="cls-2" d="M67.38,346a7.73,7.73,0,0,1-2.46-.41,6.92,6.92,0,0,1-2.13-1c-.63-.5-1.16-1.2-1.83-1.63a6.52,6.52,0,0,0-2.22-.87,11.86,11.86,0,0,1-2.31-.69,15.66,15.66,0,0,1-2.17-1,13,13,0,0,1-3.67-3.19l.11-.21a12.94,12.94,0,0,1,4.71,1.21,16.24,16.24,0,0,1,2,1.23,11.63,11.63,0,0,1,1.88,1.51,6.51,6.51,0,0,0,2,1.33c.73.3,1.61.34,2.37.58a6.9,6.9,0,0,1,2.07,1.15,7.86,7.86,0,0,1,1.74,1.8Z"/><path class="cls-2" d="M63.53,344.08a3.74,3.74,0,0,1-1.6.57,2.86,2.86,0,0,1-1.51-.14,13.21,13.21,0,0,0-1.41-.79,2.76,2.76,0,0,0-1.53,0,5.15,5.15,0,0,1-1.56.26,5.39,5.39,0,0,1-4.36-1.59l0-.23a5.3,5.3,0,0,1,4.62-.35,5,5,0,0,1,1.44.66,2.76,2.76,0,0,0,1.46.46,11.68,11.68,0,0,0,1.58-.38,2.83,2.83,0,0,1,1.48.27,3.63,3.63,0,0,1,1.39,1Z"/><path class="cls-2" d="M54.22,335.18a4.35,4.35,0,0,1,1.71.51,3.41,3.41,0,0,1,1.22,1,13.66,13.66,0,0,0,.77,1.53,3,3,0,0,0,1.35.89,5.78,5.78,0,0,1,1.49.75,6.82,6.82,0,0,1,1.27,1,6.51,6.51,0,0,1,1.6,3l-.16.17a6.5,6.5,0,0,1-3.12-1.35,7.25,7.25,0,0,1-1.08-1.19,6,6,0,0,1-.86-1.43,3,3,0,0,0-1-1.27,12.46,12.46,0,0,0-1.58-.66A3.22,3.22,0,0,1,54.7,337a4.05,4.05,0,0,1-.64-1.67Z"/><path class="cls-2" d="M72.31,338.65a7.46,7.46,0,0,1-2.46-.4,7.15,7.15,0,0,1-2.13-1c-.63-.5-1.16-1.2-1.83-1.63a6.52,6.52,0,0,0-2.22-.87,12.59,12.59,0,0,1-2.31-.69,16.21,16.21,0,0,1-2.16-1,12.87,12.87,0,0,1-3.68-3.19l.11-.21a12.84,12.84,0,0,1,4.72,1.21,14.63,14.63,0,0,1,2,1.23,11.63,11.63,0,0,1,1.88,1.51,6.69,6.69,0,0,0,2,1.33c.73.3,1.61.34,2.38.57a7.23,7.23,0,0,1,2.06,1.16,7.47,7.47,0,0,1,1.74,1.8Z"/><path class="cls-2" d="M68.46,336.79a3.74,3.74,0,0,1-1.6.57,2.86,2.86,0,0,1-1.51-.14,11,11,0,0,0-1.41-.79,2.67,2.67,0,0,0-1.53.05,5.13,5.13,0,0,1-1.56.25,5.31,5.31,0,0,1-4.36-1.58l0-.23a5.83,5.83,0,0,1,3.15-.7,6.47,6.47,0,0,1,1.48.34,5.41,5.41,0,0,1,1.43.66,2.69,2.69,0,0,0,1.46.47,11.68,11.68,0,0,0,1.58-.38,2.91,2.91,0,0,1,1.48.26,3.78,3.78,0,0,1,1.39,1Z"/><path class="cls-2" d="M59.15,327.89a4,4,0,0,1,1.71.51,3.41,3.41,0,0,1,1.22,1,13.51,13.51,0,0,0,.77,1.52,3,3,0,0,0,1.35.9,5.78,5.78,0,0,1,1.49.75,6.79,6.79,0,0,1,1.28,1,6.5,6.5,0,0,1,1.59,3l-.16.17a6.42,6.42,0,0,1-3.11-1.35,7.17,7.17,0,0,1-1.08-1.19,5.69,5.69,0,0,1-.87-1.43,3,3,0,0,0-1-1.28,12.44,12.44,0,0,0-1.58-.65,3.22,3.22,0,0,1-1.13-1.13,4.2,4.2,0,0,1-.64-1.67Z"/><path class="cls-2" d="M76.81,332.56a7.53,7.53,0,0,1-2.47-.4,7.06,7.06,0,0,1-2.13-1.05c-.63-.5-1.15-1.19-1.82-1.62a6.32,6.32,0,0,0-2.22-.87,12.14,12.14,0,0,1-2.31-.69,16.34,16.34,0,0,1-2.17-1,12.89,12.89,0,0,1-3.68-3.2l.11-.2a12.74,12.74,0,0,1,4.72,1.21,14.07,14.07,0,0,1,2,1.23,12.7,12.7,0,0,1,1.89,1.5,6.54,6.54,0,0,0,2,1.34c.73.3,1.6.34,2.37.57a7.29,7.29,0,0,1,2.07,1.16,7.44,7.44,0,0,1,1.73,1.8Z"/><path class="cls-2" d="M73,330.7a3.78,3.78,0,0,1-1.61.57,2.94,2.94,0,0,1-1.5-.14,10.55,10.55,0,0,0-1.42-.79,2.67,2.67,0,0,0-1.53.05,5.4,5.4,0,0,1-1.56.25,6.33,6.33,0,0,1-1.51-.06A5.84,5.84,0,0,1,61,329.06l0-.23a5.8,5.8,0,0,1,3.14-.7,6.35,6.35,0,0,1,1.48.34,5.27,5.27,0,0,1,1.43.66,2.69,2.69,0,0,0,1.46.47,11.74,11.74,0,0,0,1.58-.39,3.07,3.07,0,0,1,1.49.27,3.78,3.78,0,0,1,1.39,1Z"/><path class="cls-2" d="M63.64,321.8a4,4,0,0,1,1.71.51,3.33,3.33,0,0,1,1.22,1,12.06,12.06,0,0,0,.78,1.52,2.91,2.91,0,0,0,1.35.9,6,6,0,0,1,1.49.75,6.72,6.72,0,0,1,1.27,1,6.5,6.5,0,0,1,1.59,3l-.16.17a6.46,6.46,0,0,1-3.11-1.35,7.17,7.17,0,0,1-1.08-1.19,6,6,0,0,1-.86-1.43,3.05,3.05,0,0,0-1-1.28,13.07,13.07,0,0,0-1.58-.65,3.3,3.3,0,0,1-1.13-1.13,4.12,4.12,0,0,1-.65-1.67Z"/><path class="cls-2" d="M81.74,325.27a7.53,7.53,0,0,1-2.47-.4,7.3,7.3,0,0,1-2.13-1.05c-.63-.5-1.15-1.19-1.82-1.62a6.32,6.32,0,0,0-2.22-.87,12.38,12.38,0,0,1-2.31-.7,15.1,15.1,0,0,1-2.17-1,12.89,12.89,0,0,1-3.68-3.2l.11-.2a12.74,12.74,0,0,1,4.72,1.21,15,15,0,0,1,2,1.22,12.77,12.77,0,0,1,1.89,1.51,6.33,6.33,0,0,0,2,1.33,22.77,22.77,0,0,0,2.37.58,7.15,7.15,0,0,1,2.07,1.16,7.44,7.44,0,0,1,1.73,1.8Z"/><path class="cls-2" d="M77.89,323.4a3.67,3.67,0,0,1-1.61.58,2.94,2.94,0,0,1-1.5-.14,10.55,10.55,0,0,0-1.42-.79,2.59,2.59,0,0,0-1.53.05,5.4,5.4,0,0,1-1.56.25,6.33,6.33,0,0,1-1.51-.06,5.78,5.78,0,0,1-2.84-1.53l0-.22a5.28,5.28,0,0,1,4.62-.36,5.27,5.27,0,0,1,1.43.66,2.71,2.71,0,0,0,1.47.46,11.92,11.92,0,0,0,1.57-.38,3,3,0,0,1,1.49.27,3.74,3.74,0,0,1,1.39,1Z"/><path class="cls-2" d="M68.57,314.51a4,4,0,0,1,1.71.51,3.24,3.24,0,0,1,1.22,1,12.06,12.06,0,0,0,.78,1.52,3.07,3.07,0,0,0,1.35.9,5.61,5.61,0,0,1,1.49.74,7.22,7.22,0,0,1,1.27,1,6.38,6.38,0,0,1,1.59,3l-.16.17a6,6,0,0,1-4.19-2.54,5.72,5.72,0,0,1-.86-1.42,3.05,3.05,0,0,0-1-1.28,13.07,13.07,0,0,0-1.58-.65,3.33,3.33,0,0,1-1.13-1.14,3.88,3.88,0,0,1-.64-1.66Z"/><path class="cls-2" d="M86.24,319.15a7.46,7.46,0,0,1-2.46-.4,7.15,7.15,0,0,1-2.13-1c-.63-.5-1.16-1.2-1.83-1.63a6.52,6.52,0,0,0-2.22-.87,12.59,12.59,0,0,1-2.31-.69,15,15,0,0,1-2.16-1,12.87,12.87,0,0,1-3.68-3.19l.11-.21a12.84,12.84,0,0,1,4.72,1.21,14.63,14.63,0,0,1,2,1.23,11.63,11.63,0,0,1,1.88,1.51,6.69,6.69,0,0,0,2,1.33c.73.3,1.61.34,2.38.57a7.23,7.23,0,0,1,2.06,1.16,7.47,7.47,0,0,1,1.74,1.8Z"/><path class="cls-2" d="M82.39,317.29a3.74,3.74,0,0,1-1.6.57,2.86,2.86,0,0,1-1.51-.14,11,11,0,0,0-1.41-.79,2.76,2.76,0,0,0-1.53.05,5.13,5.13,0,0,1-1.56.25,5.31,5.31,0,0,1-4.36-1.58l0-.23a5.83,5.83,0,0,1,3.15-.7,6.47,6.47,0,0,1,1.48.34,5.41,5.41,0,0,1,1.43.66,2.69,2.69,0,0,0,1.46.47,11.68,11.68,0,0,0,1.58-.38,2.91,2.91,0,0,1,1.48.26,3.78,3.78,0,0,1,1.39,1Z"/><path class="cls-2" d="M73.08,308.39a4,4,0,0,1,1.71.51,3.41,3.41,0,0,1,1.22,1,13.51,13.51,0,0,0,.77,1.52,3,3,0,0,0,1.35.9,5.78,5.78,0,0,1,1.49.75,7.24,7.24,0,0,1,1.28,1,6.5,6.5,0,0,1,1.59,3l-.16.17a6.42,6.42,0,0,1-3.11-1.35,7.17,7.17,0,0,1-1.08-1.19,5.69,5.69,0,0,1-.87-1.43,3,3,0,0,0-1-1.28,12.44,12.44,0,0,0-1.58-.65,3.22,3.22,0,0,1-1.13-1.13,4.2,4.2,0,0,1-.64-1.67Z"/><path class="cls-2" d="M91.17,311.86a7.51,7.51,0,0,1-2.46-.4,6.94,6.94,0,0,1-2.13-1c-.63-.5-1.16-1.19-1.83-1.62a6.32,6.32,0,0,0-2.22-.87,11.88,11.88,0,0,1-2.31-.7,15,15,0,0,1-2.16-1,12.76,12.76,0,0,1-3.68-3.2l.11-.2a12.79,12.79,0,0,1,4.72,1.21,15.6,15.6,0,0,1,2,1.22,12.83,12.83,0,0,1,1.88,1.51,6.54,6.54,0,0,0,2,1.34c.73.3,1.61.34,2.38.57a7.42,7.42,0,0,1,2.07,1.16,7.63,7.63,0,0,1,1.73,1.8Z"/><path class="cls-2" d="M87.32,310a3.74,3.74,0,0,1-1.6.57,3,3,0,0,1-1.51-.14,9.88,9.88,0,0,0-1.41-.79,2.67,2.67,0,0,0-1.53.05,5.4,5.4,0,0,1-1.56.25,6.43,6.43,0,0,1-1.52-.06,5.93,5.93,0,0,1-2.84-1.52l0-.23a5.83,5.83,0,0,1,3.15-.7,6,6,0,0,1,1.48.34,5.41,5.41,0,0,1,1.43.66,2.69,2.69,0,0,0,1.46.47,13.48,13.48,0,0,0,1.58-.39,3,3,0,0,1,1.48.27,3.66,3.66,0,0,1,1.39,1Z"/><path class="cls-2" d="M78,301.1a4,4,0,0,1,1.71.51,3.33,3.33,0,0,1,1.22,1,13.51,13.51,0,0,0,.77,1.52,3,3,0,0,0,1.35.9,5.48,5.48,0,0,1,1.49.75,5.89,5.89,0,0,1,2.87,4l-.16.17a6.42,6.42,0,0,1-3.11-1.35,6.86,6.86,0,0,1-1.08-1.2A5.46,5.46,0,0,1,82.2,306a3,3,0,0,0-1-1.28,12.92,12.92,0,0,0-1.57-.65,3.25,3.25,0,0,1-1.14-1.13,4.26,4.26,0,0,1-.64-1.67Z"/><path class="cls-2" d="M364.55,366.4a8,8,0,0,1,2.3-.79,7.53,7.53,0,0,1,2.32-.12c.77.11,1.55.43,2.33.47a6.57,6.57,0,0,0,2.31-.3,12.59,12.59,0,0,1,2.3-.49,16.37,16.37,0,0,1,2.32-.19,13.09,13.09,0,0,1,4.66.89v.21a13.43,13.43,0,0,1-4.61,1.16,16.4,16.4,0,0,1-2.32-.07,11.83,11.83,0,0,1-2.33-.35,6.77,6.77,0,0,0-2.32-.17c-.77.08-1.53.45-2.3.61a7.52,7.52,0,0,1-2.32,0,7.6,7.6,0,0,1-2.34-.65Z"/><path class="cls-2" d="M368.82,366.4a3.87,3.87,0,0,1,1.65-.29,3.11,3.11,0,0,1,1.47.34,14.11,14.11,0,0,0,1.31.92,3,3,0,0,0,1.52.16,5.5,5.5,0,0,1,1.57,0,6.22,6.22,0,0,1,1.49.27,6.11,6.11,0,0,1,2.64,1.78l-.05.21a6.36,6.36,0,0,1-3.18.19,6.81,6.81,0,0,1-1.43-.52,5.84,5.84,0,0,1-1.34-.81,3,3,0,0,0-1.4-.62,12.71,12.71,0,0,0-1.6.12,3.24,3.24,0,0,1-1.44-.45,3.85,3.85,0,0,1-1.26-1.09Z"/><path class="cls-2" d="M380.47,363.43a3.85,3.85,0,0,1-1.26,1.09,3.12,3.12,0,0,1-1.44.45,12.71,12.71,0,0,0-1.6-.12,2.91,2.91,0,0,0-1.4.63,5.46,5.46,0,0,1-1.34.8,6.81,6.81,0,0,1-1.43.52,6.14,6.14,0,0,1-3.18-.19l-.05-.21a6.11,6.11,0,0,1,2.64-1.78,6.22,6.22,0,0,1,1.49-.27,5.51,5.51,0,0,1,1.57,0,3,3,0,0,0,1.52-.17,12.43,12.43,0,0,0,1.31-.92,3.24,3.24,0,0,1,1.47-.34,3.87,3.87,0,0,1,1.65.29Z"/><path class="cls-2" d="M362,358.76a7.92,7.92,0,0,1,2.3-.78,7.49,7.49,0,0,1,2.31-.13c.78.12,1.56.44,2.34.48a6.82,6.82,0,0,0,2.31-.31,12.39,12.39,0,0,1,2.3-.48,16.38,16.38,0,0,1,2.32-.2,13.59,13.59,0,0,1,4.66.89v.22a13.41,13.41,0,0,1-4.61,1.15,16.35,16.35,0,0,1-2.32-.06,12.66,12.66,0,0,1-2.33-.36,7,7,0,0,0-2.32-.17c-.77.09-1.54.45-2.31.61a7.52,7.52,0,0,1-2.32,0A7.65,7.65,0,0,1,362,359Z"/><path class="cls-2" d="M366.24,358.77a3.74,3.74,0,0,1,1.65-.3,3.24,3.24,0,0,1,1.47.34,11.11,11.11,0,0,0,1.31.92,2.87,2.87,0,0,0,1.52.17,5.51,5.51,0,0,1,1.57,0,6.86,6.86,0,0,1,1.49.27,6.29,6.29,0,0,1,2.64,1.78l-.05.21a6.17,6.17,0,0,1-3.19.19,6.94,6.94,0,0,1-1.42-.52,5.46,5.46,0,0,1-1.34-.8,2.91,2.91,0,0,0-1.4-.63,12.61,12.61,0,0,0-1.6.13,3.25,3.25,0,0,1-1.44-.46,3.88,3.88,0,0,1-1.27-1.09Z"/><path class="cls-2" d="M377.89,355.79a3.67,3.67,0,0,1-1.27,1.09,3.09,3.09,0,0,1-1.44.46,12.47,12.47,0,0,0-1.6-.13,3,3,0,0,0-1.39.63,5.34,5.34,0,0,1-1.35.8,6.56,6.56,0,0,1-1.42.53,6.26,6.26,0,0,1-3.18-.2l-.06-.2a6.31,6.31,0,0,1,2.65-1.79,7.26,7.26,0,0,1,1.49-.27,5.51,5.51,0,0,1,1.57,0,2.84,2.84,0,0,0,1.51-.17,11.21,11.21,0,0,0,1.32-.92,3.24,3.24,0,0,1,1.47-.34,3.89,3.89,0,0,1,1.65.3Z"/><path class="cls-2" d="M359.85,352.41a7.67,7.67,0,0,1,2.3-.79,7.19,7.19,0,0,1,2.31-.12c.78.11,1.56.43,2.34.47a6.8,6.8,0,0,0,2.31-.3,12.42,12.42,0,0,1,2.3-.49,16.38,16.38,0,0,1,2.32-.2,13.37,13.37,0,0,1,4.66.9v.21a13.43,13.43,0,0,1-4.61,1.16,16.4,16.4,0,0,1-2.32-.07,12.63,12.63,0,0,1-2.33-.35,6.53,6.53,0,0,0-2.32-.17,23.58,23.58,0,0,0-2.3.6,7.22,7.22,0,0,1-2.32,0,7.89,7.89,0,0,1-2.34-.65Z"/><path class="cls-2" d="M364.12,352.41a4,4,0,0,1,1.65-.3,3.24,3.24,0,0,1,1.47.34,12.54,12.54,0,0,0,1.31.93,3,3,0,0,0,1.52.16,5.9,5.9,0,0,1,1.57,0,7.39,7.39,0,0,1,1.49.27,6.22,6.22,0,0,1,2.64,1.79l0,.2a6.29,6.29,0,0,1-3.19.2,6.94,6.94,0,0,1-1.42-.52,5.84,5.84,0,0,1-1.34-.81,3,3,0,0,0-1.4-.63,12.76,12.76,0,0,0-1.6.13,3.24,3.24,0,0,1-1.44-.45,4.11,4.11,0,0,1-1.27-1.09Z"/><path class="cls-2" d="M375.77,349.44a4,4,0,0,1-1.26,1.09,3.24,3.24,0,0,1-1.45.45,12.42,12.42,0,0,0-1.59-.12,2.94,2.94,0,0,0-1.4.62,5.84,5.84,0,0,1-1.34.81,6.81,6.81,0,0,1-1.43.52,6.36,6.36,0,0,1-3.18-.19l-.06-.21a6.19,6.19,0,0,1,2.65-1.78,6.13,6.13,0,0,1,1.49-.27,5.5,5.5,0,0,1,1.57,0,3,3,0,0,0,1.52-.16,15.58,15.58,0,0,0,1.31-.92,3,3,0,0,1,1.47-.34,3.87,3.87,0,0,1,1.65.29Z"/><path class="cls-2" d="M357.73,346.05a7.64,7.64,0,0,1,2.3-.78,7.54,7.54,0,0,1,2.32-.13c.77.12,1.55.43,2.33.48a6.82,6.82,0,0,0,2.31-.31,11.78,11.78,0,0,1,2.3-.48,16.38,16.38,0,0,1,2.32-.2,13.31,13.31,0,0,1,4.66.89v.21a13.21,13.21,0,0,1-4.61,1.16,16.39,16.39,0,0,1-2.32-.06,12.66,12.66,0,0,1-2.33-.36,6.77,6.77,0,0,0-2.32-.17c-.77.09-1.53.45-2.3.61a7.84,7.84,0,0,1-2.32,0,7.63,7.63,0,0,1-2.34-.66Z"/><path class="cls-2" d="M362,346.05a3.87,3.87,0,0,1,1.65-.29,3.24,3.24,0,0,1,1.47.34,13.56,13.56,0,0,0,1.31.92,3,3,0,0,0,1.52.17,5.51,5.51,0,0,1,1.57,0,6.22,6.22,0,0,1,1.49.27,6.11,6.11,0,0,1,2.64,1.78l0,.21a6.14,6.14,0,0,1-3.18.19,6.81,6.81,0,0,1-1.43-.52,5.46,5.46,0,0,1-1.34-.8,2.91,2.91,0,0,0-1.4-.63,12.71,12.71,0,0,0-1.6.12,3.12,3.12,0,0,1-1.44-.45,3.85,3.85,0,0,1-1.26-1.09Z"/><path class="cls-2" d="M373.65,343.08a3.85,3.85,0,0,1-1.26,1.09,3.25,3.25,0,0,1-1.44.46,12.76,12.76,0,0,0-1.6-.13,2.91,2.91,0,0,0-1.4.63,5.46,5.46,0,0,1-1.34.8,6.94,6.94,0,0,1-1.42.52,6.17,6.17,0,0,1-3.19-.19l-.05-.21a6.29,6.29,0,0,1,2.64-1.78,6.75,6.75,0,0,1,1.49-.27,5.51,5.51,0,0,1,1.57,0,2.87,2.87,0,0,0,1.52-.17,11.11,11.11,0,0,0,1.31-.92,3.24,3.24,0,0,1,1.47-.34,3.74,3.74,0,0,1,1.65.3Z"/><path class="cls-2" d="M355.62,337.58a7.61,7.61,0,0,1,2.29-.79,7.24,7.24,0,0,1,2.32-.12c.77.11,1.56.43,2.33.47a6.8,6.8,0,0,0,2.31-.3,12.69,12.69,0,0,1,2.31-.49,16.37,16.37,0,0,1,2.31-.2,13.33,13.33,0,0,1,4.66.9v.21a13.61,13.61,0,0,1-4.61,1.16,16.4,16.4,0,0,1-2.32-.07,12.63,12.63,0,0,1-2.33-.35,6.51,6.51,0,0,0-2.32-.17c-.77.08-1.53.44-2.3.6a7.22,7.22,0,0,1-2.32,0,8,8,0,0,1-2.34-.65Z"/><path class="cls-2" d="M359.88,337.58a4,4,0,0,1,1.65-.3,3.24,3.24,0,0,1,1.47.34,11.21,11.21,0,0,0,1.32.92,2.84,2.84,0,0,0,1.51.17,5.9,5.9,0,0,1,1.57,0,7.26,7.26,0,0,1,1.49.27,6.31,6.31,0,0,1,2.65,1.79l-.06.2a6.26,6.26,0,0,1-3.18.2,6.33,6.33,0,0,1-1.43-.53,5.46,5.46,0,0,1-1.34-.8,3,3,0,0,0-1.39-.63,12.47,12.47,0,0,0-1.6.13,3.28,3.28,0,0,1-1.45-.45,3.89,3.89,0,0,1-1.26-1.1Z"/><path class="cls-2" d="M371.54,334.61a4,4,0,0,1-1.27,1.09,3.24,3.24,0,0,1-1.44.45,11,11,0,0,0-1.6-.12,3,3,0,0,0-1.4.62,5.84,5.84,0,0,1-1.34.81,6.94,6.94,0,0,1-1.42.52,6.29,6.29,0,0,1-3.19-.2l-.05-.2a6.11,6.11,0,0,1,2.64-1.78,6.76,6.76,0,0,1,1.49-.28,5.9,5.9,0,0,1,1.57,0,3,3,0,0,0,1.52-.16,14.11,14.11,0,0,0,1.31-.92,3,3,0,0,1,1.47-.34,3.87,3.87,0,0,1,1.65.29Z"/><path class="cls-2" d="M353.5,330.16a8.74,8.74,0,0,1,4.61-.91c.78.12,1.56.43,2.33.48a6.75,6.75,0,0,0,2.31-.31,11.87,11.87,0,0,1,2.31-.48,16.37,16.37,0,0,1,2.31-.2,13.31,13.31,0,0,1,4.66.89v.21a13.11,13.11,0,0,1-4.6,1.16,16.49,16.49,0,0,1-2.33-.06,12.42,12.42,0,0,1-2.32-.36,6.82,6.82,0,0,0-2.33-.17c-.77.09-1.53.45-2.3.61a7.84,7.84,0,0,1-2.32,0,7.71,7.71,0,0,1-2.34-.66Z"/><path class="cls-2" d="M357.76,330.16a3.9,3.9,0,0,1,1.65-.29,3.24,3.24,0,0,1,1.47.34,12.54,12.54,0,0,0,1.32.92,3,3,0,0,0,1.52.17,5.44,5.44,0,0,1,1.56,0,6.13,6.13,0,0,1,1.49.27,6.19,6.19,0,0,1,2.65,1.78l-.06.21a6.14,6.14,0,0,1-3.18.19,6.53,6.53,0,0,1-1.42-.52,5.34,5.34,0,0,1-1.35-.8,2.87,2.87,0,0,0-1.39-.63,12.44,12.44,0,0,0-1.6.12,3.08,3.08,0,0,1-1.44-.45,3.78,3.78,0,0,1-1.27-1.09Z"/><path class="cls-2" d="M369.42,327.19a3.88,3.88,0,0,1-1.27,1.09,3.25,3.25,0,0,1-1.44.46,12.61,12.61,0,0,0-1.6-.13,2.83,2.83,0,0,0-1.39.63,5.71,5.71,0,0,1-1.35.8,6.73,6.73,0,0,1-1.42.52,6.17,6.17,0,0,1-3.19-.19l-.05-.21a6.35,6.35,0,0,1,2.64-1.78,6.86,6.86,0,0,1,1.49-.27,5.51,5.51,0,0,1,1.57,0,2.87,2.87,0,0,0,1.52-.17,11.11,11.11,0,0,0,1.31-.92,3.25,3.25,0,0,1,1.48-.34,3.7,3.7,0,0,1,1.64.3Z"/><path class="cls-2" d="M351.38,323.83a7.71,7.71,0,0,1,2.29-.79,7.24,7.24,0,0,1,2.32-.12c.78.11,1.56.43,2.33.47a6.74,6.74,0,0,0,2.31-.3,12.69,12.69,0,0,1,2.31-.49,15,15,0,0,1,2.31-.19,13.19,13.19,0,0,1,4.67.89v.21a13.33,13.33,0,0,1-4.6,1.16,16.35,16.35,0,0,1-2.32-.07,12.38,12.38,0,0,1-2.33-.35,6.58,6.58,0,0,0-2.33-.17c-.77.08-1.53.44-2.3.6a7.22,7.22,0,0,1-2.32,0,8.06,8.06,0,0,1-2.34-.65Z"/><path class="cls-2" d="M355.65,323.83a4,4,0,0,1,1.64-.3,3.1,3.1,0,0,1,1.47.35,14.24,14.24,0,0,0,1.32.92,3,3,0,0,0,1.52.16,5.83,5.83,0,0,1,1.56,0,6.85,6.85,0,0,1,1.5.28A6.16,6.16,0,0,1,367.3,327l-.06.2a6.25,6.25,0,0,1-3.18.2,6.73,6.73,0,0,1-1.42-.52,5.9,5.9,0,0,1-1.35-.81,3,3,0,0,0-1.39-.63,12.61,12.61,0,0,0-1.6.13,3.2,3.2,0,0,1-1.44-.45,4,4,0,0,1-1.27-1.09Z"/><path class="cls-2" d="M367.3,320.86A3.88,3.88,0,0,1,366,322a3.24,3.24,0,0,1-1.44.45,12.57,12.57,0,0,0-1.6-.12,3,3,0,0,0-1.39.62,5.9,5.9,0,0,1-1.35.81,6.73,6.73,0,0,1-1.42.52,6.24,6.24,0,0,1-3.18-.19l-.06-.21a6.16,6.16,0,0,1,2.64-1.78,6.31,6.31,0,0,1,1.49-.27,5.5,5.5,0,0,1,1.57,0,3,3,0,0,0,1.52-.16,14.24,14.24,0,0,0,1.32-.92,3.09,3.09,0,0,1,1.47-.34,3.83,3.83,0,0,1,1.64.29Z"/><path class="cls-2" d="M349.26,316.41a7.64,7.64,0,0,1,2.3-.78,7.49,7.49,0,0,1,2.31-.13c.78.12,1.56.44,2.33.48a6.75,6.75,0,0,0,2.31-.31,12.66,12.66,0,0,1,2.31-.48,16.37,16.37,0,0,1,2.31-.2,13.41,13.41,0,0,1,4.67.89v.21a13.11,13.11,0,0,1-4.6,1.16,16.35,16.35,0,0,1-2.32-.06,12.53,12.53,0,0,1-2.33-.36,7.08,7.08,0,0,0-2.33-.17c-.77.09-1.53.45-2.3.61a7.52,7.52,0,0,1-2.32,0,7.65,7.65,0,0,1-2.33-.66Z"/><path class="cls-2" d="M353.53,316.42a3.7,3.7,0,0,1,1.64-.3,3.25,3.25,0,0,1,1.48.34,10.34,10.34,0,0,0,1.31.92,2.86,2.86,0,0,0,1.52.17,5.51,5.51,0,0,1,1.57,0,5.73,5.73,0,0,1,4.13,2l-.06.21a6.13,6.13,0,0,1-3.18.19,6.73,6.73,0,0,1-1.42-.52,5.52,5.52,0,0,1-1.35-.8,2.87,2.87,0,0,0-1.39-.63,11,11,0,0,0-1.6.13,3.25,3.25,0,0,1-1.44-.46,3.88,3.88,0,0,1-1.27-1.09Z"/><path class="cls-2" d="M365.18,313.44a3.76,3.76,0,0,1-1.27,1.09,3.21,3.21,0,0,1-1.44.46,12.61,12.61,0,0,0-1.6-.13,2.87,2.87,0,0,0-1.39.63,5.52,5.52,0,0,1-1.35.8,6.77,6.77,0,0,1-1.42.53,6.25,6.25,0,0,1-3.18-.2l-.06-.2a6.28,6.28,0,0,1,2.64-1.79,6.84,6.84,0,0,1,1.5-.27,5.44,5.44,0,0,1,1.56,0,2.86,2.86,0,0,0,1.52-.17,11.21,11.21,0,0,0,1.32-.92,3.21,3.21,0,0,1,1.47-.34,3.85,3.85,0,0,1,1.64.3Z"/><path class="cls-2" d="M347.14,310.06a7.67,7.67,0,0,1,2.3-.79,7.19,7.19,0,0,1,2.31-.12c.78.11,1.56.43,2.34.47a6.8,6.8,0,0,0,2.31-.3,12.42,12.42,0,0,1,2.3-.49,16.37,16.37,0,0,1,2.31-.2,13.43,13.43,0,0,1,4.67.9v.21a13.55,13.55,0,0,1-4.6,1.16,16.35,16.35,0,0,1-2.32-.07,12.5,12.5,0,0,1-2.33-.35,6.53,6.53,0,0,0-2.32-.17,23.76,23.76,0,0,0-2.31.6,7.22,7.22,0,0,1-2.32,0,7.91,7.91,0,0,1-2.33-.65Z"/><path class="cls-2" d="M351.41,310.06a4,4,0,0,1,1.64-.3,3.25,3.25,0,0,1,1.48.34,11.11,11.11,0,0,0,1.31.92,2.87,2.87,0,0,0,1.52.17,5.9,5.9,0,0,1,1.57,0,7.52,7.52,0,0,1,1.49.27,6.28,6.28,0,0,1,2.64,1.79l-.05.2a6.29,6.29,0,0,1-3.19.2,6.77,6.77,0,0,1-1.42-.53,5.71,5.71,0,0,1-1.35-.8,2.93,2.93,0,0,0-1.39-.63,12.61,12.61,0,0,0-1.6.13,3.24,3.24,0,0,1-1.44-.45,3.92,3.92,0,0,1-1.27-1.1Z"/><path class="cls-2" d="M363.06,307.09a3.9,3.9,0,0,1-1.27,1.09,3.2,3.2,0,0,1-1.44.45,10.87,10.87,0,0,0-1.6-.12,2.86,2.86,0,0,0-1.39.62,5.69,5.69,0,0,1-1.35.81,6.53,6.53,0,0,1-1.42.52,6.26,6.26,0,0,1-3.18-.2l-.06-.2a6.19,6.19,0,0,1,2.65-1.78,6.65,6.65,0,0,1,1.49-.28,5.83,5.83,0,0,1,1.56,0,3,3,0,0,0,1.52-.16,14.24,14.24,0,0,0,1.32-.92,3,3,0,0,1,1.47-.34,3.9,3.9,0,0,1,1.65.29Z"/><path class="cls-2" d="M345,302.64a7.64,7.64,0,0,1,2.3-.78,7.49,7.49,0,0,1,2.31-.13c.78.12,1.56.43,2.34.48a6.82,6.82,0,0,0,2.31-.31,12.42,12.42,0,0,1,2.3-.49,16.37,16.37,0,0,1,2.32-.19,13.13,13.13,0,0,1,4.66.89v.21a13.21,13.21,0,0,1-4.61,1.16,16.35,16.35,0,0,1-2.32-.06,12.66,12.66,0,0,1-2.33-.36,6.77,6.77,0,0,0-2.32-.17c-.77.09-1.54.45-2.31.61a7.78,7.78,0,0,1-2.31,0,7.63,7.63,0,0,1-2.34-.66Z"/><path class="cls-2" d="M349.29,302.64a3.87,3.87,0,0,1,1.65-.29,3.24,3.24,0,0,1,1.47.34,14.11,14.11,0,0,0,1.31.92,3,3,0,0,0,1.52.17,5.51,5.51,0,0,1,1.57,0,6.22,6.22,0,0,1,1.49.27,6.11,6.11,0,0,1,2.64,1.78l-.05.21a6.17,6.17,0,0,1-3.19.19,6.94,6.94,0,0,1-1.42-.52,5.46,5.46,0,0,1-1.34-.8,2.91,2.91,0,0,0-1.4-.63,12.57,12.57,0,0,0-1.6.12,3.12,3.12,0,0,1-1.44-.45,3.88,3.88,0,0,1-1.27-1.09Z"/><path class="cls-2" d="M360.94,299.67a3.85,3.85,0,0,1-1.26,1.09,3.25,3.25,0,0,1-1.45.46,12.47,12.47,0,0,0-1.6-.13,2.87,2.87,0,0,0-1.39.63,5.46,5.46,0,0,1-1.34.8,6.81,6.81,0,0,1-1.43.52,6.14,6.14,0,0,1-3.18-.19l-.06-.21a6.38,6.38,0,0,1,2.65-1.78,6.65,6.65,0,0,1,1.49-.27,5.51,5.51,0,0,1,1.57,0,2.89,2.89,0,0,0,1.52-.17,12,12,0,0,0,1.31-.92,3.24,3.24,0,0,1,1.47-.34,3.74,3.74,0,0,1,1.65.3Z"/><polygon class="cls-3" points="44.11 376.57 93.9 305.59 344.96 301.36 367.2 373.39 44.11 376.57"/><ellipse class="cls-3" cx="79.97" cy="357.82" rx="4.38" ry="3.18" transform="translate(-286.08 336.95) rotate(-74.14)"/><ellipse class="cls-3" cx="96.37" cy="320.31" rx="3.78" ry="2.89" transform="translate(-234.34 270.14) rotate(-64.63)"/><path class="cls-3" d="M102.9,375l5.17-16.55a1,1,0,0,0-.07-.77s-13.57-26.11-13.44-27.4a2.15,2.15,0,0,1,.38-1.38,16,16,0,0,1,1.61-1.57l26.08-12.54a1,1,0,0,0,.54-.58l3.13-9.14h1.23l-3.33,12.32a1,1,0,0,1-.48.61L98.66,330.49c-.44.24-.18.59,0,1.06l11.54,23a.94.94,0,0,1,0,.62L105,375C104.91,375.42,102.7,375.62,102.9,375Z"/><path class="cls-3" d="M114.55,360.15a3.69,3.69,0,0,1,1.06-1.06L140,345.32a46.85,46.85,0,0,0,4.24-3.18l1.05-1.06a6.56,6.56,0,0,0,0-2.12l-14.83-20.12a9.55,9.55,0,0,1-1.06-2.12l2.12-11.66h-1.06l-3.17,11.66a6.85,6.85,0,0,0,0,2.12L140,339a2,2,0,0,1-.47,1.89l-23.9,15.06a23.56,23.56,0,0,0-2.12,2.12l-6.35,17c-.15.43,1.74-.25,2.12,0Z"/><polygon class="cls-3" points="102.9 331.55 124.09 320.95 135.74 337.9 113.5 352.73 102.9 331.55"/><ellipse class="cls-3" cx="119.71" cy="334.92" rx="3.78" ry="2.89" transform="translate(-234.2 299.58) rotate(-64.63)"/><ellipse class="cls-3" cx="144.3" cy="356.96" rx="4.38" ry="3.18" transform="translate(-238.51 398.2) rotate(-74.14)"/><ellipse class="cls-3" cx="154.33" cy="317.34" rx="3.78" ry="2.89" transform="translate(-198.52 320.82) rotate(-64.63)"/><path class="cls-3" d="M173,374.81l4.46-16.75a1,1,0,0,0-.11-.77s-14.67-25.51-14.59-26.8a2.17,2.17,0,0,1,.32-1.39,16.16,16.16,0,0,1,1.54-1.64l25.53-13.64a1,1,0,0,0,.51-.61l2.74-9.26,1.23-.06-2.81,12.45a1,1,0,0,1-.45.64l-24.5,13.56c-.43.26-.16.6,0,1.06l12.51,22.49a1,1,0,0,1,.06.62l-4.36,20C175,375.16,172.79,375.46,173,374.81Z"/><path class="cls-3" d="M184,359.5a3.65,3.65,0,0,1,1-1.1l23.76-14.8a45,45,0,0,0,4.1-3.36l1-1.1a6.82,6.82,0,0,0-.09-2.12l-15.68-19.47a8.88,8.88,0,0,1-1.14-2.08l1.62-11.73-1.06.05-2.68,11.78a7.08,7.08,0,0,0,.09,2.11l13.56,19.57a2,2,0,0,1-.39,1.9l-23.23,16.07a23.41,23.41,0,0,0-2,2.21l-5.63,17.2c-.13.44,1.74-.32,2.12-.09Z"/><polygon class="cls-3" points="171.11 331.42 191.82 319.93 204.19 336.37 182.59 352.14 171.11 331.42"/><ellipse class="cls-3" cx="188.05" cy="334.08" rx="3.78" ry="2.89" transform="translate(-192.9 377.12) rotate(-67.07)"/><ellipse class="cls-3" cx="211.16" cy="356.2" rx="4.38" ry="3.18" transform="translate(-174.27 507.55) rotate(-80.78)"/><ellipse class="cls-3" cx="220.99" cy="317.05" rx="3.78" ry="2.89" transform="translate(-150.23 424.52) rotate(-71.27)"/><path class="cls-3" d="M241.53,375.28l2.58-16.64a1,1,0,0,0-.19-.72s-17.41-23-17.48-24.28a2,2,0,0,1,.17-1.37,16.1,16.1,0,0,1,1.35-1.75l23.86-15.89a1,1,0,0,0,.44-.64l1.69-9.23,1.22-.18-1.41,12.3a1,1,0,0,1-.38.66l-22.84,15.71c-.4.3-.09.6.16,1l14.92,20.34a1,1,0,0,1,.13.58L243.63,375C243.58,375.4,241.43,375.92,241.53,375.28Z"/><path class="cls-3" d="M250.78,359.33a3.57,3.57,0,0,1,.88-1.17l22-16.82a44.34,44.34,0,0,0,3.7-3.68l.89-1.17a6.22,6.22,0,0,0-.33-2l-17.73-17.1c-.18-.2-1.4-1.6-1.37-1.87L259.1,304l-1.05.16-1.36,11.64a7,7,0,0,0,.33,2l15.64,17.4a1.91,1.91,0,0,1-.17,1.88l-21.31,18a20.94,20.94,0,0,0-1.77,2.35l-3.69,17.19c-.08.43,1.69-.5,2.09-.32Z"/><polygon class="cls-3" points="234.89 333.64 254.2 320.34 268.31 334.86 248.6 352.38 234.89 333.64"/><ellipse class="cls-3" cx="252.01" cy="334.38" rx="3.68" ry="2.88" transform="translate(-145.19 466.86) rotate(-71.44)"/><ellipse class="cls-3" cx="283.36" cy="354.77" rx="4.31" ry="3.18" transform="translate(-97.59 601.81) rotate(-84.35)"/><ellipse class="cls-3" cx="285.24" cy="312.35" rx="3.73" ry="2.89" transform="translate(-92.89 501.94) rotate(-74.23)"/><path class="cls-3" d="M304.79,373.63l2.08-16.7a.94.94,0,0,0-.22-.72s-18.1-22.51-18.2-23.77a2,2,0,0,1,.12-1.37,16.16,16.16,0,0,1,1.29-1.79l23.37-16.56a1,1,0,0,0,.42-.66l1.42-9.27,1.21-.22-1,12.34a.94.94,0,0,1-.36.67l-22.35,16.36c-.39.31-.08.6.19,1l15.53,19.91a1,1,0,0,1,.15.58l-1.52,19.82C306.84,373.7,304.71,374.28,304.79,373.63Z"/><path class="cls-3" d="M313.55,357.43a3.56,3.56,0,0,1,.85-1.2l21.45-17.44a45.39,45.39,0,0,0,3.59-3.78l.85-1.2a6.47,6.47,0,0,0-.39-2l-18.25-16.58c-.18-.2-1.45-1.57-1.42-1.83l0-11.49-1.05.18-1,11.68a6.58,6.58,0,0,0,.39,2l16.16,17a1.91,1.91,0,0,1-.11,1.88L313.82,353.2a23.07,23.07,0,0,0-1.7,2.39L309,372.88c-.07.44,1.67-.55,2.08-.37Z"/><polygon class="cls-3" points="296.88 332.2 315.79 318.35 330.33 332.46 311.16 350.54 296.88 332.2"/><ellipse class="cls-3" cx="314.03" cy="332.45" rx="3.68" ry="2.88" transform="translate(-94.61 537.76) rotate(-73.31)"/><ellipse class="cls-3" cx="335.46" cy="312.31" rx="3.73" ry="2.89" transform="translate(-56.27 550.25) rotate(-74.23)"/><ellipse class="cls-3" cx="337.58" cy="353.62" rx="3.73" ry="2.89" transform="matrix(0.27, -0.96, 0.96, 0.27, -94.49, 582.37)"/></g><g id="Capa_1-2" data-name="Capa 1"><path class="cls-4" d="M110.87,197.6,108,201a7.17,7.17,0,0,0-2.39,4.92l-.36,6.11c-.15,2.47.53,6.55,2.48,8.12,0,0,5.32,5.76,7.79,6.11,2.17.3,10,.31,12.84-1.15,3.26-1.65,6.82-6.74,7.39-10.3l3.12-5.34L122,196.14A10,10,0,0,0,110.87,197.6Z"/><path class="cls-5" d="M162.22,285.78c.78,13-4.67,24.75-3.89,40,.24,4.64,1.56,9.16,0,13l-2.33,13c-.09.43-.78-.33-.78-.77V340.29a4.23,4.23,0,0,0-.78.76l-2.39,14.51c-.08.42-.72-.34-.72-.77l.78-13.74a8,8,0,0,0-.78.77l-2.61,16.86c0,.31-1.28-.53-1.28-.84l.77-13.74c0-.22-.33-.61-.37-.39l-2,12.6c-.09.42-.81-.33-.78-.76l.78-19a.44.44,0,0,0-.71-.34s-4.74,6.33-7.22,5.44c-.44-.16-.85-.18-.57-.55,0,0,5.35-4.64,5.38-7.3a1.69,1.69,0,0,1,.94-1.4c2.19-1.29,4.51-5.37,4.51-7.74,0-13.74.78-25.18.78-26.71,0,0,3-39.15,1.56-43.5-3.89-11.44-3.56-35-3.56-35a4.35,4.35,0,0,0-4.37-3.94l-6.86-.77-.67-4.81a6,6,0,0,0-3.69-3.83c-1.3-.48-3.48-1.76-4.2-2-.87-.34-3.45-1.45-3.45-1.45a2.16,2.16,0,0,1-1.19-2.81h0c3.08-2.61-7.14-4.66-7.14-4.66a.18.18,0,0,1,0-.35s9.41-.65,11.74-1.41c2.58-.85,7.38,2,12.25,2.34a2.41,2.41,0,0,1,2.29,2.67l-.45,3.54a.26.26,0,0,0,.42.24s4.95-.4,5.73-4.21.87-11.68,2.33-15.27c3.11-7.63,10.44-24.43,10.12-29-1.56-22.13.78-48.08.78-61.81,0-2.08-3.34-4.38-5.26-6-.67-.58-1.76-1.1-1.75-2,0-2.67-5.39-7.34-5.39-7.34-.27-.37.14-.39.58-.54,2.48-.89,7.21,5.44,7.21,5.44a.45.45,0,0,0,.72-.35l-.78-19c0-.43.68-1.19.78-.77l2,12.61c0,.22.37-.17.37-.4l-.78-13.73c0-.31,1.25-1.15,1.29-.84l2.6,16.86a9.35,9.35,0,0,0,.78.77L162.22,63c0-.43.64-1.2.72-.77l2.4,14.51a4.23,4.23,0,0,0,.78.76V66.78c0-.44.68-1.2.77-.77l2.34,13c1.55,3.82.23,8.34,0,13-.78,15.26,1.55,21.36.78,34.34-.45,7.43,1.55,19.72,1.55,29.76,0,8.39-4.66,19.12-3.89,25.18s7.94,5.28,7.94,5.28a3,3,0,0,1,1.95,3.11L177,213.29v19.07c-17.9.77-13.88,7.43-13.23,19.37C164.56,265.94,162.22,285.78,162.22,285.78Z"/><path class="cls-5" d="M308.54,333.09l4.25-2.08a5,5,0,0,0,.8-.49l2.73-2,2.4,4.7a17,17,0,0,0,1.68,2.66l1.88,2.46a11.52,11.52,0,0,1,2.26,5.36h0a14.74,14.74,0,0,0,1.44,4.52l2,4h0c0,3.81-3.49,5.11-7,3.81l-1.7-1a6.8,6.8,0,0,1-3-3.65h0a4.29,4.29,0,0,0-3.06-2.78l-.14,0c-2.37-.58-4.65-2.36-4.56-4.75,0-.8,1.21-2.56,2.34-2.29,0,0,3.89,3.06,2.33-1.52,0,0-1.09-2.34-1.55-3C311,335.88,308.54,333.09,308.54,333.09Z"/><path class="cls-5" d="M98.4,351.4c-5.44,2.29-3.89,6.87,5.61,6.48l6.85-.37c1.11-.22,8.24-1,9.34-.76,4,1,13.3,1.38,16.34-.77.81-.57.78-4.58.78-4.58,0-3.69-1.7-3.32.78-6.1l3.89-3.82-7.78-8.39c-5.45,4.58-18.68,9.16-26.47,16C104.63,350.64,101.52,350.64,98.4,351.4Z"/><path class="cls-5" d="M195.69,231.6c.78-6.1,1.49-6.36,4.67-11.45,3.82-6.1,12.52-16,16.34-22.12-5.14-1.43-11.19-1.63-16.34-3.06-5-1.37-9-4-14-5.34a126.55,126.55,0,0,0-3.89,19.84c-.8,7.33,0,15.56-.78,22.89,2.06-.11,5.72-1.41,7.78-1.52C192.07,230.7,193.08,231.74,195.69,231.6Z"/><path class="cls-6" d="M195.69,231.6s-.35-6.44,6.23-14.5a218.36,218.36,0,0,0,14.39-19.46c9.73,1.91,26,3.67,33.08,8,9.52,5.83,12.45,9.15,16.74,22.51,5.7,14,12.84,24.8,17.12,42,2.46,9.86,15.6,19.73,20.62,28.61,6.27,11.09,7,20.2,13.23,31.29l-7.78,3.81c-14.4-14.11-23-30-29.57-39.68-3.63-5.33-6.78-7.61-14-18.31l-22.57-32.81s-33.47,33.57-56.43,55.32c-6.21,5.89-14,21.63-20.24,27.47-5.29,5-24.51,15.64-24.51,15.64l-7.78-8.39s25.66-24.57,33.07-34c2.35-3,7.79-13,7.79-13s10.64-20.21,15.17-26.33c3.73-5,17.12-18.31,17.12-18.31-1.74-4.28-4.59-8-9.12-9.22Z"/><path class="cls-6" d="M187.91,190.39c-.8,6.17-3.1,14.44-3.89,20.61-1,7.79-.52,13.48-1.53,21.27l-8.06.26s-1.31-5.51-3.65-7c-2.93-1.92-9.33-4.58-14.78-2.29l-8.92,4-.09-5.66,16.57-9.68a1.94,1.94,0,0,0,.42-3l-15.86-16.28.61-5.35L163.78,198c2.9,1.61,6.67,1.15,8.56-1.53,0,0,1.56-.76,2.06-4.7.28-2.21.6-4.41-.76-6.2l-.13-.17s4.68.17,6.23,0C183.24,185.05,187.91,190.39,187.91,190.39Z"/><path class="cls-4" d="M109.22,217.24h0c-4.28,9.16-8.87,1.77-5.07,29.29l.45,4.75c.11,1.16.42,6.65,2.21.35l.56-1.25a33.24,33.24,0,0,0,2.87-14.53l-.55-10.74C109.73,224.09,109.65,216.31,109.22,217.24Z"/><path class="cls-7" d="M277.7,43.6c-.87.5-2.58,2.67-2,3.48.87,1.21,4.49-.19,6,0,1.13.15,3.33.87,4.47,1,1.85.2,7.45,0,7.45,0a26.12,26.12,0,0,0,5,1.49c4.33.13,16.9-4,16.9-4s7.11,1.46,9.44,1c1.53-.3,5.47-3,5.47-3h6V42.1s-6.72-.23-8.94,0c-1.77.19-7,1.5-7,1.5l-20.38,1.49-10.94,1s-5.55-2-7.45-2.49C280.71,43.36,278.56,43.1,277.7,43.6Z"/><path class="cls-8" d="M340.65,84.15c.25,9-9.2,18.42-12.68,18.42-4,0-12.92-9-12.92-18.42,0-6.18,4-13.93,12.92-13.93C336.43,70.22,340.48,78,340.65,84.15Z"/><path class="cls-9" d="M328.27,70c0,2.7,0,5.39,0,8.09v8.09l-.05,8.09q0,4-.12,8.09-.17-4-.22-8.09l-.06-8.09c0-2.7,0-5.4.11-8.09S328.05,72.66,328.27,70Z"/><path class="cls-9" d="M318.08,75.83a6.83,6.83,0,0,1,2.06-2,16.3,16.3,0,0,1,2.57-1.3,29.38,29.38,0,0,1,5.52-1.62h0l.05,0a24.47,24.47,0,0,1,6.32,2.9,13.71,13.71,0,0,1,2.64,2.29,7.45,7.45,0,0,1,1.62,3.05,7.36,7.36,0,0,0-1.8-2.89,12.76,12.76,0,0,0-2.67-2.13,21.87,21.87,0,0,0-3-1.61,29.62,29.62,0,0,0-3.21-1.2h.09a35.28,35.28,0,0,0-5.48,1.49A16.66,16.66,0,0,0,320.24,74,6.72,6.72,0,0,0,318.08,75.83Z"/><path class="cls-9" d="M316.86,78.43a7,7,0,0,1,2.45-2,27.57,27.57,0,0,1,2.88-1.3,55.41,55.41,0,0,1,6-1.89h.09a14,14,0,0,1,3.83,1.51,17.81,17.81,0,0,1,6,5.47,21,21,0,0,1,2,3.55c-.34-.59-.65-1.19-1-1.76s-.74-1.14-1.17-1.65a18.26,18.26,0,0,0-2.75-2.94,18,18,0,0,0-3.29-2.3,15.41,15.41,0,0,0-3.7-1.46h.09c-2,.49-4,1.1-6,1.77-1,.35-2,.74-2.9,1.18A7,7,0,0,0,316.86,78.43Z"/><path class="cls-9" d="M316.34,80.81a6.93,6.93,0,0,1,2.58-2,25.2,25.2,0,0,1,3-1.3,56.79,56.79,0,0,1,6.28-1.9h.09a12.77,12.77,0,0,1,3.64,1.6,18.65,18.65,0,0,1,3.1,2.43,21.4,21.4,0,0,1,2.49,3c.39.53.67,1.13,1,1.69s.57,1.17.86,1.75c-.33-.56-.63-1.14-1-1.69s-.69-1.11-1.09-1.61a20.36,20.36,0,0,0-2.56-2.92,18.24,18.24,0,0,0-3.06-2.34,13.78,13.78,0,0,0-3.5-1.54h.09c-2.12.49-4.21,1.1-6.28,1.77-1,.35-2.05.73-3,1.18A6.81,6.81,0,0,0,316.34,80.81Z"/><path class="cls-9" d="M316.29,83.18a6.93,6.93,0,0,1,2.58-2,26.93,26.93,0,0,1,3-1.3A57.4,57.4,0,0,1,328.17,78h.1a12,12,0,0,1,3.51,1.7,19.53,19.53,0,0,1,3,2.49,22.38,22.38,0,0,1,2.36,3c.37.53.65,1.11,1,1.66s.56,1.16.84,1.73c-.31-.55-.62-1.12-.94-1.67s-.68-1.08-1.06-1.59a21.34,21.34,0,0,0-2.44-2.92,18.72,18.72,0,0,0-2.93-2.4,13.31,13.31,0,0,0-3.37-1.64h.1c-2.12.5-4.21,1.1-6.28,1.78-1,.34-2,.73-3,1.17A7.1,7.1,0,0,0,316.29,83.18Z"/><path class="cls-9" d="M316.29,86a7.05,7.05,0,0,1,2.58-2,28.91,28.91,0,0,1,3-1.3,57.4,57.4,0,0,1,6.28-1.89h.1a12.13,12.13,0,0,1,3.38,1.52,14.67,14.67,0,0,1,2.85,2.36,15,15,0,0,1,2.12,3,16.85,16.85,0,0,1,1.3,3.42,16.14,16.14,0,0,0-3.69-6.18,13.76,13.76,0,0,0-2.8-2.25,13,13,0,0,0-3.26-1.46h.1c-2.12.49-4.21,1.1-6.28,1.77-1,.35-2,.73-3,1.18A6.84,6.84,0,0,0,316.29,86Z"/><path class="cls-9" d="M316.81,89A16.88,16.88,0,0,1,322,85.24a19.28,19.28,0,0,1,3-1.16,19.88,19.88,0,0,1,3.17-.69h0a6.69,6.69,0,0,1,3.22,1.3,11.11,11.11,0,0,1,2.44,2.4A19.07,19.07,0,0,1,335.67,90c.23.52.46,1,.67,1.55l.58,1.59-.68-1.54-.78-1.5a19.15,19.15,0,0,0-1.86-2.77A11.52,11.52,0,0,0,331.2,85a6.69,6.69,0,0,0-3-1.2h0a22.58,22.58,0,0,0-6.09,1.71A19.87,19.87,0,0,0,319.34,87,17.58,17.58,0,0,0,316.81,89Z"/><path class="cls-9" d="M317.66,91.78A19.35,19.35,0,0,1,322.51,88a18.84,18.84,0,0,1,2.8-1.32,18.57,18.57,0,0,1,3-.91l.05,0,.05,0a7.6,7.6,0,0,1,2.55,1.66,13.6,13.6,0,0,1,1.94,2.29,22.29,22.29,0,0,1,1.48,2.6,28.33,28.33,0,0,1,1.08,2.77l-.61-1.35-.68-1.32a20,20,0,0,0-1.56-2.49,13.89,13.89,0,0,0-1.93-2.19,7.73,7.73,0,0,0-2.39-1.55h.1a23.52,23.52,0,0,0-5.7,2.09,22.36,22.36,0,0,0-2.61,1.58A23,23,0,0,0,317.66,91.78Z"/><path class="cls-9" d="M318.51,95.06a27.55,27.55,0,0,1,4.33-3.81,24.14,24.14,0,0,1,2.45-1.56,22.6,22.6,0,0,1,2.62-1.27l.1,0,.09.05a12.26,12.26,0,0,1,2,1.59,12.06,12.06,0,0,1,1.7,1.94,12.51,12.51,0,0,1,2.1,4.64,16.07,16.07,0,0,0-1-2.33,12.62,12.62,0,0,0-1.37-2.1,14,14,0,0,0-3.68-3.35h.18a28.31,28.31,0,0,0-5,2.69A36.69,36.69,0,0,0,318.51,95.06Z"/><path class="cls-9" d="M320.63,97.41A45.89,45.89,0,0,1,324,94.05a28.23,28.23,0,0,1,3.73-2.94,1.41,1.41,0,0,1,1.34.21,4.06,4.06,0,0,1,.91.84,10.51,10.51,0,0,1,1.31,2,26.89,26.89,0,0,1,1.7,4.42,43.61,43.61,0,0,0-2-4.25,10.54,10.54,0,0,0-1.3-1.91,3.87,3.87,0,0,0-.83-.74,1.13,1.13,0,0,0-.89-.2,34.45,34.45,0,0,0-3.74,2.81C323,95.3,321.8,96.35,320.63,97.41Z"/><path class="cls-9" d="M322.33,99.28a25.71,25.71,0,0,1,2.34-2.89A16.45,16.45,0,0,1,326,95.1,8.9,8.9,0,0,1,327.57,94l-.08.07a.66.66,0,0,1,.64-.22,1.16,1.16,0,0,1,.51.25,3.65,3.65,0,0,1,.68.74,10.12,10.12,0,0,1,.91,1.68,24,24,0,0,1,1.22,3.58c-.26-.57-.47-1.16-.75-1.73s-.5-1.14-.79-1.7a11.4,11.4,0,0,0-.93-1.59,2.83,2.83,0,0,0-.6-.64c-.21-.17-.47-.19-.54-.1l0,0-.05,0a8.81,8.81,0,0,0-1.47,1c-.47.39-.93.81-1.37,1.23C324,97.47,323.17,98.38,322.33,99.28Z"/><path class="cls-9" d="M325,101.08a9.21,9.21,0,0,1,1.09-2.2,6.35,6.35,0,0,1,.77-1,5.89,5.89,0,0,1,.95-.83h0a.72.72,0,0,1,.86.12,2,2,0,0,1,.44.56,5.31,5.31,0,0,1,.48,1.23,12.51,12.51,0,0,1,.4,2.56c-.24-.82-.44-1.66-.73-2.45a7.73,7.73,0,0,0-.5-1.13c-.18-.35-.56-.63-.69-.54h0a5.12,5.12,0,0,0-.9.74c-.28.28-.53.58-.79.88A17.49,17.49,0,0,0,325,101.08Z"/><line class="cls-10" x1="327.97" y1="42.1" x2="327.97" y2="69.72"/><path class="cls-11" d="M321.38,113c.26,9.74-9.82,20-13.54,20-4.24,0-13.79-9.75-13.79-20,0-6.73,4.24-15.16,13.79-15.16C316.87,97.81,321.2,106.24,321.38,113Z"/><path class="cls-12" d="M308.16,97.54c-.46,8.42-.23,35.2-.23,35.2"/><path class="cls-12" d="M297.28,103.91c2.27-3.57,10.88-5.1,10.88-5.1s9.77,2.79,11.36,8.74"/><path class="cls-12" d="M296,106.74c1.75-2.83,12.18-5.38,12.18-5.38s8.16,1.53,12.69,11.23"/><path class="cls-12" d="M295.42,109.33c1.76-2.83,12.74-5.42,12.74-5.42s7.36,1.53,11.89,11.22"/><path class="cls-12" d="M295.37,111.91c1.76-2.83,12.74-5.41,12.74-5.41s6.88,1.64,11.41,11.34"/><path class="cls-12" d="M295.37,115c1.76-2.83,12.74-5.41,12.74-5.41s7.7,1.78,10.35,11"/><path class="cls-12" d="M295.92,118.2c5-5.1,12.19-5.83,12.19-5.83s5.57.06,9.29,10.34"/><path class="cls-12" d="M296.83,121.26a23.77,23.77,0,0,1,11.38-6.3s4.41,1.26,7.6,9.92"/><path class="cls-12" d="M297.73,124.84a30.73,30.73,0,0,1,10.13-7,15,15,0,0,1,6.35,8.67"/><path class="cls-12" d="M300,127.39c5-5.11,7.69-6.66,7.69-6.66s2.28-1.27,5.46,7.94"/><path class="cls-12" d="M301.81,129.43c3.63-4.59,5.7-5.55,5.7-5.55s1.33-1.75,4.05,6.41"/><path class="cls-12" d="M304.66,131.38a9.35,9.35,0,0,1,3.12-4.14s1.28-.94,2.19,4.68"/><line class="cls-12" x1="308.27" y1="44.59" x2="308.27" y2="99.09"/><path class="cls-8" d="M308.34,87.14c.25,9-9.19,18.41-12.67,18.41-4,0-12.93-9-12.93-18.41,0-6.19,4-13.94,12.93-13.94C304.12,73.2,308.17,81,308.34,87.14Z"/><path class="cls-9" d="M296,73c0,2.7,0,5.4,0,8.1v8.09l-.05,8.09q0,4-.12,8.09c-.11-2.7-.18-5.39-.22-8.09l-.06-8.09c0-2.7,0-5.4.11-8.1S295.75,75.65,296,73Z"/><path class="cls-9" d="M285.77,78.82a6.71,6.71,0,0,1,2.06-2,15.94,15.94,0,0,1,2.57-1.31,30.11,30.11,0,0,1,5.52-1.61h.1a24.17,24.17,0,0,1,6.32,2.91A14,14,0,0,1,305,79.11a7.39,7.39,0,0,1,1.62,3,7.51,7.51,0,0,0-1.8-2.89,13.44,13.44,0,0,0-2.67-2.13,22.93,22.93,0,0,0-3-1.6,32,32,0,0,0-3.21-1.21h.1a35.06,35.06,0,0,0-5.49,1.48A18.77,18.77,0,0,0,287.93,77,6.63,6.63,0,0,0,285.77,78.82Z"/><path class="cls-9" d="M284.55,81.42a7,7,0,0,1,2.45-2,28.54,28.54,0,0,1,2.88-1.3,51.34,51.34,0,0,1,6-1.89l0,0H296a14,14,0,0,1,3.83,1.52,18.19,18.19,0,0,1,3.33,2.38,19.17,19.17,0,0,1,2.69,3.08,21.75,21.75,0,0,1,2,3.55c-.34-.58-.65-1.19-1-1.76s-.74-1.13-1.17-1.65a19.13,19.13,0,0,0-2.75-2.94,17.45,17.45,0,0,0-3.29-2.29,15.28,15.28,0,0,0-3.7-1.47H296c-2,.49-4,1.1-6,1.77-1,.35-1.95.74-2.9,1.18A6.91,6.91,0,0,0,284.55,81.42Z"/><path class="cls-9" d="M284,83.79a6.93,6.93,0,0,1,2.58-2,28.91,28.91,0,0,1,3-1.3,56.74,56.74,0,0,1,6.28-1.89H296a12.75,12.75,0,0,1,3.64,1.59,18.31,18.31,0,0,1,3.1,2.44,21.4,21.4,0,0,1,2.49,3c.39.53.67,1.12,1,1.68s.57,1.18.86,1.76c-.33-.57-.63-1.14-1-1.7s-.69-1.1-1.09-1.61a20.92,20.92,0,0,0-2.56-2.92,18.79,18.79,0,0,0-3.06-2.34,14.1,14.1,0,0,0-3.5-1.53H296c-2.12.49-4.21,1.09-6.28,1.77-1,.34-2.05.73-3,1.17A7.1,7.1,0,0,0,284,83.79Z"/><path class="cls-9" d="M284,86.17a6.93,6.93,0,0,1,2.58-2,25.2,25.2,0,0,1,3-1.3,57.45,57.45,0,0,1,6.28-1.9h.1a12.28,12.28,0,0,1,3.51,1.7,19.59,19.59,0,0,1,3,2.5,22.63,22.63,0,0,1,2.37,3c.36.52.64,1.11,1,1.66s.55,1.15.83,1.73c-.31-.56-.61-1.12-.94-1.67s-.68-1.08-1.06-1.59a21.34,21.34,0,0,0-2.44-2.92A18.78,18.78,0,0,0,299.23,83a13.27,13.27,0,0,0-3.37-1.63h.1c-2.12.49-4.21,1.1-6.28,1.77-1,.35-2,.73-3,1.18A6.84,6.84,0,0,0,284,86.17Z"/><path class="cls-9" d="M284,89a6.93,6.93,0,0,1,2.58-2,25.2,25.2,0,0,1,3-1.3,55.28,55.28,0,0,1,6.28-1.89l.05,0,0,0a12,12,0,0,1,3.38,1.52,13.94,13.94,0,0,1,5,5.37,16.85,16.85,0,0,1,1.3,3.42,16.14,16.14,0,0,0-3.69-6.18,13.88,13.88,0,0,0-2.8-2.26,13,13,0,0,0-3.26-1.45h.1c-2.12.49-4.21,1.1-6.28,1.77a30.14,30.14,0,0,0-3,1.18A6.93,6.93,0,0,0,284,89Z"/><path class="cls-9" d="M284.5,92a17.43,17.43,0,0,1,2.42-2.11,18.43,18.43,0,0,1,2.79-1.62,21.5,21.5,0,0,1,3-1.16,21,21,0,0,1,3.17-.69h0a6.69,6.69,0,0,1,3.22,1.3,11.07,11.07,0,0,1,2.44,2.39A18.77,18.77,0,0,1,303.36,93c.23.52.46,1,.68,1.56l.57,1.59-.68-1.54-.78-1.5a18.11,18.11,0,0,0-1.86-2.77,11.27,11.27,0,0,0-2.4-2.28,6.71,6.71,0,0,0-3-1.21h0a23,23,0,0,0-6.09,1.72A19.4,19.4,0,0,0,287,90,17.51,17.51,0,0,0,284.5,92Z"/><path class="cls-9" d="M285.35,94.77A19.62,19.62,0,0,1,290.2,91a20.44,20.44,0,0,1,2.8-1.32,19.65,19.65,0,0,1,3-.91h0l.05,0a7.45,7.45,0,0,1,2.55,1.66,13.22,13.22,0,0,1,1.94,2.29,21.5,21.5,0,0,1,1.48,2.6,27.38,27.38,0,0,1,1.08,2.77l-.61-1.35-.67-1.32a21.31,21.31,0,0,0-1.57-2.49,14,14,0,0,0-1.93-2.2A7.88,7.88,0,0,0,296,89.19h.1a22.89,22.89,0,0,0-5.69,2.09,21.19,21.19,0,0,0-2.62,1.58A21.74,21.74,0,0,0,285.35,94.77Z"/><path class="cls-9" d="M286.2,98.05a27.61,27.61,0,0,1,4.33-3.82A25.93,25.93,0,0,1,293,92.68a22,22,0,0,1,2.63-1.27l.09,0,.09,0a11.39,11.39,0,0,1,2,1.59,12.44,12.44,0,0,1,1.7,1.93,12.66,12.66,0,0,1,2.1,4.64,16,16,0,0,0-1-2.32,12.71,12.71,0,0,0-1.37-2.11,13.92,13.92,0,0,0-3.68-3.34h.19a27.43,27.43,0,0,0-5,2.69A37.46,37.46,0,0,0,286.2,98.05Z"/><path class="cls-9" d="M288.32,100.39A45.75,45.75,0,0,1,291.65,97a27.42,27.42,0,0,1,3.73-2.94,1.38,1.38,0,0,1,1.34.21,4.27,4.27,0,0,1,.91.83,10.05,10.05,0,0,1,1.31,2,27.24,27.24,0,0,1,1.7,4.42,44.57,44.57,0,0,0-2-4.24,10.54,10.54,0,0,0-1.3-1.91,3.62,3.62,0,0,0-.83-.74,1.09,1.09,0,0,0-.89-.2,34.35,34.35,0,0,0-3.74,2.8C290.66,98.29,289.49,99.34,288.32,100.39Z"/><path class="cls-9" d="M290,102.27a24.84,24.84,0,0,1,2.34-2.89,16.57,16.57,0,0,1,1.35-1.3A9.41,9.41,0,0,1,295.26,97l-.08.06a.68.68,0,0,1,.64-.21,1.15,1.15,0,0,1,.51.24,3.93,3.93,0,0,1,.68.74,10.62,10.62,0,0,1,.91,1.69,25.21,25.21,0,0,1,1.23,3.58c-.27-.58-.48-1.17-.75-1.73s-.51-1.15-.79-1.7a12.67,12.67,0,0,0-.94-1.6,3,3,0,0,0-.6-.63c-.21-.18-.46-.19-.54-.11l0,0-.05,0a9.24,9.24,0,0,0-1.47,1c-.47.39-.92.8-1.37,1.22C291.7,100.46,290.86,101.36,290,102.27Z"/><path class="cls-9" d="M292.68,104.06a9.14,9.14,0,0,1,1.09-2.19,7,7,0,0,1,.77-1,5.89,5.89,0,0,1,.95-.83h0a.7.7,0,0,1,.85.12,2.13,2.13,0,0,1,.44.57,5.84,5.84,0,0,1,.49,1.23,13.1,13.1,0,0,1,.39,2.56c-.24-.83-.44-1.66-.73-2.45a6.9,6.9,0,0,0-.5-1.14c-.18-.34-.56-.63-.69-.53h0a5.54,5.54,0,0,0-.9.73c-.27.28-.53.58-.79.89A18.76,18.76,0,0,0,292.68,104.06Z"/><line class="cls-10" x1="295.67" y1="45.58" x2="295.67" y2="73.2"/><path class="cls-13" d="M304.54,105.23c.26,9.75-9.82,20-13.54,20-4.24,0-13.8-9.75-13.8-20,0-6.73,4.25-15.16,13.8-15.16C300,90.07,304.35,98.51,304.54,105.23Z"/><path class="cls-9" d="M291.31,89.8c-.05,2.94,0,5.87,0,8.8v8.8l0,8.81c0,2.93-.08,5.87-.14,8.8-.11-2.93-.19-5.87-.23-8.8s-.05-5.87-.07-8.81,0-5.87.12-8.8S291.09,92.73,291.31,89.8Z"/><path class="cls-9" d="M280.44,96.18A7.21,7.21,0,0,1,282.63,94a16.9,16.9,0,0,1,2.73-1.43,31.36,31.36,0,0,1,5.91-1.76h.06l.05,0A25.4,25.4,0,0,1,298.15,94,14.12,14.12,0,0,1,301,96.52a8.11,8.11,0,0,1,1.72,3.3,8.27,8.27,0,0,0-1.91-3.13,14.41,14.41,0,0,0-2.84-2.32,24.72,24.72,0,0,0-3.24-1.76,31.16,31.16,0,0,0-3.44-1.31h.1a37.13,37.13,0,0,0-5.86,1.62,19.8,19.8,0,0,0-2.76,1.29A7.11,7.11,0,0,0,280.44,96.18Z"/><path class="cls-9" d="M279.14,99a7.49,7.49,0,0,1,2.6-2.13,28.55,28.55,0,0,1,3.08-1.41,55.45,55.45,0,0,1,6.44-2.06l.05,0h.05a15,15,0,0,1,4.11,1.66A19.39,19.39,0,0,1,299,97.67a20.62,20.62,0,0,1,2.86,3.34,23.92,23.92,0,0,1,2.11,3.84c-.36-.63-.69-1.28-1.07-1.9s-.78-1.23-1.24-1.79A20.62,20.62,0,0,0,298.76,98a19.2,19.2,0,0,0-3.51-2.51,16.87,16.87,0,0,0-4-1.61h.1c-2.17.54-4.32,1.2-6.44,1.93-1.05.38-2.09.81-3.1,1.28A7.37,7.37,0,0,0,279.14,99Z"/><path class="cls-9" d="M278.58,101.59a7.45,7.45,0,0,1,2.74-2.16A29.63,29.63,0,0,1,284.54,98,58.53,58.53,0,0,1,291.26,96l.05,0h.05a13.47,13.47,0,0,1,3.9,1.75,19.37,19.37,0,0,1,3.32,2.66,23.45,23.45,0,0,1,2.65,3.31c.41.58.71,1.22,1.07,1.83s.6,1.27.91,1.9c-.35-.62-.67-1.24-1-1.84s-.73-1.19-1.16-1.74a23,23,0,0,0-2.72-3.18A19.75,19.75,0,0,0,295,98.09a14.47,14.47,0,0,0-3.75-1.68h.1c-2.27.54-4.51,1.2-6.71,1.94a31.31,31.31,0,0,0-3.25,1.28A7.39,7.39,0,0,0,278.58,101.59Z"/><path class="cls-9" d="M278.53,104.17a7.32,7.32,0,0,1,2.74-2.15,27.13,27.13,0,0,1,3.22-1.42,59.94,59.94,0,0,1,6.72-2.06l.06,0,.05,0a12.82,12.82,0,0,1,3.76,1.86,20.52,20.52,0,0,1,3.16,2.72,25.13,25.13,0,0,1,2.52,3.31c.39.58.69,1.21,1,1.8s.59,1.25.89,1.88c-.34-.61-.66-1.22-1-1.81s-.72-1.17-1.13-1.73a24,24,0,0,0-2.6-3.17,20.6,20.6,0,0,0-3.12-2.63A14.33,14.33,0,0,0,291.21,99h.11c-2.27.53-4.51,1.19-6.72,1.93a34.6,34.6,0,0,0-3.24,1.28A7.39,7.39,0,0,0,278.53,104.17Z"/><path class="cls-9" d="M278.53,107.24a7.39,7.39,0,0,1,2.74-2.17,30.76,30.76,0,0,1,3.22-1.41,60.59,60.59,0,0,1,6.72-2.06l.05,0,.06,0a12.49,12.49,0,0,1,3.63,1.67,15.29,15.29,0,0,1,3,2.57,15.85,15.85,0,0,1,2.25,3.27,18.33,18.33,0,0,1,1.38,3.7,17.75,17.75,0,0,0-3.92-6.7,15.37,15.37,0,0,0-3-2.46,13.81,13.81,0,0,0-3.5-1.6h.11c-2.27.53-4.51,1.2-6.71,1.93a33.79,33.79,0,0,0-3.25,1.29A7.28,7.28,0,0,0,278.53,107.24Z"/><path class="cls-9" d="M279.08,110.47a17.79,17.79,0,0,1,5.55-4,20.29,20.29,0,0,1,3.22-1.26,21.6,21.6,0,0,1,3.39-.76h0a5.17,5.17,0,0,1,1.84.49,8.87,8.87,0,0,1,1.61.93,12,12,0,0,1,2.61,2.62,19.67,19.67,0,0,1,1.89,3.14c.25.56.5,1.12.72,1.68l.61,1.72-.72-1.67-.83-1.62a19.55,19.55,0,0,0-2-3,11.85,11.85,0,0,0-2.56-2.49,6.9,6.9,0,0,0-3.2-1.32h0a24.1,24.1,0,0,0-6.52,1.88,20.08,20.08,0,0,0-3,1.62A18.33,18.33,0,0,0,279.08,110.47Z"/><path class="cls-9" d="M280,113.53a23.44,23.44,0,0,1,2.42-2.25,21.32,21.32,0,0,1,2.75-1.85,21,21,0,0,1,3-1.43,20.59,20.59,0,0,1,3.18-1h.11a8,8,0,0,1,2.74,1.83,14,14,0,0,1,2.07,2.49,23,23,0,0,1,1.57,2.82l.62,1.49.53,1.51-.65-1.46-.72-1.43a23.39,23.39,0,0,0-1.66-2.71,16.22,16.22,0,0,0-2.06-2.39,8.36,8.36,0,0,0-2.57-1.69h.11a24.49,24.49,0,0,0-6.09,2.28,23.49,23.49,0,0,0-2.79,1.72A22.84,22.84,0,0,0,280,113.53Z"/><path class="cls-9" d="M280.89,117.1a29.33,29.33,0,0,1,4.62-4.14,26.59,26.59,0,0,1,2.62-1.69,21.46,21.46,0,0,1,2.8-1.39l.11,0,.09.06a13,13,0,0,1,2.2,1.74,14,14,0,0,1,1.81,2.11,13.7,13.7,0,0,1,2.23,5,16.43,16.43,0,0,0-1.07-2.52,14.8,14.8,0,0,0-1.46-2.29,15,15,0,0,0-3.94-3.65h.2a29.54,29.54,0,0,0-5.38,2.93c-.85.58-1.69,1.18-2.49,1.83S281.66,116.41,280.89,117.1Z"/><path class="cls-9" d="M283.16,119.65c1.12-1.28,2.31-2.49,3.55-3.65a29.85,29.85,0,0,1,4-3.21,1.54,1.54,0,0,1,1.44.26,5,5,0,0,1,1,.92,10.9,10.9,0,0,1,1.38,2.19,28.31,28.31,0,0,1,1.8,4.77,49.17,49.17,0,0,0-2.14-4.59,11.92,11.92,0,0,0-1.38-2.08,4.59,4.59,0,0,0-.89-.82,1.26,1.26,0,0,0-.95-.24,36.23,36.23,0,0,0-4,3.06C285.66,117.36,284.41,118.5,283.16,119.65Z"/><path class="cls-9" d="M285,121.69a25.79,25.79,0,0,1,2.5-3.13,14.86,14.86,0,0,1,1.44-1.42,9.45,9.45,0,0,1,1.66-1.21l-.09.07a.71.71,0,0,1,.69-.24,1.54,1.54,0,0,1,.56.27,3.91,3.91,0,0,1,.71.82,10.08,10.08,0,0,1,1,1.83,26.78,26.78,0,0,1,1.3,3.88c-.54-1.26-1-2.52-1.64-3.72a12.9,12.9,0,0,0-1-1.74,3.32,3.32,0,0,0-.64-.7c-.23-.19-.5-.21-.59-.11l0,0-.05,0a9.63,9.63,0,0,0-1.58,1.11c-.51.43-1,.88-1.47,1.34C286.77,119.73,285.87,120.71,285,121.69Z"/><path class="cls-9" d="M287.82,123.64a9.8,9.8,0,0,1,1.15-2.37,7.68,7.68,0,0,1,.82-1.06,6.42,6.42,0,0,1,1-.91v0a.76.76,0,0,1,.92.13,2.26,2.26,0,0,1,.47.62,5.6,5.6,0,0,1,.51,1.34,13.75,13.75,0,0,1,.42,2.77c-.26-.89-.47-1.8-.78-2.66a7.16,7.16,0,0,0-.54-1.23,1.68,1.68,0,0,0-.38-.48.38.38,0,0,0-.35-.11h0a5.91,5.91,0,0,0-1,.8c-.3.31-.57.63-.84,1A19,19,0,0,0,287.82,123.64Z"/><line class="cls-12" x1="290.87" y1="46.09" x2="291" y2="90.07"/><path class="cls-14" d="M294.6,85.16c.25,9-9.2,18.41-12.68,18.41-4,0-12.92-9-12.92-18.41,0-6.19,4-13.94,12.92-13.94C290.37,71.22,294.43,79,294.6,85.16Z"/><path class="cls-9" d="M282.22,71c-.05,2.7,0,5.4,0,8.09v8.09l-.05,8.09q0,4-.13,8.1-.15-4.05-.21-8.09l-.06-8.1c0-2.7,0-5.39.11-8.09S282,73.66,282.22,71Z"/><path class="cls-9" d="M272,76.83a6.68,6.68,0,0,1,2.06-2,15.54,15.54,0,0,1,2.57-1.31,29.38,29.38,0,0,1,5.52-1.62h.09a24.23,24.23,0,0,1,6.33,2.91,13.31,13.31,0,0,1,2.63,2.28,7.41,7.41,0,0,1,1.63,3.05,7.51,7.51,0,0,0-1.8-2.89,13.44,13.44,0,0,0-2.67-2.13,24.25,24.25,0,0,0-3-1.61,31.87,31.87,0,0,0-3.21-1.2h.09a35,35,0,0,0-5.48,1.49A17.65,17.65,0,0,0,274.19,75,6.62,6.62,0,0,0,272,76.83Z"/><path class="cls-9" d="M270.81,79.44a7.14,7.14,0,0,1,2.45-2,27.5,27.5,0,0,1,2.88-1.29,52.72,52.72,0,0,1,6-1.9h.09a14,14,0,0,1,3.83,1.51,18.73,18.73,0,0,1,3.33,2.39,19.17,19.17,0,0,1,2.69,3.08,22.52,22.52,0,0,1,2,3.55c-.34-.59-.65-1.19-1-1.76s-.74-1.13-1.17-1.65a18.68,18.68,0,0,0-2.75-2.94,18.32,18.32,0,0,0-3.29-2.3,15.41,15.41,0,0,0-3.7-1.46h.09c-2,.49-4,1.1-6,1.77q-1.49.52-2.91,1.17A7,7,0,0,0,270.81,79.44Z"/><path class="cls-9" d="M270.29,81.81a6.93,6.93,0,0,1,2.58-2,25.77,25.77,0,0,1,3-1.3,57.56,57.56,0,0,1,6.29-1.89l.05,0,0,0a12.3,12.3,0,0,1,3.63,1.59A18.84,18.84,0,0,1,289,80.65a21.4,21.4,0,0,1,2.49,3c.39.53.67,1.13,1,1.69s.57,1.17.86,1.76c-.33-.57-.63-1.15-1-1.7s-.69-1.1-1.1-1.61a20.22,20.22,0,0,0-2.55-2.92,18.24,18.24,0,0,0-3.06-2.34A13.69,13.69,0,0,0,282.17,77h.1c-2.12.49-4.22,1.1-6.28,1.77-1,.35-2.05.74-3,1.18A6.81,6.81,0,0,0,270.29,81.81Z"/><path class="cls-9" d="M270.24,84.18a7.14,7.14,0,0,1,2.58-2,28.91,28.91,0,0,1,3-1.3A56.74,56.74,0,0,1,282.12,79h.1a12.22,12.22,0,0,1,3.5,1.7,18.14,18.14,0,0,1,3,2.5,21.6,21.6,0,0,1,2.37,3c.37.53.65,1.11,1,1.67s.56,1.15.84,1.73c-.32-.56-.62-1.13-.94-1.67s-.68-1.09-1.06-1.6a23.45,23.45,0,0,0-2.44-2.92,18.72,18.72,0,0,0-2.93-2.4,13.27,13.27,0,0,0-3.37-1.63h.1c-2.12.49-4.21,1.09-6.28,1.77a30.31,30.31,0,0,0-3,1.18A7,7,0,0,0,270.24,84.18Z"/><path class="cls-9" d="M270.24,87a7.05,7.05,0,0,1,2.58-2,29.68,29.68,0,0,1,3-1.3,59.85,59.85,0,0,1,6.29-1.89h.1a12.15,12.15,0,0,1,3.38,1.53,13.93,13.93,0,0,1,2.84,2.35,14.24,14.24,0,0,1,2.12,3,16.52,16.52,0,0,1,1.31,3.42,16.21,16.21,0,0,0-3.69-6.18,14.47,14.47,0,0,0-2.8-2.25,13,13,0,0,0-3.26-1.46h.1c-2.12.49-4.21,1.1-6.28,1.78a31.62,31.62,0,0,0-3,1.17A6.84,6.84,0,0,0,270.24,87Z"/><path class="cls-9" d="M270.76,90a16.79,16.79,0,0,1,2.42-2.11A18.43,18.43,0,0,1,276,86.24a20.33,20.33,0,0,1,3-1.16,21,21,0,0,1,3.17-.69h0a6.58,6.58,0,0,1,3.22,1.29,11.34,11.34,0,0,1,2.44,2.4A19.57,19.57,0,0,1,289.62,91c.22.52.46,1,.67,1.56l.58,1.58-.68-1.54-.78-1.49a18,18,0,0,0-1.87-2.78A11.23,11.23,0,0,0,285.15,86a6.81,6.81,0,0,0-3-1.2h0a23,23,0,0,0-6.09,1.71,19.93,19.93,0,0,0-2.81,1.5A16.82,16.82,0,0,0,270.76,90Z"/><path class="cls-9" d="M271.61,92.78A19.4,19.4,0,0,1,276.46,89a19.9,19.9,0,0,1,2.8-1.32,19.65,19.65,0,0,1,3-.91h.09a7.55,7.55,0,0,1,2.56,1.66,13.29,13.29,0,0,1,1.94,2.3,22.17,22.17,0,0,1,1.48,2.59,27.55,27.55,0,0,1,1.08,2.78l-.61-1.36-.68-1.31a21.36,21.36,0,0,0-1.56-2.5,14.91,14.91,0,0,0-1.93-2.19,7.73,7.73,0,0,0-2.39-1.55h.1a23.11,23.11,0,0,0-5.7,2.09A22.29,22.29,0,0,0,274,90.87,24.39,24.39,0,0,0,271.61,92.78Z"/><path class="cls-9" d="M272.45,96.07a27.68,27.68,0,0,1,4.34-3.82,24.05,24.05,0,0,1,2.45-1.55,22.67,22.67,0,0,1,2.62-1.28l.1,0,.09.06a12.14,12.14,0,0,1,2,1.59,13,13,0,0,1,1.7,1.93,12.58,12.58,0,0,1,2.1,4.64,15.49,15.49,0,0,0-1-2.32,12.71,12.71,0,0,0-1.37-2.11,14,14,0,0,0-3.68-3.35l.18,0a28.26,28.26,0,0,0-5,2.68A37.64,37.64,0,0,0,272.45,96.07Z"/><path class="cls-9" d="M274.58,98.41a45.75,45.75,0,0,1,3.33-3.35,26.66,26.66,0,0,1,3.73-2.94,1.38,1.38,0,0,1,1.34.2,4.06,4.06,0,0,1,.91.84,10.51,10.51,0,0,1,1.31,2,26.3,26.3,0,0,1,1.69,4.42,43.42,43.42,0,0,0-2-4.25,11.07,11.07,0,0,0-1.3-1.91,4.12,4.12,0,0,0-.83-.74,1.17,1.17,0,0,0-.89-.2,33.51,33.51,0,0,0-3.74,2.81C276.92,96.31,275.75,97.36,274.58,98.41Z"/><path class="cls-9" d="M276.27,100.29a24.11,24.11,0,0,1,2.35-2.89A15.1,15.1,0,0,1,280,96.1,8.49,8.49,0,0,1,281.52,95l-.08.06a.67.67,0,0,1,.63-.22,1.15,1.15,0,0,1,.52.25,3.65,3.65,0,0,1,.68.74,10.53,10.53,0,0,1,.91,1.68,24.77,24.77,0,0,1,1.22,3.58c-.26-.57-.47-1.16-.75-1.73s-.5-1.14-.79-1.7a13.22,13.22,0,0,0-.93-1.59,2.78,2.78,0,0,0-.6-.63c-.22-.18-.47-.2-.55-.11l0,0,0,0a8.26,8.26,0,0,0-1.47,1c-.47.39-.93.8-1.38,1.22C278,98.48,277.12,99.38,276.27,100.29Z"/><path class="cls-9" d="M278.94,102.08A9.49,9.49,0,0,1,280,99.89a6.63,6.63,0,0,1,.78-1,5.89,5.89,0,0,1,.95-.83h0a.72.72,0,0,1,.86.12,2.26,2.26,0,0,1,.44.56,5.22,5.22,0,0,1,.48,1.24,12.4,12.4,0,0,1,.4,2.56c-.24-.83-.44-1.66-.73-2.46a7.21,7.21,0,0,0-.51-1.13c-.17-.34-.55-.63-.68-.53h0a5.94,5.94,0,0,0-.89.73c-.28.28-.53.58-.79.88A17.08,17.08,0,0,0,278.94,102.08Z"/><line class="cls-10" x1="281.92" y1="43.6" x2="281.92" y2="71.22"/><path class="cls-13" d="M335.3,104.26c.26,9.74-9.82,20-13.54,20-4.24,0-13.8-9.75-13.8-20,0-6.73,4.25-15.16,13.8-15.16C330.79,89.1,335.11,97.53,335.3,104.26Z"/><path class="cls-9" d="M322.08,88.83c-.06,2.93,0,5.86,0,8.8v8.8l-.05,8.8c0,2.94-.07,5.87-.14,8.81-.11-2.94-.19-5.87-.23-8.81s-.05-5.87-.06-8.8,0-5.87.11-8.81S321.85,91.75,322.08,88.83Z"/><path class="cls-9" d="M311.2,95.2a7.21,7.21,0,0,1,2.19-2.14,16.54,16.54,0,0,1,2.74-1.42A30.93,30.93,0,0,1,322,89.88h.1a25.4,25.4,0,0,1,6.77,3.18,14.5,14.5,0,0,1,2.81,2.49,8,8,0,0,1,1.72,3.29,8,8,0,0,0-1.91-3.12,14.06,14.06,0,0,0-2.84-2.32,23.6,23.6,0,0,0-3.24-1.76A32.52,32.52,0,0,0,322,90.32h.11A36.48,36.48,0,0,0,316.25,92a18.56,18.56,0,0,0-2.75,1.28A7.27,7.27,0,0,0,311.2,95.2Z"/><path class="cls-9" d="M309.9,98a7.46,7.46,0,0,1,2.6-2.12,28.62,28.62,0,0,1,3.08-1.42A56.07,56.07,0,0,1,322,92.43h.1a14.6,14.6,0,0,1,4.11,1.66,19.34,19.34,0,0,1,3.56,2.6,20.27,20.27,0,0,1,2.86,3.35,24.78,24.78,0,0,1,2.12,3.84c-.37-.64-.7-1.29-1.08-1.9s-.78-1.23-1.24-1.79a20.69,20.69,0,0,0-2.93-3.2A19.69,19.69,0,0,0,326,94.48a16.42,16.42,0,0,0-4-1.6h.1c-2.17.53-4.32,1.19-6.44,1.93-1.05.38-2.08.8-3.1,1.28A7.34,7.34,0,0,0,309.9,98Z"/><path class="cls-9" d="M309.34,100.62a7.45,7.45,0,0,1,2.74-2.16A29.7,29.7,0,0,1,315.3,97,60.59,60.59,0,0,1,322,95h.1A13.38,13.38,0,0,1,326,96.73a20.15,20.15,0,0,1,3.31,2.65A24.12,24.12,0,0,1,332,102.7c.41.57.71,1.22,1.07,1.82s.61,1.27.91,1.9c-.34-.61-.67-1.23-1-1.83s-.73-1.2-1.16-1.75a22.86,22.86,0,0,0-2.72-3.17,19.74,19.74,0,0,0-3.27-2.56A14.69,14.69,0,0,0,322,95.43h.1c-2.26.53-4.51,1.19-6.71,1.93a33.73,33.73,0,0,0-3.25,1.28A7.41,7.41,0,0,0,309.34,100.62Z"/><path class="cls-9" d="M309.29,103.2A7.45,7.45,0,0,1,312,101a29.7,29.7,0,0,1,3.22-1.42A62.79,62.79,0,0,1,322,97.56h.11a13.07,13.07,0,0,1,3.76,1.86,20.58,20.58,0,0,1,3.16,2.73,23.12,23.12,0,0,1,2.52,3.31c.39.57.69,1.2,1,1.8s.59,1.25.89,1.87c-.34-.6-.66-1.21-1-1.81s-.72-1.17-1.13-1.72a24,24,0,0,0-2.6-3.18,20.53,20.53,0,0,0-3.12-2.62A14.36,14.36,0,0,0,322,98h.11c-2.27.54-4.51,1.2-6.71,1.93a33.79,33.79,0,0,0-3.25,1.29A7.28,7.28,0,0,0,309.29,103.2Z"/><path class="cls-9" d="M309.29,106.26A7.45,7.45,0,0,1,312,104.1a28.86,28.86,0,0,1,3.22-1.42,60.59,60.59,0,0,1,6.72-2.06h.11a13,13,0,0,1,3.63,1.67,15.33,15.33,0,0,1,3,2.58,15.58,15.58,0,0,1,2.25,3.27,18.33,18.33,0,0,1,1.38,3.7,17.66,17.66,0,0,0-3.92-6.71,15.37,15.37,0,0,0-3-2.46,13.63,13.63,0,0,0-3.5-1.59h.11c-2.27.53-4.51,1.19-6.71,1.93a31.31,31.31,0,0,0-3.25,1.28A7.39,7.39,0,0,0,309.29,106.26Z"/><path class="cls-9" d="M309.84,109.49a18.55,18.55,0,0,1,2.57-2.28,19.49,19.49,0,0,1,3-1.77,21.29,21.29,0,0,1,3.22-1.26,22.79,22.79,0,0,1,3.39-.76h0a5.39,5.39,0,0,1,1.84.49,8.92,8.92,0,0,1,1.61.94,12,12,0,0,1,2.61,2.61,21,21,0,0,1,1.9,3.14c.24.56.49,1.12.71,1.68l.62,1.72-.73-1.67-.82-1.62a20.91,20.91,0,0,0-2-3,12.09,12.09,0,0,0-2.56-2.49,7,7,0,0,0-3.2-1.32h0a23.83,23.83,0,0,0-6.52,1.87,20.13,20.13,0,0,0-3,1.63A17.62,17.62,0,0,0,309.84,109.49Z"/><path class="cls-9" d="M310.75,112.55a21.31,21.31,0,0,1,2.41-2.24,20.35,20.35,0,0,1,2.75-1.85,21.07,21.07,0,0,1,3-1.44,21.74,21.74,0,0,1,3.18-1h.06l.05,0a7.87,7.87,0,0,1,2.74,1.82,14.11,14.11,0,0,1,2.07,2.5,22.87,22.87,0,0,1,1.58,2.82l.61,1.48.53,1.52-.64-1.47-.72-1.42a22.64,22.64,0,0,0-1.67-2.71,15.73,15.73,0,0,0-2.06-2.39,8.22,8.22,0,0,0-2.57-1.7h.11a24.1,24.1,0,0,0-6.09,2.28,21.37,21.37,0,0,0-2.78,1.71A22,22,0,0,0,310.75,112.55Z"/><path class="cls-9" d="M311.65,116.13a29.4,29.4,0,0,1,4.62-4.15,26.59,26.59,0,0,1,2.62-1.69,22.93,22.93,0,0,1,2.81-1.39l.1,0,.1.06a12.73,12.73,0,0,1,2.19,1.73,13.92,13.92,0,0,1,1.81,2.11,13.7,13.7,0,0,1,2.23,5,15.91,15.91,0,0,0-1.07-2.51A13.91,13.91,0,0,0,325.6,113a14.9,14.9,0,0,0-3.94-3.66l.2,0a33.64,33.64,0,0,0-7.86,4.76C313.18,114.74,312.42,115.43,311.65,116.13Z"/><path class="cls-9" d="M313.92,118.68c1.12-1.28,2.31-2.5,3.55-3.66a29.78,29.78,0,0,1,4-3.2,1.49,1.49,0,0,1,1.44.26,5,5,0,0,1,1,.91,11.19,11.19,0,0,1,1.38,2.19,28.75,28.75,0,0,1,1.8,4.78,49.35,49.35,0,0,0-2.14-4.6,12.31,12.31,0,0,0-1.38-2.08,4.78,4.78,0,0,0-.88-.81,1.25,1.25,0,0,0-1-.24,36.23,36.23,0,0,0-4,3.06C316.42,116.38,315.17,117.53,313.92,118.68Z"/><path class="cls-9" d="M315.73,120.72a26.09,26.09,0,0,1,2.5-3.14,14.76,14.76,0,0,1,1.44-1.41,9.49,9.49,0,0,1,1.66-1.22l-.09.07a.68.68,0,0,1,.69-.23,1.22,1.22,0,0,1,.56.27,3.91,3.91,0,0,1,.72.81,11.07,11.07,0,0,1,1,1.83,26.78,26.78,0,0,1,1.3,3.88c-.53-1.25-1-2.51-1.64-3.72a12.78,12.78,0,0,0-1-1.73,3.09,3.09,0,0,0-.64-.7c-.23-.2-.5-.22-.58-.12l0,0-.05,0A9.13,9.13,0,0,0,320,116.5c-.5.42-1,.87-1.47,1.33C317.53,118.75,316.63,119.73,315.73,120.72Z"/><path class="cls-9" d="M318.58,122.67a9.69,9.69,0,0,1,1.15-2.38,8.24,8.24,0,0,1,.82-1.05,6,6,0,0,1,1-.91h0a.74.74,0,0,1,.92.14,2.22,2.22,0,0,1,.47.61,5.77,5.77,0,0,1,.51,1.34,14.74,14.74,0,0,1,.43,2.78c-.26-.9-.48-1.8-.79-2.66a7.23,7.23,0,0,0-.53-1.24,1.84,1.84,0,0,0-.39-.47.38.38,0,0,0-.34-.12h0a6,6,0,0,0-1,.81c-.29.3-.57.63-.84,1A19,19,0,0,0,318.58,122.67Z"/><line class="cls-12" x1="322.19" y1="43.1" x2="322.19" y2="90.38"/><path class="cls-11" d="M327.9,84.73c.29,9.75-10.89,20-15,20-4.71,0-15.31-9.75-15.31-20,0-6.73,4.71-15.16,15.31-15.16C322.89,69.57,327.69,78,327.9,84.73Z"/><path class="cls-13" d="M313.23,69.3c-.06,2.94,0,5.87,0,8.8v8.8l-.06,8.81c0,2.93-.08,5.86-.15,8.8-.12-2.93-.21-5.87-.25-8.8s-.05-5.87-.07-8.81,0-5.87.13-8.8S313,72.23,313.23,69.3Z"/><path class="cls-13" d="M301.17,75.68a7.67,7.67,0,0,1,2.51-2.19,17.89,17.89,0,0,1,3-1.42,36.15,36.15,0,0,1,6.47-1.74h.11a29.1,29.1,0,0,1,3.78,1.31,26.63,26.63,0,0,1,3.58,1.8,15.68,15.68,0,0,1,3.15,2.47,8.37,8.37,0,0,1,2,3.41,8.5,8.5,0,0,0-2.22-3.22,15.67,15.67,0,0,0-3.18-2.29,32.46,32.46,0,0,0-7.27-3h.1a44.27,44.27,0,0,0-6.42,1.59,20.54,20.54,0,0,0-3.06,1.27A7.64,7.64,0,0,0,301.17,75.68Z"/><path class="cls-13" d="M299.73,78.51a8.38,8.38,0,0,1,2.95-2.17,36,36,0,0,1,3.41-1.41,66.81,66.81,0,0,1,7.09-2.05h.1a17.54,17.54,0,0,1,4.42,1.59A21.74,21.74,0,0,1,321.63,77a21,21,0,0,1,3.24,3.36,24.09,24.09,0,0,1,2.44,4,25.11,25.11,0,0,0-2.65-3.78,20.87,20.87,0,0,0-3.31-3.2,20.55,20.55,0,0,0-3.87-2.45,19.17,19.17,0,0,0-4.29-1.55h.1c-2.39.53-4.75,1.19-7.08,1.91-1.16.37-2.31.79-3.43,1.27A8.33,8.33,0,0,0,299.73,78.51Z"/><path class="cls-13" d="M299.11,81.09a8.72,8.72,0,0,1,3.11-2.2,35.29,35.29,0,0,1,3.57-1.41,72.86,72.86,0,0,1,7.39-2h.1a15.52,15.52,0,0,1,4.2,1.68,20.16,20.16,0,0,1,3.66,2.62,22,22,0,0,1,3,3.33c.47.58.82,1.25,1.23,1.87s.7,1.31,1.05,2c-.39-.63-.75-1.28-1.17-1.9s-.83-1.22-1.33-1.77A22.51,22.51,0,0,0,320.86,80a21.4,21.4,0,0,0-3.62-2.5,17,17,0,0,0-4.05-1.61h.1c-2.49.52-5,1.19-7.38,1.91-1.22.37-2.42.78-3.6,1.26A8.64,8.64,0,0,0,299.11,81.09Z"/><path class="cls-13" d="M299.05,83.67a8.81,8.81,0,0,1,3.11-2.2,35.29,35.29,0,0,1,3.57-1.41,72.86,72.86,0,0,1,7.39-2h.11a14.91,14.91,0,0,1,4,1.8,21.22,21.22,0,0,1,3.5,2.68,24.53,24.53,0,0,1,2.85,3.34c.45.58.79,1.23,1.18,1.84s.68,1.29,1,1.93c-.39-.62-.74-1.25-1.14-1.85s-.81-1.21-1.28-1.76a24,24,0,0,0-2.93-3.19A22.16,22.16,0,0,0,317,80.23a15.79,15.79,0,0,0-3.91-1.72h.11c-2.48.53-5,1.19-7.38,1.91-1.21.38-2.42.78-3.59,1.27A8.61,8.61,0,0,0,299.05,83.67Z"/><path class="cls-13" d="M299.05,86.74a8.71,8.71,0,0,1,3.11-2.21,35.29,35.29,0,0,1,3.57-1.41,75.56,75.56,0,0,1,7.39-2.05h.11a15.26,15.26,0,0,1,3.89,1.6,15.9,15.9,0,0,1,3.35,2.52,15.5,15.5,0,0,1,2.57,3.3,17.83,17.83,0,0,1,1.62,3.82,17.87,17.87,0,0,0-1.85-3.68,14.92,14.92,0,0,0-2.63-3.13,16.56,16.56,0,0,0-3.29-2.41,16.07,16.07,0,0,0-3.77-1.51h.11c-2.48.52-5,1.18-7.38,1.91-1.21.37-2.42.77-3.59,1.26A8.63,8.63,0,0,0,299.05,86.74Z"/><path class="cls-13" d="M299.66,90a20.72,20.72,0,0,1,2.92-2.35,23.43,23.43,0,0,1,3.32-1.76,24.88,24.88,0,0,1,3.55-1.24,27.25,27.25,0,0,1,3.7-.75h0a8.4,8.4,0,0,1,3.69,1.35,12.71,12.71,0,0,1,2.9,2.57A20.28,20.28,0,0,1,321.94,91l.83,1.73.71,1.78-.83-1.73-.94-1.65a19.28,19.28,0,0,0-2.25-3,13.54,13.54,0,0,0-2.85-2.44,8.16,8.16,0,0,0-3.44-1.23h0a28.83,28.83,0,0,0-7.15,1.84,23.84,23.84,0,0,0-3.34,1.61A19.87,19.87,0,0,0,299.66,90Z"/><path class="cls-13" d="M300.67,93a24.15,24.15,0,0,1,2.73-2.31,25.26,25.26,0,0,1,3.07-1.85,25.83,25.83,0,0,1,3.3-1.42,24.25,24.25,0,0,1,3.48-1h.06l.05,0a9.1,9.1,0,0,1,2.94,1.76,13.85,13.85,0,0,1,2.3,2.48,21,21,0,0,1,1.79,2.85l.71,1.52.62,1.55-.73-1.5-.82-1.45A21.64,21.64,0,0,0,318.29,91,16.49,16.49,0,0,0,316,88.6,8.87,8.87,0,0,0,313.23,87h.1a29.07,29.07,0,0,0-6.68,2.26,28.13,28.13,0,0,0-6,3.79Z"/><path class="cls-13" d="M301.67,96.6a31.37,31.37,0,0,1,8.08-5.88,22.2,22.2,0,0,1,3.07-1.36l.11,0,.09.05a14.94,14.94,0,0,1,2.37,1.69,14.11,14.11,0,0,1,2,2.09A13.22,13.22,0,0,1,319,95.58a13.6,13.6,0,0,1,1,2.69,15.17,15.17,0,0,0-1.21-2.58,14.34,14.34,0,0,0-1.64-2.3,16.16,16.16,0,0,0-4.31-3.56H313a35.22,35.22,0,0,0-5.91,2.91A44.94,44.94,0,0,0,301.67,96.6Z"/><path class="cls-13" d="M304.19,99.15a48.23,48.23,0,0,1,3.91-3.65,35.08,35.08,0,0,1,4.35-3.17,1.62,1.62,0,0,1,1.52.1,4.52,4.52,0,0,1,1.11.86,10.12,10.12,0,0,1,1.6,2.21,27.32,27.32,0,0,1,2.09,4.93,43.1,43.1,0,0,0-2.44-4.73,12.44,12.44,0,0,0-1.58-2.07,3.79,3.79,0,0,0-1-.75,1.1,1.1,0,0,0-1-.09,41.34,41.34,0,0,0-4.36,3C306.94,96.89,305.57,98,304.19,99.15Z"/><path class="cls-13" d="M306.2,101.19A39.9,39.9,0,0,1,309,98.06c.51-.5,1-1,1.58-1.43a10.48,10.48,0,0,1,1.79-1.23h0l-.1.07a1,1,0,0,1,1.29,0,3.7,3.7,0,0,1,.79.79,11.83,11.83,0,0,1,1.07,1.85,36.69,36.69,0,0,1,1.55,3.92,35.61,35.61,0,0,0-1.78-3.8,10.74,10.74,0,0,0-1.15-1.72,3.42,3.42,0,0,0-.72-.66c-.26-.17-.57-.17-.65-.07l0,0-.06,0h0a10.74,10.74,0,0,0-1.75,1.06c-.56.41-1.11.85-1.64,1.31A39.88,39.88,0,0,0,306.2,101.19Z"/><path class="cls-13" d="M309.35,103.14a9.63,9.63,0,0,1,1.31-2.42,8.35,8.35,0,0,1,.91-1.06,6.13,6.13,0,0,1,1.12-.88h0a.88.88,0,0,1,1,.1,2.18,2.18,0,0,1,.54.6,6,6,0,0,1,.58,1.36,13.75,13.75,0,0,1,.49,2.83c-.29-.91-.53-1.83-.88-2.7a6,6,0,0,0-.61-1.21,1.68,1.68,0,0,0-.41-.46.48.48,0,0,0-.38-.09h0a6.89,6.89,0,0,0-1,.79,12.16,12.16,0,0,0-1,1A19.67,19.67,0,0,0,309.35,103.14Z"/><line class="cls-15" x1="313.24" y1="44.1" x2="313.36" y2="99.23"/></g></g></svg>