<svg xmlns="http://www.w3.org/2000/svg" viewBox="0 0 269 268"><defs><style>.cls-1,.cls-67,.cls-7{fill:none;stroke-miterlimit:10;}.cls-1{stroke:#434c57;}.cls-2{fill:#e2c698;}.cls-3{fill:#edefee;}.cls-4{fill:#cc9e97;}.cls-5{fill:#8f9b8a;}.cls-6{fill:#8d9a8d;}.cls-7{stroke:#607486;}.cls-8{font-size:11px;fill:#434c57;font-family:Biko;}.cls-9{font-size:10px;}.cls-10{letter-spacing:-0.04em;}.cls-11{letter-spacing:0.03em;}.cls-12{letter-spacing:-0.02em;}.cls-13{letter-spacing:0.01em;}.cls-14{letter-spacing:0.02em;}.cls-15{letter-spacing:0.01em;}.cls-16{letter-spacing:0em;}.cls-17{letter-spacing:0.03em;}.cls-18{letter-spacing:-0.06em;}.cls-19{letter-spacing:-0.06em;}.cls-20{letter-spacing:0.03em;}.cls-21{letter-spacing:-0.03em;}.cls-22{letter-spacing:-0.01em;}.cls-23{letter-spacing:-0.01em;}.cls-24{letter-spacing:0.01em;}.cls-25{letter-spacing:-0.02em;}.cls-26{letter-spacing:0.01em;}.cls-27{letter-spacing:-0.01em;}.cls-28{letter-spacing:0.03em;}.cls-29{letter-spacing:-0.05em;}.cls-30{letter-spacing:0.03em;}.cls-31{letter-spacing:-0.03em;}.cls-32{letter-spacing:-0.08em;}.cls-33{letter-spacing:-0.01em;}.cls-34{letter-spacing:0em;}.cls-35{letter-spacing:0.01em;}.cls-36{letter-spacing:-0.01em;}.cls-37{letter-spacing:-0.01em;}.cls-38{letter-spacing:0.02em;}.cls-39{letter-spacing:-0.01em;}.cls-40{letter-spacing:-0.02em;}.cls-41{letter-spacing:-0.06em;}.cls-42{letter-spacing:0.02em;}.cls-43{letter-spacing:0.02em;}.cls-44{letter-spacing:0.01em;}.cls-45{letter-spacing:0.01em;}.cls-46{letter-spacing:0em;}.cls-47{letter-spacing:0.01em;}.cls-48{letter-spacing:-0.02em;}.cls-49{letter-spacing:-0.01em;}.cls-50{letter-spacing:-0.01em;}.cls-51{letter-spacing:-0.02em;}.cls-52{letter-spacing:-0.06em;}.cls-53{letter-spacing:0.02em;}.cls-54{letter-spacing:-0.01em;}.cls-55{letter-spacing:0.02em;}.cls-56{letter-spacing:-0.02em;}.cls-57{letter-spacing:0em;}.cls-58{letter-spacing:-0.01em;}.cls-59{letter-spacing:-0.02em;}.cls-60{letter-spacing:0.01em;}.cls-61{letter-spacing:-0.01em;}.cls-62{letter-spacing:0.03em;}.cls-63{letter-spacing:-0.01em;}.cls-64{letter-spacing:-0.01em;}.cls-65{letter-spacing:0em;}.cls-66{fill:#020100;}.cls-67{stroke:#020100;stroke-width:1.3px;}.cls-68{fill:#fff;}</style></defs><title>Recurso 2</title><g id="Capa_2" data-name="Capa 2"><g id="Capa_2-2" data-name="Capa 2"><polygon class="cls-1" points="80.5 0.5 191.5 0.5 268.5 81.5 268.5 190.5 189.5 267.5 77.5 267.5 0.5 187.5 0.5 77.5 80.5 0.5"/><polygon class="cls-1" points="87.75 18.5 183.84 18.5 250.5 88.88 250.5 183.59 182.11 250.5 85.16 250.5 18.5 180.99 18.5 85.41 87.75 18.5"/><polygon class="cls-1" points="94.6 35.5 176.61 35.5 233.5 95.87 233.5 177.11 175.13 234.5 92.39 234.5 35.5 174.88 35.5 92.89 94.6 35.5"/><polygon class="cls-1" points="101.45 50.5 169.38 50.5 216.5 100.86 216.5 168.63 168.16 216.5 99.62 216.5 52.5 166.76 52.5 98.37 101.45 50.5"/><polygon class="cls-1" points="108.01 67.5 161.44 67.5 198.5 107.24 198.5 160.72 160.47 198.5 106.56 198.5 69.5 159.25 69.5 105.28 108.01 67.5"/><polygon class="cls-1" points="115.56 88.5 154.49 88.5 181.5 116.41 181.5 153.97 153.79 180.5 114.51 180.5 87.5 152.93 87.5 115.03 115.56 88.5"/><line class="cls-1" x1="80.5" y1="0.5" x2="123.5" y2="108.5"/><line class="cls-1" x1="191.5" y1="0.5" x2="146.5" y2="108.5"/><line class="cls-1" x1="268.5" y1="81.5" x2="161.5" y2="123.5"/><line class="cls-1" x1="268.5" y1="190.5" x2="163.5" y2="146.5"/><line class="cls-1" x1="189.5" y1="267.5" x2="146.5" y2="161.5"/><line class="cls-1" x1="77.5" y1="267.5" x2="123.5" y2="159.5"/><line class="cls-1" x1="0.5" y1="187.5" x2="109.5" y2="144.5"/><line class="cls-1" x1="0.5" y1="77.5" x2="109.5" y2="123.5"/><line class="cls-1" x1="127.5" y1="93.5" x2="143.5" y2="93.5"/><line class="cls-1" x1="127.5" y1="96.5" x2="134.5" y2="96.5"/><line class="cls-1" x1="143.5" y1="99.5" x2="127.5" y2="99.5"/><line class="cls-1" x1="143.5" y1="96.5" x2="136.5" y2="96.5"/><line class="cls-1" x1="158.94" y1="100.73" x2="163.9" y2="105.67"/><line class="cls-1" x1="170.29" y1="112.01" x2="165.32" y2="107.08"/><line class="cls-1" x1="156.82" y1="102.86" x2="161.79" y2="107.8"/><line class="cls-1" x1="168.18" y1="114.14" x2="163.21" y2="109.2"/><line class="cls-1" x1="154.71" y1="104.99" x2="159.68" y2="109.92"/><line class="cls-1" x1="166.06" y1="116.27" x2="161.1" y2="111.33"/><line class="cls-1" x1="106.04" y1="152.52" x2="111.01" y2="157.46"/><line class="cls-1" x1="117.4" y1="163.8" x2="112.43" y2="158.86"/><line class="cls-1" x1="102.93" y1="154.65" x2="107.9" y2="159.58"/><line class="cls-1" x1="114.29" y1="165.93" x2="109.32" y2="160.99"/><line class="cls-1" x1="102.6" y1="113.33" x2="114.5" y2="102.63"/><line class="cls-1" x1="104.61" y1="115.56" x2="109.82" y2="110.88"/><line class="cls-1" x1="112.6" y1="100.02" x2="100.71" y2="110.72"/><line class="cls-1" x1="116.47" y1="104.75" x2="111.32" y2="109.5"/><line class="cls-1" x1="176.5" y1="142.5" x2="176.5" y2="126.5"/><line class="cls-1" x1="170.5" y1="142.5" x2="170.5" y2="135.5"/><line class="cls-1" x1="173.5" y1="126.5" x2="173.5" y2="142.5"/><line class="cls-1" x1="170.5" y1="126.5" x2="170.5" y2="133.5"/><line class="cls-1" x1="99.5" y1="142.5" x2="99.5" y2="126.5"/><line class="cls-1" x1="93.5" y1="126.5" x2="93.5" y2="133.5"/><line class="cls-1" x1="93.5" y1="142.5" x2="93.5" y2="135.5"/><line class="cls-1" x1="96.5" y1="126.5" x2="96.5" y2="133.5"/><line class="cls-1" x1="96.5" y1="142.5" x2="96.5" y2="135.5"/><line class="cls-1" x1="127.5" y1="172.5" x2="143.5" y2="172.5"/><line class="cls-1" x1="143.5" y1="175.5" x2="136.5" y2="175.5"/><line class="cls-1" x1="127.5" y1="175.5" x2="134.5" y2="175.5"/><line class="cls-1" x1="143.5" y1="169.5" x2="136.5" y2="169.5"/><line class="cls-1" x1="127.5" y1="169.5" x2="134.5" y2="169.5"/><line class="cls-1" x1="156.14" y1="166.55" x2="168.04" y2="155.85"/><line class="cls-1" x1="158.15" y1="168.78" x2="170.5" y2="157.5"/><line class="cls-1" x1="166.14" y1="153.23" x2="154.25" y2="163.93"/><line class="cls-1" x1="111.89" y1="169" x2="100.5" y2="157.5"/><rect class="cls-2" x="171.5" y="91.5" width="8" height="8" transform="translate(134.48 -100.05) rotate(49.6)"/><circle class="cls-1" cx="191" cy="136" r="5"/><circle class="cls-3" cx="175" cy="173" r="5"/><polygon class="cls-4" points="129 82 136 72 144 82 129 82"/><rect class="cls-5" x="71.5" y="128.5" width="14" height="8"/><rect class="cls-6" x="89.16" y="90.52" width="14" height="8" transform="translate(105.82 -39.97) rotate(49.6)"/><rect class="cls-2" x="89.99" y="168.61" width="8" height="8" transform="translate(164.52 -10.84) rotate(49.6)"/><path class="cls-7" d="M126.5,189.5s3.65-2,5-2c1.58-.05,4.42,2,6,2,1.35,0,6.5-2.5,6.5-2.5"/><path class="cls-7" d="M126.08,193.91s3.66-2,5-2c1.59,0,4.42,2,6,2,1.35,0,6.5-2.5,6.5-2.5"/><text class="cls-8" transform="translate(126.27 12.57)">SUR<tspan class="cls-9"><tspan class="cls-10" x="-28.11" y="17">R</tspan><tspan x="-22.15" y="17">ep</tspan><tspan class="cls-11" x="-11.58" y="17">u</tspan><tspan class="cls-12" x="-5.86" y="17">t</tspan><tspan class="cls-13" x="-2.52" y="17">a</tspan><tspan x="3.16" y="17">cion, </tspan><tspan class="cls-12" x="25.55" y="17">f</tspan><tspan class="cls-14" x="28.98" y="17">a</tspan><tspan x="34.76" y="17">ma</tspan><tspan x="-20.49" y="34">Hi</tspan><tspan class="cls-13" x="-11.21" y="34">j</tspan><tspan x="-9.08" y="34">a </tspan><tspan class="cls-15" x="-1.2" y="34">d</tspan><tspan x="4.56" y="34">el </tspan><tspan class="cls-16" x="13.91" y="34">m</tspan><tspan x="22.79" y="34">e</tspan><tspan class="cls-17" x="27.78" y="34">d</tspan><tspan x="33.72" y="34">io</tspan><tspan class="cls-18" x="1.17" y="51">R</tspan><tspan x="6.99" y="51">ojo </tspan></tspan></text><text class="cls-8" transform="translate(202.47 30.37) rotate(45)">SU<tspan class="cls-19" x="14.12" y="0">R</tspan><tspan x="20.47" y="0">O</tspan><tspan class="cls-20" x="29.41" y="0">E</tspan><tspan x="36.04" y="0">S</tspan><tspan class="cls-21" x="42.65" y="0">T</tspan><tspan x="48.07" y="0">E</tspan><tspan class="cls-9"><tspan x="14.99" y="17">Am</tspan><tspan class="cls-22" x="30.72" y="17">o</tspan><tspan x="36.11" y="17">r</tspan><tspan class="cls-23" x="13.45" y="34">M</tspan><tspan class="cls-24" x="21.43" y="34">ad</tspan><tspan class="cls-25" x="32.81" y="34">r</tspan><tspan x="35.92" y="34">e</tspan><tspan x="9.53" y="51">N</tspan><tspan class="cls-26" x="17.01" y="51">a</tspan><tspan class="cls-27" x="22.73" y="51">r</tspan><tspan class="cls-28" x="25.9" y="51">a</tspan><tspan x="31.73" y="51">n</tspan><tspan class="cls-13" x="37.13" y="51">j</tspan><tspan x="39.26" y="51">a </tspan></tspan></text><text class="cls-8" transform="translate(32.77 65.64) rotate(-45)">SU<tspan class="cls-29" x="14.12" y="0">R</tspan><tspan class="cls-20" x="20.59" y="0">E</tspan><tspan x="27.21" y="0">S</tspan><tspan class="cls-21" x="33.83" y="0">T</tspan><tspan x="39.25" y="0">E</tspan><tspan class="cls-9"><tspan x="10.28" y="17">S</tspan><tspan class="cls-30" x="16.29" y="17">a</tspan><tspan x="22.13" y="17">lud</tspan><tspan x="-0.85" y="34">Hi</tspan><tspan class="cls-13" x="8.43" y="34">j</tspan><tspan x="10.56" y="34">a ma</tspan><tspan class="cls-31" x="32.93" y="34">y</tspan><tspan class="cls-22" x="37.72" y="34">o</tspan><tspan x="43.11" y="34">r</tspan><tspan class="cls-32" x="10.33" y="51">V</tspan><tspan class="cls-33" x="16.32" y="51">e</tspan><tspan class="cls-34" x="21.24" y="51">r</tspan><tspan class="cls-35" x="24.47" y="51">d</tspan><tspan x="30.22" y="51">e </tspan></tspan></text><text class="cls-8" transform="translate(255.91 120.03) rotate(90)">O<tspan class="cls-20" x="8.94" y="0">E</tspan><tspan x="15.56" y="0">S</tspan><tspan class="cls-21" x="22.18" y="0">T</tspan><tspan x="27.6" y="0">E</tspan><tspan class="cls-9"><tspan x="-19.11" y="17">Hij</tspan><tspan class="cls-34" x="-7.8" y="17">o</tspan><tspan x="-2.36" y="17">s y </tspan><tspan class="cls-25" x="11.43" y="17">P</tspan><tspan class="cls-36" x="16.54" y="17">ro</tspan><tspan x="25.01" y="17">yec</tspan><tspan class="cls-25" x="40.04" y="17">t</tspan><tspan class="cls-34" x="43.43" y="17">o</tspan><tspan x="48.87" y="17">s</tspan><tspan x="-6.63" y="34">Hi</tspan><tspan class="cls-13" x="2.65" y="34">j</tspan><tspan x="4.78" y="34">a </tspan><tspan class="cls-16" x="12.66" y="34">m</tspan><tspan x="21.54" y="34">e</tspan><tspan class="cls-37" x="26.53" y="34">n</tspan><tspan class="cls-22" x="31.86" y="34">o</tspan><tspan x="37.25" y="34">r</tspan><tspan class="cls-38" x="1.94" y="51">B</tspan><tspan class="cls-39" x="8.46" y="51">l</tspan><tspan class="cls-28" x="10.44" y="51">a</tspan><tspan x="16.27" y="51">n</tspan><tspan class="cls-40" x="21.67" y="51">c</tspan><tspan x="26.47" y="51">o</tspan></tspan></text><text class="cls-8" transform="translate(12.59 148.96) rotate(-90)"><tspan class="cls-20">E</tspan><tspan x="6.62" y="0">S</tspan><tspan class="cls-21" x="13.23" y="0">T</tspan><tspan x="18.66" y="0">E</tspan><tspan class="cls-9"><tspan class="cls-41" x="-3.51" y="17">F</tspan><tspan class="cls-14" x="1.06" y="17">a</tspan><tspan x="6.84" y="17">m</tspan><tspan class="cls-13" x="15.75" y="17">il</tspan><tspan x="20.44" y="17">ia</tspan><tspan x="-11.04" y="34">Hijo ma</tspan><tspan class="cls-31" x="22.54" y="34">y</tspan><tspan class="cls-22" x="27.33" y="34">o</tspan><tspan x="32.72" y="34">r</tspan><tspan x="-1.96" y="51">Ti</tspan><tspan class="cls-37" x="5.67" y="51">e</tspan><tspan x="10.59" y="51">r</tspan><tspan class="cls-27" x="13.86" y="51">r</tspan><tspan class="cls-42" x="17.03" y="51">a</tspan><tspan x="22.77" y="51">s </tspan></tspan></text><text class="cls-8" transform="translate(124.98 209.49)"><tspan class="cls-43">A</tspan><tspan class="cls-44" x="7.72" y="0">z</tspan><tspan x="12.29" y="0">ul</tspan><tspan x="-23.79" y="18.2">Hijo </tspan><tspan class="cls-45" x="-2.79" y="18.2">d</tspan><tspan x="3.55" y="18.2">el </tspan><tspan class="cls-46" x="13.83" y="18.2">m</tspan><tspan x="23.6" y="18.2">e</tspan><tspan class="cls-20" x="29.09" y="18.2">d</tspan><tspan x="35.62" y="18.2">io</tspan><tspan x="-7.99" y="36.4">C</tspan><tspan class="cls-47" x="0.18" y="36.4">a</tspan><tspan x="6.47" y="36.4">r</tspan><tspan class="cls-48" x="10.06" y="36.4">r</tspan><tspan class="cls-49" x="13.48" y="36.4">e</tspan><tspan class="cls-50" x="18.9" y="36.4">r</tspan><tspan x="22.38" y="36.4">a</tspan><tspan class="cls-51" x="-7.25" y="54.6">N</tspan><tspan x="0.8" y="54.6">O</tspan><tspan class="cls-52" x="9.75" y="54.6">R</tspan><tspan class="cls-21" x="16.07" y="54.6">T</tspan><tspan x="21.49" y="54.6">E</tspan></text><text class="cls-8" transform="translate(175.14 199.38) rotate(-45)"><tspan class="cls-53">B</tspan><tspan class="cls-54" x="7.18" y="0">l</tspan><tspan class="cls-55" x="9.36" y="0">a</tspan><tspan x="15.77" y="0">n</tspan><tspan class="cls-56" x="21.71" y="0">c</tspan><tspan x="26.99" y="0">o</tspan><tspan class="cls-10" x="3.13" y="18.2">P</tspan><tspan class="cls-44" x="8.46" y="18.2">ad</tspan><tspan class="cls-51" x="20.98" y="18.2">r</tspan><tspan x="24.4" y="18.2">e</tspan><tspan x="-14.61" y="36.4">Be</tspan><tspan class="cls-57" x="-2.13" y="36.4">n</tspan><tspan class="cls-58" x="3.84" y="36.4">e</tspan><tspan class="cls-59" x="9.17" y="36.4">f</tspan><tspan class="cls-60" x="12.95" y="36.4">a</tspan><tspan x="19.19" y="36.4">c</tspan><tspan class="cls-51" x="24.67" y="36.4">t</tspan><tspan class="cls-61" x="28.4" y="36.4">o</tspan><tspan class="cls-51" x="34.33" y="36.4">r</tspan><tspan class="cls-58" x="37.75" y="36.4">e</tspan><tspan x="43.09" y="36.4">s</tspan><tspan class="cls-51" x="-12.1" y="54.6">N</tspan><tspan x="-4.05" y="54.6">O</tspan><tspan class="cls-19" x="4.89" y="54.6">R</tspan><tspan x="11.24" y="54.6">O</tspan><tspan class="cls-20" x="20.18" y="54.6">E</tspan><tspan x="26.8" y="54.6">S</tspan><tspan class="cls-21" x="33.41" y="54.6">T</tspan><tspan x="38.84" y="54.6">E</tspan></text><text class="cls-8" transform="translate(66.94 172.36) rotate(45)">N<tspan class="cls-47" x="8.23" y="0">a</tspan><tspan class="cls-50" x="14.52" y="0">r</tspan><tspan class="cls-62" x="18.01" y="0">a</tspan><tspan x="24.42" y="0">n</tspan><tspan class="cls-60" x="30.36" y="0">j</tspan><tspan x="32.7" y="0">a</tspan><tspan x="-6.4" y="18.2">Hijo </tspan><tspan class="cls-46" x="14.6" y="18.2">m</tspan><tspan x="24.36" y="18.2">e</tspan><tspan class="cls-49" x="29.85" y="18.2">n</tspan><tspan class="cls-63" x="35.72" y="18.2">o</tspan><tspan x="41.65" y="18.2">r</tspan><tspan x="-14.55" y="36.4">Co</tspan><tspan class="cls-64" x="-0.36" y="36.4">n</tspan><tspan x="5.5" y="36.4">oc</tspan><tspan class="cls-65" x="17.01" y="36.4">i</tspan><tspan x="19.73" y="36.4">mien</tspan><tspan class="cls-51" x="43.64" y="36.4">t</tspan><tspan x="47.37" y="36.4">o</tspan><tspan class="cls-51" x="-4.79" y="54.6">N</tspan><tspan x="3.27" y="54.6">O</tspan><tspan class="cls-29" x="12.21" y="54.6">R</tspan><tspan class="cls-20" x="18.68" y="54.6">E</tspan><tspan x="25.3" y="54.6">S</tspan><tspan class="cls-21" x="31.91" y="54.6">T</tspan><tspan x="37.33" y="54.6">E</tspan></text></g><g id="Capa_3" data-name="Capa 3"><path class="cls-66" d="M164.35,134.73a28.25,28.25,0,0,1-28.5,28c-2.5,0,23.33-11.74-3.5-29-14-9-2-27,5-27C153.09,106.73,164.35,119.27,164.35,134.73Z"/><ellipse class="cls-67" cx="135.85" cy="134.73" rx="28.5" ry="28"/><ellipse class="cls-68" cx="136.08" cy="119.82" rx="2.73" ry="2.68"/><ellipse class="cls-66" cx="136.31" cy="149.5" rx="2.73" ry="2.68"/></g></g></svg>