<svg xmlns="http://www.w3.org/2000/svg" viewBox="0 0 399 399"><defs><style>.cls-1{fill:#dee2e1;}.cls-2,.cls-9{fill:none;stroke-width:1.34px;}.cls-2{stroke:#434c57;}.cls-2,.cls-9,.cls-98{stroke-miterlimit:10;}.cls-3{fill:#e2c698;}.cls-4,.cls-98{fill:#fff;}.cls-5{fill:#edefee;}.cls-6{fill:#cc9e97;}.cls-7{fill:#8f9b8a;}.cls-8{fill:#8d9a8d;}.cls-9{stroke:#607486;}.cls-10{font-size:14.75px;}.cls-10,.cls-23{fill:#434c57;font-family:Biko;}.cls-11{font-size:13.41px;}.cls-12{letter-spacing:-0.04em;}.cls-13{letter-spacing:0.03em;}.cls-14{letter-spacing:-0.02em;}.cls-15{letter-spacing:0.01em;}.cls-16{letter-spacing:-0.02em;}.cls-17{letter-spacing:0.02em;}.cls-18{letter-spacing:0.01em;}.cls-19{letter-spacing:0.01em;}.cls-20{letter-spacing:0em;}.cls-21{letter-spacing:0.03em;}.cls-22{letter-spacing:-0.06em;}.cls-23{font-size:14.75px;}.cls-24{letter-spacing:-0.06em;}.cls-25{letter-spacing:0.03em;}.cls-26{letter-spacing:-0.03em;}.cls-27{font-size:13.41px;}.cls-28{letter-spacing:-0.01em;}.cls-29{letter-spacing:-0.01em;}.cls-30{letter-spacing:0.01em;}.cls-31{letter-spacing:-0.02em;}.cls-32{letter-spacing:0.01em;}.cls-33{letter-spacing:-0.01em;}.cls-34{letter-spacing:0.02em;}.cls-35{letter-spacing:0.01em;}.cls-36{letter-spacing:-0.05em;}.cls-37{letter-spacing:0.03em;}.cls-38{letter-spacing:-0.03em;}.cls-39{letter-spacing:0.03em;}.cls-40{letter-spacing:0.01em;}.cls-41{letter-spacing:-0.03em;}.cls-42{letter-spacing:-0.01em;}.cls-43{letter-spacing:-0.08em;}.cls-44{letter-spacing:-0.01em;}.cls-45{letter-spacing:0em;}.cls-46{letter-spacing:0.01em;}.cls-47{letter-spacing:0.03em;}.cls-48{letter-spacing:-0.03em;}.cls-49{letter-spacing:0em;}.cls-50{letter-spacing:-0.02em;}.cls-51{letter-spacing:-0.01em;}.cls-52{letter-spacing:-0.01em;}.cls-53{letter-spacing:-0.01em;}.cls-54{letter-spacing:0.02em;}.cls-55{letter-spacing:-0.01em;}.cls-56{letter-spacing:0.02em;}.cls-57{letter-spacing:-0.02em;}.cls-58{letter-spacing:-0.03em;}.cls-59{letter-spacing:-0.06em;}.cls-60{letter-spacing:0.02em;}.cls-61{letter-spacing:0em;}.cls-62{letter-spacing:-0.03em;}.cls-63{letter-spacing:-0.01em;}.cls-64{letter-spacing:-0.01em;}.cls-65{letter-spacing:0.02em;}.cls-66{letter-spacing:0.02em;}.cls-67{letter-spacing:0.01em;}.cls-68{letter-spacing:0.01em;}.cls-69{letter-spacing:0em;}.cls-70{letter-spacing:0.01em;}.cls-71{letter-spacing:0em;}.cls-72{letter-spacing:-0.02em;}.cls-73{letter-spacing:-0.01em;}.cls-74{letter-spacing:-0.01em;}.cls-75{letter-spacing:-0.02em;}.cls-76{letter-spacing:-0.06em;}.cls-77{letter-spacing:-0.03em;}.cls-78{letter-spacing:0em;}.cls-79{letter-spacing:0.01em;}.cls-80{letter-spacing:-0.04em;}.cls-81{letter-spacing:0.01em;}.cls-82{letter-spacing:-0.02em;}.cls-83{letter-spacing:0em;}.cls-84{letter-spacing:-0.01em;}.cls-85{letter-spacing:-0.02em;}.cls-86{letter-spacing:-0.01em;}.cls-87{letter-spacing:-0.06em;}.cls-88{letter-spacing:0.01em;}.cls-89{letter-spacing:-0.01em;}.cls-90{letter-spacing:0.03em;}.cls-91{letter-spacing:0.01em;}.cls-92{letter-spacing:0em;}.cls-93{letter-spacing:-0.01em;}.cls-94{letter-spacing:-0.01em;}.cls-95{letter-spacing:0.01em;}.cls-96{letter-spacing:-0.02em;}.cls-97{letter-spacing:-0.05em;}.cls-98{stroke:#020100;stroke-width:1.74px;}.cls-99{fill:#020100;}</style></defs><title>Recurso 1</title><g id="Capa_2" data-name="Capa 2"><g id="Capa_4" data-name="Capa 4"><rect class="cls-1" width="399" height="399"/></g><g id="Capa_2-2" data-name="Capa 2"><polygon class="cls-2" points="127.92 20 276.76 20 380 128.61 380 274.76 274.07 378 123.9 378 20.66 270.73 20.66 123.24 127.92 20"/><polygon class="cls-2" points="137.65 44.13 266.49 44.13 355.87 138.5 355.87 265.5 264.17 355.21 134.17 355.21 44.79 262 44.79 133.84 137.65 44.13"/><polygon class="cls-2" points="146.84 66.93 256.79 66.93 333.07 147.88 333.07 256.8 254.81 333.75 143.87 333.75 67.59 253.81 67.59 143.88 146.84 66.93"/><polygon class="cls-2" points="156.02 87.04 247.1 87.04 310.28 154.56 310.28 245.43 245.46 309.62 153.56 309.62 90.38 242.93 90.38 151.23 156.02 87.04"/><polygon class="cls-2" points="164.81 109.83 236.45 109.83 286.14 163.12 286.14 234.83 235.16 285.48 162.87 285.48 113.18 232.85 113.18 160.49 164.81 109.83"/><polygon class="cls-2" points="174.93 137.99 227.14 137.99 263.35 175.41 263.35 225.77 226.19 261.35 173.52 261.35 137.31 224.39 137.31 173.57 174.93 137.99"/><line class="cls-2" x1="127.93" y1="20" x2="185.58" y2="164.81"/><line class="cls-2" x1="276.76" y1="20" x2="216.42" y2="164.81"/><line class="cls-2" x1="380" y1="128.61" x2="236.53" y2="184.92"/><line class="cls-2" x1="380" y1="274.76" x2="239.21" y2="215.76"/><line class="cls-2" x1="274.07" y1="378" x2="216.42" y2="235.87"/><line class="cls-2" x1="123.9" y1="378" x2="185.58" y2="233.19"/><line class="cls-2" x1="20.66" y1="270.73" x2="166.81" y2="213.08"/><line class="cls-2" x1="20.66" y1="123.24" x2="166.81" y2="184.92"/><line class="cls-2" x1="190.94" y1="144.7" x2="212.4" y2="144.7"/><line class="cls-2" x1="190.94" y1="148.72" x2="200.33" y2="148.72"/><line class="cls-2" x1="212.4" y1="152.74" x2="190.94" y2="152.74"/><line class="cls-2" x1="212.4" y1="148.72" x2="203.01" y2="148.72"/><line class="cls-2" x1="233.09" y1="154.4" x2="239.76" y2="161.01"/><line class="cls-2" x1="248.32" y1="169.51" x2="241.66" y2="162.9"/><line class="cls-2" x1="230.26" y1="157.25" x2="236.92" y2="163.86"/><line class="cls-2" x1="245.48" y1="172.37" x2="238.82" y2="165.75"/><line class="cls-2" x1="227.43" y1="160.11" x2="234.09" y2="166.72"/><line class="cls-2" x1="242.65" y1="175.22" x2="235.99" y2="168.61"/><line class="cls-2" x1="162.18" y1="223.84" x2="168.84" y2="230.45"/><line class="cls-2" x1="177.4" y1="238.95" x2="170.74" y2="232.34"/><line class="cls-2" x1="158" y1="226.69" x2="164.66" y2="233.3"/><line class="cls-2" x1="173.23" y1="241.81" x2="166.56" y2="235.19"/><line class="cls-2" x1="157.56" y1="171.29" x2="173.51" y2="156.94"/><line class="cls-2" x1="160.25" y1="174.28" x2="167.23" y2="168"/><line class="cls-2" x1="170.97" y1="153.43" x2="155.02" y2="167.78"/><line class="cls-2" x1="176.15" y1="159.78" x2="169.26" y2="166.15"/><line class="cls-2" x1="256.64" y1="210.4" x2="256.64" y2="188.94"/><line class="cls-2" x1="248.6" y1="210.4" x2="248.6" y2="201.01"/><line class="cls-2" x1="252.62" y1="188.94" x2="252.62" y2="210.4"/><line class="cls-2" x1="248.6" y1="188.94" x2="248.6" y2="198.33"/><line class="cls-2" x1="153.4" y1="210.4" x2="153.4" y2="188.94"/><line class="cls-2" x1="145.36" y1="188.94" x2="145.36" y2="198.33"/><line class="cls-2" x1="145.36" y1="210.4" x2="145.36" y2="201.01"/><line class="cls-2" x1="149.38" y1="188.94" x2="149.38" y2="198.33"/><line class="cls-2" x1="149.38" y1="210.4" x2="149.38" y2="201.01"/><line class="cls-2" x1="190.94" y1="250.62" x2="212.4" y2="250.62"/><line class="cls-2" x1="212.4" y1="254.64" x2="203.01" y2="254.64"/><line class="cls-2" x1="190.94" y1="254.64" x2="200.33" y2="254.64"/><line class="cls-2" x1="212.4" y1="246.6" x2="203.01" y2="246.6"/><line class="cls-2" x1="190.94" y1="246.6" x2="200.33" y2="246.6"/><line class="cls-2" x1="229.35" y1="242.64" x2="245.3" y2="228.29"/><line class="cls-2" x1="232.04" y1="245.63" x2="248.6" y2="230.51"/><line class="cls-2" x1="242.76" y1="224.79" x2="226.81" y2="239.13"/><line class="cls-2" x1="170.01" y1="245.93" x2="154.74" y2="230.51"/><rect class="cls-3" x="249.94" y="142.01" width="10.73" height="10.73" transform="translate(202.07 -142.56) rotate(49.6)"/><circle class="cls-4" cx="276.09" cy="201.68" r="6.7"/><circle class="cls-5" cx="254.63" cy="251.29" r="6.7"/><polygon class="cls-6" points="192.96 129.28 202.34 115.87 213.07 129.28 192.96 129.28"/><rect class="cls-7" x="115.86" y="191.63" width="18.77" height="10.73"/><rect class="cls-8" x="139.54" y="140.71" width="18.77" height="10.73" transform="translate(163.64 -62.01) rotate(49.6)"/><rect class="cls-3" x="140.65" y="245.4" width="10.73" height="10.73" transform="matrix(0.65, 0.76, -0.76, 0.65, 242.35, -22.96)"/><path class="cls-9" d="M189.6,273.42s4.9-2.63,6.71-2.69c2.12-.06,5.92,2.63,8,2.69,1.81,0,8.72-3.36,8.72-3.36"/><path class="cls-9" d="M189.05,279.33s4.9-2.62,6.7-2.68c2.12-.06,5.93,2.63,8.05,2.68,1.8.05,8.71-3.35,8.71-3.35"/><text class="cls-10" transform="translate(189.29 36.19)">SUR<tspan class="cls-11"><tspan class="cls-12" x="-37.69" y="22.79">R</tspan><tspan x="-29.7" y="22.79">ep</tspan><tspan class="cls-13" x="-15.52" y="22.79">u</tspan><tspan class="cls-14" x="-7.86" y="22.79">t</tspan><tspan class="cls-15" x="-3.38" y="22.79">a</tspan><tspan x="4.24" y="22.79">cion, </tspan><tspan class="cls-16" x="34.26" y="22.79">f</tspan><tspan class="cls-17" x="38.86" y="22.79">a</tspan><tspan x="46.61" y="22.79">ma</tspan><tspan x="-27.47" y="45.59">Hi</tspan><tspan class="cls-18" x="-15.03" y="45.59">j</tspan><tspan x="-12.17" y="45.59">a </tspan><tspan class="cls-19" x="-1.61" y="45.59">d</tspan><tspan x="6.12" y="45.59">el </tspan><tspan class="cls-20" x="18.65" y="45.59">m</tspan><tspan x="30.56" y="45.59">e</tspan><tspan class="cls-21" x="37.25" y="45.59">d</tspan><tspan x="45.21" y="45.59">io</tspan><tspan class="cls-22" x="1.56" y="68.38">R</tspan><tspan x="9.37" y="68.38">ojo </tspan></tspan></text><text class="cls-23" transform="translate(291.46 59.98) rotate(45)">SU<tspan class="cls-24" x="18.94" y="0">R</tspan><tspan x="27.45" y="0">O</tspan><tspan class="cls-25" x="39.44" y="0">E</tspan><tspan x="48.32" y="0">S</tspan><tspan class="cls-26" x="57.18" y="0">T</tspan><tspan x="64.45" y="0">E</tspan><tspan class="cls-27"><tspan x="20.09" y="22.79">Am</tspan><tspan class="cls-28" x="41.18" y="22.79">o</tspan><tspan x="48.41" y="22.79">r</tspan><tspan class="cls-29" x="18.03" y="45.59">M</tspan><tspan class="cls-30" x="28.73" y="45.59">ad</tspan><tspan class="cls-31" x="43.99" y="45.59">r</tspan><tspan x="48.16" y="45.59">e</tspan><tspan x="12.77" y="68.38">N</tspan><tspan class="cls-32" x="22.8" y="68.38">a</tspan><tspan class="cls-33" x="30.47" y="68.38">r</tspan><tspan class="cls-34" x="34.72" y="68.38">a</tspan><tspan x="42.54" y="68.38">n</tspan><tspan class="cls-35" x="49.78" y="68.38">j</tspan><tspan x="52.63" y="68.38">a </tspan></tspan></text><text class="cls-23" transform="translate(63.85 107.34) rotate(-45)">SU<tspan class="cls-36" x="18.94" y="0">R</tspan><tspan class="cls-37" x="27.61" y="0">E</tspan><tspan x="36.49" y="0">S</tspan><tspan class="cls-38" x="45.35" y="0">T</tspan><tspan x="52.62" y="0">E</tspan><tspan class="cls-27"><tspan x="13.78" y="22.79">S</tspan><tspan class="cls-39" x="21.84" y="22.79">a</tspan><tspan x="29.67" y="22.79">lud</tspan><tspan x="-1.13" y="45.59">Hi</tspan><tspan class="cls-40" x="11.31" y="45.59">j</tspan><tspan x="14.17" y="45.59">a ma</tspan><tspan class="cls-41" x="44.16" y="45.59">y</tspan><tspan class="cls-42" x="50.58" y="45.59">o</tspan><tspan x="57.81" y="45.59">r</tspan><tspan class="cls-43" x="13.84" y="68.38">V</tspan><tspan class="cls-44" x="21.88" y="68.38">e</tspan><tspan class="cls-45" x="28.47" y="68.38">r</tspan><tspan class="cls-46" x="32.8" y="68.38">d</tspan><tspan x="40.53" y="68.38">e </tspan></tspan></text><text class="cls-10" transform="translate(363.12 180.27) rotate(90)">O<tspan class="cls-47" x="11.99" y="0">E</tspan><tspan x="20.87" y="0">S</tspan><tspan class="cls-48" x="29.73" y="0">T</tspan><tspan x="37" y="0">E</tspan><tspan class="cls-11"><tspan x="-25.62" y="22.79">Hij</tspan><tspan class="cls-49" x="-10.46" y="22.79">o</tspan><tspan x="-3.16" y="22.79">s y </tspan><tspan class="cls-50" x="15.33" y="22.79">P</tspan><tspan class="cls-51" x="22.18" y="22.79">ro</tspan><tspan x="33.54" y="22.79">yec</tspan><tspan class="cls-50" x="53.69" y="22.79">t</tspan><tspan class="cls-49" x="58.23" y="22.79">o</tspan><tspan x="65.53" y="22.79">s</tspan><tspan x="-8.89" y="45.59">Hi</tspan><tspan class="cls-18" x="3.55" y="45.59">j</tspan><tspan x="6.41" y="45.59">a </tspan><tspan class="cls-20" x="16.98" y="45.59">m</tspan><tspan x="28.88" y="45.59">e</tspan><tspan class="cls-52" x="35.57" y="45.59">n</tspan><tspan class="cls-53" x="42.72" y="45.59">o</tspan><tspan x="49.95" y="45.59">r</tspan><tspan class="cls-54" x="2.6" y="68.38">B</tspan><tspan class="cls-55" x="11.35" y="68.38">l</tspan><tspan class="cls-56" x="14.01" y="68.38">a</tspan><tspan x="21.82" y="68.38">n</tspan><tspan class="cls-57" x="29.06" y="68.38">c</tspan><tspan x="35.5" y="68.38">o</tspan></tspan></text><text class="cls-10" transform="translate(36.87 219.07) rotate(-90)"><tspan class="cls-47">E</tspan><tspan x="8.88" y="0">S</tspan><tspan class="cls-58" x="17.74" y="0">T</tspan><tspan x="25.01" y="0">E</tspan><tspan class="cls-11"><tspan class="cls-59" x="-4.7" y="22.79">F</tspan><tspan class="cls-60" x="1.43" y="22.79">a</tspan><tspan class="cls-61" x="9.18" y="22.79">m</tspan><tspan class="cls-15" x="21.12" y="22.79">il</tspan><tspan x="27.41" y="22.79">ia</tspan><tspan x="-14.8" y="45.59">Hijo ma</tspan><tspan class="cls-62" x="30.22" y="45.59">y</tspan><tspan class="cls-63" x="36.64" y="45.59">o</tspan><tspan x="43.87" y="45.59">r</tspan><tspan x="-2.62" y="68.38">Ti</tspan><tspan class="cls-52" x="7.61" y="68.38">e</tspan><tspan x="14.2" y="68.38">r</tspan><tspan class="cls-64" x="18.59" y="68.38">r</tspan><tspan class="cls-65" x="22.84" y="68.38">a</tspan><tspan x="30.54" y="68.38">s </tspan></tspan></text><text class="cls-10" transform="translate(187.57 300.21)"><tspan class="cls-66">A</tspan><tspan class="cls-67" x="10.35" y="0">z</tspan><tspan x="16.47" y="0">ul</tspan><tspan x="-31.89" y="24.4">Hijo </tspan><tspan class="cls-68" x="-3.74" y="24.4">d</tspan><tspan x="4.76" y="24.4">el </tspan><tspan class="cls-69" x="18.55" y="24.4">m</tspan><tspan x="31.64" y="24.4">e</tspan><tspan class="cls-47" x="39" y="24.4">d</tspan><tspan x="47.76" y="24.4">io</tspan><tspan x="-10.71" y="48.81">C</tspan><tspan class="cls-70" x="0.24" y="48.81">a</tspan><tspan class="cls-71" x="8.67" y="48.81">r</tspan><tspan class="cls-72" x="13.5" y="48.81">r</tspan><tspan class="cls-73" x="18.08" y="48.81">e</tspan><tspan class="cls-74" x="25.34" y="48.81">r</tspan><tspan x="30.01" y="48.81">a</tspan><tspan class="cls-75"><tspan x="-9.72" y="73.21">N</tspan><tspan class="cls-71" x="1.08" y="73.21">O</tspan><tspan class="cls-76" x="13.07" y="73.21">R</tspan><tspan class="cls-77" x="21.55" y="73.21">T</tspan><tspan class="cls-78" x="28.82" y="73.21">E</tspan></tspan></text><text class="cls-23" transform="translate(261.3 280.19) rotate(-45)">G<tspan class="cls-79" x="11.31" y="0">r</tspan><tspan x="16.28" y="0">is</tspan><tspan class="cls-80" x="-4.96" y="24.4">P</tspan><tspan class="cls-81" x="2.19" y="24.4">ad</tspan><tspan class="cls-82" x="18.97" y="24.4">r</tspan><tspan x="23.56" y="24.4">e</tspan><tspan x="-28.75" y="48.81">Be</tspan><tspan class="cls-83" x="-12.02" y="48.81">n</tspan><tspan class="cls-84" x="-4.01" y="48.81">e</tspan><tspan class="cls-85" x="3.14" y="48.81">f</tspan><tspan class="cls-79" x="8.2" y="48.81">a</tspan><tspan x="16.58" y="48.81">c</tspan><tspan class="cls-82" x="23.92" y="48.81">t</tspan><tspan class="cls-86" x="28.92" y="48.81">o</tspan><tspan class="cls-82" x="36.87" y="48.81">r</tspan><tspan class="cls-84" x="41.46" y="48.81">e</tspan><tspan x="48.61" y="48.81">s</tspan><tspan class="cls-82" x="-25.39" y="73.21">N</tspan><tspan x="-14.59" y="73.21">O</tspan><tspan class="cls-87" x="-2.6" y="73.21">R</tspan><tspan x="5.91" y="73.21">O</tspan><tspan class="cls-37" x="17.9" y="73.21">E</tspan><tspan x="26.78" y="73.21">S</tspan><tspan class="cls-38" x="35.64" y="73.21">T</tspan><tspan x="42.91" y="73.21">E</tspan></text><text class="cls-23" transform="translate(109.74 250.43) rotate(45)">N<tspan class="cls-88" x="11.03" y="0">a</tspan><tspan class="cls-89" x="19.47" y="0">r</tspan><tspan class="cls-90" x="24.14" y="0">a</tspan><tspan x="32.74" y="0">n</tspan><tspan class="cls-91" x="40.71" y="0">j</tspan><tspan x="43.85" y="0">a</tspan><tspan x="-8.58" y="24.4">Hijo </tspan><tspan class="cls-92" x="19.57" y="24.4">m</tspan><tspan x="32.67" y="24.4">e</tspan><tspan class="cls-93" x="40.03" y="24.4">n</tspan><tspan class="cls-94" x="47.89" y="24.4">o</tspan><tspan x="55.84" y="24.4">r</tspan><tspan x="-19.51" y="48.81">Co</tspan><tspan class="cls-93" x="-0.49" y="48.81">n</tspan><tspan x="7.37" y="48.81">oc</tspan><tspan class="cls-95" x="22.8" y="48.81">i</tspan><tspan x="26.46" y="48.81">mien</tspan><tspan class="cls-96" x="58.51" y="48.81">t</tspan><tspan x="63.51" y="48.81">o</tspan><tspan class="cls-96" x="-6.42" y="73.21">N</tspan><tspan x="4.38" y="73.21">O</tspan><tspan class="cls-97" x="16.37" y="73.21">R</tspan><tspan class="cls-25" x="25.04" y="73.21">E</tspan><tspan x="33.92" y="73.21">S</tspan><tspan class="cls-26" x="42.79" y="73.21">T</tspan><tspan x="50.06" y="73.21">E</tspan></text></g><g id="Capa_3" data-name="Capa 3"><ellipse class="cls-98" cx="202.13" cy="199.98" rx="38.21" ry="37.54"/><path class="cls-99" d="M240.35,200c0,20.74-17.11,37.55-38.22,37.55-3.35,0,31.3-15.75-4.69-38.89-18.77-12.07-2.68-36.2,6.71-36.2C225.25,162.44,240.35,179.25,240.35,200Z"/><ellipse class="cls-4" cx="202.44" cy="179.99" rx="3.66" ry="3.6"/><ellipse class="cls-99" cx="202.75" cy="219.79" rx="3.66" ry="3.6"/></g></g></svg>