<svg xmlns="http://www.w3.org/2000/svg" viewBox="0 0 96.46 75.15"><defs><style>.cls-1{fill:#a7a6a4;}.cls-2{fill:#b1b0ab;}.cls-3{fill:#b37252;}.cls-10,.cls-4{fill:none;}.cls-4,.cls-5,.cls-7,.cls-8{stroke:gray;}.cls-10,.cls-4,.cls-5,.cls-6,.cls-7,.cls-8{stroke-miterlimit:10;}.cls-4,.cls-5,.cls-6,.cls-7{stroke-width:0.24px;}.cls-6{fill:#c9b197;stroke:#917e69;}.cls-7,.cls-8{fill:#e8e2da;}.cls-8{stroke-width:0.22px;}.cls-9{fill:#f7f6f5;}.cls-10{stroke:#c6a189;stroke-width:0.59px;}.cls-11{fill:#eee5dd;}</style></defs><title>Recurso 7</title><g id="Capa_2" data-name="Capa 2"><g id="Capa_1-2" data-name="Capa 1"><path class="cls-1" d="M96.05,20.33c1.15,1.28-.46,15.08-.91,17.12-.25,1.11-90.22.77-93.19.26-.07,0-.22.19-.41.17C-.34,37.66-.29,22.39.57,18.8a.1.1,0,0,1-.07,0c-.12-.4,13.58-6.11,13.58-7.39l.23-7.93C14.31,2.13,16.55.4,17.74.4,27.87.4,46.6-.11,49.26.91a.22.22,0,0,0,.16,0c2.44-1,20.92-1.16,33.35-.5a2.75,2.75,0,0,1,1.6,1.16,4.32,4.32,0,0,1,.69,2.16l-.23,7.67A136.21,136.21,0,0,1,96.05,20.33Z"/><path class="cls-2" d="M89.68,33.11h-84c-1.21,0-1.43-3.92-.57-4.86,0,0,7.81-8.86,11.22-10.22,6.64-2.3,30,1,33,1s22.38-2.06,32.75.26c2.29.51,7.37,7.25,9.15,10.1C92.33,30.88,91.39,33.11,89.68,33.11Z"/><polygon class="cls-3" points="1.49 46.91 2.86 46.91 8.13 38.73 87.81 38.99 93.53 46.91 94.68 46.91 92.16 37.71 4.01 37.71 1.49 46.91"/><path class="cls-4" d="M5.72,29.4c-.68-3.06,44.54-5.75,41.56.13"/><path class="cls-4" d="M89.62,29.9c0-5.22-38.67-4.71-38.67-.37"/><line class="cls-4" x1="49.34" y1="0.91" x2="49.34" y2="17.26"/><line class="cls-4" x1="49.34" y1="19.82" x2="49.34" y2="32.34"/><path class="cls-4" d="M54.38,5.51c1.37.25,1.14,7.15,1.14,7.15"/><path class="cls-4" d="M52.78,9.6c4.81-1,5.95.25,5.95.25"/><ellipse class="cls-5" cx="55.41" cy="9.21" rx="0.34" ry="0.38"/><path class="cls-4" d="M65.6,5.25a73.38,73.38,0,0,1-.11,7.54"/><path class="cls-4" d="M62.16,9.34c4.81-1,7.1.26,7.1.26"/><ellipse class="cls-5" cx="65.6" cy="8.83" rx="0.34" ry="0.38"/><path class="cls-4" d="M42.7,6a34.05,34.05,0,0,0-.11,6.77"/><path class="cls-4" d="M39,8.83c.91-.26,2.64.46,3.43.51a7.19,7.19,0,0,1,3.44-.25h0"/><ellipse class="cls-5" cx="42.47" cy="9.34" rx="0.34" ry="0.38"/><path class="cls-4" d="M31.48,5.12s-.11,5.56-.11,7.42"/><path class="cls-4" d="M28.85,9.09s3.78-.26,5.84.51"/><ellipse class="cls-5" cx="31.48" cy="9.09" rx="0.34" ry="0.38"/><path class="cls-4" d="M.69,19.18C5.15,16.5,4.24,33.62,4.24,33.62s85.15.2,87-.26c2.06-.51-1.6-14.31,5.16-13.16"/><path class="cls-6" d="M77.76,19.05s10.31,0,15.8,1.54c.92.25,1.42-8.11,1.38-8.44a11.31,11.31,0,0,1,.45-5.62S81.48,8.12,78.46,5c-.24-.25,0,3.31-.47,5.86,0,0-.62,2.27-.23,8.18Z"/><path class="cls-7" d="M38.15,17.26c.35,1.67-.75,1.5-1.14,1.54a26.15,26.15,0,0,0-5.73.76c-5,1.41-6.18,2.05-8,2.05-.46,0,.46-2.05-1.83-6.65-1.15-2.3-.69-5.87-1.16-7.44-.08-.26.19-.5.43-.52C23,6.77,33.82,5.63,35.86,4.49c.23-.24,1.38,4.34,1.61,6C37.66,11.73,37.63,14.72,38.15,17.26Z"/><path class="cls-7" d="M35.17,6.27s.23,1.54,0,1.79S33.8,6.53,33.8,6.53"/><path class="cls-7" d="M35.86,9.34s.28,1.25,0,1.5S34.72,9.6,34.72,9.6"/><path class="cls-7" d="M36.55,11.9s0,1.24-.19,1.5S35,12.15,35,12.15"/><path class="cls-7" d="M37,14.45s0,1.25-.19,1.5-1-1-1-1"/><path class="cls-7" d="M37.46,16.75A3.2,3.2,0,0,1,37.24,18c-.33.36-1.38-1-1.38-1"/><path class="cls-7" d="M32.2,13.43a2.26,2.26,0,0,1,.23-1c.3-.38,1.51,1.09,1.51,1.09"/><path class="cls-7" d="M31.74,11.13a3.19,3.19,0,0,1,.36-1.05c.31-.38,1.24,1.17,1.24,1.17"/><path class="cls-7" d="M31.29,9.2a3.27,3.27,0,0,1,.36-1c.3-.38,1.24,1.18,1.24,1.18"/><path class="cls-7" d="M32.43,6.9S32,6.29,31.74,6,30.6,7.55,30.6,7.55"/><path class="cls-7" d="M32.43,15.73a6.28,6.28,0,0,1,.46-1.53c.3-.38,1.14,1,1.14,1"/><path class="cls-7" d="M33.59,16.17c.31-.38,1.15,1,1.15,1"/><path class="cls-7" d="M33.13,17.7a6.28,6.28,0,0,1,.46-1.53"/><path class="cls-7" d="M34.05,18.22c.31-.38.9.58.9.58"/><path class="cls-7" d="M33.8,19.05a1.74,1.74,0,0,1,.25-.83"/><path class="cls-7" d="M29.68,8.57a4.72,4.72,0,0,1-.33,1.31c-.29.39-1.5-1.05-1.5-1.05"/><path class="cls-7" d="M30.82,14.71a6.31,6.31,0,0,1-.35,1.57C30.17,16.67,29,15,29,15"/><path class="cls-7" d="M31,18.18c-.29.39-1.29-1.11-1.29-1.11"/><path class="cls-7" d="M31.31,17.1A3.24,3.24,0,0,1,31,18.18"/><path class="cls-7" d="M29.89,10.65a3.25,3.25,0,0,1-.21,1.25c-.29.39-1.6-1-1.6-1"/><path class="cls-7" d="M28.94,8c-.29.39-1.19-.94-1.19-.94"/><path class="cls-7" d="M29.33,6.41A6.23,6.23,0,0,1,28.94,8"/><path class="cls-7" d="M30.15,12.79A3.25,3.25,0,0,1,29.94,14c-.29.4-1.41-1.38-1.41-1.38"/><line class="cls-7" x1="31.97" y1="18.8" x2="31.74" y2="19.31"/><line class="cls-7" x1="30.6" y1="19.82" x2="30.37" y2="19.31"/><path class="cls-7" d="M26,17.77a7.25,7.25,0,0,1,.55-1.48c.31-.38,1.24,1.18,1.24,1.18"/><path class="cls-7" d="M26.43,14.67c-.3-.38-.87,1.32-.87,1.32"/><path class="cls-7" d="M27.39,15.47a7.5,7.5,0,0,1-1-.8"/><path class="cls-7" d="M25.35,13.62a2.3,2.3,0,0,1,.23-1c.3-.37,1.5,1.09,1.5,1.09"/><path class="cls-7" d="M24.66,10A3.3,3.3,0,0,1,25,9c.31-.38,1.24,1.18,1.24,1.18"/><path class="cls-7" d="M25.53,10.76c.31-.38,1.15,1,1.15,1"/><path class="cls-7" d="M25.07,12.29a6.28,6.28,0,0,1,.46-1.53"/><path class="cls-7" d="M26.92,17.84c.31-.37,1.15,1,1.15,1"/><path class="cls-7" d="M26.46,19.38a6.33,6.33,0,0,1,.46-1.54"/><path class="cls-7" d="M25,6.89c.31-.38,1.15,1,1.15,1"/><path class="cls-7" d="M24.49,8.42A6.28,6.28,0,0,1,25,6.89"/><path class="cls-7" d="M27.47,19.59c.31-.38,1.06.74,1.06.74"/><path class="cls-7" d="M27.16,20.84a3.63,3.63,0,0,1,.31-1.25"/><path class="cls-8" d="M23.26,8.7a5.87,5.87,0,0,1-.59,1.23c-.32.31-1.21-1-1.21-1"/><path class="cls-7" d="M22.76,12.05c.29.39.91-1.29.91-1.29"/><path class="cls-7" d="M21.82,11.21a7.39,7.39,0,0,1,.94.84"/><path class="cls-7" d="M23.81,13.14a2.22,2.22,0,0,1-.26,1c-.32.37-1.47-1.14-1.47-1.14"/><path class="cls-7" d="M24.85,17.25a3.44,3.44,0,0,1-.39,1c-.32.37-1.21-1.22-1.21-1.22"/><path class="cls-7" d="M24,16.5c-.32.37-1.12-1.05-1.12-1.05"/><path class="cls-7" d="M24.51,15A6.22,6.22,0,0,1,24,16.5"/><path class="cls-7" d="M22.59,8.35c-.32.36-1.12-1-1.12-1"/><path class="cls-7" d="M23.1,6.83a6.22,6.22,0,0,1-.51,1.52"/><path class="cls-7" d="M24.92,20.39c-.31.37-1.11-1.05-1.11-1.05"/><path class="cls-7" d="M25.43,18.87a6.22,6.22,0,0,1-.51,1.52"/><path class="cls-7" d="M34.37,5.89c-.31.37-1-.64-1-.64"/><path class="cls-7" d="M34.72,5a2.42,2.42,0,0,1-.35.89"/><ellipse class="cls-9" cx="48.15" cy="59.99" rx="42.45" ry="11.37"/><path class="cls-10" d="M82.41,59.55c.91,7.44-15.61,8.31-34.86,8.31s-34.87-2.33-34.87-8.31c0-4.58,15.61-8.3,34.87-8.3S81.86,55,82.41,59.55Z"/><path class="cls-11" d="M88.3,56.33c.34-.59.69-1.16,1-1.73a5.84,5.84,0,0,1,.56-.84,3.33,3.33,0,0,1,.82-.64l0,0a3.3,3.3,0,0,1-.4,1,4.74,4.74,0,0,1-.65.77c-.45.5-.91,1-1.38,1.48Z"/><path class="cls-11" d="M89.35,57.7c.43-.53.86-1,1.31-1.55a4.84,4.84,0,0,1,.69-.74,3,3,0,0,1,.92-.51l0,0a3.39,3.39,0,0,1-.55.9,5,5,0,0,1-.77.66c-.52.42-1,.84-1.6,1.25Z"/><path class="cls-11" d="M86.56,55.29c.33-.59.68-1.17,1-1.73a4.35,4.35,0,0,1,.55-.84,3.23,3.23,0,0,1,.82-.64l0,0a3,3,0,0,1-.39,1,4.74,4.74,0,0,1-.65.76c-.45.51-.91,1-1.38,1.48Z"/><path class="cls-11" d="M84.92,54.53c.27-.62.55-1.23.85-1.83a5,5,0,0,1,.47-.89,3.38,3.38,0,0,1,.74-.72l0,0a3.14,3.14,0,0,1-.28,1,4.7,4.7,0,0,1-.57.83c-.39.54-.79,1.08-1.21,1.61Z"/><path class="cls-11" d="M83.52,54c.23-.63.47-1.26.73-1.88a4.93,4.93,0,0,1,.4-.91,3.16,3.16,0,0,1,.7-.77l.05,0a3.31,3.31,0,0,1-.22,1,5,5,0,0,1-.51.86c-.35.57-.72,1.13-1.1,1.68Z"/><path class="cls-11" d="M80.4,52.77c.14-.65.29-1.3.46-2a4.51,4.51,0,0,1,.28-1,3,3,0,0,1,.58-.85l0,0a2.87,2.87,0,0,1-.07,1,5,5,0,0,1-.39.92c-.27.61-.56,1.21-.86,1.81Z"/><path class="cls-11" d="M81.82,53.2c.24-.63.5-1.24.77-1.86a5.72,5.72,0,0,1,.43-.9,3.19,3.19,0,0,1,.72-.75l.05,0a3,3,0,0,1-.25,1,4.17,4.17,0,0,1-.53.85c-.36.56-.74,1.11-1.14,1.66Z"/><path class="cls-11" d="M78.41,52.27c.14-.65.29-1.3.46-1.94a4.42,4.42,0,0,1,.28-1,3,3,0,0,1,.58-.85l.06,0a3.11,3.11,0,0,1-.08,1,5,5,0,0,1-.39.92c-.27.61-.56,1.21-.86,1.81Z"/><path class="cls-11" d="M76.91,51.73c.07-.67.15-1.33.25-2a4.68,4.68,0,0,1,.17-1,2.94,2.94,0,0,1,.49-.9h.05a3.26,3.26,0,0,1,0,1,4.53,4.53,0,0,1-.29,1c-.2.64-.42,1.26-.65,1.89Z"/><path class="cls-11" d="M75.11,51.34c0-.67.06-1.33.12-2a4.62,4.62,0,0,1,.1-1,3,3,0,0,1,.42-.94h.06a3,3,0,0,1,.1,1,4.53,4.53,0,0,1-.21,1c-.16.65-.34,1.29-.53,1.93Z"/><path class="cls-11" d="M73.36,50.88c.07-.66.15-1.32.25-2a5.43,5.43,0,0,1,.17-1,3.17,3.17,0,0,1,.49-.9h0a3,3,0,0,1,0,1,4.53,4.53,0,0,1-.29.95c-.2.63-.42,1.26-.65,1.89Z"/><path class="cls-11" d="M71.72,50.88c.07-.67.16-1.33.25-2a5.28,5.28,0,0,1,.17-1,3.23,3.23,0,0,1,.49-.91h.06a3,3,0,0,1,0,1,5.53,5.53,0,0,1-.28,1c-.2.63-.42,1.26-.66,1.88Z"/><path class="cls-11" d="M69.67,50.49c.12-.66.26-1.31.41-2a5.21,5.21,0,0,1,.25-1,3.57,3.57,0,0,1,.56-.87l.06,0a3.19,3.19,0,0,1,0,1,5.26,5.26,0,0,1-.36.93q-.39.91-.81,1.83Z"/><path class="cls-11" d="M66.38,49.74c0-.66.08-1.33.14-2a4.7,4.7,0,0,1,.12-1,3.15,3.15,0,0,1,.44-.93h0a3,3,0,0,1,.09,1,4.63,4.63,0,0,1-.23,1c-.16.65-.35,1.29-.55,1.92Z"/><path class="cls-11" d="M67.86,50c.14-.65.29-1.3.46-2a5.26,5.26,0,0,1,.27-1,3.61,3.61,0,0,1,.59-.85l0,0a3.48,3.48,0,0,1-.07,1,5,5,0,0,1-.39.92c-.27.61-.55,1.21-.86,1.81Z"/><path class="cls-11" d="M64.34,49.55c0-.67.08-1.33.14-2a4.69,4.69,0,0,1,.11-1,3.15,3.15,0,0,1,.44-.93h.06a3.32,3.32,0,0,1,.09,1,4.63,4.63,0,0,1-.23,1c-.17.64-.35,1.28-.55,1.92Z"/><path class="cls-11" d="M62.77,49.24c0-.67-.07-1.33-.08-2a4.68,4.68,0,0,1,0-1,3.38,3.38,0,0,1,.33-1h.06a3.12,3.12,0,0,1,.2,1,4.78,4.78,0,0,1-.12,1c-.1.65-.21,1.31-.34,2Z"/><path class="cls-11" d="M60.93,49.13c-.09-.67-.16-1.33-.21-2a4.71,4.71,0,0,1-.06-1,3,3,0,0,1,.26-1H61a3.05,3.05,0,0,1,.27,1,4.71,4.71,0,0,1-.06,1c0,.66-.12,1.32-.2,2Z"/><path class="cls-11" d="M58.84,48.66c-.06-.67-.1-1.33-.13-2a4.78,4.78,0,0,1,0-1,3.32,3.32,0,0,1,.31-1h.06a3,3,0,0,1,.23,1,5.54,5.54,0,0,1-.1,1c-.08.66-.18,1.31-.29,2Z"/><path class="cls-11" d="M56.79,48.72c-.06-.66-.11-1.33-.13-2a4.68,4.68,0,0,1,0-1,3,3,0,0,1,.31-1H57a3.34,3.34,0,0,1,.22,1,4.16,4.16,0,0,1-.1,1c-.08.66-.17,1.32-.28,2Z"/><path class="cls-11" d="M55.19,48.6c-.13-.65-.25-1.3-.34-2a4.12,4.12,0,0,1-.13-1,3,3,0,0,1,.2-1H55a3.34,3.34,0,0,1,.33,1,4.67,4.67,0,0,1,0,1c0,.66,0,1.33-.07,2Z"/><path class="cls-11" d="M53.38,48.74c-.08-.66-.15-1.33-.21-2a4.7,4.7,0,0,1-.05-1,3,3,0,0,1,.26-1h.06a3.05,3.05,0,0,1,.27,1,4.71,4.71,0,0,1-.06,1c0,.66-.12,1.33-.21,2Z"/><path class="cls-11" d="M51.59,48.65q-.11-1-.15-2a4.79,4.79,0,0,1,0-1,3.44,3.44,0,0,1,.3-1h.06a3.39,3.39,0,0,1,.24,1,4.74,4.74,0,0,1-.09,1c-.07.66-.15,1.32-.26,2Z"/><path class="cls-11" d="M49.54,48.75c-.07-.67-.12-1.33-.16-2a4.69,4.69,0,0,1,0-1,3.1,3.1,0,0,1,.29-1h.06a3.1,3.1,0,0,1,.24,1,4.73,4.73,0,0,1-.08,1c-.07.66-.16,1.32-.26,2Z"/><path class="cls-11" d="M47.94,48.65c-.14-.65-.26-1.3-.37-2a4.63,4.63,0,0,1-.14-1,3,3,0,0,1,.18-1h.06a3.07,3.07,0,0,1,.35,1,4.1,4.1,0,0,1,0,1c0,.67,0,1.33,0,2Z"/><path class="cls-11" d="M46.1,48.79c-.18-.64-.35-1.28-.5-1.93a4.67,4.67,0,0,1-.21-1,3.31,3.31,0,0,1,.12-1h.06a3.24,3.24,0,0,1,.41.94,4.68,4.68,0,0,1,.09,1c0,.66.08,1.33.09,2Z"/><path class="cls-11" d="M29,49.92q-.42-.9-.81-1.83a5,5,0,0,1-.36-.93,3.14,3.14,0,0,1-.05-1l.06,0a3.34,3.34,0,0,1,.56.86,5.31,5.31,0,0,1,.25,1c.15.64.29,1.3.41,1.95Z"/><path class="cls-11" d="M32.58,49.46c-.2-.64-.38-1.28-.55-1.92a4.57,4.57,0,0,1-.23-1,3,3,0,0,1,.09-1H32a3.25,3.25,0,0,1,.43.93,4.7,4.7,0,0,1,.12,1c.06.66.11,1.32.14,2Z"/><path class="cls-11" d="M31.11,49.68c-.3-.6-.59-1.2-.86-1.81a4.83,4.83,0,0,1-.38-.92,3.17,3.17,0,0,1-.08-1l.06,0a3.29,3.29,0,0,1,.58.85,4.57,4.57,0,0,1,.27,1c.17.64.33,1.29.46,1.95Z"/><path class="cls-11" d="M34.63,49.27c-.2-.64-.39-1.28-.55-1.92a4.74,4.74,0,0,1-.24-1,3.27,3.27,0,0,1,.1-1H34a2.93,2.93,0,0,1,.44.93,4.06,4.06,0,0,1,.11,1c.07.66.12,1.32.15,2Z"/><path class="cls-11" d="M36.19,49.24c-.13-.66-.24-1.31-.33-2a4.06,4.06,0,0,1-.13-1,3.07,3.07,0,0,1,.2-1H36a3,3,0,0,1,.33,1,4.68,4.68,0,0,1,0,1c0,.67,0,1.33-.08,2Z"/><path class="cls-11" d="M38,49.12c-.08-.66-.15-1.32-.2-2a4.71,4.71,0,0,1-.06-1,3.33,3.33,0,0,1,.27-1h.06a3.33,3.33,0,0,1,.27,1,4.71,4.71,0,0,1-.06,1c-.06.66-.13,1.32-.22,2Z"/><path class="cls-11" d="M44.23,48.64c-.18-.65-.34-1.29-.49-1.94a4.65,4.65,0,0,1-.2-1,3.27,3.27,0,0,1,.12-1h.06a3,3,0,0,1,.41.94,4.73,4.73,0,0,1,.08,1c0,.67.07,1.33.08,2Z"/><path class="cls-11" d="M42.1,48.74c-.16-.65-.29-1.3-.41-2a4.18,4.18,0,0,1-.16-1,3.34,3.34,0,0,1,.16-1h.06a3,3,0,0,1,.37,1,4.66,4.66,0,0,1,0,1c0,.66,0,1.33,0,2Z"/><path class="cls-11" d="M40.07,48.78c-.15-.65-.29-1.3-.41-2a5.56,5.56,0,0,1-.16-1,3.07,3.07,0,0,1,.17-1h.06a3,3,0,0,1,.36,1,4.09,4.09,0,0,1,0,1c0,.66,0,1.33,0,2Z"/><path class="cls-11" d="M16.64,52.38c-.3-.6-.59-1.2-.86-1.81a4.35,4.35,0,0,1-.38-.92,3.17,3.17,0,0,1-.08-1l0,0a3.61,3.61,0,0,1,.59.85,5.26,5.26,0,0,1,.27,1c.17.64.33,1.29.47,2Z"/><path class="cls-11" d="M18.44,52.12q-.36-.94-.66-1.89a5.43,5.43,0,0,1-.28-.95,3.26,3.26,0,0,1,0-1l.06,0a3.37,3.37,0,0,1,.49.91,5.28,5.28,0,0,1,.17,1c.1.66.18,1.32.25,2Z"/><path class="cls-11" d="M19.93,51.43c-.19-.64-.36-1.28-.52-1.92a4.13,4.13,0,0,1-.22-1,3.25,3.25,0,0,1,.1-1h.06a3,3,0,0,1,.42.93,4.69,4.69,0,0,1,.11,1c.05.66.09,1.33.11,2Z"/><path class="cls-11" d="M21.68,51c-.23-.62-.45-1.25-.65-1.88a4.81,4.81,0,0,1-.29-1,3.21,3.21,0,0,1,0-1l.06,0a3.33,3.33,0,0,1,.48.91,4,4,0,0,1,.17,1c.1.66.18,1.32.25,2Z"/><path class="cls-11" d="M23.32,51Q23,50,22.66,49.09a5.18,5.18,0,0,1-.28-1,3.26,3.26,0,0,1,0-1h.06A3.17,3.17,0,0,1,23,48a5.43,5.43,0,0,1,.17,1c.1.66.18,1.32.25,2Z"/><path class="cls-11" d="M25.37,50.59c-.28-.6-.55-1.21-.8-1.83a4.54,4.54,0,0,1-.37-.92,3.22,3.22,0,0,1-.05-1l.06,0a3.1,3.1,0,0,1,.56.86,4.61,4.61,0,0,1,.25,1c.15.65.29,1.3.41,2Z"/><path class="cls-11" d="M27.19,50.05c-.3-.59-.59-1.2-.86-1.8a4.83,4.83,0,0,1-.38-.92,3.17,3.17,0,0,1-.08-1l.06,0a3.13,3.13,0,0,1,.58.85,5,5,0,0,1,.27,1c.17.64.33,1.29.46,1.95Z"/><path class="cls-11" d="M7.43,56.36c-.47-.48-.93-1-1.38-1.48a4.67,4.67,0,0,1-.65-.76,3.36,3.36,0,0,1-.4-1l0,0a3.07,3.07,0,0,1,.82.64,5.25,5.25,0,0,1,.56.83c.36.57.71,1.15,1.05,1.73Z"/><path class="cls-11" d="M6.39,57.74c-.55-.41-1.08-.82-1.6-1.25A4.47,4.47,0,0,1,4,55.83a3.33,3.33,0,0,1-.55-.89l0,0a3.41,3.41,0,0,1,.92.51,4.91,4.91,0,0,1,.69.75c.45.5.88,1,1.31,1.55Z"/><path class="cls-11" d="M9.17,55.31q-.7-.72-1.38-1.47a5.3,5.3,0,0,1-.65-.77,3,3,0,0,1-.39-1l0,0a3.33,3.33,0,0,1,.82.64,4.24,4.24,0,0,1,.56.84c.37.57.71,1.14,1.05,1.73Z"/><path class="cls-11" d="M10.81,54.55C10.39,54,10,53.49,9.6,52.94A4.7,4.7,0,0,1,9,52.11a3.15,3.15,0,0,1-.28-1l.05,0a3.17,3.17,0,0,1,.74.72,4.43,4.43,0,0,1,.47.89c.3.6.58,1.2.85,1.82Z"/><path class="cls-11" d="M12.51,53.74c-.38-.56-.75-1.12-1.1-1.69a4.64,4.64,0,0,1-.51-.86,3.31,3.31,0,0,1-.22-1l.06,0a3.32,3.32,0,0,1,.69.77,4.2,4.2,0,0,1,.4.92c.26.61.5,1.24.73,1.87Z"/><path class="cls-11" d="M14.5,53.1c-.3-.6-.59-1.2-.86-1.81a5,5,0,0,1-.39-.92,3.48,3.48,0,0,1-.07-1l.05,0a3.61,3.61,0,0,1,.59.85,5.26,5.26,0,0,1,.27,1c.17.65.33,1.3.47,1.95Z"/><path class="cls-11" d="M88.76,63.43q.7.72,1.38,1.47a4.74,4.74,0,0,1,.65.77,3.3,3.3,0,0,1,.4,1l0,0a3.53,3.53,0,0,1-.82-.64,4.91,4.91,0,0,1-.56-.84c-.36-.56-.71-1.14-1.05-1.73Z"/><path class="cls-11" d="M89.8,62.05c.55.4,1.08.82,1.6,1.25a4.07,4.07,0,0,1,.77.66,3.18,3.18,0,0,1,.55.89l0,0a3.39,3.39,0,0,1-.92-.5,4.91,4.91,0,0,1-.69-.75c-.45-.5-.88-1-1.31-1.55Z"/><path class="cls-11" d="M87,64.47c.47.48.93,1,1.38,1.48a4.82,4.82,0,0,1,.65.77,3,3,0,0,1,.39,1l0,0a2.92,2.92,0,0,1-.82-.64,4.17,4.17,0,0,1-.56-.83c-.37-.57-.71-1.15-1-1.73Z"/><path class="cls-11" d="M85.38,65.24c.42.52.82,1.06,1.21,1.61a4.62,4.62,0,0,1,.57.82,3.29,3.29,0,0,1,.28,1l0,0a3.38,3.38,0,0,1-.74-.72,5,5,0,0,1-.47-.89c-.29-.6-.58-1.21-.85-1.82Z"/><path class="cls-11" d="M84,65.76c.38.55.74,1.11,1.09,1.68a5,5,0,0,1,.51.86,3,3,0,0,1,.22,1l0,0a3.12,3.12,0,0,1-.7-.76,5,5,0,0,1-.4-.92c-.26-.62-.5-1.24-.73-1.87Z"/><path class="cls-11" d="M80.86,67c.3.6.59,1.2.86,1.81a5,5,0,0,1,.39.92,3.17,3.17,0,0,1,.08,1l-.06,0a3.29,3.29,0,0,1-.58-.85,4.59,4.59,0,0,1-.28-1c-.17-.64-.32-1.29-.46-2Z"/><path class="cls-11" d="M82.28,66.57q.6.81,1.14,1.65a4.46,4.46,0,0,1,.53.85,3,3,0,0,1,.25,1l0,0a3.19,3.19,0,0,1-.72-.75,4.63,4.63,0,0,1-.42-.9q-.42-.92-.78-1.86Z"/><path class="cls-11" d="M78.87,67.5c.31.6.59,1.2.86,1.81a4.38,4.38,0,0,1,.39.92,3.17,3.17,0,0,1,.08,1l-.06,0a3.29,3.29,0,0,1-.58-.85,4.59,4.59,0,0,1-.28-1c-.17-.65-.32-1.29-.46-2Z"/><path class="cls-11" d="M77.38,68.05c.23.63.45,1.26.65,1.89a4.72,4.72,0,0,1,.29,1,3.26,3.26,0,0,1,0,1l-.06,0a3.37,3.37,0,0,1-.49-.91,5.28,5.28,0,0,1-.17-1c-.1-.66-.18-1.32-.25-2Z"/><path class="cls-11" d="M75.58,68.45c.19.64.37,1.28.53,1.92a5.44,5.44,0,0,1,.22,1,3,3,0,0,1-.11,1h-.06a3.34,3.34,0,0,1-.42-.93,4.68,4.68,0,0,1-.1-1c-.06-.66-.1-1.33-.12-2Z"/><path class="cls-11" d="M73.83,68.9c.23.62.45,1.25.66,1.88a5.29,5.29,0,0,1,.28,1,3.2,3.2,0,0,1,0,1l-.06,0a3.37,3.37,0,0,1-.49-.91,5.28,5.28,0,0,1-.17-1c-.1-.66-.18-1.32-.25-2Z"/><path class="cls-11" d="M72.19,68.9c.24.63.46,1.25.66,1.89a4,4,0,0,1,.28.95,3,3,0,0,1,0,1H73a3.17,3.17,0,0,1-.49-.9,4.66,4.66,0,0,1-.16-1c-.1-.66-.19-1.32-.25-2Z"/><path class="cls-11" d="M70.14,69.29c.29.6.55,1.21.81,1.83a4.5,4.5,0,0,1,.36.92,3.2,3.2,0,0,1,0,1l-.06,0a3.52,3.52,0,0,1-.56-.86,5.29,5.29,0,0,1-.24-1c-.16-.65-.29-1.3-.42-2Z"/><path class="cls-11" d="M66.85,70c.2.64.39,1.28.55,1.92a4.59,4.59,0,0,1,.24,1,3.29,3.29,0,0,1-.09,1h-.06a3,3,0,0,1-.44-.93,4.12,4.12,0,0,1-.11-1c-.07-.66-.12-1.32-.15-2Z"/><path class="cls-11" d="M68.33,69.82c.3.6.58,1.2.85,1.81a5.64,5.64,0,0,1,.39.92,2.92,2.92,0,0,1,.07,1l0,0a3.29,3.29,0,0,1-.58-.85,4.59,4.59,0,0,1-.28-1c-.17-.64-.32-1.29-.46-2Z"/><path class="cls-11" d="M64.81,70.23c.2.64.38,1.28.55,1.92a4.72,4.72,0,0,1,.23,1,3.26,3.26,0,0,1-.09,1h-.06a3.44,3.44,0,0,1-.44-.93,5.36,5.36,0,0,1-.11-1c-.06-.66-.11-1.32-.14-2Z"/><path class="cls-11" d="M63.24,70.55c.13.66.24,1.31.34,2a4.61,4.61,0,0,1,.12,1,3,3,0,0,1-.2,1h-.06a3.28,3.28,0,0,1-.33-1,4.68,4.68,0,0,1,0-1c0-.66,0-1.33.08-2Z"/><path class="cls-11" d="M61.4,70.67c.08.66.15,1.32.2,2a4.12,4.12,0,0,1,.06,1,3.05,3.05,0,0,1-.27,1h-.06a3,3,0,0,1-.26-1,4.71,4.71,0,0,1,.06-1q.07-1,.21-2Z"/><path class="cls-11" d="M59.31,71.13c.11.66.21,1.32.29,2a4.66,4.66,0,0,1,.1,1,3.08,3.08,0,0,1-.23,1h-.06a3.07,3.07,0,0,1-.3-1,4.68,4.68,0,0,1,0-1c0-.67.07-1.33.13-2Z"/><path class="cls-11" d="M57.26,71.07c.11.66.21,1.31.29,2a4.74,4.74,0,0,1,.09,1,3.34,3.34,0,0,1-.22,1h-.06a3,3,0,0,1-.31-1,4.7,4.7,0,0,1,0-1c0-.66.07-1.32.13-2Z"/><path class="cls-11" d="M55.66,71.19c0,.67.06,1.33.07,2a4.77,4.77,0,0,1,0,1,3.1,3.1,0,0,1-.33,1h-.06a3,3,0,0,1-.2-1,4.14,4.14,0,0,1,.13-1c.1-.65.21-1.31.34-2Z"/><path class="cls-11" d="M53.85,71.06q.13,1,.21,2a4.71,4.71,0,0,1,.06,1,3.05,3.05,0,0,1-.27,1h-.06a3,3,0,0,1-.26-1,4.12,4.12,0,0,1,.06-1c0-.66.12-1.32.2-2Z"/><path class="cls-11" d="M52.06,71.14c.11.66.19,1.32.26,2a4.74,4.74,0,0,1,.09,1,3.25,3.25,0,0,1-.24,1h-.06a3.26,3.26,0,0,1-.3-1,4.69,4.69,0,0,1,0-1c0-.67.09-1.33.15-2Z"/><path class="cls-11" d="M50,71.05c.1.65.19,1.31.26,2a4.74,4.74,0,0,1,.09,1,3.06,3.06,0,0,1-.25,1h-.06a3.23,3.23,0,0,1-.29-1,4.69,4.69,0,0,1,0-1c0-.67.09-1.33.16-2Z"/><path class="cls-11" d="M48.41,71.15c0,.66.05,1.33,0,2a4.09,4.09,0,0,1,0,1,3.07,3.07,0,0,1-.35,1H48a3.26,3.26,0,0,1-.18-1,4.73,4.73,0,0,1,.14-1c.11-.65.23-1.31.37-2Z"/><path class="cls-11" d="M46.57,71c0,.67,0,1.33-.09,2a4.68,4.68,0,0,1-.09,1,3.24,3.24,0,0,1-.41.94h-.06a3.27,3.27,0,0,1-.12-1,4.67,4.67,0,0,1,.21-1c.15-.65.32-1.29.5-1.93Z"/><path class="cls-11" d="M29.46,69.89c-.12.66-.26,1.31-.41,2a4.52,4.52,0,0,1-.25,1,3.3,3.3,0,0,1-.56.87l-.06,0a3.19,3.19,0,0,1,.05-1,5.26,5.26,0,0,1,.36-.93q.39-.92.81-1.83Z"/><path class="cls-11" d="M33.05,70.35c0,.66-.08,1.33-.14,2a5.35,5.35,0,0,1-.11,1,3.44,3.44,0,0,1-.44.93H32.3a3.26,3.26,0,0,1-.09-1,4.72,4.72,0,0,1,.23-1c.17-.64.35-1.28.55-1.91Z"/><path class="cls-11" d="M31.58,70.14c-.14.65-.3,1.3-.47,1.94a4.4,4.4,0,0,1-.27,1,3,3,0,0,1-.58.85l-.06,0a3.11,3.11,0,0,1,.08-1,4.35,4.35,0,0,1,.38-.92c.27-.61.56-1.22.86-1.81Z"/><path class="cls-11" d="M35.1,70.54c0,.66-.08,1.33-.14,2a4.7,4.7,0,0,1-.12,1,3.15,3.15,0,0,1-.44.93h0a3,3,0,0,1-.09-1,4.72,4.72,0,0,1,.23-1c.17-.64.35-1.28.55-1.91Z"/><path class="cls-11" d="M36.66,70.56c.05.66.07,1.33.08,2a4.68,4.68,0,0,1,0,1,3.36,3.36,0,0,1-.34,1h-.06a3.29,3.29,0,0,1-.2-1,4.12,4.12,0,0,1,.13-1c.09-.66.21-1.31.34-2Z"/><path class="cls-11" d="M38.5,70.67c.09.66.16,1.32.22,2a4.71,4.71,0,0,1,.06,1,3.33,3.33,0,0,1-.27,1h-.06a3.33,3.33,0,0,1-.27-1,4.71,4.71,0,0,1,.06-1q.07-1,.21-2Z"/><path class="cls-11" d="M44.7,71.17c0,.66,0,1.33-.08,2a4.1,4.1,0,0,1-.08,1,3,3,0,0,1-.41.94h-.06a3.27,3.27,0,0,1-.12-1,4.65,4.65,0,0,1,.2-1c.15-.65.31-1.29.49-1.93Z"/><path class="cls-11" d="M42.57,71.06c0,.67,0,1.33,0,2a4.69,4.69,0,0,1,0,1,3.07,3.07,0,0,1-.37,1H42.1a3.27,3.27,0,0,1-.16-1,4.09,4.09,0,0,1,.16-1c.12-.65.25-1.31.41-2Z"/><path class="cls-11" d="M40.54,71c0,.67,0,1.33,0,2a4.76,4.76,0,0,1,0,1,3.14,3.14,0,0,1-.36,1h-.06a3.06,3.06,0,0,1-.17-1,5.28,5.28,0,0,1,.16-1c.12-.66.26-1.31.41-2Z"/><path class="cls-11" d="M17.11,67.44c-.14.65-.3,1.3-.47,1.94a5,5,0,0,1-.27,1,3,3,0,0,1-.59.85l0,0a3.17,3.17,0,0,1,.08-1,4.83,4.83,0,0,1,.38-.92c.27-.6.56-1.21.86-1.8Z"/><path class="cls-11" d="M18.91,67.69c-.07.67-.15,1.33-.25,2a5.28,5.28,0,0,1-.17,1,3.23,3.23,0,0,1-.49.91h-.06a3.27,3.27,0,0,1,0-1,5.53,5.53,0,0,1,.28-1c.21-.63.42-1.26.66-1.88Z"/><path class="cls-11" d="M20.4,68.37c0,.67-.06,1.33-.11,2a4.68,4.68,0,0,1-.1,1,3.31,3.31,0,0,1-.43.94H19.7a3.3,3.3,0,0,1-.1-1,4,4,0,0,1,.22-1c.16-.65.33-1.29.52-1.93Z"/><path class="cls-11" d="M22.15,68.82c-.06.67-.15,1.33-.25,2a4.2,4.2,0,0,1-.17,1,2.91,2.91,0,0,1-.48.9h-.06a3,3,0,0,1,0-1,4,4,0,0,1,.28-1c.2-.64.42-1.26.66-1.89Z"/><path class="cls-11" d="M23.79,68.83c-.07.66-.15,1.32-.25,2a4.57,4.57,0,0,1-.17,1,3.11,3.11,0,0,1-.49.91l-.05,0a3.21,3.21,0,0,1,0-1,4.62,4.62,0,0,1,.29-1c.2-.63.42-1.26.65-1.88Z"/><path class="cls-11" d="M25.84,69.22c-.12.66-.26,1.31-.41,2a4.52,4.52,0,0,1-.25,1,3.07,3.07,0,0,1-.56.87l-.05,0a2.93,2.93,0,0,1,.05-1A4.07,4.07,0,0,1,25,71q.38-.93.81-1.83Z"/><path class="cls-11" d="M27.66,69.76c-.14.65-.3,1.3-.47,1.95a4.48,4.48,0,0,1-.27,1,3,3,0,0,1-.58.85h-.06a3.17,3.17,0,0,1,.08-1,4.35,4.35,0,0,1,.38-.92c.27-.61.56-1.21.86-1.81Z"/><path class="cls-11" d="M7.89,63.47c-.34.59-.69,1.16-1,1.73a5.34,5.34,0,0,1-.56.84,3.33,3.33,0,0,1-.82.64l0,0a3.3,3.3,0,0,1,.4-1,4.74,4.74,0,0,1,.65-.77c.45-.5.91-1,1.38-1.48Z"/><path class="cls-11" d="M6.84,62.1c-.43.53-.86,1-1.31,1.55a4.42,4.42,0,0,1-.69.74,3.1,3.1,0,0,1-.91.51l-.05,0a3.39,3.39,0,0,1,.55-.9,4.41,4.41,0,0,1,.77-.65c.52-.43,1-.85,1.6-1.26Z"/><path class="cls-11" d="M9.63,64.52c-.33.58-.68,1.16-1.05,1.72a4.35,4.35,0,0,1-.55.84,3.23,3.23,0,0,1-.82.64l0,0a3.09,3.09,0,0,1,.39-1A4.34,4.34,0,0,1,8.21,66c.44-.51.9-1,1.37-1.48Z"/><path class="cls-11" d="M11.27,65.27c-.27.62-.55,1.23-.85,1.83A5,5,0,0,1,10,68a3.18,3.18,0,0,1-.74.72l-.05,0a3.14,3.14,0,0,1,.28-1,4.7,4.7,0,0,1,.57-.83c.39-.54.79-1.08,1.21-1.61Z"/><path class="cls-11" d="M13,66.09c-.23.63-.47,1.25-.73,1.87a4.12,4.12,0,0,1-.4.91,3.13,3.13,0,0,1-.69.77l-.06,0a3.31,3.31,0,0,1,.22-1,5,5,0,0,1,.51-.86c.35-.57.72-1.13,1.1-1.68Z"/><path class="cls-11" d="M15,66.71c-.14.66-.3,1.31-.47,2a5.26,5.26,0,0,1-.27,1,3.61,3.61,0,0,1-.59.85l-.05,0a3.17,3.17,0,0,1,.08-1,4.58,4.58,0,0,1,.38-.92c.27-.61.56-1.21.86-1.81Z"/><path class="cls-11" d="M5.68,59.42c-.69-.07-1.37-.16-2-.27a5.06,5.06,0,0,1-1-.17,3.38,3.38,0,0,1-.94-.49v-.06a3.52,3.52,0,0,1,1.07,0,4.8,4.8,0,0,1,1,.29c.66.21,1.31.43,2,.67Z"/><path class="cls-11" d="M5.84,61c-.71.26-1.42.51-2.14.74a5.63,5.63,0,0,1-1.08.33,3.75,3.75,0,0,1-1.16,0V62a4.38,4.38,0,0,1,1-.53,6,6,0,0,1,1.11-.21c.74-.13,1.49-.25,2.24-.34Z"/><path class="cls-11" d="M90.22,59.07c.65-.24,1.3-.46,2-.67a5.08,5.08,0,0,1,1-.29,3.45,3.45,0,0,1,1.06,0v.06a3.38,3.38,0,0,1-.94.49,4.86,4.86,0,0,1-1,.18c-.68.1-1.37.19-2.05.26Z"/><path class="cls-11" d="M90.08,60.63c.75.1,1.5.21,2.24.34a6.6,6.6,0,0,1,1.11.21,3.91,3.91,0,0,1,1,.54v.05a3.75,3.75,0,0,1-1.16,0,6.1,6.1,0,0,1-1.08-.33c-.72-.23-1.43-.48-2.14-.74Z"/></g></g></svg>