<svg xmlns="http://www.w3.org/2000/svg" xmlns:xlink="http://www.w3.org/1999/xlink" viewBox="0 0 1440 701.17"><defs><style>.cls-1{fill:url(#Degradado_sin_nombre_66);}.cls-2{fill:url(#Degradado_sin_nombre_12);}.cls-3{fill:url(#Degradado_sin_nombre_66-2);}.cls-4{fill:url(#Degradado_sin_nombre_66-3);}.cls-5{fill:url(#Degradado_sin_nombre_66-4);}.cls-6{fill:url(#Degradado_sin_nombre_66-5);}.cls-7{fill:url(#Degradado_sin_nombre_66-6);}.cls-8{fill:url(#Degradado_sin_nombre_66-7);}.cls-9{fill:url(#Degradado_sin_nombre_66-8);}.cls-10{fill:url(#Degradado_sin_nombre_66-9);}.cls-11{fill:url(#Degradado_sin_nombre_66-10);}.cls-12{fill:url(#Degradado_sin_nombre_66-11);}.cls-13{fill:url(#Degradado_sin_nombre_66-12);}.cls-14{fill:url(#Degradado_sin_nombre_66-13);}.cls-15{fill:url(#Degradado_sin_nombre_66-14);}.cls-16{fill:url(#Degradado_sin_nombre_66-15);}.cls-17{fill:url(#Degradado_sin_nombre_66-16);}.cls-18{fill:url(#Degradado_sin_nombre_66-17);}.cls-19{fill:url(#Degradado_sin_nombre_66-18);}.cls-20{fill:url(#Degradado_sin_nombre_66-19);}.cls-21{fill:url(#Degradado_sin_nombre_66-20);}.cls-22{fill:url(#Degradado_sin_nombre_66-21);}.cls-23{fill:url(#Degradado_sin_nombre_66-22);}.cls-24{fill:url(#Degradado_sin_nombre_66-23);}.cls-25{fill:url(#Degradado_sin_nombre_66-24);}.cls-26{fill:url(#Degradado_sin_nombre_66-25);}.cls-27{fill:url(#Degradado_sin_nombre_66-26);}.cls-28{fill:url(#Degradado_sin_nombre_66-27);}.cls-29{fill:url(#Degradado_sin_nombre_66-28);}.cls-30{fill:url(#Degradado_sin_nombre_66-29);}.cls-31{fill:url(#Degradado_sin_nombre_66-30);}.cls-32{fill:url(#Degradado_sin_nombre_66-31);}.cls-33{fill:url(#Degradado_sin_nombre_66-32);}.cls-34{fill:url(#Degradado_sin_nombre_66-33);}.cls-35{fill:url(#Degradado_sin_nombre_66-34);}.cls-36{fill:url(#Degradado_sin_nombre_66-35);}.cls-37{fill:url(#Degradado_sin_nombre_66-36);}.cls-38{fill:url(#Degradado_sin_nombre_66-37);}.cls-39{fill:url(#Degradado_sin_nombre_66-38);}.cls-40,.cls-41,.cls-57,.cls-62,.cls-69{fill:#92a38d;}.cls-40{stroke:#676d64;stroke-width:0.5px;}.cls-40,.cls-43,.cls-44,.cls-45,.cls-46,.cls-49,.cls-50,.cls-51,.cls-52,.cls-53,.cls-54,.cls-55,.cls-56,.cls-57,.cls-59,.cls-60,.cls-61,.cls-62,.cls-63,.cls-64,.cls-65,.cls-66,.cls-67,.cls-68,.cls-69,.cls-70,.cls-71,.cls-72,.cls-73,.cls-74{stroke-miterlimit:10;}.cls-42{fill:#676d64;}.cls-43,.cls-49,.cls-50,.cls-56,.cls-61,.cls-65,.cls-68{fill:#b5ccae;}.cls-43,.cls-44,.cls-45,.cls-49,.cls-50,.cls-51,.cls-52,.cls-53,.cls-54,.cls-55,.cls-56,.cls-73,.cls-74{stroke:#000;}.cls-43{stroke-width:0.16px;}.cls-44,.cls-52,.cls-54,.cls-73{fill:#f2e7eb;}.cls-44,.cls-45{stroke-width:0.25px;}.cls-45,.cls-53,.cls-55,.cls-74{fill:#edebe8;}.cls-46,.cls-47{fill:#abb7a7;}.cls-46{stroke:#6a7268;}.cls-46,.cls-57,.cls-65,.cls-66{stroke-width:0.5px;}.cls-48{fill:#6a7268;}.cls-49{stroke-width:0.25px;}.cls-50{stroke-width:0.17px;}.cls-51{fill:#a2b79c;stroke-width:0.38px;}.cls-52,.cls-53{stroke-width:0.27px;}.cls-54,.cls-55{stroke-width:0.16px;}.cls-56{stroke-width:0.08px;}.cls-57,.cls-59,.cls-60,.cls-62,.cls-64,.cls-67,.cls-69,.cls-71,.cls-72{stroke:#4f564d;}.cls-58{fill:#4f564d;}.cls-59,.cls-60,.cls-63,.cls-64,.cls-66,.cls-67,.cls-70,.cls-71,.cls-72{fill:none;}.cls-59{stroke-width:3.45px;}.cls-60{stroke-width:3.88px;}.cls-61,.cls-65,.cls-68{stroke:#89a082;}.cls-61,.cls-62,.cls-63{stroke-width:0.49px;}.cls-63,.cls-66,.cls-70{stroke:#92a38d;}.cls-64{stroke-width:3.95px;}.cls-67{stroke-width:3.19px;}.cls-68,.cls-69,.cls-70{stroke-width:0.4px;}.cls-71{stroke-width:4.44px;}.cls-72{stroke-width:3.67px;}.cls-73,.cls-74{stroke-width:0.21px;}</style><linearGradient id="Degradado_sin_nombre_66" x1="717.66" y1="341.72" x2="722.23" y2="664.01" gradientUnits="userSpaceOnUse"><stop offset="0" stop-color="#d2e1da"/><stop offset="1" stop-color="#afc9bc"/></linearGradient><linearGradient id="Degradado_sin_nombre_12" x1="718.07" y1="21.06" x2="721.83" y2="286.2" gradientUnits="userSpaceOnUse"><stop offset="0" stop-color="#f2f2f2"/><stop offset="1" stop-color="#f2e7eb"/></linearGradient><linearGradient id="Degradado_sin_nombre_66-2" x1="1239.79" y1="505.37" x2="1299.26" y2="505.37" xlink:href="#Degradado_sin_nombre_66"/><linearGradient id="Degradado_sin_nombre_66-3" x1="1271.17" y1="473.65" x2="1335.97" y2="473.65" xlink:href="#Degradado_sin_nombre_66"/><linearGradient id="Degradado_sin_nombre_66-4" x1="507.6" y1="531.66" x2="652.63" y2="531.66" xlink:href="#Degradado_sin_nombre_66"/><linearGradient id="Degradado_sin_nombre_66-5" x1="532.58" y1="648.51" x2="717.68" y2="648.51" xlink:href="#Degradado_sin_nombre_66"/><linearGradient id="Degradado_sin_nombre_66-6" x1="779.61" y1="512.53" x2="800.7" y2="512.53" xlink:href="#Degradado_sin_nombre_66"/><linearGradient id="Degradado_sin_nombre_66-7" x1="811.18" y1="459.95" x2="858.49" y2="459.95" xlink:href="#Degradado_sin_nombre_66"/><linearGradient id="Degradado_sin_nombre_66-8" x1="801.93" y1="681.88" x2="1007.05" y2="681.88" xlink:href="#Degradado_sin_nombre_66"/><linearGradient id="Degradado_sin_nombre_66-9" x1="1008.29" y1="517.05" x2="1075.41" y2="517.05" xlink:href="#Degradado_sin_nombre_66"/><linearGradient id="Degradado_sin_nombre_66-10" x1="48.79" y1="631.29" x2="185.47" y2="631.29" xlink:href="#Degradado_sin_nombre_66"/><linearGradient id="Degradado_sin_nombre_66-11" x1="469.47" y1="484.6" x2="520.73" y2="484.6" xlink:href="#Degradado_sin_nombre_66"/><linearGradient id="Degradado_sin_nombre_66-12" x1="787.33" y1="416.14" x2="804.65" y2="416.14" xlink:href="#Degradado_sin_nombre_66"/><linearGradient id="Degradado_sin_nombre_66-13" x1="1163.4" y1="392.48" x2="1169.97" y2="392.48" xlink:href="#Degradado_sin_nombre_66"/><linearGradient id="Degradado_sin_nombre_66-14" x1="1058.08" y1="368.23" x2="1122.62" y2="368.23" xlink:href="#Degradado_sin_nombre_66"/><linearGradient id="Degradado_sin_nombre_66-15" x1="1173.92" y1="340.59" x2="1200.2" y2="340.59" xlink:href="#Degradado_sin_nombre_66"/><linearGradient id="Degradado_sin_nombre_66-16" x1="1332.82" y1="345.78" x2="1335.7" y2="345.78" xlink:href="#Degradado_sin_nombre_66"/><linearGradient id="Degradado_sin_nombre_66-17" x1="1361.84" y1="343.21" x2="1398.68" y2="343.21" xlink:href="#Degradado_sin_nombre_66"/><linearGradient id="Degradado_sin_nombre_66-18" x1="1396.03" y1="409.35" x2="1414.43" y2="409.35" xlink:href="#Degradado_sin_nombre_66"/><linearGradient id="Degradado_sin_nombre_66-19" x1="1378.92" y1="574.1" x2="1406.75" y2="574.1" xlink:href="#Degradado_sin_nombre_66"/><linearGradient id="Degradado_sin_nombre_66-20" x1="157.89" y1="408.66" x2="198.76" y2="408.66" xlink:href="#Degradado_sin_nombre_66"/><linearGradient id="Degradado_sin_nombre_66-21" x1="355.09" y1="378.14" x2="381.44" y2="378.14" xlink:href="#Degradado_sin_nombre_66"/><linearGradient id="Degradado_sin_nombre_66-22" x1="315.69" y1="485.78" x2="339.35" y2="485.78" xlink:href="#Degradado_sin_nombre_66"/><linearGradient id="Degradado_sin_nombre_66-23" x1="349.88" y1="594.88" x2="377.47" y2="594.88" xlink:href="#Degradado_sin_nombre_66"/><linearGradient id="Degradado_sin_nombre_66-24" x1="261.83" y1="657.94" x2="294.7" y2="657.94" xlink:href="#Degradado_sin_nombre_66"/><linearGradient id="Degradado_sin_nombre_66-25" x1="683.7" y1="584.5" x2="709.98" y2="584.5" xlink:href="#Degradado_sin_nombre_66"/><linearGradient id="Degradado_sin_nombre_66-26" x1="570.67" y1="424.92" x2="590.39" y2="424.92" xlink:href="#Degradado_sin_nombre_66"/><linearGradient id="Degradado_sin_nombre_66-27" x1="59.39" y1="488.15" x2="83.22" y2="488.15" xlink:href="#Degradado_sin_nombre_66"/><linearGradient id="Degradado_sin_nombre_66-28" x1="416.19" y1="428.14" x2="453.08" y2="428.14" xlink:href="#Degradado_sin_nombre_66"/><linearGradient id="Degradado_sin_nombre_66-29" x1="665.15" y1="364.9" x2="692.9" y2="364.9" xlink:href="#Degradado_sin_nombre_66"/><linearGradient id="Degradado_sin_nombre_66-30" x1="127.18" y1="683.13" x2="198.35" y2="683.13" xlink:href="#Degradado_sin_nombre_66"/><linearGradient id="Degradado_sin_nombre_66-31" x1="391.85" y1="632.98" x2="421.75" y2="632.98" xlink:href="#Degradado_sin_nombre_66"/><linearGradient id="Degradado_sin_nombre_66-32" x1="847.77" y1="521.17" x2="867.81" y2="521.17" xlink:href="#Degradado_sin_nombre_66"/><linearGradient id="Degradado_sin_nombre_66-33" x1="1108.96" y1="587.28" x2="1122.28" y2="587.28" xlink:href="#Degradado_sin_nombre_66"/><linearGradient id="Degradado_sin_nombre_66-34" x1="1163.16" y1="661.65" x2="1188.8" y2="661.65" xlink:href="#Degradado_sin_nombre_66"/><linearGradient id="Degradado_sin_nombre_66-35" x1="1342.13" y1="640.7" x2="1345.01" y2="640.7" xlink:href="#Degradado_sin_nombre_66"/><linearGradient id="Degradado_sin_nombre_66-36" x1="534.61" y1="381.85" x2="565.62" y2="381.85" xlink:href="#Degradado_sin_nombre_66"/><linearGradient id="Degradado_sin_nombre_66-37" x1="156.15" y1="498.68" x2="186.03" y2="498.68" xlink:href="#Degradado_sin_nombre_66"/><linearGradient id="Degradado_sin_nombre_66-38" x1="6.76" y1="555.49" x2="15.61" y2="555.49" xlink:href="#Degradado_sin_nombre_66"/></defs><title>Recurso 4</title><g id="Capa_2" data-name="Capa 2"><g id="Capa_1-2" data-name="Capa 1"><rect class="cls-1" y="313.92" width="1440" height="385.99"/><rect class="cls-2" width="1440" height="313.92"/><path class="cls-3" d="M1240.31,508.47a115.08,115.08,0,0,1,58.42.33,1.49,1.49,0,0,0,.79-2.88,118.19,118.19,0,0,0-60-.33,1.49,1.49,0,0,0,.79,2.88Z"/><path class="cls-4" d="M1335.94,472.47a490.16,490.16,0,0,1-50.42-.18q-7.15-.39-14.31-1c-1.91-.16-1.9,2.82,0,3a487.28,487.28,0,0,0,50.4,1.66q7.17-.14,14.33-.47c1.91-.1,1.92-3.08,0-3Z"/><path class="cls-5" d="M507.62,532q29.16-1.51,58.37-.73,14.46.4,28.91,1.36c9.45.64,18.87,1.64,28.31,2.34,9.94.73,20.2.7,29.63-2.93,1.77-.68,1-3.56-.79-2.87-8.33,3.2-17.28,3.51-26.09,3-9.3-.54-18.56-1.63-27.85-2.3q-28.87-2.05-57.85-1.83-16.32.12-32.64,1c-1.91.1-1.92,3.08,0,3Z"/><path class="cls-6" d="M717.17,634.93q-35.56,7.83-71.61,13.26-35.82,5.4-72,8.36-20.48,1.68-41,2.59c-1.91.09-1.92,3.07,0,3q36.52-1.62,72.88-5.69t72.22-10.56q20.2-3.64,40.27-8.06c1.87-.42,1.08-3.29-.8-2.88Z"/><path class="cls-7" d="M779.65,514.74l21-1.44c1.91-.13,1.92-3.11,0-3l-21,1.44c-1.91.13-1.92,3.11,0,3Z"/><path class="cls-8" d="M858.49,458.46H811.18a1.49,1.49,0,0,0,0,3h47.31a1.49,1.49,0,0,0,0-3Z"/><path class="cls-9" d="M802,679.15c26.62,2.09,53.24,4.18,79.89,5.75s53.3,2.65,80,2.69c15.07,0,30.14-.29,45.2-1,1.91-.09,1.92-3.07,0-3-26.64,1.27-53.33,1.25-80,.41s-53.33-2.47-79.95-4.39c-15.05-1.09-30.09-2.27-45.14-3.45-1.91-.15-1.9,2.83,0,3Z"/><path class="cls-10" d="M1074.94,511.61q-25.86,4-51.89,6.57c-4.91.49-9.81.93-14.72,1.35-1.9.16-1.92,3.14,0,3q26.34-2.22,52.53-5.85,7.44-1,14.87-2.18c1.89-.29,1.09-3.16-.79-2.87Z"/><path class="cls-11" d="M49.38,642a259.65,259.65,0,0,1,55-15.53,217.62,217.62,0,0,1,28.58-3,63.82,63.82,0,0,1,14,.89,50.84,50.84,0,0,1,12.49,4.45c8,3.88,17.09,9.26,26.2,5.83,1.77-.67,1-3.55-.8-2.88-8.09,3-16.22-1.77-23.32-5.25a57.78,57.78,0,0,0-12.21-4.69,60.67,60.67,0,0,0-13.83-1.37,195.31,195.31,0,0,0-28.45,2.64,259.26,259.26,0,0,0-58.5,16.07c-1.75.71-1,3.6.8,2.88Z"/><path class="cls-12" d="M469.47,486.09h51.26a1.49,1.49,0,0,0,0-3H469.47a1.49,1.49,0,0,0,0,3Z"/><path class="cls-13" d="M787.83,418.14a52.75,52.75,0,0,1,16.77-.7,1.49,1.49,0,0,0,1.49-1.49,1.53,1.53,0,0,0-1.49-1.49,55.36,55.36,0,0,0-17.56.81c-1.88.38-1.09,3.26.79,2.87Z"/><path class="cls-14" d="M1170,391h-6.57a1.49,1.49,0,0,0,0,3H1170a1.49,1.49,0,1,0,0-3Z"/><path class="cls-15" d="M1058.57,371.39a192.49,192.49,0,0,1,49.34-2.92q7.15.5,14.25,1.53c1.87.27,2.68-2.6.79-2.88a195.74,195.74,0,0,0-51-.79q-7.15.84-14.23,2.18c-1.88.36-1.08,3.24.8,2.88Z"/><path class="cls-16" d="M1200.2,339.1h-26.28a1.49,1.49,0,0,0,0,3h26.28a1.49,1.49,0,0,0,0-3Z"/><path class="cls-17" d="M1334.26,347.27a1.49,1.49,0,0,0,0-3,1.49,1.49,0,0,0,0,3Z"/><path class="cls-18" d="M1362.31,347.58l36.69-5.86c1.89-.3,1.09-3.18-.79-2.88l-36.69,5.86c-1.89.3-1.09,3.18.79,2.88Z"/><path class="cls-19" d="M1414.43,407.86H1396a1.49,1.49,0,0,0,0,3h18.4a1.49,1.49,0,0,0,0-3Z"/><path class="cls-20" d="M1379,578a60.81,60.81,0,0,0,28.34-5.15c1.75-.78.24-3.34-1.5-2.57A57.65,57.65,0,0,1,1379,575c-1.92-.11-1.91,2.87,0,3Z"/><path class="cls-21" d="M158.41,412.17a133.89,133.89,0,0,1,40.32-3.88c1.92.1,1.91-2.88,0-3a137.17,137.17,0,0,0-41.11,4c-1.86.47-1.07,3.35.79,2.88Z"/><path class="cls-22" d="M381.38,375.11l-26.23,3.07c-1.88.23-1.9,3.21,0,3l26.23-3.08c1.88-.22,1.9-3.21,0-3Z"/><path class="cls-23" d="M315.72,489a138.82,138.82,0,0,0,23.91-3.47c1.87-.44,1.08-3.32-.79-2.88A134.56,134.56,0,0,1,315.72,486c-1.91.1-1.92,3.09,0,3Z"/><path class="cls-24" d="M377.47,593.39H349.88a1.49,1.49,0,0,0,0,3h27.59a1.49,1.49,0,0,0,0-3Z"/><path class="cls-25" d="M262.3,661.75,295,657c1.89-.27,1.09-3.14-.79-2.87l-32.73,4.74c-1.89.28-1.09,3.15.79,2.88Z"/><path class="cls-26" d="M710,583H683.7a1.49,1.49,0,0,0,0,3H710a1.49,1.49,0,0,0,0-3Z"/><path class="cls-27" d="M570.67,426.41h19.72a1.49,1.49,0,0,0,0-3H570.67a1.49,1.49,0,0,0,0,3Z"/><path class="cls-28" d="M82.74,486.09a95.73,95.73,0,0,1-23.31.8c-1.91-.16-1.9,2.82,0,3a98.21,98.21,0,0,0,24.1-.91c1.89-.3,1.09-3.17-.79-2.87Z"/><path class="cls-29" d="M415.88,430.92a74,74,0,0,0,37.42-3.55c1.78-.65,1-3.54-.79-2.87a71.13,71.13,0,0,1-35.84,3.55c-1.88-.3-2.68,2.57-.79,2.87Z"/><path class="cls-30" d="M692.87,363.84a135.71,135.71,0,0,1-27.25-1.08c-1.88-.26-2.69,2.61-.79,2.88a139.85,139.85,0,0,0,28,1.18c1.9-.11,1.92-3.1,0-3Z"/><path class="cls-31" d="M127.21,679.76c18.89,1.18,36.77,8.66,55.69,9.63a64,64,0,0,0,15.75-1.08c1.88-.37,1.08-3.24-.8-2.87-18.5,3.67-36.91-3-54.89-6.51a120.94,120.94,0,0,0-15.75-2.15c-1.91-.12-1.91,2.86,0,3Z"/><path class="cls-32" d="M421.7,630,391.9,633c-1.9.19-1.92,3.17,0,3L421.7,633c1.89-.19,1.91-3.17,0-3Z"/><path class="cls-33" d="M847.8,523.08A86.43,86.43,0,0,0,868.12,522c1.89-.33,1.09-3.2-.79-2.88a83,83,0,0,1-19.53,1c-1.91-.13-1.9,2.85,0,3Z"/><path class="cls-34" d="M1122.83,587.34a34,34,0,0,0-13.86-2.86,1.49,1.49,0,0,0,0,3,30.52,30.52,0,0,1,12.36,2.46,1.53,1.53,0,0,0,2-.54,1.5,1.5,0,0,0-.54-2Z"/><path class="cls-35" d="M1163.2,664a94.68,94.68,0,0,0,25.9-1.93c1.87-.41,1.08-3.28-.8-2.88a91.58,91.58,0,0,1-25.1,1.83c-1.92-.12-1.91,2.86,0,3Z"/><path class="cls-36" d="M1343.57,642.19a1.49,1.49,0,0,0,0-3,1.49,1.49,0,0,0,0,3Z"/><path class="cls-37" d="M565.6,379q-15.52.75-30.93,2.79a1.53,1.53,0,0,0-1.49,1.49,1.5,1.5,0,0,0,1.49,1.49q15.41-2,30.93-2.79c1.91-.1,1.92-3.08,0-3Z"/><path class="cls-38" d="M156.15,500.17H186a1.49,1.49,0,0,0,0-3H156.15a1.49,1.49,0,0,0,0,3Z"/><path class="cls-39" d="M15.61,554H6.76a1.49,1.49,0,1,0,0,3h8.85a1.5,1.5,0,0,0,1.49-1.49A1.52,1.52,0,0,0,15.61,554Z"/><path class="cls-40" d="M1355.93,380.35s-4.22,17.1-7.64,21.77c-12,16.4-46.5,18.65-61.4,19.63-17.85,1.18-45.87,2.33-63.4-1.19-10.18-2-31-4.6-49-17.43-4.91-3.51-7.78-25.13-7.78-25.13Z"/><path class="cls-40" d="M1166.72,378c0,17.1,42.35,31,94.59,31,15.29,0,40.66-4.7,54-5.83,5.93-.5,6.4,4.84,6.42,6.27a.07.07,0,0,0,.14,0,24.71,24.71,0,0,1,12.61-11.89c5.31-2.12,22.25-9.42,21.46-19.54-1.33-17-42.35-31-94.59-31S1166.72,360.9,1166.72,378Z"/><path class="cls-40" d="M1171.81,378.7c0,14.59,40.12,26.42,89.62,26.42,14.49,0,31.83-1.21,44.2-3.58,11.57-2.21,15.57,3.73,15.57,3.73s.81-6.77,9.52-9.9c5-1.81,21.08-8,20.33-16.67-1.26-14.55-40.12-26.43-89.62-26.43S1171.81,364.1,1171.81,378.7Z"/><path class="cls-40" d="M1174,378.77c-1.56,2.93-.33,6.61,3.44,9.53,12.85,10,45.52,17,83.79,17,14.49,0,31.83-1.21,44.2-3.58,11.56-2.21,15.57,3.73,15.57,3.73s.81-6.77,9.52-9.9a57.25,57.25,0,0,0,14.7-7.4c2.43-1.71,3.84-7.88,2.57-10.18-3.65-6.58-18.71-11.67-33.79-15.09-16.46-3.73-27.92-4.93-53.75-4.93-24.28,0-28.15,1.31-44.08,3.69C1205.46,363.27,1179.89,367.71,1174,378.77Z"/><path class="cls-41" d="M1254.74,379.79c-5.14-5.41-12.45-8.13-19.37-11-3.94-1.63-8-3.52-10.44-7"/><path class="cls-42" d="M1255.27,379.26c-4.1-4.24-9.41-6.87-14.78-9.14-5.15-2.19-11.5-3.93-14.91-8.72-.56-.77-1.85,0-1.29.76,3.34,4.69,9,6.57,14.11,8.68,5.7,2.36,11.46,5,15.81,9.48.67.69,1.72-.37,1.06-1.06Z"/><path class="cls-41" d="M1249.21,382.77c-8.82-.78-17.5-3-26.35-3.19-3.57-.09-7.14.14-10.71.22a152.21,152.21,0,0,1-34.32-3.19"/><path class="cls-42" d="M1249.21,382c-9.13-.83-18.12-3.1-27.32-3.2-4.71-.05-9.41.31-14.11.28s-9.25-.29-13.84-.76c-5.34-.54-10.65-1.38-15.91-2.45-.93-.19-1.33,1.25-.39,1.44a157.32,157.32,0,0,0,27.7,3.22c4.71.11,9.41-.15,14.12-.23a87.1,87.1,0,0,1,14.24,1.05c5.17.75,10.31,1.67,15.51,2.14,1,.09,1-1.4,0-1.49Z"/><path class="cls-41" d="M1254,387.43a24.49,24.49,0,0,0-12.06,9.48c-1.3,2-2.41,4.24-4.49,5.39"/><path class="cls-42" d="M1253.76,386.71a25.17,25.17,0,0,0-13,10.57c-1,1.64-2,3.37-3.74,4.37a.75.75,0,0,0,.75,1.29,11.22,11.22,0,0,0,3.66-3.93,32.53,32.53,0,0,1,3.28-4.54,24.09,24.09,0,0,1,9.43-6.32c.89-.33.51-1.77-.39-1.44Z"/><path class="cls-41" d="M1263,378.08c3.08-5.42,8.46-9.22,14.16-11.84,3.19-1.47,6.78-2.82,8.55-5.82"/><path class="cls-42" d="M1263.61,378.45a27.87,27.87,0,0,1,11.12-10.19c4-2.17,9-3.38,11.59-7.47.5-.81-.78-1.56-1.29-.75-1.33,2.14-3.55,3.37-5.77,4.41s-4.44,2-6.55,3.25a28.47,28.47,0,0,0-10.39,10,.75.75,0,0,0,1.29.75Z"/><path class="cls-41" d="M1266.42,383.19c11.44-5.32,23.17-10.73,35.76-11.88,3-.27,5.93-.3,8.86-.69,5.12-.68,10.07-2.43,15.21-2.81"/><path class="cls-42" d="M1266.8,383.84c7.19-3.35,14.42-6.7,22-9a68.08,68.08,0,0,1,11.55-2.56c4-.5,8.05-.44,12-1.09,4.64-.75,9.15-2.22,13.85-2.61,1-.08,1-1.57,0-1.49a101.2,101.2,0,0,0-11.94,2.24c-4.32.88-8.67.88-13,1.35-8,.86-15.58,3.35-22.94,6.4-4.15,1.72-8.22,3.61-12.3,5.5-.86.41-.11,1.69.76,1.29Z"/><path class="cls-41" d="M1265.24,387.2a141.48,141.48,0,0,0,19.51-1.32c10-1.38,20.55-3.79,30.06-.31,5.28,1.93,9.76,5.54,14.93,7.75"/><path class="cls-42" d="M1265.24,388a184.14,184.14,0,0,0,26.51-2.35c8.54-1.26,17.43-2.07,25.46,1.8,4.15,2,7.91,4.72,12.15,6.56.87.38,1.63-.9.75-1.29-3.84-1.67-7.29-4.05-11-6a31.26,31.26,0,0,0-11.49-3.46c-8.8-.89-17.57,1.35-26.27,2.33a147,147,0,0,1-16.11.9.75.75,0,0,0,0,1.49Z"/><path class="cls-41" d="M1260.94,390.52q4.68,4.61,9.14,9.43a18.08,18.08,0,0,1,2.21,2.73,9.31,9.31,0,0,1,.85,1.77"/><path class="cls-42" d="M1260.41,391.05q3.3,3.24,6.49,6.59,1.56,1.64,3.08,3.3a11.57,11.57,0,0,1,2.44,3.7c.33.9,1.77.51,1.44-.39-1.08-2.91-3.45-5.07-5.54-7.27q-3.36-3.56-6.85-7a.75.75,0,0,0-1.06,1.06Z"/><path class="cls-41" d="M1344.06,406.62l.31-4.53a18.34,18.34,0,0,1,.49-3.62c.77-2.87,2.89-5.26,3.62-8.15"/><path class="cls-42" d="M1344.8,406.62l.33-4.84a14.65,14.65,0,0,1,.78-4.14c.95-2.45,2.6-4.55,3.28-7.12a.74.74,0,0,0-1.43-.39c-.71,2.64-2.47,4.81-3.38,7.37a16.35,16.35,0,0,0-.74,4.28l-.33,4.84c-.06,1,1.43,1,1.49,0Z"/><path class="cls-41" d="M1344.41,399.54l-.46-1.42a8.58,8.58,0,0,0-.58-1.48,13,13,0,0,1-1.33-2.38"/><path class="cls-42" d="M1345.13,399.34a19.71,19.71,0,0,0-1.07-3,12.9,12.9,0,0,0-.73-1.18c-.13-.19-.25-.38-.36-.58a2.11,2.11,0,0,1-.22-.53.74.74,0,1,0-1.43.4,12.79,12.79,0,0,0,1.37,2.48,15.41,15.41,0,0,1,1,2.79.75.75,0,0,0,.92.52.74.74,0,0,0,.52-.91Z"/><path class="cls-41" d="M1321.94,409.93l-.12,6.71"/><path class="cls-42" d="M1321.2,409.93l-.12,6.71a.75.75,0,0,0,1.49,0l.12-6.71a.75.75,0,0,0-1.49,0Z"/><path class="cls-41" d="M1333.37,413.24a49.26,49.26,0,0,1,.23-8.59,11,11,0,0,1,.86-3.15c.94-2,2.74-3.41,3.67-5.37"/><path class="cls-42" d="M1334.12,413.24a38.11,38.11,0,0,1,.44-9.72c.65-2.82,3-4.5,4.21-7,.43-.86-.86-1.61-1.28-.75a22.93,22.93,0,0,1-2.51,3.54,10,10,0,0,0-1.86,3.83,39.33,39.33,0,0,0-.49,10.11c0,1,1.52,1,1.49,0Z"/><path class="cls-41" d="M1333.31,407.37a50.68,50.68,0,0,1-4.53-6.56"/><path class="cls-42" d="M1333.84,406.84a49.62,49.62,0,0,1-4.42-6.41.74.74,0,0,0-1.28.76,54.12,54.12,0,0,0,4.64,6.71.76.76,0,0,0,1.06,0,.77.77,0,0,0,0-1.06Z"/><path class="cls-41" d="M1351.76,387.13l1.3,3.09"/><path class="cls-42" d="M1351.11,387.51c.12.26.23.52.34.78,0,0,.08.21,0,0l.07.17.16.39c.21.5.43,1,.64,1.52a.82.82,0,0,0,.34.44.81.81,0,0,0,.57.08.76.76,0,0,0,.52-.92c-.45-1.09-.91-2.18-1.37-3.26a.8.8,0,0,0-.44-.35.78.78,0,0,0-.58.08.72.72,0,0,0-.34.44.9.9,0,0,0,.07.58Z"/><path class="cls-41" d="M1311.43,419a39,39,0,0,1,1.47-6.57c.94-3,2.24-5.91,2.65-9"/><path class="cls-42" d="M1312.14,419.17a43.06,43.06,0,0,1,1.92-7.93,42.7,42.7,0,0,0,2.21-7.66c.13-.93-1.3-1.34-1.44-.39a40.8,40.8,0,0,1-2.21,7.65,43.33,43.33,0,0,0-1.91,7.94c-.13.93,1.3,1.34,1.43.39Z"/><path class="cls-41" d="M1313.71,411.13a10.7,10.7,0,0,1-2.91-3.83,12.24,12.24,0,0,0-1.58-3.2"/><path class="cls-42" d="M1314.23,410.6a10.35,10.35,0,0,1-2.56-3.21,19.25,19.25,0,0,0-1.92-3.82.75.75,0,0,0-1,0,.76.76,0,0,0,0,1.06c.87,1.06,1.15,2.52,1.79,3.72a11.58,11.58,0,0,0,2.69,3.3.76.76,0,0,0,1,0,.74.74,0,0,0,0-1Z"/><path class="cls-41" d="M1299.6,420.56a14.35,14.35,0,0,0-.65-7.2,3.22,3.22,0,0,1-.31-2,2.93,2.93,0,0,1,.73-1.06l1.83-1.95c1-1.11,2.13-2.37,2.11-3.88"/><path class="cls-42" d="M1300.31,420.76a15.49,15.49,0,0,0,.07-4.66,14.17,14.17,0,0,0-.48-2.24c-.2-.66-.76-1.61-.54-2.31s1.09-1.31,1.55-1.81,1-1.07,1.5-1.63a5.86,5.86,0,0,0,1.65-3.64.75.75,0,0,0-1.49,0c0,1.46-1.16,2.56-2.1,3.57s-2.34,2-2.6,3.37a3.65,3.65,0,0,0,.27,1.9,17.1,17.1,0,0,1,.65,2.22,13.76,13.76,0,0,1,.09,4.83c-.15.94,1.28,1.35,1.43.4Z"/><path class="cls-41" d="M1298.4,411.21a13.5,13.5,0,0,1-1.56-1.17,26.33,26.33,0,0,1-3.26-3.73"/><path class="cls-42" d="M1298.78,410.57a18.92,18.92,0,0,1-4.55-4.64.77.77,0,0,0-1-.27.74.74,0,0,0-.27,1c.74,1,1.47,1.94,2.3,2.83a14.56,14.56,0,0,0,2.79,2.34.74.74,0,1,0,.75-1.28Z"/><path class="cls-41" d="M1285.11,421.5c.28-5.13,3-9.83,4-14.89"/><path class="cls-42" d="M1285.86,421.5c.31-5.11,3-9.7,3.92-14.69.17-.94-1.26-1.34-1.44-.4-1,5.14-3.65,9.82-4,15.09-.06,1,1.43,1,1.49,0Z"/><path class="cls-41" d="M1286.31,415a26.87,26.87,0,0,0-1.68-3,18.5,18.5,0,0,1-1.38-2.06,7.7,7.7,0,0,1-.74-2.79"/><path class="cls-42" d="M1287,414.59a27.43,27.43,0,0,0-2.2-3.69,8.13,8.13,0,0,1-1-1.72,7.31,7.31,0,0,1-.45-2,.78.78,0,0,0-.75-.75.75.75,0,0,0-.74.75,8.43,8.43,0,0,0,1.53,4.27,30.53,30.53,0,0,1,2.36,3.91c.44.86,1.73.1,1.29-.75Z"/><path class="cls-41" d="M1270.81,422.63l.19-6.08a13.19,13.19,0,0,1,.19-2.08,18.88,18.88,0,0,1,.55-1.81,19.57,19.57,0,0,0,.89-4.34"/><path class="cls-42" d="M1271.55,422.63c.08-2.44,0-4.95.27-7.38a23.8,23.8,0,0,1,.94-3.4,22.1,22.1,0,0,0,.62-3.53c.09-1-1.4-.95-1.49,0a18.9,18.9,0,0,1-.71,3.64,18.71,18.71,0,0,0-.85,3.29c-.24,2.44-.19,4.93-.27,7.38,0,1,1.46,1,1.49,0Z"/><path class="cls-41" d="M1271,414.72a60.33,60.33,0,0,1-3.5-6"/><path class="cls-42" d="M1271.65,414.34a64.54,64.54,0,0,1-3.5-6,.76.76,0,0,0-1-.26.77.77,0,0,0-.27,1,65,65,0,0,0,3.51,6,.77.77,0,0,0,1,.26.75.75,0,0,0,.26-1Z"/><path class="cls-41" d="M1252.26,422.91a8.67,8.67,0,0,1,0-2.44,4.92,4.92,0,0,1,.36-1.38,8.85,8.85,0,0,1,1-1.54,18.65,18.65,0,0,0,3.26-8.23"/><path class="cls-42" d="M1253,422.71a6,6,0,0,1,.47-3.65c.57-1,1.33-1.9,1.89-2.93a19.39,19.39,0,0,0,2.21-6.62c.14-.93-1.3-1.34-1.44-.39a18.42,18.42,0,0,1-2.53,7.07,14.11,14.11,0,0,0-1.86,3.15,8.72,8.72,0,0,0-.18,3.77c.13.94,1.57.54,1.44-.4Z"/><path class="cls-41" d="M1252.65,418.1l-3.44-9.31"/><path class="cls-42" d="M1253.37,417.9l-3.44-9.31c-.33-.89-1.77-.51-1.44.39l3.45,9.32c.32.89,1.77.5,1.43-.4Z"/><path class="cls-41" d="M1233.93,422.1l.1-4.66a3.33,3.33,0,0,1,.09-.78,2.93,2.93,0,0,1,.55-.93,25.51,25.51,0,0,0,3.86-7.56"/><path class="cls-42" d="M1234.68,422.1l.09-4.11a2.67,2.67,0,0,1,.41-1.71c.35-.49.71-1,1-1.48a26.71,26.71,0,0,0,3-6.44c.29-.91-1.15-1.3-1.44-.39a25.09,25.09,0,0,1-3.29,6.69,12.28,12.28,0,0,0-1,1.42,4.24,4.24,0,0,0-.27,1.77l-.09,4.25a.75.75,0,0,0,1.49,0Z"/><path class="cls-41" d="M1235.87,414c-.68-2-1.35-4-2-6"/><path class="cls-42" d="M1236.59,413.75q-1-3-2-6a.77.77,0,0,0-.92-.53.75.75,0,0,0-.52.92c.66,2,1.32,4,2,6a.77.77,0,0,0,.92.52.76.76,0,0,0,.52-.92Z"/><path class="cls-41" d="M1219.59,419.61a6.88,6.88,0,0,1,0-2.56l.36-3.21a18.69,18.69,0,0,1,1.82-7.24"/><path class="cls-42" d="M1220.31,419.41a9.68,9.68,0,0,1,.11-3.35c.11-1.05.22-2.09.35-3.13a16.35,16.35,0,0,1,1.61-5.95c.46-.84-.83-1.6-1.29-.75a17.73,17.73,0,0,0-1.78,6.47c-.15,1.2-.28,2.4-.41,3.6a10.1,10.1,0,0,0,0,3.51c.22.93,1.65.54,1.44-.4Z"/><path class="cls-41" d="M1219.94,413a40.4,40.4,0,0,1-4.09-7.6"/><path class="cls-42" d="M1220.58,412.67a41.33,41.33,0,0,1-4-7.43.77.77,0,0,0-.91-.52.76.76,0,0,0-.52.92,42.77,42.77,0,0,0,4.16,7.78c.51.81,1.8.06,1.29-.75Z"/><path class="cls-41" d="M1175.07,403.21c.17-2.7-1.29-5.27-1.36-8a10.13,10.13,0,0,0-.07-1.56,6,6,0,0,0-.61-1.54l-2-3.89"/><path class="cls-42" d="M1175.81,403.21c.12-2.71-1.24-5.16-1.35-7.84a11.92,11.92,0,0,0-.11-1.89,6.2,6.2,0,0,0-.63-1.61c-.66-1.34-1.35-2.67-2-4-.44-.86-1.72-.1-1.29.75l1.84,3.63a6,6,0,0,1,.67,1.62c.11.66,0,1.35.09,2,.25,2.48,1.42,4.81,1.31,7.32,0,1,1.45,1,1.49,0Z"/><path class="cls-41" d="M1173.8,394.15a22.31,22.31,0,0,0,2.69-2.35"/><path class="cls-42" d="M1174.18,394.8a23.83,23.83,0,0,0,2.84-2.47.75.75,0,0,0,0-1.05.74.74,0,0,0-1,0c-.41.42-.84.82-1.28,1.21-.22.19-.44.38-.67.56l-.33.26c-.08.06,0,0,0,0l-.08.06-.2.15a.77.77,0,0,0-.34.45.74.74,0,0,0,1.09.84Z"/><path class="cls-41" d="M1181.79,407.6l-.53-7.36a6.56,6.56,0,0,0-.27-1.71,6.77,6.77,0,0,0-.72-1.32l-2.89-4.48"/><path class="cls-42" d="M1182.54,407.6c-.2-2.75-.24-5.57-.62-8.3a8.17,8.17,0,0,0-1.49-3.22l-2.41-3.72c-.52-.81-1.81-.06-1.29.75l2.25,3.48a7.34,7.34,0,0,1,1.5,3.16c.28,2.6.38,5.24.57,7.85.06.95,1.55,1,1.49,0Z"/><path class="cls-41" d="M1181.13,400.11a12.74,12.74,0,0,0,4.42-3.22"/><path class="cls-42" d="M1181.51,400.75a13.21,13.21,0,0,0,4.57-3.33.76.76,0,0,0,0-1.06.75.75,0,0,0-1,0,12.18,12.18,0,0,1-.94,1c-.16.15-.33.29-.51.44l-.14.11s-.14.11,0,.05l-.27.2a12.8,12.8,0,0,1-2.36,1.34.75.75,0,0,0-.27,1,.76.76,0,0,0,1,.27Z"/><path class="cls-41" d="M1191,412.25a54.08,54.08,0,0,1,.26-7.74,2,2,0,0,0,0-.65,1.92,1.92,0,0,0-.28-.62l-3.08-5.29"/><path class="cls-42" d="M1191.69,412.25c0-1.38,0-2.77,0-4.15s.24-2.54.27-3.8-.82-2.17-1.37-3.12l-2.11-3.61a.74.74,0,0,0-1.28.76l2,3.36.84,1.44a2.94,2.94,0,0,1,.48.95,2.83,2.83,0,0,1,0,.71,58.06,58.06,0,0,0-.24,7.46c0,1,1.53,1,1.49,0Z"/><path class="cls-41" d="M1191.41,403.93a5.56,5.56,0,0,0,2.44-.45,5.15,5.15,0,0,0,1.09-.83,5.42,5.42,0,0,0,1.48-1.79"/><path class="cls-42" d="M1191.41,404.67a5.51,5.51,0,0,0,3.4-.93,7.09,7.09,0,0,0,2.25-2.5.76.76,0,0,0-.26-1,.74.74,0,0,0-1,.26,6.08,6.08,0,0,1-1.85,2.07l-.2.13a2.63,2.63,0,0,1-.33.2,3,3,0,0,1-.59.18,7.61,7.61,0,0,1-1.4.12.77.77,0,0,0-.74.75.74.74,0,0,0,.74.74Z"/><path class="cls-41" d="M1204.15,416.46a24.09,24.09,0,0,1-.09-6.57,4.4,4.4,0,0,0,0-1.2,3.92,3.92,0,0,0-.31-.95q-1.15-2.7-2.5-5.29"/><path class="cls-42" d="M1204.87,416.26a23.21,23.21,0,0,1-.24-3.91,28.19,28.19,0,0,0,.22-3.66,11.44,11.44,0,0,0-1.27-3.28c-.52-1.12-1.06-2.24-1.63-3.34-.44-.85-1.73-.1-1.29.75.57,1.1,1.12,2.22,1.63,3.35a7,7,0,0,1,1.08,3.24c-.09,1.17-.24,2.32-.24,3.49a26.09,26.09,0,0,0,.3,3.75c.14,1,1.57.55,1.44-.39Z"/><path class="cls-41" d="M1204.22,409.07q2.61-1.81,5.39-3.36a2.39,2.39,0,0,0,.79-.57.79.79,0,0,0,.09-.91"/><path class="cls-42" d="M1204.6,409.71q2-1.36,4-2.57a19.31,19.31,0,0,0,2-1.15,1.64,1.64,0,0,0,.56-2.14.74.74,0,0,0-1.28.75s0,0,0-.05,0,.12,0,.06a.47.47,0,0,1-.15.17,4.14,4.14,0,0,1-.67.41c-.6.33-1.19.67-1.78,1-1.16.69-2.29,1.43-3.4,2.2a.77.77,0,0,0-.27,1,.75.75,0,0,0,1,.27Z"/><path class="cls-43" d="M1317,584c0,15.45-22,28-49.26,28s-51.26-11.27-51.26-26.73S1240.54,556,1267.74,556c6.8,0,14.25,2.11,20.15,3.53,2.14.51-15.37,12.32-13.39,13,2.55.87,24.55-9.63,26.78-8.52C1311.53,569.16,1317,575.63,1317,584Z"/><path d="M1269.76,579.73a39.23,39.23,0,0,0,7.92-2,78.67,78.67,0,0,0,7.36-3.35,104.42,104.42,0,0,1,16.68-5.86c.15,0,.09-.28-.06-.24a108.6,108.6,0,0,0-15.9,5.49c-2.64,1.22-5.19,2.63-7.93,3.65a39.32,39.32,0,0,1-8.14,2c-.15,0-.09.26.07.23Z"/><path d="M1268.27,584.79c12.29,3.06,26.18-3.86,37.54,3.51.13.08.25-.13.12-.21-11.39-7.39-25.28-.47-37.6-3.53a.12.12,0,0,0-.06.23Z"/><path d="M1270.52,598.08c1.88,3.32,3.44,7,3.11,10.9,0,.15.23.15.24,0,.34-3.94-1.24-7.67-3.14-11-.07-.14-.28,0-.21.12Z"/><path d="M1260.41,578.28c-3.21-2.31-6.34-4.72-9.56-7a28.64,28.64,0,0,0-5.1-2.79c-2.32-1.05-5.42-2-6.91-4.21-.09-.13-.3,0-.21.12,1.35,2,3.72,2.71,5.79,3.72a40.73,40.73,0,0,1,6,3.17c3.31,2.38,6.54,4.85,9.84,7.22.13.09.25-.12.12-.21Z"/><path d="M1267.25,576.9c-1.4-3.44-1.38-7.21-1.35-10.86a.12.12,0,0,0-.24,0c0,3.67-.05,7.47,1.35,10.92.06.15.3.09.24-.06Z"/><path d="M1259.31,582.85c-5.86-.24-11.8-.47-17.59.63-3,.57-5.9,1.49-9,1.67a60.6,60.6,0,0,1-9.23-.37c-.15,0-.15.23,0,.25a62.84,62.84,0,0,0,9,.38,52.58,52.58,0,0,0,8.35-1.5c6.06-1.31,12.31-1.07,18.46-.82.16,0,.16-.24,0-.24Z"/><path d="M1259.9,586.53a45.17,45.17,0,0,1-18.23,16c-.15.07,0,.28.12.22a45.52,45.52,0,0,0,18.32-16.1c.09-.13-.12-.25-.21-.12Z"/><path class="cls-44" d="M291.32,530.29c11.24,9.77,20.08,23.84,16.18,28.2s-26.78,4.74-38-5-12.81-32.19-12.81-32.19S280.08,520.51,291.32,530.29Z"/><path class="cls-45" d="M308.82,532.79c6.72,13.22,3.95,23.1-1.32,25.7s-21,.93-27.71-12.29.33-34.59.33-34.59S302.11,519.57,308.82,532.79Z"/><path class="cls-44" d="M324,530.29c-11.25,9.77-20.08,23.84-16.19,28.2s26.78,4.74,38-5,12.81-32.19,12.81-32.19S335.2,520.51,324,530.29Z"/><path class="cls-45" d="M306.45,532.79c-6.72,13.22-3.95,23.1,1.32,25.7s21,.93,27.71-12.29-.32-34.59-.32-34.59S313.17,519.57,306.45,532.79Z"/><path class="cls-45" d="M323.55,540.17c0,14.79-10.16,20-16.05,20s-16-6-16-20.83,16-30.77,16-30.77S323.55,525.38,323.55,540.17Z"/><path class="cls-46" d="M139,369.82s-2.88,11.67-5.21,14.86c-8.19,11.19-31.73,12.73-41.9,13.4-12.18.8-31.31,1.59-43.27-.82-6.94-1.39-21.19-3.13-33.43-11.89-3.35-2.4-5.31-17.15-5.31-17.15Z"/><path class="cls-46" d="M9.88,368.22c0,11.67,28.9,21.13,64.55,21.13,10.44,0,27.75-3.21,36.82-4,4-.34,4.37,3.3,4.38,4.28a.05.05,0,0,0,.1,0,16.88,16.88,0,0,1,8.61-8.12c3.62-1.44,15.18-6.42,14.64-13.33-.91-11.63-28.9-21.13-64.55-21.13S9.88,356.55,9.88,368.22Z"/><path class="cls-46" d="M13.35,368.69c0,10,27.39,18,61.16,18a176.47,176.47,0,0,0,30.17-2.45c7.89-1.51,10.62,2.55,10.62,2.55s.56-4.62,6.5-6.76c3.43-1.23,14.39-5.48,13.88-11.38-.87-9.92-27.39-18-61.17-18S13.35,358.73,13.35,368.69Z"/><path class="cls-46" d="M14.87,368.74c-1.06,2-.22,4.52,2.35,6.51,8.77,6.8,31.06,11.62,57.18,11.62a177.31,177.31,0,0,0,30.16-2.44c7.9-1.51,10.63,2.54,10.63,2.54s.56-4.62,6.5-6.75a39,39,0,0,0,10-5.06c1.66-1.16,2.62-5.37,1.75-6.94-2.49-4.49-12.76-8-23-10.3-11.24-2.54-19.06-3.36-36.69-3.36-16.56,0-19.21.89-30.08,2.51C36.32,358.17,18.87,361.2,14.87,368.74Z"/><path class="cls-47" d="M70,369.44c-3.51-3.69-8.5-5.55-13.22-7.5-2.69-1.12-5.49-2.41-7.13-4.79"/><path class="cls-48" d="M70.47,368.91c-2.81-2.9-6.43-4.71-10.11-6.27-3.48-1.47-7.8-2.64-10.11-5.86-.56-.78-1.85,0-1.29.75,2.3,3.2,6.08,4.51,9.58,6,3.92,1.62,7.88,3.4,10.88,6.49.67.69,1.72-.37,1-1.06Z"/><path class="cls-47" d="M66.17,371.47c-6-.53-11.94-2-18-2.17-2.43-.06-4.87.09-7.31.15a104.15,104.15,0,0,1-23.42-2.18"/><path class="cls-48" d="M66.17,370.73c-4-.37-7.87-1.12-11.81-1.64a73.83,73.83,0,0,0-12.26-.42,104.48,104.48,0,0,1-24.44-2.12c-.93-.19-1.33,1.25-.39,1.44a105.89,105.89,0,0,0,24.35,2.18,77.39,77.39,0,0,1,12.27.35c4.1.53,8.16,1.32,12.28,1.7,1,.09,1-1.4,0-1.49Z"/><path class="cls-47" d="M69.41,374.66a16.66,16.66,0,0,0-8.23,6.46c-.89,1.35-1.65,2.9-3.06,3.68"/><path class="cls-48" d="M69.21,373.94a17.8,17.8,0,0,0-6.62,4.25,18.14,18.14,0,0,0-2.38,3.07,7.89,7.89,0,0,1-2.47,2.9.74.74,0,0,0,.75,1.28,7.76,7.76,0,0,0,2.58-2.76,21.34,21.34,0,0,1,2.21-3.05,16.09,16.09,0,0,1,6.33-4.26c.89-.32.51-1.76-.4-1.43Z"/><path class="cls-47" d="M75.56,368.27c2.1-3.69,5.77-6.29,9.66-8.08,2.18-1,4.62-1.92,5.84-4"/><path class="cls-48" d="M76.2,368.65a18.91,18.91,0,0,1,7.51-6.87c2.77-1.51,6.23-2.35,8-5.18.51-.82-.78-1.57-1.29-.76a8.42,8.42,0,0,1-3.85,2.93c-1.51.71-3,1.36-4.47,2.21a19.66,19.66,0,0,0-7.17,6.92.74.74,0,0,0,1.28.75Z"/><path class="cls-47" d="M77.92,371.76c7.8-3.63,15.81-7.32,24.4-8.11,2-.18,4.05-.2,6.05-.47,3.49-.46,6.87-1.66,10.38-1.92"/><path class="cls-48" d="M78.29,372.41c6.31-2.94,12.7-5.89,19.54-7.33,3.5-.73,7-.7,10.54-1.15s6.86-1.62,10.38-1.92c1-.08,1-1.57,0-1.49-3.68.31-7.19,1.54-10.84,2s-7,.43-10.48,1.16c-7,1.45-13.47,4.48-19.89,7.47-.87.41-.11,1.69.75,1.29Z"/><path class="cls-47" d="M77.11,374.5a98.91,98.91,0,0,0,13.32-.9c6.85-.94,14-2.59,20.51-.21,3.6,1.31,6.66,3.78,10.19,5.28"/><path class="cls-48" d="M77.11,375.24a97.73,97.73,0,0,0,12.09-.74c3.73-.46,7.42-1.19,11.17-1.47a24,24,0,0,1,10.77,1.23c3.38,1.33,6.29,3.6,9.61,5.06.87.38,1.63-.91.75-1.29-3.28-1.44-6.17-3.63-9.48-5a24,24,0,0,0-10.75-1.54c-3.71.21-7.37.9-11,1.4a97.57,97.57,0,0,1-13.12.87.75.75,0,0,0,0,1.49Z"/><path class="cls-47" d="M74.18,376.76q3.19,3.15,6.24,6.44a12.72,12.72,0,0,1,1.5,1.86,6.11,6.11,0,0,1,.58,1.21"/><path class="cls-48" d="M73.65,377.29q2.25,2.22,4.43,4.5c.7.75,1.41,1.49,2.1,2.25a7.44,7.44,0,0,1,1.6,2.43c.33.89,1.77.5,1.44-.4-.75-2-2.38-3.53-3.84-5.07s-3.09-3.2-4.67-4.76c-.69-.68-1.74.38-1.06,1.05Z"/><path class="cls-47" d="M130.9,387.75l.21-3.09a13.59,13.59,0,0,1,.33-2.47c.54-2,2-3.59,2.47-5.56"/><path class="cls-48" d="M131.64,387.75c.08-1.1.15-2.2.23-3.3a9.56,9.56,0,0,1,.52-2.76c.65-1.67,1.78-3.11,2.24-4.86a.74.74,0,0,0-1.43-.4c-.48,1.8-1.69,3.29-2.31,5a11.22,11.22,0,0,0-.51,3c-.08,1.1-.15,2.2-.23,3.3s1.43,1,1.49,0Z"/><path class="cls-47" d="M131.14,382.92l-.31-1a6.24,6.24,0,0,0-.4-1,9.29,9.29,0,0,1-.91-1.62"/><path class="cls-48" d="M131.86,382.72a15.42,15.42,0,0,0-.75-2.1c-.15-.28-.33-.54-.5-.8s-.17-.26-.25-.4-.13-.26-.05-.08a1.87,1.87,0,0,1-.07-.22.75.75,0,0,0-1.44.39,9.59,9.59,0,0,0,1,1.75l.12.23c0,.07,0,.07,0,0s0,.08,0,.12.12.32.17.49l.33,1a.76.76,0,0,0,.92.52.74.74,0,0,0,.52-.91Z"/><path class="cls-47" d="M115.81,390l-.08,4.58"/><path class="cls-48" d="M115.06,390l-.08,4.58a.75.75,0,1,0,1.49,0l.08-4.58a.75.75,0,0,0-.74-.75.77.77,0,0,0-.75.75Z"/><path class="cls-47" d="M123.61,392.27a33.83,33.83,0,0,1,.15-5.87,7.72,7.72,0,0,1,.59-2.15c.64-1.33,1.87-2.32,2.51-3.65"/><path class="cls-48" d="M124.35,392.27a25.35,25.35,0,0,1,.3-6.57c.44-1.9,2-3,2.85-4.73.42-.85-.86-1.61-1.29-.75a15.49,15.49,0,0,1-1.71,2.41,7,7,0,0,0-1.29,2.68,27,27,0,0,0-.35,7c0,1,1.53,1,1.49,0Z"/><path class="cls-47" d="M123.57,388.26a36,36,0,0,1-3.1-4.47"/><path class="cls-48" d="M124.09,387.74c-.53-.66-1-1.33-1.54-2.07s-1-1.49-1.43-2.26a.75.75,0,0,0-1.29.75,37.06,37.06,0,0,0,3.21,4.63.74.74,0,0,0,1,0,.75.75,0,0,0,0-1.05Z"/><path class="cls-47" d="M136.15,374.45c.3.7.6,1.4.89,2.11"/><path class="cls-48" d="M135.51,374.83c.09.21.19.43.28.65l-.08-.18c.21.48.41,1,.61,1.45a.85.85,0,0,0,.34.45.83.83,0,0,0,.58.08.73.73,0,0,0,.44-.35.72.72,0,0,0,.08-.57l-1-2.28a.79.79,0,0,0-.45-.35.76.76,0,0,0-.57.08.72.72,0,0,0-.34.44l0,.2a.72.72,0,0,0,.1.38Z"/><path class="cls-47" d="M108.63,396.18a27.72,27.72,0,0,1,1-4.49,37.34,37.34,0,0,0,1.82-6.15"/><path class="cls-48" d="M109.35,396.38a28.65,28.65,0,0,1,1.31-5.41,28.13,28.13,0,0,0,1.5-5.23.75.75,0,0,0-.52-.91.74.74,0,0,0-.91.52,29.08,29.08,0,0,1-1.51,5.22,29.64,29.64,0,0,0-1.31,5.41.78.78,0,0,0,.52.92.75.75,0,0,0,.92-.52Z"/><path class="cls-47" d="M110.19,390.83a7.28,7.28,0,0,1-2-2.62,8.87,8.87,0,0,0-1.08-2.18"/><path class="cls-48" d="M110.71,390.3a7.87,7.87,0,0,1-1-1c-.16-.19,0,0,0-.07l-.1-.12c-.06-.1-.13-.2-.2-.3s-.25-.42-.37-.64l-.15-.32s0-.11,0,0a1.34,1.34,0,0,1-.07-.18l-.29-.72a5.47,5.47,0,0,0-.82-1.4.75.75,0,0,0-1.05,0,.77.77,0,0,0,0,1.06l.05.06h0l.09.14a2.91,2.91,0,0,1,.17.3l.16.32,0,.08.06.15a14,14,0,0,0,.63,1.44,8,8,0,0,0,1.87,2.3.76.76,0,0,0,1,0,.74.74,0,0,0,0-1.05Z"/><path class="cls-47" d="M100.56,397.27a9.81,9.81,0,0,0-.44-4.92,2.2,2.2,0,0,1-.21-1.37,1.93,1.93,0,0,1,.49-.72l1.25-1.33a4.06,4.06,0,0,0,1.44-2.64"/><path class="cls-48" d="M101.28,397.46a11.2,11.2,0,0,0,0-3.27,9.23,9.23,0,0,0-.34-1.56c-.11-.39-.51-1-.37-1.45s.71-.82,1-1.13.7-.73,1-1.11a4.34,4.34,0,0,0,1.19-2.65.75.75,0,0,0-1.49,0,3.75,3.75,0,0,1-1.36,2.26c-.65.69-1.64,1.44-1.84,2.4s.44,2,.63,2.94a8.94,8.94,0,0,1,.06,3.18.76.76,0,0,0,.52.91.75.75,0,0,0,.92-.52Z"/><path class="cls-47" d="M99.74,390.88a8.18,8.18,0,0,1-1.06-.8,17.41,17.41,0,0,1-2.23-2.54"/><path class="cls-48" d="M100.12,390.24a5,5,0,0,1-.47-.33,1,1,0,0,1-.13-.09h0l-.23-.19a10.45,10.45,0,0,1-.83-.8c-.25-.28-.49-.56-.73-.85l-.35-.45c-.09-.11,0,0,0,0l-.09-.12-.18-.24a.81.81,0,0,0-.45-.34.74.74,0,0,0-.84,1.09c.52.68,1,1.36,1.61,2a10.22,10.22,0,0,0,2,1.64.76.76,0,0,0,1-.27.77.77,0,0,0-.27-1Z"/><path class="cls-47" d="M90.67,397.91c.19-3.51,2.06-6.71,2.7-10.16"/><path class="cls-48" d="M91.42,397.91c.21-3.47,2-6.58,2.66-10,.18-.93-1.25-1.33-1.43-.39-.67,3.52-2.5,6.74-2.72,10.36-.06,1,1.43.95,1.49,0Z"/><path class="cls-47" d="M91.49,393.45a17.51,17.51,0,0,0-1.15-2A14.39,14.39,0,0,1,89.4,390a5.2,5.2,0,0,1-.5-1.9"/><path class="cls-48" d="M92.13,393.07a18.81,18.81,0,0,0-1.5-2.52,5.09,5.09,0,0,1-.68-1.11,4.84,4.84,0,0,1-.3-1.32.78.78,0,0,0-.75-.75.75.75,0,0,0-.74.75,6,6,0,0,0,1.07,3,22.08,22.08,0,0,1,1.62,2.67.74.74,0,1,0,1.28-.75Z"/><path class="cls-47" d="M80.91,398.68l.14-4.15a8.42,8.42,0,0,1,.12-1.42c.09-.42.25-.83.38-1.24a13.09,13.09,0,0,0,.61-3"/><path class="cls-48" d="M81.66,398.68l.08-2.64c0-.8,0-1.61.1-2.4a16,16,0,0,1,.63-2.25,15.15,15.15,0,0,0,.43-2.48c.09-1-1.4-1-1.49,0a13.27,13.27,0,0,1-.47,2.42,12.23,12.23,0,0,0-.59,2.31c-.17,1.66-.13,3.37-.18,5,0,1,1.46,1,1.49,0Z"/><path class="cls-47" d="M81.05,393.28a42.48,42.48,0,0,1-2.39-4.07"/><path class="cls-48" d="M81.69,392.9a45.92,45.92,0,0,1-2.39-4.06.75.75,0,0,0-1-.27.76.76,0,0,0-.26,1,42.33,42.33,0,0,0,2.39,4.06.74.74,0,1,0,1.28-.75Z"/><path class="cls-47" d="M68.25,398.87a6.23,6.23,0,0,1,0-1.67,3.44,3.44,0,0,1,.25-.94,5.78,5.78,0,0,1,.66-1.05,12.8,12.8,0,0,0,2.23-5.62"/><path class="cls-48" d="M69,398.67a3.81,3.81,0,0,1,.3-2.31c.39-.69.91-1.3,1.29-2a13.49,13.49,0,0,0,1.53-4.57.77.77,0,0,0-.52-.92.75.75,0,0,0-.91.52A12.53,12.53,0,0,1,69,394.17a9.54,9.54,0,0,0-1.29,2.2,6.15,6.15,0,0,0-.12,2.7.75.75,0,0,0,.91.52.77.77,0,0,0,.52-.92Z"/><path class="cls-47" d="M68.52,395.58l-2.35-6.35"/><path class="cls-48" d="M69.24,395.39,66.89,389a.77.77,0,0,0-.92-.52.76.76,0,0,0-.52.92l2.35,6.35a.77.77,0,0,0,.92.52.75.75,0,0,0,.52-.91Z"/><path class="cls-47" d="M55.75,398.32l.07-3.19a1.57,1.57,0,0,1,.06-.53,2.13,2.13,0,0,1,.37-.63,17.48,17.48,0,0,0,2.63-5.16"/><path class="cls-48" d="M56.49,398.32l.06-2.81a1.65,1.65,0,0,1,.25-1.05c.24-.33.48-.66.71-1A18.34,18.34,0,0,0,59.6,389c.29-.91-1.14-1.3-1.43-.39a16.94,16.94,0,0,1-2.23,4.51,7.89,7.89,0,0,0-.66,1,3.11,3.11,0,0,0-.22,1.32L55,398.32a.75.75,0,0,0,1.49,0Z"/><path class="cls-47" d="M57.07,392.75c-.46-1.35-.92-2.71-1.37-4.07"/><path class="cls-48" d="M57.79,392.55c-.47-1.35-.92-2.71-1.37-4.07a.76.76,0,0,0-.92-.52.77.77,0,0,0-.52.92c.45,1.36.91,2.72,1.37,4.07a.75.75,0,0,0,1.44-.4Z"/><path class="cls-47" d="M46,396.61a4.62,4.62,0,0,1,0-1.74l.24-2.19a13,13,0,0,1,1.24-4.94"/><path class="cls-48" d="M46.68,396.42a6.69,6.69,0,0,1,.08-2.23l.24-2.13a10.6,10.6,0,0,1,1.07-3.95c.46-.84-.83-1.59-1.29-.75a12.6,12.6,0,0,0-1.25,4.54c-.1.82-.19,1.64-.28,2.46a7.2,7.2,0,0,0,0,2.45c.22.94,1.65.54,1.44-.39Z"/><path class="cls-47" d="M46.2,392.13A27.6,27.6,0,0,1,43.4,387"/><path class="cls-48" d="M46.84,391.76a28.29,28.29,0,0,1-2.72-5,.75.75,0,0,0-.91-.52.73.73,0,0,0-.52.91,29.42,29.42,0,0,0,2.86,5.37.75.75,0,0,0,1.29-.75Z"/><path class="cls-47" d="M15.58,385.43c.11-1.85-.88-3.6-.93-5.45a6.27,6.27,0,0,0-.05-1.06,4,4,0,0,0-.42-1.05l-1.34-2.66"/><path class="cls-48" d="M16.32,385.43c.08-1.86-.84-3.53-.92-5.36a8.74,8.74,0,0,0-.08-1.35,4.84,4.84,0,0,0-.46-1.16c-.45-.91-.92-1.81-1.38-2.72s-1.72-.11-1.29.75l1.26,2.48a3.58,3.58,0,0,1,.43,1.05c.07.42,0,.87,0,1.31.17,1.69,1,3.28.9,5,0,.95,1.45.95,1.49,0Z"/><path class="cls-47" d="M14.71,379.24a14.76,14.76,0,0,0,1.84-1.6"/><path class="cls-48" d="M15.09,379.89a19.18,19.18,0,0,0,2-1.72.77.77,0,0,0,0-1.06.76.76,0,0,0-1.06,0,13.89,13.89,0,0,1-1.62,1.44l.15-.11-.21.16a.77.77,0,0,0-.34.45.76.76,0,0,0,.07.57.74.74,0,0,0,.45.34.75.75,0,0,0,.57-.07Z"/><path class="cls-47" d="M20.16,388.42l-.36-5a3.82,3.82,0,0,0-.19-1.17,4.15,4.15,0,0,0-.49-.9l-2-3.06"/><path class="cls-48" d="M20.91,388.42c-.14-1.9-.16-3.84-.43-5.73a5.78,5.78,0,0,0-1-2.25l-1.65-2.54c-.51-.81-1.8-.06-1.28.75L18,381a4.85,4.85,0,0,1,1,2c.2,1.77.26,3.58.39,5.36.07.95,1.56,1,1.49,0Z"/><path class="cls-47" d="M19.72,383.31a8.65,8.65,0,0,0,3-2.2"/><path class="cls-48" d="M20.09,384a9.29,9.29,0,0,0,3.17-2.31.76.76,0,0,0,0-1.06.75.75,0,0,0-1.05,0c-.21.23-.42.45-.64.66l-.35.29a.39.39,0,0,1-.1.08s-.14.1,0,0l-.18.13a8.28,8.28,0,0,1-1.61.92.74.74,0,0,0-.34.45.75.75,0,0,0,.07.57.76.76,0,0,0,.45.34.86.86,0,0,0,.57-.07Z"/><path class="cls-47" d="M26.41,391.59a38.83,38.83,0,0,1,.18-5.28,1.3,1.3,0,0,0,0-.44,1.49,1.49,0,0,0-.19-.43l-2.1-3.61"/><path class="cls-48" d="M27.16,391.59c0-.94,0-1.88,0-2.83s.17-1.73.19-2.6a4.59,4.59,0,0,0-1-2.24l-1.44-2.46a.74.74,0,0,0-1.28.75l1.33,2.3.58,1a2.29,2.29,0,0,1,.29.53,1.55,1.55,0,0,1,0,.48,37.6,37.6,0,0,0-.16,5.09c0,1,1.52,1,1.49,0Z"/><path class="cls-47" d="M26.73,385.91a3.79,3.79,0,0,0,1.67-.3,4.06,4.06,0,0,0,.74-.57,3.82,3.82,0,0,0,1-1.22"/><path class="cls-48" d="M26.73,386.66a7.68,7.68,0,0,0,1.26-.12,3.17,3.17,0,0,0,1.2-.57,5.12,5.12,0,0,0,1.6-1.77.75.75,0,0,0-1.29-.76,3.42,3.42,0,0,1-.23.42c-.06.09.11-.13,0,0l-.07.08-.16.17c-.24.24-.5.46-.75.68-.08.07.1-.06,0,0l-.09.07L28,385c-.1.05,0,0,0,0l-.11,0a2.44,2.44,0,0,1-.26.06l-.11,0s-.15,0-.05,0h-.2c-.17,0-.35,0-.53,0a.75.75,0,1,0,0,1.49Z"/><path class="cls-47" d="M35.42,394.46a16.8,16.8,0,0,1-.06-4.48,3.22,3.22,0,0,0,0-.82,2.6,2.6,0,0,0-.21-.65c-.52-1.22-1.09-2.43-1.7-3.61"/><path class="cls-48" d="M36.14,394.27a16.27,16.27,0,0,1-.16-2.61,21,21,0,0,0,.16-2.5,8.1,8.1,0,0,0-.9-2.35c-.35-.77-.73-1.53-1.12-2.28s-1.72-.1-1.28.75.76,1.51,1.11,2.28a4.48,4.48,0,0,1,.7,2.1c-.06.79-.16,1.58-.16,2.38a19.15,19.15,0,0,0,.21,2.62.75.75,0,0,0,1.44-.39Z"/><path class="cls-47" d="M35.47,389.42a41.05,41.05,0,0,1,3.68-2.29,1.78,1.78,0,0,0,.54-.39.55.55,0,0,0,.06-.62"/><path class="cls-48" d="M35.85,390.06c.89-.62,1.8-1.2,2.73-1.75a12.55,12.55,0,0,0,1.37-.8,1.36,1.36,0,0,0,.44-1.77.75.75,0,0,0-1-.26.74.74,0,0,0-.26,1,.25.25,0,0,1,0-.15c0,.11,0,0,0,0s0,0,0,0,0,0-.05,0,.12-.07,0,0l-.12.07-.26.15c-.41.22-.81.46-1.21.7-.79.48-1.57,1-2.32,1.51a.74.74,0,1,0,.75,1.28Z"/><path class="cls-49" d="M366.88,604.35s4.22,17.1,7.64,21.77c12,16.4,46.5,18.65,61.4,19.63,17.85,1.18,45.87,2.33,63.4-1.19,10.18-2,31.05-4.6,49-17.43,4.91-3.51,7.77-25.13,7.77-25.13Z"/><path class="cls-49" d="M556.08,602c0,17.1-42.34,31-94.58,31-15.29,0-40.66-4.7-54-5.83-5.93-.5-6.4,4.84-6.42,6.27a.07.07,0,0,1-.14,0,24.76,24.76,0,0,0-12.61-11.89c-5.31-2.12-22.25-9.42-21.46-19.54,1.33-17,42.35-31,94.59-31S556.08,584.9,556.08,602Z"/><path class="cls-49" d="M551,602.7c0,14.59-40.13,26.42-89.62,26.42-14.49,0-31.83-1.21-44.2-3.58-11.57-2.21-15.57,3.73-15.57,3.73s-.81-6.77-9.52-9.9c-5-1.81-21.09-8-20.34-16.67,1.27-14.55,40.13-26.43,89.63-26.43S551,588.1,551,602.7Z"/><path class="cls-49" d="M548.77,602.77c1.56,2.93.33,6.61-3.44,9.53-12.85,10-45.52,17-83.79,17-14.49,0-31.83-1.21-44.2-3.58-11.56-2.21-15.57,3.73-15.57,3.73s-.81-6.77-9.52-9.9a57.25,57.25,0,0,1-14.7-7.4c-2.43-1.71-3.84-7.88-2.57-10.18,3.65-6.58,18.71-11.67,33.78-15.09,16.47-3.73,27.92-4.93,53.76-4.93,24.27,0,28.15,1.31,44.08,3.69C517.35,587.27,542.92,591.71,548.77,602.77Z"/><path d="M468.14,603.86c4.43-4.59,10.29-7.24,16.1-9.65,4.92-2,10.49-3.86,13.72-8.38.07-.1-.09-.19-.16-.1-3.51,4.92-9.85,6.7-15.16,8.95s-10.58,4.84-14.64,9a.1.1,0,0,0,.14.14Z"/><path d="M473.6,606.86c9.3-.84,18.44-3.17,27.81-3.21,4.7,0,9.4.33,14.11.28s9.4-.33,14.08-.83c5.17-.55,10.31-1.36,15.4-2.4.12,0,.07-.2,0-.18a155.66,155.66,0,0,1-28,3.2c-4.71.1-9.41-.19-14.11-.25a88,88,0,0,0-13.27,1c-5.33.76-10.63,1.74-16,2.22-.12,0-.12.2,0,.19Z"/><path d="M468.83,611.52a24.82,24.82,0,0,1,9.72,6.49,33.62,33.62,0,0,1,3.38,4.67,10.68,10.68,0,0,0,3.43,3.7c.1.06.19-.1.09-.16-1.78-1-2.84-2.8-3.9-4.5a26,26,0,0,0-3.41-4.41,24.87,24.87,0,0,0-9.26-6c-.11,0-.16.14-.05.18Z"/><path d="M459.92,602a27.76,27.76,0,0,0-10.16-9.77,72.24,72.24,0,0,0-6.54-3.24c-2.33-1.1-4.61-2.41-6-4.65-.07-.1-.23,0-.16.09,2.45,4,7.49,5.14,11.34,7.24a28.46,28.46,0,0,1,11.36,10.42c.06.11.23,0,.16-.09Z"/><path d="M456.44,607.11c-7.19-3.34-14.42-6.69-22-9.05a71.18,71.18,0,0,0-11.53-2.59c-4.31-.57-8.68-.47-13-1.23-4.48-.79-8.84-2.15-13.38-2.53-.12,0-.12.18,0,.19,4.13.34,8.12,1.5,12.18,2.3s8.05.83,12.11,1.22c7.87.76,15.47,3.19,22.76,6.17,4.3,1.77,8.52,3.72,12.73,5.68.11.05.2-.11.1-.16Z"/><path d="M457.57,611.11q-7.1,0-14.17-.69c-4.59-.46-9.14-1.22-13.71-1.86-8.12-1.13-16.51-1.63-24.12,1.93-4.31,2-8.18,4.85-12.54,6.75-.11,0,0,.21.09.16,3.71-1.61,7.06-3.89,10.62-5.78A30.9,30.9,0,0,1,416.3,608c8.61-.61,17.13,1.55,25.64,2.48a143.19,143.19,0,0,0,15.63.84.09.09,0,0,0,0-.18Z"/><path d="M461.8,614.45q-3.48,3.43-6.85,7c-2,2.11-4.34,4.19-5.37,7,0,.11.14.16.18.05,1.07-2.9,3.6-5.1,5.69-7.29s4.29-4.43,6.48-6.59a.1.1,0,0,0-.13-.14Z"/><path d="M378.85,630.62c-.12-1.61-.22-3.22-.34-4.84a15.54,15.54,0,0,0-.71-4.11c-.91-2.56-2.67-4.72-3.38-7.37a.09.09,0,0,0-.18.05c.69,2.56,2.35,4.67,3.29,7.12a15.06,15.06,0,0,1,.8,4.31l.33,4.84a.1.1,0,0,0,.19,0Z"/><path d="M378.49,623.56a17,17,0,0,1,1.06-2.95,12.42,12.42,0,0,0,1.31-2.33c0-.11-.14-.16-.18,0a15,15,0,0,1-1.37,2.44,19.55,19.55,0,0,0-1,2.84c0,.12.14.16.18,0Z"/><path d="M400.77,633.93l.12,6.71a.1.1,0,0,0,.19,0l-.12-6.71a.1.1,0,0,0-.19,0Z"/><path d="M389.53,637.24c.1-3.29.28-6.71-.47-9.94a9.53,9.53,0,0,0-1.79-3.67,22.93,22.93,0,0,1-2.51-3.54c-.05-.11-.21,0-.16.09,1.27,2.56,3.61,4.27,4.28,7.17a38.52,38.52,0,0,1,.46,9.89.1.1,0,0,0,.19,0Z"/><path d="M389.56,631.44a52.78,52.78,0,0,0,4.55-6.58.09.09,0,0,0-.16-.1,52.56,52.56,0,0,1-4.52,6.55c-.07.09.06.22.13.13Z"/><path d="M371,611.09c-.44,1-.87,2.07-1.31,3.1,0,.11.14.16.18,0l1.29-3.06c.05-.11-.11-.2-.16-.09Z"/><path d="M411.47,643a43,43,0,0,0-1.91-7.93,41.12,41.12,0,0,1-2.21-7.66c0-.12-.2-.07-.18,0a41.57,41.57,0,0,0,2.21,7.65,42.53,42.53,0,0,1,1.91,7.94c0,.12.2.07.18,0Z"/><path d="M409.17,635.19a11,11,0,0,0,2.58-3.17c.68-1.26,1-2.73,1.9-3.86.08-.09,0-.22-.13-.13a18.61,18.61,0,0,0-1.82,3.69,10.77,10.77,0,0,1-2.66,3.34c-.09.08,0,.21.13.13Z"/><path d="M423.3,644.54a14.78,14.78,0,0,1,.09-5.18,17.1,17.1,0,0,1,.65-2.22,3.23,3.23,0,0,0,.27-1.56,2.58,2.58,0,0,0-.8-1.34c-.54-.59-1.09-1.16-1.63-1.74-1.07-1.14-2.25-2.37-2.29-4,0-.11-.19-.12-.18,0a5,5,0,0,0,1.36,3.08c.47.56,1,1.09,1.48,1.62s1.57,1.38,1.83,2.21-.26,1.74-.5,2.51a14.64,14.64,0,0,0-.46,6.7c0,.12.2.07.18-.05Z"/><path d="M424.45,635.29a19.84,19.84,0,0,0,4.86-4.94c.07-.09-.09-.18-.16-.09a19.79,19.79,0,0,1-4.79,4.87c-.1.06,0,.22.09.16Z"/><path d="M437.79,645.5c-.32-5.2-3-9.84-4-14.91,0-.12-.2-.07-.18,0,1,5.05,3.63,9.68,3.94,14.86,0,.12.2.12.19,0Z"/><path d="M436.58,639A30.6,30.6,0,0,1,439,635.1a7.87,7.87,0,0,0,1.44-3.94c0-.12-.18-.12-.19,0a8.6,8.6,0,0,1-.45,2.13,8.2,8.2,0,0,1-1.13,1.94,27.43,27.43,0,0,0-2.2,3.69c-.05.11.11.2.16.09Z"/><path d="M452.09,646.63c-.08-2.44,0-5-.26-7.38a17.72,17.72,0,0,0-.83-3.12,19.72,19.72,0,0,1-.73-3.81c0-.12-.2-.12-.19,0a20.23,20.23,0,0,0,.6,3.36,23.22,23.22,0,0,1,1,3.57c.25,2.43.19,4.94.27,7.38,0,.12.19.12.18,0Z"/><path d="M451.88,638.77a65.89,65.89,0,0,0,3.5-6,.09.09,0,0,0-.16-.1,64.54,64.54,0,0,1-3.5,6c-.07.1.09.2.16.1Z"/><path d="M470.64,646.94a8.1,8.1,0,0,0-.18-3.43,14,14,0,0,0-1.79-3,18.71,18.71,0,0,1-2.6-7.23c0-.12-.2-.07-.18.05A18.93,18.93,0,0,0,468,639.8c.56,1,1.32,1.92,1.89,2.93a6.68,6.68,0,0,1,.54,4.16c0,.11.16.16.18.05Z"/><path d="M470.24,642.12l3.45-9.31c0-.11-.14-.16-.18,0l-3.44,9.31c-.05.12.13.16.17,0Z"/><path d="M489,646.1l-.09-4.11a4,4,0,0,0-.19-1.58,9.07,9.07,0,0,0-1-1.42,25.67,25.67,0,0,1-3.36-6.85c0-.11-.22-.06-.18.05a26,26,0,0,0,3,6.28c.33.51.69,1,1,1.48a3.31,3.31,0,0,1,.5,2l.09,4.11a.1.1,0,0,0,.19,0Z"/><path d="M487,638c.68-2,1.34-4,2-6,0-.12-.14-.16-.18,0-.66,2-1.32,4-2,6,0,.11.14.16.18,0Z"/><path d="M503.31,643.63a10.07,10.07,0,0,0-.05-3.33c-.14-1.2-.26-2.4-.41-3.6a16.79,16.79,0,0,0-1.7-6.14c0-.11-.21,0-.16.09a17.11,17.11,0,0,1,1.7,6.28c.13,1,.24,2.08.36,3.13a10.41,10.41,0,0,1,.08,3.52.09.09,0,0,0,.18,0Z"/><path d="M503,637.09a41.23,41.23,0,0,0,4.1-7.63c0-.11-.14-.16-.18,0a41,41,0,0,1-4.08,7.58c-.06.1.1.19.16.09Z"/><path d="M547.83,627.21c-.11-2.53,1.07-4.84,1.32-7.32.06-.65,0-1.3.08-1.94a6,6,0,0,1,.7-1.9l1.91-3.76c0-.1-.11-.2-.17-.09-.65,1.3-1.32,2.59-2,3.89a6.35,6.35,0,0,0-.62,1.56,12.38,12.38,0,0,0-.08,1.72c-.11,2.68-1.47,5.14-1.35,7.84,0,.12.19.12.18,0Z"/><path d="M549.05,618.07a22.74,22.74,0,0,1-2.67-2.33c-.08-.09-.21,0-.13.13a22.46,22.46,0,0,0,2.71,2.36c.09.08.19-.08.09-.16Z"/><path d="M541.11,631.6c.19-2.62.3-5.25.57-7.85a7.87,7.87,0,0,1,1.58-3.49l2.25-3.48c.07-.1-.09-.2-.16-.1l-2.41,3.73a7.59,7.59,0,0,0-1.42,3.06c-.35,2.68-.4,5.43-.59,8.13,0,.12.17.12.18,0Z"/><path d="M541.72,624a12.69,12.69,0,0,1-4.4-3.21c-.08-.09-.21,0-.13.14a12.93,12.93,0,0,0,4.44,3.23c.11,0,.2-.11.09-.16Z"/><path d="M532,636.25a56.3,56.3,0,0,0-.23-7.46,2.85,2.85,0,0,1,.45-1.87l.91-1.56,2-3.36a.09.09,0,0,0-.16-.1l-2.1,3.61c-.5.84-1.32,1.77-1.29,2.79,0,1.26.22,2.53.27,3.8s0,2.77,0,4.15c0,.12.18.12.18,0Z"/><path d="M531.4,627.84a4.74,4.74,0,0,1-3-.83,6.43,6.43,0,0,1-1.95-2.2c-.05-.11-.21,0-.16.1a4.13,4.13,0,0,0,.88,1.23,12.53,12.53,0,0,0,1.21,1.09,4.93,4.93,0,0,0,3,.79.09.09,0,0,0,0-.18Z"/><path d="M518.75,640.48a26.85,26.85,0,0,0,.28-3.58c0-1.17-.15-2.32-.24-3.49s.65-2.47,1.16-3.57,1.06-2.24,1.63-3.35a.09.09,0,0,0-.16-.09c-.57,1.1-1.11,2.22-1.63,3.34a11.52,11.52,0,0,0-1.18,3,6.87,6.87,0,0,0,.11,1.75c.06.63.1,1.27.12,1.91a25.28,25.28,0,0,1-.27,4.08c0,.12.16.17.18.05Z"/><path d="M518.63,633c-1.11-.78-2.24-1.51-3.4-2.21-.57-.34-1.15-.68-1.73-1s-1.53-.77-1.1-1.51c.06-.1-.1-.19-.16-.09a1,1,0,0,0,.39,1.29,18.86,18.86,0,0,0,1.9,1.11q2.06,1.2,4,2.57c.1.07.19-.1.09-.16Z"/><path class="cls-50" d="M414.88,401.63s2.93,11.85,5.29,15.09c8.32,11.36,32.23,12.92,42.55,13.6,12.37.82,31.79,1.61,43.94-.83,7.05-1.41,21.52-3.18,33.95-12.07C544,415,546,400,546,400Z"/><path class="cls-50" d="M546,400c0,11.85-29.35,21.46-65.55,21.46-10.6,0-28.17-3.26-37.39-4-4.11-.35-4.44,3.35-4.45,4.34a.05.05,0,0,1-.1,0,17.17,17.17,0,0,0-8.74-8.24c-3.68-1.47-15.42-6.53-14.87-13.54.92-11.81,29.35-21.46,65.55-21.46S546,388.15,546,400Z"/><path class="cls-50" d="M542.48,400.48c0,10.12-27.81,18.32-62.11,18.32a179.64,179.64,0,0,1-30.63-2.49c-8-1.53-10.79,2.59-10.79,2.59s-.57-4.69-6.6-6.86c-3.49-1.25-14.61-5.57-14.09-11.56.87-10.08,27.81-18.31,62.11-18.31S542.48,390.37,542.48,400.48Z"/><path class="cls-50" d="M540.93,400.53c1.08,2,.23,4.59-2.38,6.61-8.91,6.9-31.55,11.8-58.07,11.8a179.68,179.68,0,0,1-30.63-2.48c-8-1.53-10.79,2.59-10.79,2.59s-.56-4.7-6.6-6.87a39.61,39.61,0,0,1-10.19-5.13c-1.68-1.18-2.66-5.46-1.77-7.05,2.52-4.56,13-8.09,23.41-10.45,11.41-2.59,19.35-3.42,37.25-3.42,16.82,0,19.51.91,30.55,2.55C519.15,389.79,536.87,392.87,540.93,400.53Z"/><path d="M485.05,401.29c3.13-3.23,7.26-5.08,11.35-6.77,3.36-1.39,7.11-2.65,9.32-5.73,0-.06-.07-.13-.11-.06-2.45,3.41-6.83,4.64-10.52,6.2s-7.31,3.36-10.13,6.26c-.06.06,0,.16.09.1Z"/><path d="M488.84,403.37c4.18-.39,8.31-1.2,12.47-1.73a78.56,78.56,0,0,1,12.46-.35,106.51,106.51,0,0,0,24.55-2.19c.08,0,0-.14,0-.12a108.15,108.15,0,0,1-25,2.17,74.34,74.34,0,0,0-12.21.39c-4.08.54-8.13,1.32-12.23,1.7-.09,0-.09.14,0,.13Z"/><path d="M485.53,406.6a17.11,17.11,0,0,1,6.74,4.5,22.51,22.51,0,0,1,2.34,3.23,7.31,7.31,0,0,0,2.38,2.56c.07,0,.13-.07.06-.11a8.53,8.53,0,0,1-2.7-3.11,18.48,18.48,0,0,0-2.36-3.06,17.44,17.44,0,0,0-6.42-4.14c-.08,0-.11.1,0,.13Z"/><path d="M479.36,400a19.21,19.21,0,0,0-7-6.77c-1.46-.86-3-1.53-4.53-2.25a9.17,9.17,0,0,1-4.17-3.22c0-.07-.15,0-.11.07,1.71,2.74,5.19,3.56,7.87,5a19.84,19.84,0,0,1,7.87,7.22c0,.08.15,0,.11-.06Z"/><path d="M476.94,403.54c-6.46-3-13-6.05-20-7.52-3.47-.72-7-.74-10.45-1.14-3.72-.43-7.28-1.69-11-2a.07.07,0,1,0,0,.13c3.57.31,7,1.48,10.54,1.95s7.27.44,10.88,1.2c7,1.46,13.55,4.5,20,7.51.07,0,.14-.08.06-.12Z"/><path d="M477.73,406.31a99.55,99.55,0,0,1-12.56-.79c-3.91-.49-7.8-1.27-11.74-1.51a24.36,24.36,0,0,0-10.87,1.49c-3.34,1.39-6.25,3.61-9.56,5.06-.08,0,0,.14.06.11,3.43-1.5,6.44-3.84,9.93-5.21a25.35,25.35,0,0,1,11.34-1.25c3.79.31,7.54,1,11.32,1.5a99.54,99.54,0,0,0,12.08.73.07.07,0,0,0,0-.13Z"/><path d="M480.66,408.63q-2.42,2.39-4.75,4.84c-1.38,1.46-3,2.91-3.72,4.84,0,.08.1.11.13,0,.74-2,2.49-3.53,3.94-5s3-3.07,4.49-4.57a.06.06,0,1,0-.09-.09Z"/><path d="M423.17,419.84c-.07-1.12-.15-2.24-.23-3.36a10.58,10.58,0,0,0-.49-2.85c-.63-1.77-1.85-3.27-2.34-5.11,0-.08-.15,0-.13,0,.48,1.77,1.63,3.23,2.28,4.93a10.13,10.13,0,0,1,.55,3c.08,1.12.16,2.24.23,3.36,0,.08.14.08.13,0Z"/><path d="M422.92,414.94a12.11,12.11,0,0,1,.74-2,8.61,8.61,0,0,0,.91-1.62c0-.07-.1-.11-.12,0a11.24,11.24,0,0,1-.95,1.69,12.47,12.47,0,0,0-.7,2c0,.08.1.11.12,0Z"/><path d="M438.37,422.13l.08,4.65a.07.07,0,0,0,.13,0l-.08-4.65a.07.07,0,1,0-.13,0Z"/><path d="M430.58,424.42a26.94,26.94,0,0,0-.33-6.89A6.55,6.55,0,0,0,429,415a16,16,0,0,1-1.74-2.45c0-.08-.15,0-.11.06.88,1.78,2.5,3,3,5a26.63,26.63,0,0,1,.33,6.85c0,.08.12.08.13,0Z"/><path d="M430.6,420.4a35.56,35.56,0,0,0,3.15-4.56c0-.07-.07-.14-.11-.06a36.87,36.87,0,0,1-3.13,4.53c-.05.06,0,.15.09.09Z"/><path d="M417.72,406.3c-.31.71-.61,1.43-.91,2.15,0,.08.09.11.12,0l.9-2.12c0-.07-.08-.14-.11-.06Z"/><path d="M445.78,428.38a28.83,28.83,0,0,0-1.33-5.5,29.69,29.69,0,0,1-1.52-5.3c0-.09-.14-.05-.13,0a28.69,28.69,0,0,0,1.53,5.3,30,30,0,0,1,1.33,5.5c0,.08.13,0,.12,0Z"/><path d="M444.19,423a7.63,7.63,0,0,0,1.79-2.2,16.12,16.12,0,0,1,1.31-2.67c.06-.06,0-.15-.09-.09a13.23,13.23,0,0,0-1.26,2.56,7.49,7.49,0,0,1-1.84,2.31c-.07,0,0,.14.09.09Z"/><path d="M454,429.48a9.85,9.85,0,0,1,.07-3.59,11.76,11.76,0,0,1,.44-1.54,2.23,2.23,0,0,0,.19-1.08,1.83,1.83,0,0,0-.56-.93c-.37-.41-.75-.8-1.13-1.21a4.44,4.44,0,0,1-1.58-2.78.07.07,0,1,0-.13,0,3.47,3.47,0,0,0,1,2.13c.32.39.68.75,1,1.12s1.08,1,1.26,1.53-.18,1.21-.35,1.74a9.71,9.71,0,0,0-.35,1.58,10.12,10.12,0,0,0,0,3.06c0,.08.13.05.12,0Z"/><path d="M454.78,423.07a13.82,13.82,0,0,0,3.36-3.42c.05-.07-.06-.13-.11-.07a13.5,13.5,0,0,1-3.32,3.38c-.07,0,0,.16.07.11Z"/><path d="M464,430.15c-.22-3.61-2.07-6.83-2.73-10.34,0-.08-.14-.05-.13,0,.66,3.5,2.51,6.7,2.73,10.3,0,.08.14.08.13,0Z"/><path d="M463.18,425.65a21.94,21.94,0,0,1,1.64-2.71,5.31,5.31,0,0,0,1-2.73c0-.09-.12-.09-.13,0A4.8,4.8,0,0,1,464.6,423a18.82,18.82,0,0,0-1.53,2.56c0,.07.08.13.11.06Z"/><path d="M473.93,430.93c-.05-1.7,0-3.43-.18-5.12a11.38,11.38,0,0,0-.58-2.15,14.08,14.08,0,0,1-.5-2.65c0-.08-.14-.08-.13,0a15.14,15.14,0,0,0,.41,2.33,16.4,16.4,0,0,1,.67,2.47c.17,1.69.13,3.42.19,5.12,0,.08.13.08.12,0Z"/><path d="M473.78,425.48a41.74,41.74,0,0,0,2.43-4.13c0-.07-.07-.14-.11-.07a41.74,41.74,0,0,1-2.43,4.13c0,.07.07.14.11.07Z"/><path d="M486.79,431.14a5.58,5.58,0,0,0-.13-2.37,9.47,9.47,0,0,0-1.24-2.07,13.06,13.06,0,0,1-1.8-5c0-.08-.14,0-.13,0A13.38,13.38,0,0,0,485,426.2c.39.71.91,1.32,1.31,2a4.67,4.67,0,0,1,.37,2.88c0,.08.11.11.13,0Z"/><path d="M486.51,427.8l2.39-6.45c0-.08-.1-.11-.12,0l-2.39,6.45c0,.08.09.11.12,0Z"/><path d="M499.49,430.56l-.06-2.85a2.84,2.84,0,0,0-.13-1.09,6.62,6.62,0,0,0-.67-1,17.72,17.72,0,0,1-2.33-4.74c0-.08-.15-.05-.12,0a18.09,18.09,0,0,0,2.05,4.36c.23.35.48.68.72,1a2.31,2.31,0,0,1,.35,1.41l.06,2.85a.07.07,0,1,0,.13,0Z"/><path d="M498.14,424.93c.47-1.38.94-2.75,1.39-4.13,0-.08-.1-.12-.12,0-.46,1.38-.92,2.76-1.39,4.14,0,.07.1.11.12,0Z"/><path d="M509.43,428.85a6.83,6.83,0,0,0,0-2.3c-.09-.84-.18-1.67-.28-2.5a11.87,11.87,0,0,0-1.18-4.26c0-.07-.15,0-.11.06a11.79,11.79,0,0,1,1.18,4.36l.24,2.16a7,7,0,0,1,.06,2.45c0,.08.11.11.13,0Z"/><path d="M509.18,424.32A29,29,0,0,0,512,419c0-.07-.1-.11-.12,0a29.21,29.21,0,0,1-2.83,5.25c-.05.07.07.14.11.07Z"/><path d="M540.28,417.47c-.08-1.75.74-3.35.91-5.07,0-.45,0-.9.06-1.35a4.13,4.13,0,0,1,.48-1.31l1.32-2.61c0-.07-.07-.14-.11-.06l-1.36,2.69a3.93,3.93,0,0,0-.43,1.09,7.84,7.84,0,0,0-.06,1.19c-.08,1.85-1,3.56-.94,5.43,0,.09.14.09.13,0Z"/><path d="M541.13,411.14a15.87,15.87,0,0,1-1.86-1.62c0-.06-.14,0-.09.09a17.25,17.25,0,0,0,1.88,1.64c.07.05.13-.06.07-.11Z"/><path d="M535.62,420.51c.13-1.81.21-3.63.4-5.44a5.33,5.33,0,0,1,1.1-2.42l1.55-2.41c.05-.07-.06-.13-.11-.06l-1.67,2.58a5.14,5.14,0,0,0-1,2.12c-.25,1.86-.28,3.76-.42,5.63a.07.07,0,0,0,.13,0Z"/><path d="M536.05,415.27a8.86,8.86,0,0,1-3-2.22c-.06-.07-.15,0-.09.09a9,9,0,0,0,3.07,2.24c.08,0,.14-.08.07-.11Z"/><path d="M529.28,423.74a40.7,40.7,0,0,0-.16-5.18,2,2,0,0,1,.3-1.29l.64-1.08,1.36-2.33c0-.07-.07-.14-.12-.07l-1.45,2.5c-.34.59-.91,1.23-.9,1.93,0,.88.16,1.76.19,2.64s0,1.92,0,2.88c0,.08.12.08.13,0Z"/><path d="M528.89,417.9a3.18,3.18,0,0,1-2.06-.57,4.37,4.37,0,0,1-1.35-1.52c0-.08-.15,0-.11.06a2.75,2.75,0,0,0,.61.86,9.85,9.85,0,0,0,.83.75,3.38,3.38,0,0,0,2.08.55c.08,0,.08-.12,0-.13Z"/><path d="M520.13,426.67a17.15,17.15,0,0,0,.19-2.48c0-.82-.11-1.61-.17-2.42a5.47,5.47,0,0,1,.81-2.48c.36-.78.74-1.55,1.13-2.32,0-.07-.07-.13-.11-.06-.39.76-.77,1.53-1.13,2.32a8,8,0,0,0-.82,2,4.93,4.93,0,0,0,.08,1.21c0,.44.07.88.08,1.33a17.74,17.74,0,0,1-.19,2.82c0,.08.12.12.13,0Z"/><path d="M520.05,421.47c-.77-.53-1.56-1-2.36-1.53l-1.2-.69c-.35-.19-1.06-.53-.76-1,0-.07-.07-.14-.12-.07a.71.71,0,0,0,.27.9c.4.3.89.51,1.32.77.95.55,1.88,1.15,2.78,1.77.07.05.13-.06.07-.11Z"/><path class="cls-51" d="M1096.65,533.56s-6.4,25.92-11.58,33c-18.18,24.85-70.47,28.26-93.06,29.75-27,1.79-69.52,3.53-96.09-1.8-15.43-3.1-47.06-7-74.25-26.42-7.44-5.32-11.79-38.09-11.79-38.09Z"/><path class="cls-51" d="M809.88,530c0,25.92,64.19,46.93,143.36,46.93,23.18,0,61.62-7.13,81.78-8.84,9-.76,9.7,7.33,9.73,9.5a.11.11,0,0,0,.21,0c1.14-2.4,6.79-13.11,19.12-18,8-3.21,33.72-14.27,32.53-29.61-2-25.82-64.19-46.93-143.37-46.93S809.88,504.08,809.88,530Z"/><path class="cls-51" d="M817.59,531.05c0,22.12,60.82,40.06,135.84,40.06,22,0,48.24-1.84,67-5.43,17.53-3.36,23.61,5.65,23.61,5.65s1.22-10.26,14.42-15c7.62-2.74,32-12.18,30.82-25.28-1.91-22-60.81-40-135.83-40S817.59,508.93,817.59,531.05Z"/><path class="cls-51" d="M821,531.17c-2.35,4.44-.49,10,5.22,14.45,19.48,15.09,69,25.81,127,25.81,22,0,48.24-1.84,67-5.43,17.53-3.36,23.6,5.65,23.6,5.65s1.23-10.26,14.43-15a86.91,86.91,0,0,0,22.28-11.23c3.68-2.59,5.82-11.94,3.89-15.42-5.53-10-28.35-17.68-51.2-22.86-25-5.66-42.32-7.48-81.48-7.48-36.79,0-42.66,2-66.81,5.59C868.6,507.67,829.84,514.41,821,531.17Z"/><path d="M943.38,532.61c-4.75-4.94-10.67-8.45-16.84-11.34s-12.95-5.1-19.08-8.33a25.49,25.49,0,0,1-9.23-7.59c-.11-.15-.35,0-.25.14,3.81,5.41,10,8.23,15.9,10.69,6.65,2.76,13.41,5.35,19.6,9.06a45.91,45.91,0,0,1,9.7,7.57.14.14,0,0,0,.2-.2Z"/><path d="M934.9,537.08c-14-1.25-27.78-4.77-41.9-4.86-7,0-14.07.49-21.11.43s-14-.46-21-1.17c-8.1-.83-16.15-2.09-24.13-3.72-.18,0-.25.24-.08.27a237.66,237.66,0,0,0,42,4.85c7.12.16,14.22-.24,21.34-.36a134.32,134.32,0,0,1,21.75,1.65c7.69,1.12,15.35,2.5,23.1,3.2.18,0,.18-.27,0-.29Z"/><path d="M942.05,544.16a37.69,37.69,0,0,0-14,9.05,38.39,38.39,0,0,0-5.06,6.51c-1.65,2.63-3.26,5.38-6,7a.14.14,0,0,0,.14.25,16.12,16.12,0,0,0,5.19-5.6,50.25,50.25,0,0,1,5.13-7.08,37.33,37.33,0,0,1,14.73-9.84c.17-.06.09-.33-.08-.27Z"/><path d="M955.87,530.19c3.93-6.82,10.14-11.91,17-15.66,5.88-3.24,13.74-5,17.46-11.11.09-.15-.15-.3-.25-.14-2,3.3-5.38,5.27-8.79,6.89s-6.74,3-10,4.9c-6.31,3.69-12,8.58-15.67,15-.09.16.15.3.24.15Z"/><path d="M961.06,538c11-5.13,22.13-10.28,33.8-13.84a103.55,103.55,0,0,1,17.82-3.88c6.08-.74,12.24-.65,18.29-1.68,6.93-1.18,13.67-3.34,20.7-3.9.18,0,.18-.29,0-.28-6.11.49-12,2.17-18,3.39-6.42,1.31-12.9,1.34-19.39,2-12.06,1.23-23.67,5-34.82,9.64-6.26,2.59-12.41,5.44-18.54,8.3-.17.08,0,.32.14.24Z"/><path d="M959.19,544.09q10.63,0,21.23-1c6.47-.63,12.89-1.66,19.32-2.59,13.1-1.91,26.61-3,38.88,3,6.23,3,11.89,7.11,18.26,9.87.16.07.31-.17.14-.24-5.78-2.5-11-6.08-16.53-9a46.65,46.65,0,0,0-17.56-5.24c-13.26-1.21-26.45,2.15-39.56,3.61a217,217,0,0,1-24.18,1.34.14.14,0,0,0,0,.28Z"/><path d="M952.58,549.08q5,4.92,9.83,10c3.16,3.33,7,6.65,8.62,11,.06.17.33.1.27-.07-1.56-4.23-5.1-7.39-8.13-10.59q-5.1-5.38-10.39-10.58a.14.14,0,0,0-.2.2Z"/><path d="M1078.8,573.38c.16-2.44.32-4.89.5-7.33a22.64,22.64,0,0,1,1.21-6.54c1.42-3.72,3.94-6.91,5-10.79,0-.18-.23-.25-.27-.08-1.07,4-3.74,7.3-5.12,11.18a23.07,23.07,0,0,0-1.08,6.23c-.18,2.44-.34,4.89-.51,7.33,0,.18.27.18.29,0Z"/><path d="M1079.33,562.6a30.9,30.9,0,0,0-1.52-4.3c-.64-1.26-1.67-2.31-2.08-3.69a.14.14,0,0,0-.27.07,18.86,18.86,0,0,0,2,3.53,25.62,25.62,0,0,1,1.62,4.47c0,.17.33.1.27-.08Z"/><path d="M1045,578.39l-.19,10.18a.14.14,0,0,0,.28,0l.19-10.18a.14.14,0,0,0-.28,0Z"/><path d="M1062.6,583.41c-.15-5-.42-10.12.71-15a15.36,15.36,0,0,1,3.19-6.15,26.88,26.88,0,0,0,3.29-4.71c.08-.16-.16-.31-.24-.14a31.75,31.75,0,0,1-3.64,5.15,14.62,14.62,0,0,0-2.87,5.78c-1.14,4.9-.88,10.08-.72,15.06,0,.18.29.18.28,0Z"/><path d="M1062.47,574.42a78.43,78.43,0,0,1-6.85-9.92c-.09-.15-.33,0-.24.14a79.37,79.37,0,0,0,6.89,10c.11.14.31-.06.2-.2Z"/><path d="M1090.21,543.91l2,4.64c.07.17.34.1.27-.07l-2-4.71c-.07-.17-.31,0-.24.14Z"/><path d="M1029.33,592.14a65.53,65.53,0,0,1,2.91-12c1.31-3.81,2.77-7.58,3.34-11.6,0-.17-.24-.25-.27-.07-.57,4-2,7.78-3.34,11.6a65.33,65.33,0,0,0-2.91,12c0,.17.25.25.27.07Z"/><path d="M1032.75,580.11a16.41,16.41,0,0,1-4-5.07c-1-1.85-1.42-3.95-2.76-5.58-.12-.14-.31.06-.2.19,1.4,1.7,1.85,3.94,2.88,5.84a16.43,16.43,0,0,0,3.92,4.82c.13.11.33-.09.19-.2Z"/><path d="M1011.4,594.55a22.33,22.33,0,0,0,.09-6.68,21.54,21.54,0,0,0-.71-3.26c-.37-1.23-1.23-2.71-.82-4s1.76-2.27,2.61-3.18,1.55-1.62,2.27-2.47a7.8,7.8,0,0,0,2.2-4.81.14.14,0,1,0-.28,0c-.06,2.51-1.85,4.36-3.47,6.09-.82.88-1.65,1.75-2.46,2.64a4,4,0,0,0-1.23,2,4.93,4.93,0,0,0,.42,2.36,26.3,26.3,0,0,1,1,3.36,21.8,21.8,0,0,1,.14,7.85c0,.18.25.26.27.08Z"/><path d="M1009.53,580.21a29.73,29.73,0,0,1-7.25-7.38c-.11-.14-.36,0-.25.14,2.15,2.81,4.35,5.55,7.36,7.49.15.09.3-.15.14-.25Z"/><path d="M989.46,595.94c.48-7.86,4.52-14.88,6-22.54,0-.17-.24-.25-.27-.07-1.46,7.68-5.5,14.72-6,22.61,0,.18.27.18.28,0Z"/><path d="M991.25,586a41.48,41.48,0,0,0-3.34-5.59,12.91,12.91,0,0,1-1.67-2.84,12.69,12.69,0,0,1-.72-3.34c0-.18-.3-.18-.28,0a11.81,11.81,0,0,0,2.18,6A47,47,0,0,1,991,586.1c.08.16.32,0,.24-.14Z"/><path d="M967.78,597.65c.12-3.71,0-7.51.4-11.2a36.2,36.2,0,0,1,1.46-5.4,30.43,30.43,0,0,0,.9-5.1c0-.18-.26-.18-.28,0a30.82,30.82,0,0,1-1.1,5.79,25.79,25.79,0,0,0-1.26,4.71c-.38,3.7-.29,7.49-.4,11.2,0,.18.27.18.28,0Z"/><path d="M968.07,585.58a95,95,0,0,1-5.32-9c-.08-.16-.32,0-.24.14a97,97,0,0,0,5.31,9c.1.15.35,0,.25-.14Z"/><path d="M939.66,598a10.18,10.18,0,0,1,.81-6.3c.87-1.53,2-2.88,2.87-4.43a28.9,28.9,0,0,0,3.25-9.8c0-.18-.24-.25-.27-.07a28.66,28.66,0,0,1-3.94,11c-.92,1.49-2.2,2.83-2.73,4.52a12.17,12.17,0,0,0-.26,5.2c0,.17.29.1.27-.08Z"/><path d="M940.26,590.74,935,576.62c-.07-.16-.34-.09-.28.08L940,590.81c.07.17.34.1.28-.07Z"/><path d="M911.88,596.84l.14-6.24a5.1,5.1,0,0,1,.76-3.08c.53-.75,1.07-1.47,1.57-2.24a39,39,0,0,0,4.5-9.52.14.14,0,0,0-.27-.08,39,39,0,0,1-5.09,10.38,14.19,14.19,0,0,0-1.47,2.16,5.72,5.72,0,0,0-.28,2.18l-.14,6.44a.14.14,0,1,0,.28,0Z"/><path d="M914.82,584.45q-1.55-4.51-3-9c0-.17-.33-.1-.27.07q1.5,4.53,3,9c.05.18.33.1.27-.07Z"/><path d="M890.14,593a15.77,15.77,0,0,1,.13-5.35c.18-1.58.35-3.16.54-4.74a25.78,25.78,0,0,1,2.57-9.52c.09-.16-.16-.3-.24-.14a25.55,25.55,0,0,0-2.57,9.32c-.23,1.81-.42,3.64-.62,5.46a14.72,14.72,0,0,0-.08,5c0,.18.31.1.27-.07Z"/><path d="M890.65,583a63.58,63.58,0,0,1-6.18-11.49c-.06-.17-.34-.09-.27.08a63,63,0,0,0,6.21,11.55.14.14,0,1,0,.24-.14Z"/><path d="M822.67,568.21c.18-4.1-1.88-7.83-2-11.88a17.49,17.49,0,0,0-.13-2.61,8.65,8.65,0,0,0-.85-2.2c-1-2-2-4-3.07-6.06-.09-.16-.33,0-.25.14l2.79,5.5a10.39,10.39,0,0,1,1.11,2.7c.21,1.08.06,2.22.17,3.32.39,3.76,2.17,7.26,2,11.09,0,.18.27.18.28,0Z"/><path d="M820.68,554.61a35.94,35.94,0,0,0,4.11-3.59.14.14,0,0,0-.2-.2,34.92,34.92,0,0,1-4.05,3.54c-.14.11,0,.35.14.25Z"/><path d="M832.86,574.86c-.29-4.08-.37-8.25-.91-12.31a11.15,11.15,0,0,0-2.15-4.64l-3.65-5.65c-.1-.16-.34,0-.25.14l3.41,5.27c1.1,1.7,2.2,3.22,2.41,5.29.39,3.95.57,7.94.86,11.9,0,.18.29.18.28,0Z"/><path d="M831.79,563.63a19.44,19.44,0,0,0,6.73-4.9c.12-.14-.08-.34-.2-.2a19.24,19.24,0,0,1-6.67,4.86c-.16.07,0,.31.14.24Z"/><path d="M846.74,581.91c-.07-2.09-.08-4.19,0-6.29.07-1.92.37-3.85.41-5.77,0-1.54-1.21-2.94-1.95-4.22L842,560.16c-.09-.15-.33,0-.24.15l3,5.1,1.28,2.18a4.84,4.84,0,0,1,.86,1.94,6.35,6.35,0,0,1-.08,1.07,87.18,87.18,0,0,0-.35,11.31c0,.18.29.19.28,0Z"/><path d="M847.3,569.44a7.39,7.39,0,0,0,4.54-1.21,18.1,18.1,0,0,0,1.79-1.6,6.35,6.35,0,0,0,1.38-1.91c.07-.17-.17-.31-.24-.14a9.71,9.71,0,0,1-3,3.32,7,7,0,0,1-4.51,1.26.14.14,0,0,0,0,.28Z"/><path d="M866.74,588.25a37.6,37.6,0,0,1-.4-6.18q0-1.46.18-2.91a11.18,11.18,0,0,0,.16-2.65,17.88,17.88,0,0,0-1.79-4.46q-1.17-2.56-2.48-5.07c-.08-.16-.32,0-.24.14.87,1.67,1.69,3.36,2.48,5.07s1.91,3.53,1.76,5.42a46.78,46.78,0,0,0,.06,10.71c0,.18.29.11.27-.07Z"/><path d="M866.79,577.21c2-1.38,4-2.68,6.07-3.89a30.4,30.4,0,0,0,2.88-1.67,1.54,1.54,0,0,0,.6-2c-.09-.16-.34,0-.25.14.64,1.09-.84,1.82-1.59,2.24q-1.37.75-2.7,1.56-2.62,1.59-5.15,3.34c-.15.11,0,.35.14.25Z"/><path class="cls-52" d="M1335.62,639c12.26,10.66,21.89,26,17.64,30.76s-29.2,5.17-41.46-5.5-14-35.11-14-35.11S1323.36,628.31,1335.62,639Z"/><path class="cls-53" d="M1354.71,641.7c7.32,14.42,4.3,25.2-1.45,28s-22.89,1-30.22-13.41.36-37.72.36-37.72S1347.38,627.29,1354.71,641.7Z"/><path class="cls-52" d="M1371.21,639c-12.26,10.66-21.9,26-17.65,30.76s29.21,5.17,41.46-5.5,14-35.11,14-35.11S1383.47,628.31,1371.21,639Z"/><path class="cls-53" d="M1352.12,641.7c-7.32,14.42-4.3,25.2,1.44,28s22.9,1,30.22-13.41-.35-37.72-.35-37.72S1359.44,627.29,1352.12,641.7Z"/><path class="cls-53" d="M1370.76,649.75c0,16.13-11.07,21.78-17.5,21.78s-17.44-6.58-17.44-22.71,17.44-33.57,17.44-33.57S1370.76,633.62,1370.76,649.75Z"/><path class="cls-54" d="M975.63,362.3c7.14,6.21,12.76,15.14,10.28,17.92s-17,3-24.15-3.21-8.14-20.45-8.14-20.45S968.49,356.08,975.63,362.3Z"/><path class="cls-55" d="M986.75,363.88c4.27,8.4,2.51,14.68-.84,16.34s-13.34.59-17.6-7.81.2-22,.2-22S982.49,355.48,986.75,363.88Z"/><path class="cls-54" d="M996.37,362.3c-7.14,6.21-12.76,15.14-10.28,17.92s17,3,24.15-3.21,8.14-20.45,8.14-20.45S1003.51,356.08,996.37,362.3Z"/><path class="cls-55" d="M985.25,363.88c-4.27,8.4-2.51,14.68.84,16.34s13.33.59,17.6-7.81-.21-22-.21-22S989.51,355.48,985.25,363.88Z"/><path class="cls-55" d="M996.11,368.57c0,9.4-6.45,12.69-10.2,12.69s-10.16-3.84-10.16-13.23,10.16-19.55,10.16-19.55S996.11,359.18,996.11,368.57Z"/><path class="cls-56" d="M919,380.78c0,7.74-11,14-24.66,14s-25.65-5.64-25.65-13.38,12-14.64,25.65-14.64c3.41,0,7.14,1.06,10.09,1.77,1.07.25-7.69,6.16-6.7,6.5,1.27.44,12.29-4.81,13.4-4.26C916.21,373.35,919,376.59,919,380.78Z"/><path d="M895.3,378.64A26.26,26.26,0,0,0,903,376,53.15,53.15,0,0,1,911.3,373c.08,0,0-.14,0-.12a56.49,56.49,0,0,0-7.8,2.67c-1.35.62-2.64,1.35-4,1.87a19.33,19.33,0,0,1-4.17,1.06c-.08,0,0,.13,0,.12Z"/><path d="M894.56,381.17c6.17,1.5,13.08-1.9,18.79,1.76.06,0,.12-.07.06-.11-5.72-3.66-12.64-.26-18.82-1.77-.07,0-.11.1,0,.12Z"/><path d="M895.69,387.82a9.58,9.58,0,0,1,1.55,5.46c0,.07.12.07.12,0a9.71,9.71,0,0,0-1.57-5.52.06.06,0,1,0-.1.06Z"/><path d="M890.63,377.91c-1.61-1.15-3.18-2.36-4.79-3.51a14.35,14.35,0,0,0-2.55-1.4c-1.16-.52-2.71-1-3.46-2.1a.06.06,0,0,0-.11.06,6.78,6.78,0,0,0,2.9,1.86,19.75,19.75,0,0,1,3,1.59c1.66,1.18,3.27,2.42,4.93,3.61.06,0,.12-.06.06-.11Z"/><path d="M894.05,377.22a14,14,0,0,1-.68-5.43.06.06,0,1,0-.12,0,14.19,14.19,0,0,0,.68,5.46c0,.08.15,0,.12,0Z"/><path d="M890.08,380.2a39,39,0,0,0-8.77.31,35,35,0,0,1-4.53.84,32.4,32.4,0,0,1-4.62-.18c-.08,0-.08.11,0,.12a31.49,31.49,0,0,0,4.45.19,22.54,22.54,0,0,0,4.07-.72,37,37,0,0,1,9.4-.44c.08,0,.07-.12,0-.12Z"/><path d="M890.37,382a22.58,22.58,0,0,1-9.13,8c-.07,0,0,.14.07.11a22.74,22.74,0,0,0,9.17-8.06c0-.06-.07-.12-.11-.06Z"/><path class="cls-56" d="M315,398.55c0,7.73-11,14-24.66,14s-25.65-5.64-25.65-13.38,12-14.64,25.65-14.64c3.41,0,7.14,1.06,10.09,1.77,1.07.25-7.69,6.16-6.7,6.5,1.27.44,12.29-4.81,13.4-4.26C312.21,391.12,315,394.36,315,398.55Z"/><path d="M291.3,396.41a26.26,26.26,0,0,0,7.69-2.69,53.15,53.15,0,0,1,8.31-2.91c.08,0,0-.14,0-.12a56.49,56.49,0,0,0-7.8,2.67c-1.35.62-2.64,1.35-4,1.87a19.93,19.93,0,0,1-4.17,1.06c-.08,0,0,.13,0,.12Z"/><path d="M290.56,398.94c6.17,1.5,13.08-1.9,18.79,1.76.06,0,.12-.07.06-.11-5.72-3.66-12.64-.26-18.82-1.77-.07,0-.11.1,0,.12Z"/><path d="M291.69,405.59a9.58,9.58,0,0,1,1.55,5.46c0,.07.12.07.12,0a9.71,9.71,0,0,0-1.57-5.52.06.06,0,1,0-.1.06Z"/><path d="M286.63,395.68c-1.61-1.15-3.18-2.36-4.79-3.51a14.35,14.35,0,0,0-2.55-1.4c-1.16-.52-2.71-1-3.46-2.11-.05-.06-.15,0-.11.07a6.78,6.78,0,0,0,2.9,1.86,19.75,19.75,0,0,1,3,1.59c1.66,1.18,3.27,2.42,4.93,3.61.06,0,.12-.06.06-.11Z"/><path d="M290.05,395a14.06,14.06,0,0,1-.68-5.43.06.06,0,0,0-.12,0,14.21,14.21,0,0,0,.68,5.46c0,.08.15,0,.12,0Z"/><path d="M286.08,398a39,39,0,0,0-8.77.31,35,35,0,0,1-4.53.84,32.4,32.4,0,0,1-4.62-.18c-.08,0-.08.11,0,.12a31.49,31.49,0,0,0,4.45.19,22.54,22.54,0,0,0,4.07-.72,36.51,36.51,0,0,1,9.4-.44c.08,0,.07-.12,0-.12Z"/><path d="M286.37,399.81a22.58,22.58,0,0,1-9.13,8c-.07,0,0,.14.07.11a22.81,22.81,0,0,0,9.17-8.06c0-.06-.07-.13-.11-.06Z"/><path class="cls-43" d="M251.05,576.24c0,15.46-22.05,28-49.26,28S150.54,593,150.54,577.51s24.05-29.26,51.25-29.26c6.81,0,14.26,2.12,20.15,3.53,2.14.52-15.37,12.33-13.39,13,2.55.87,24.56-9.62,26.78-8.51C245.59,561.4,251.05,567.87,251.05,576.24Z"/><path d="M203.81,572a40,40,0,0,0,7.93-2c2.54-.93,4.92-2.19,7.35-3.36a104.77,104.77,0,0,1,16.68-5.86c.15,0,.09-.28-.06-.23a108.56,108.56,0,0,0-15.9,5.48c-2.64,1.23-5.19,2.64-7.92,3.65a39.48,39.48,0,0,1-8.14,2.05c-.16,0-.09.26.06.24Z"/><path d="M202.32,577c12.29,3.05,26.18-3.87,37.54,3.5.13.09.26-.12.12-.21-11.39-7.39-25.28-.47-37.59-3.53-.15,0-.22.2-.07.24Z"/><path d="M204.58,590.31c1.88,3.33,3.44,7,3.1,10.9,0,.16.23.16.25,0,.33-3.93-1.24-7.66-3.14-11-.08-.13-.29,0-.21.12Z"/><path d="M194.47,570.52c-3.22-2.31-6.35-4.72-9.57-7a28.86,28.86,0,0,0-5.09-2.78c-2.32-1.05-5.42-2-6.92-4.22-.09-.12-.3,0-.21.13,1.36,2,3.73,2.71,5.79,3.72a39,39,0,0,1,6,3.17c3.3,2.37,6.53,4.85,9.83,7.22.13.09.25-.12.13-.21Z"/><path d="M201.3,569.13c-1.39-3.43-1.38-7.2-1.35-10.85,0-.16-.24-.16-.24,0,0,3.67-.05,7.46,1.36,10.92.05.14.29.08.23-.07Z"/><path d="M193.37,575.08c-5.87-.23-11.8-.47-17.6.64-3,.57-5.9,1.49-9,1.67a63.09,63.09,0,0,1-9.22-.37c-.16,0-.16.23,0,.24a64.27,64.27,0,0,0,9,.39,52.68,52.68,0,0,0,8.34-1.51c6.07-1.31,12.31-1.06,18.47-.81.15,0,.15-.24,0-.25Z"/><path d="M194,578.76a45.22,45.22,0,0,1-18.24,16c-.14.07,0,.28.12.21a45.53,45.53,0,0,0,18.33-16.09.12.12,0,0,0-.21-.13Z"/><path class="cls-43" d="M150.54,576.24c0,15.46,22.05,28,49.25,28s51.26-11.27,51.26-26.72S227,548.25,199.79,548.25c-6.8,0-14.25,2.12-20.14,3.53-2.14.52,15.36,12.33,13.39,13-2.55.87-24.56-9.62-26.78-8.51C156,561.4,150.54,567.87,150.54,576.24Z"/><path d="M197.84,571.73a39.23,39.23,0,0,1-7.92-2c-2.82-1-5.43-2.47-8.14-3.73a108.56,108.56,0,0,0-15.9-5.48.12.12,0,0,0-.07.23,104.53,104.53,0,0,1,16.69,5.86c2.36,1.14,4.67,2.37,7.14,3.28a39.32,39.32,0,0,0,8.14,2.05c.15,0,.22-.21.06-.24Z"/><path d="M199.2,576.79c-12.31,3.06-26.2-3.86-37.6,3.53-.13.09,0,.3.13.21,11.36-7.37,25.24-.45,37.54-3.5.15,0,.08-.28-.07-.24Z"/><path d="M196.8,590.19c-1.9,3.36-3.47,7.09-3.14,11,0,.16.26.16.25,0-.34-3.89,1.22-7.57,3.1-10.9a.12.12,0,0,0-.21-.12Z"/><path d="M207.25,570.73c3.3-2.37,6.52-4.85,9.83-7.22a39.32,39.32,0,0,1,5.85-3.08c2.12-1,4.59-1.78,6-3.81.09-.13-.12-.25-.21-.13-1.48,2.15-4.48,3.1-6.76,4.14a31.37,31.37,0,0,0-5.25,2.86c-3.22,2.31-6.35,4.72-9.57,7-.12.09,0,.3.13.21Z"/><path d="M200.52,569.2c1.41-3.46,1.39-7.25,1.36-10.92a.13.13,0,0,0-.25,0c0,3.65.05,7.42-1.34,10.85-.06.15.18.21.23.07Z"/><path d="M208.22,575.33c6.16-.25,12.4-.5,18.47.81a51.9,51.9,0,0,0,8.11,1.49,61.78,61.78,0,0,0,9.22-.37c.16,0,.16-.26,0-.24a62.84,62.84,0,0,1-9,.38c-3.16-.16-6.12-1.09-9.21-1.68-5.8-1.11-11.73-.87-17.6-.64-.15,0-.15.25,0,.25Z"/><path d="M207.42,578.89A45.46,45.46,0,0,0,225.75,595c.14.07.26-.14.12-.21a45.15,45.15,0,0,1-18.24-16,.12.12,0,0,0-.21.13Z"/><path class="cls-57" d="M1205.64,622.64c0,7.74,11,14,24.65,14S1256,631,1256,623.27s-12-14.64-25.66-14.64c-3.4,0-7.13,1.06-10.08,1.77-1.07.25,7.69,6.17,6.7,6.5-1.27.44-12.29-4.81-13.4-4.26C1208.38,615.21,1205.64,618.45,1205.64,622.64Z"/><path class="cls-41" d="M1229.3,620.44a19.37,19.37,0,0,1-5.24-1.5c-.91-.41-1.8-.88-2.71-1.31a53.6,53.6,0,0,0-8-2.79"/><path class="cls-58" d="M1229.5,619.72a19.33,19.33,0,0,1-4.17-1.06c-1.33-.5-2.58-1.2-3.87-1.8a57.09,57.09,0,0,0-8-2.74.75.75,0,0,0-.39,1.44,53,53,0,0,1,8.14,2.84,26.8,26.8,0,0,0,7.85,2.76c.94.14,1.34-1.3.4-1.44Z"/><path class="cls-41" d="M1230,623c-3.1.81-6.34.31-9.52.08s-6.55-.13-9.28,1.68"/><path class="cls-58" d="M1229.82,622.25c-6.28,1.53-13.14-1.9-19,1.84-.8.52,0,1.81.76,1.29,5.58-3.58,12.55-.21,18.62-1.69a.75.75,0,0,0-.39-1.44Z"/><path class="cls-41" d="M1228.85,629.65a9.51,9.51,0,0,0-1.56,5.49"/><path class="cls-58" d="M1228.21,629.28a10.28,10.28,0,0,0-1.67,5.86.77.77,0,0,0,.75.74.74.74,0,0,0,.74-.74,8.91,8.91,0,0,1,1.46-5.11.76.76,0,0,0-.27-1,.74.74,0,0,0-1,.27Z"/><path class="cls-41" d="M1234,619.83a20,20,0,0,0,1.75-1.27c.63-.55,3.12-2.3,3.47-2.56a16.5,16.5,0,0,1,2.73-1.37c1-.5,2.25-.87,2.87-1.84"/><path class="cls-58" d="M1234.37,620.47c1.65-1.19,3.26-2.42,4.92-3.61a19,19,0,0,1,2.93-1.54c1.19-.59,2.45-1,3.24-2.16.54-.79-.75-1.54-1.29-.75a3.28,3.28,0,0,1-1.38,1l-1.76.83a15.57,15.57,0,0,0-2.63,1.43c-1.61,1.15-3.18,2.36-4.78,3.51-.78.56,0,1.85.75,1.29Z"/><path class="cls-41" d="M1230.6,619.1a14,14,0,0,0,.68-5.45"/><path class="cls-58" d="M1231.32,619.3a14.61,14.61,0,0,0,.7-5.65.75.75,0,1,0-1.49,0,13.33,13.33,0,0,1-.65,5.25.76.76,0,0,0,.52.92.77.77,0,0,0,.92-.52Z"/><path class="cls-41" d="M1234.51,622.12a36.77,36.77,0,0,1,9.26.41c.84.18,1.67.42,2.51.57a23.45,23.45,0,0,0,6.15,0"/><path class="cls-58" d="M1234.51,622.86a36,36,0,0,1,9.22.42,24.59,24.59,0,0,0,4.08.74,31.06,31.06,0,0,0,4.62-.19c1-.08,1-1.57,0-1.49a31.5,31.5,0,0,1-4.45.2,33.25,33.25,0,0,1-4.52-.83,39.39,39.39,0,0,0-9-.33c-1,0-1,1.52,0,1.48Z"/><path class="cls-41" d="M1234.16,623.93a22.53,22.53,0,0,0,9.15,8"/><path class="cls-58" d="M1233.52,624.31a23.46,23.46,0,0,0,9.42,8.3c.86.4,1.62-.88.75-1.29a22,22,0,0,1-8.88-7.76c-.53-.8-1.82,0-1.29.75Z"/><path class="cls-57" d="M666.05,476.35c0,11.55-16.46,20.9-36.78,20.9S591,488.84,591,477.3s18-21.84,38.27-21.84c5.08,0,10.65,1.57,15.05,2.63,1.59.39-11.48,9.2-10,9.71,1.9.65,18.33-7.19,20-6.36C662,465.27,666.05,470.1,666.05,476.35Z"/><path class="cls-41" d="M630.76,473.08a29.34,29.34,0,0,0,7.82-2.24c1.36-.61,2.68-1.32,4-1.95a79.78,79.78,0,0,1,12-4.17"/><path class="cls-58" d="M631,473.8c4.21-.62,7.84-2.26,11.63-4.08a78.52,78.52,0,0,1,12.24-4.28.74.74,0,0,0-.4-1.43,84.42,84.42,0,0,0-11.78,4.05c-2,.89-3.84,2-5.86,2.72a30.35,30.35,0,0,1-6.22,1.58c-.95.14-.55,1.57.39,1.44Z"/><path class="cls-41" d="M629.69,476.85c4.63,1.2,9.46.46,14.2.12s9.78-.2,13.85,2.51"/><path class="cls-58" d="M629.49,477.57c9.1,2.23,19.5-2.84,27.88,2.55.8.53,1.55-.76.75-1.28-8.64-5.56-18.93-.43-28.23-2.7-.93-.23-1.33,1.2-.4,1.43Z"/><path class="cls-41" d="M631.43,486.82c1.4,2.46,2.6,5.28,2.33,8.18"/><path class="cls-58" d="M630.79,487.19c1.35,2.39,2.47,5,2.23,7.81a.74.74,0,0,0,.74.74.77.77,0,0,0,.75-.74c.26-3.05-1-6-2.44-8.56a.74.74,0,0,0-1.28.75Z"/><path class="cls-41" d="M623.76,472.16a30.4,30.4,0,0,1-2.61-1.89c-.95-.82-4.65-3.43-5.17-3.81-1.34-1-2.3-1.15-4.08-2.06-1.45-.74-3.36-1.3-4.29-2.74"/><path class="cls-58" d="M624.13,471.52c-2.4-1.73-4.74-3.53-7.14-5.25a21.24,21.24,0,0,0-3.8-2.08c-.89-.4-1.76-.82-2.64-1.23a5.41,5.41,0,0,1-2.29-1.68c-.54-.78-1.83,0-1.29.75,1.1,1.6,2.89,2.2,4.56,3a29.77,29.77,0,0,1,4.51,2.36c2.47,1.77,4.87,3.62,7.34,5.39.78.56,1.52-.73.75-1.28Z"/><path class="cls-41" d="M628.82,471.07c-1-2.5-1-5.37-1-8.13"/><path class="cls-58" d="M629.53,470.88c-1-2.52-1-5.26-1-7.94a.75.75,0,0,0-1.49,0c0,2.8,0,5.7,1,8.33a.76.76,0,0,0,.91.52.74.74,0,0,0,.52-.91Z"/><path class="cls-41" d="M623,475.58c-4.62-.18-9.28-.37-13.81.61-1.25.27-2.49.63-3.75.85a35.19,35.19,0,0,1-9.17,0"/><path class="cls-58" d="M623,474.84a58.88,58.88,0,0,0-13.07.45,55.69,55.69,0,0,1-6.89,1.28,47.87,47.87,0,0,1-6.77-.29c-1-.08-1,1.41,0,1.49a47.87,47.87,0,0,0,6.77.29,40.48,40.48,0,0,0,6.35-1.15c4.47-1,9.07-.77,13.61-.58,1,0,1-1.45,0-1.49Z"/><path class="cls-41" d="M623.5,478.28a33.51,33.51,0,0,1-13.65,12"/><path class="cls-58" d="M622.86,477.91a33.2,33.2,0,0,1-13.39,11.72c-.86.4-.11,1.69.76,1.28a34.51,34.51,0,0,0,13.91-12.25c.53-.8-.76-1.55-1.28-.75Z"/><path class="cls-59" d="M724.8,436c22.59-4.43,16.4,158.24,16.4,158.24"/><path class="cls-60" d="M1324.89,281.71c28.64-5.14,15.62,158.08,15.62,158.08"/><path class="cls-61" d="M1177.12,282.35s0,25.7,46.87,2.57c10.41-5.14,63.79,9,63.79,9,28.64-3.86,44.27-11.57,50.78-34.7,0,0-2.32-54.9,3.9-56.55,33.85-9,19.53-25.71,19.53-25.71s-9.11-9-19.53-10.28c-10.17-1.26-38.59,3-46.87,9l-14.74,14.54a25.58,25.58,0,0,1-10.62,4.46l-25.46-2.25a14.08,14.08,0,0,0-12.86,16.43l7.7,9.23c0,6.42-11.45,9.33-15.62,11.56l-14.22,7.59c-11,5.91-22.65,12.43-28.74,23.26C1174.52,272.07,1177.12,282.35,1177.12,282.35Z"/><path class="cls-62" d="M1287.45,293.83c44.6-1.2,65.84-24.85,60.22-52.61-3.91-19.28,5.21-42.41,5.21-42.41-35.15,10.28-39.82,26.72-65.1,47.55-19.71,16.25-65,35.75-63.79,38.56C1224.16,285.34,1287.45,293.83,1287.45,293.83Z"/><path class="cls-63" d="M1187.53,270.78s15.63-11.56,59.89,0"/><path class="cls-63" d="M1211,246.36s12.91-9.21,49.47,18"/><path class="cls-63" d="M1237,233.51s14.32,1.29,35.15,23.13"/><path class="cls-63" d="M1239.61,207.81c2.4.22,18.87,13.36,40,44.17"/><path class="cls-63" d="M1341.58,176.68s-17.2,9.14-25.15,53.65"/><path class="cls-63" d="M1309.29,187.42s-13.89,7.69-4.23,51.88"/><path class="cls-63" d="M1286.54,205.35s-4.83,13.37,6.51,41.21"/><path class="cls-63" d="M1261.81,196.89c-.8,2.25,4.37,22.52,23.83,54.37"/><path class="cls-64" d="M409.79,343C381.14,337.69,391,547.89,391,547.89"/><path class="cls-65" d="M557.55,343.67s0,26.58-46.86,2.66c-10.42-5.31-63.8,9.3-63.8,9.3-28.64-4-44.26-12-50.77-35.87,0,0,2.31-56.75-3.91-58.46-33.85-9.3-19.53-26.57-19.53-26.57s9.12-9.3,19.53-10.63c10.17-1.3,38.6,3.13,46.87,9.3l14.75,15a25.12,25.12,0,0,0,10.61,4.62l25.46-2.32a14.43,14.43,0,0,1,12.86,17l-7.7,9.54c0,6.65,11.45,9.65,15.63,12L524.9,297c11,6.11,22.65,12.85,28.75,24C560.16,333,557.55,343.67,557.55,343.67Z"/><path class="cls-57" d="M447.23,355.55c-44.6-1.25-65.85-25.7-60.23-54.39,3.91-19.93-5.2-43.84-5.2-43.84,35.15,10.62,39.82,27.62,65.09,49.15,19.71,16.79,65,36.95,63.8,39.86C510.51,346.76,447.23,355.55,447.23,355.55Z"/><path class="cls-66" d="M547.14,331.72s-15.62-12-59.89,0"/><path class="cls-66" d="M523.7,306.47s-12.9-9.52-49.47,18.6"/><path class="cls-66" d="M497.67,293.19s-14.32,1.33-35.16,23.91"/><path class="cls-66" d="M495.06,266.62c-2.4.23-18.86,13.81-40,45.66"/><path class="cls-66" d="M393.1,234.44s17.19,9.45,25.14,55.46"/><path class="cls-66" d="M425.39,245.54s13.89,8,4.23,53.63"/><path class="cls-66" d="M448.14,264.08s4.83,13.82-6.51,42.6"/><path class="cls-66" d="M472.86,255.33c.8,2.33-4.36,23.28-23.83,56.21"/><path class="cls-67" d="M227.05,331.55c23.58-4.23,12.86,130.12,12.86,130.12"/><path class="cls-68" d="M105.42,332.08s0,21.15,38.58,2.11c8.57-4.23,52.51,7.41,52.51,7.41,23.58-3.18,36.44-9.52,41.79-28.57,0,0-1.9-45.18,3.22-46.54,27.86-7.41,16.07-21.16,16.07-21.16s-7.5-7.41-16.07-8.46c-8.37-1-31.77,2.49-38.58,7.4l-12.14,12a21.12,21.12,0,0,1-8.74,3.68l-20.95-1.85a11.58,11.58,0,0,0-10.59,13.52l6.34,7.59c0,5.29-9.43,7.68-12.86,9.52l-11.7,6.24c-9.08,4.87-18.65,10.24-23.66,19.15A26.35,26.35,0,0,0,105.42,332.08Z"/><path class="cls-69" d="M196.24,341.53c36.71-1,54.19-20.46,49.56-43.31-3.21-15.86,4.29-34.91,4.29-34.91-28.93,8.47-32.77,22-53.58,39.15C180.29,315.83,143,331.88,144,334.19,144.15,334.54,196.24,341.53,196.24,341.53Z"/><path class="cls-70" d="M114,322.56s12.86-9.53,49.29,0"/><path class="cls-70" d="M133.29,302.46s10.62-7.59,40.72,14.81"/><path class="cls-70" d="M154.72,291.88s11.79,1.05,28.93,19"/><path class="cls-70" d="M156.86,270.72c2,.19,15.53,11,32.91,36.36"/><path class="cls-70" d="M240.79,245.1s-14.15,7.52-20.7,44.16"/><path class="cls-70" d="M214.21,253.94s-11.43,6.33-3.48,42.7"/><path class="cls-70" d="M195.49,268.7s-4,11,5.35,33.92"/><path class="cls-70" d="M175.14,261.74c-.66,1.85,3.59,18.53,19.61,44.75"/><path class="cls-71" d="M112,464c-31.36-5.94-22.11,237.06-22.11,237.06"/><path class="cls-44" d="M101.34,434.53c6.45,13.35,9,29.71,3.67,32.21s-26.51-6-33-19.36,1-34.58,1-34.58S94.89,421.18,101.34,434.53Z"/><path class="cls-45" d="M116.45,443.61c.92,14.76-5.56,22.78-11.44,23.13s-19.68-7.28-20.6-22,14-31.69,14-31.69S115.53,428.85,116.45,443.61Z"/><path class="cls-44" d="M131.36,447.18c-14.23,4.63-28,14.14-26.1,19.67s22.74,14.73,37,10.09,24.59-24.64,24.59-24.64S145.58,442.54,131.36,447.18Z"/><path class="cls-45" d="M114.26,442.69c-11.43,9.56-12.81,19.72-9,24.16s18.94,9,30.37-.57,13.46-31.94,13.46-31.94S125.7,433.14,114.26,442.69Z"/><path class="cls-45" d="M127.05,456.1c-5.88,13.61-17.28,14.44-22.7,12.16S92,456.5,97.92,442.9s27-22.11,27-22.11S132.93,442.5,127.05,456.1Z"/><path class="cls-54" d="M709.25,431.69c9.52.09,19.69,3.22,19.65,6.92S718,451.87,708.51,451.78s-19.71-10.22-19.71-10.22S699.73,431.6,709.25,431.69Z"/><path class="cls-55" d="M718.72,425.71c8.79,3.6,11.61,9.49,10.18,12.9s-9.7,9.06-18.49,5.46S696,427.31,696,427.31,709.92,422.11,718.72,425.71Z"/><path class="cls-54" d="M724.94,418.3c-1.29,9.31.38,19.7,4.09,20.2s14.86-8.71,16.15-18-7.39-20.73-7.39-20.73S726.22,409,724.94,418.3Z"/><path class="cls-55" d="M717.58,426.69c2.33,9.1,7.82,12.72,11.45,11.81s10.48-8.17,8.14-17.28-14.71-16.49-14.71-16.49S715.24,417.58,717.58,426.69Z"/><path class="cls-55" d="M728.9,423.22c6.22,7.11,3.53,13.76.69,16.18s-10.23,3.66-16.45-3.45-5.27-21.35-5.27-21.35S722.67,416.11,728.9,423.22Z"/><path class="cls-72" d="M1168.05,463.84c-25.91-4.9-18.27,195.81-18.27,195.81"/><path class="cls-73" d="M1159.26,439.47c5.33,11,7.43,24.54,3,26.61s-21.89-5-27.22-16,.83-28.56.83-28.56S1153.94,428.45,1159.26,439.47Z"/><path class="cls-74" d="M1171.74,447c.76,12.19-4.59,18.81-9.45,19.1s-16.25-6-17-18.2,11.61-26.18,11.61-26.18S1171,434.78,1171.74,447Z"/><path class="cls-73" d="M1184.06,449.92c-11.75,3.83-23.08,11.69-21.56,16.25s18.79,12.17,30.54,8.34,20.31-20.36,20.31-20.36S1195.81,446.09,1184.06,449.92Z"/><path class="cls-74" d="M1169.94,446.22c-9.44,7.89-10.58,16.28-7.44,19.95s15.65,7.42,25.09-.47,11.11-26.38,11.11-26.38S1179.38,438.32,1169.94,446.22Z"/><path class="cls-74" d="M1180.5,457.3c-4.85,11.23-14.27,11.92-18.75,10s-10.17-9.7-5.31-20.94,22.26-18.26,22.26-18.26S1185.36,446.06,1180.5,457.3Z"/><path class="cls-43" d="M627.42,569.87c0,15.46,22.05,28,49.26,28s51.26-11.26,51.26-26.72-24.06-29.26-51.26-29.26c-6.8,0-14.25,2.12-20.15,3.54-2.14.51,15.37,12.32,13.39,13-2.55.88-24.55-9.62-26.78-8.51C632.89,555,627.42,561.5,627.42,569.87Z"/><path d="M674.73,565.37a40,40,0,0,1-7.93-2c-2.82-1-5.43-2.48-8.14-3.74a109.75,109.75,0,0,0-15.9-5.48.12.12,0,0,0-.06.23,105.41,105.41,0,0,1,16.68,5.86c2.36,1.14,4.68,2.37,7.14,3.28a39.32,39.32,0,0,0,8.14,2.05c.15,0,.22-.21.07-.23Z"/><path d="M676.08,570.42c-12.31,3.07-26.2-3.86-37.59,3.54-.13.08,0,.29.12.21,11.36-7.37,25.25-.46,37.54-3.51.15,0,.09-.27-.07-.24Z"/><path d="M673.68,583.82c-1.89,3.36-3.47,7.09-3.13,11,0,.16.25.16.24,0-.33-3.89,1.23-7.57,3.1-10.89a.12.12,0,0,0-.21-.13Z"/><path d="M684.13,564.36c3.3-2.37,6.53-4.85,9.84-7.22a39.27,39.27,0,0,1,5.85-3.08c2.11-1,4.58-1.78,6-3.81.09-.13-.12-.25-.21-.12-1.47,2.15-4.47,3.09-6.75,4.14a30.34,30.34,0,0,0-5.26,2.85c-3.22,2.31-6.35,4.72-9.56,7-.13.09,0,.3.12.21Z"/><path d="M677.41,562.83c1.4-3.46,1.38-7.25,1.35-10.92a.12.12,0,1,0-.24,0c0,3.65.05,7.42-1.35,10.86-.06.14.18.21.24.06Z"/><path d="M685.11,569c6.15-.25,12.4-.49,18.46.82a54.57,54.57,0,0,0,8.11,1.49,61.73,61.73,0,0,0,9.22-.38c.16,0,.16-.25,0-.24a64.13,64.13,0,0,1-9,.39c-3.17-.17-6.13-1.1-9.22-1.69-5.8-1.1-11.73-.87-17.59-.63-.16,0-.16.25,0,.24Z"/><path d="M684.31,572.52a45.43,45.43,0,0,0,18.32,16.09c.14.07.27-.14.12-.21a45.17,45.17,0,0,1-18.23-16c-.09-.13-.3,0-.21.12Z"/><path class="cls-57" d="M1046.52,424.87c0,7.74,11,14,24.66,14s25.65-5.64,25.65-13.37-12-14.64-25.65-14.64c-3.41,0-7.14,1.05-10.09,1.76-1.07.26,7.7,6.17,6.71,6.51-1.28.43-12.29-4.82-13.41-4.26C1049.26,417.45,1046.52,420.68,1046.52,424.87Z"/><path class="cls-41" d="M1070.18,422.68a19.85,19.85,0,0,1-5.24-1.5c-.91-.41-1.8-.89-2.7-1.31a52.88,52.88,0,0,0-8-2.79"/><path class="cls-58" d="M1070.38,422a20.09,20.09,0,0,1-4.17-1.06c-1.33-.51-2.57-1.21-3.87-1.8a57.09,57.09,0,0,0-8-2.74.75.75,0,0,0-.39,1.44,51,51,0,0,1,8.14,2.84,26.84,26.84,0,0,0,7.86,2.75c.93.14,1.34-1.29.39-1.43Z"/><path class="cls-41" d="M1070.9,425.21c-3.11.8-6.34.3-9.52.07s-6.55-.13-9.29,1.69"/><path class="cls-58" d="M1070.7,424.49c-6.28,1.53-13.14-1.91-19,1.84-.81.51-.06,1.8.75,1.28,5.58-3.57,12.56-.21,18.62-1.68a.75.75,0,0,0-.39-1.44Z"/><path class="cls-41" d="M1069.73,431.89a9.57,9.57,0,0,0-1.56,5.48"/><path class="cls-58" d="M1069.09,431.51a10.31,10.31,0,0,0-1.66,5.86.76.76,0,0,0,.74.75.75.75,0,0,0,.74-.75,9,9,0,0,1,1.46-5.11.74.74,0,1,0-1.28-.75Z"/><path class="cls-41" d="M1074.88,422.06a19.32,19.32,0,0,0,1.74-1.27c.64-.55,3.12-2.29,3.47-2.55a17.3,17.3,0,0,1,2.73-1.38c1-.49,2.26-.87,2.88-1.84"/><path class="cls-58" d="M1075.25,422.7c1.66-1.18,3.27-2.42,4.93-3.61a20.35,20.35,0,0,1,2.92-1.54c1.2-.59,2.46-1,3.24-2.15.54-.8-.75-1.54-1.29-.75a3.37,3.37,0,0,1-1.38,1l-1.75.82a15.19,15.19,0,0,0-2.63,1.43c-1.61,1.16-3.18,2.36-4.79,3.52-.77.55,0,1.84.75,1.28Z"/><path class="cls-41" d="M1071.48,421.33a13.81,13.81,0,0,0,.68-5.45"/><path class="cls-58" d="M1072.2,421.53a14.56,14.56,0,0,0,.7-5.65.75.75,0,0,0-.74-.74.76.76,0,0,0-.75.74,13.53,13.53,0,0,1-.64,5.26.74.74,0,0,0,.52.91.75.75,0,0,0,.91-.52Z"/><path class="cls-41" d="M1075.4,424.36a36.24,36.24,0,0,1,9.25.41c.84.18,1.67.42,2.52.57a23.37,23.37,0,0,0,6.14,0"/><path class="cls-58" d="M1075.4,425.1a36,36,0,0,1,9.21.42,25.77,25.77,0,0,0,4.09.73,30.86,30.86,0,0,0,4.61-.18c1-.09,1-1.58,0-1.49a31.35,31.35,0,0,1-4.44.19,33.09,33.09,0,0,1-4.53-.82,39.33,39.33,0,0,0-8.94-.34c-1,0-1,1.53,0,1.49Z"/><path class="cls-41" d="M1075.05,426.17a22.55,22.55,0,0,0,9.15,8"/><path class="cls-58" d="M1074.41,426.54a23.28,23.28,0,0,0,9.41,8.3c.86.41,1.62-.87.75-1.28a22,22,0,0,1-8.88-7.77c-.53-.79-1.82-.05-1.28.75Z"/></g></g></svg>