<svg xmlns="http://www.w3.org/2000/svg" viewBox="0 0 400.04 400.5"><defs><style>.cls-1,.cls-2{fill:#ede6e2;stroke:#f4f2ed;}.cls-1,.cls-11,.cls-12,.cls-13,.cls-16,.cls-2,.cls-25,.cls-27,.cls-30,.cls-31,.cls-32,.cls-7,.cls-8{stroke-miterlimit:10;}.cls-1{stroke-width:0.42px;}.cls-2{stroke-width:0.42px;}.cls-3{fill:#f2f2f2;}.cls-4{fill:#a7a6a4;}.cls-5{fill:#b1b0ab;}.cls-6{fill:#b37252;}.cls-16,.cls-25,.cls-27,.cls-30,.cls-7{fill:none;}.cls-12,.cls-13,.cls-7,.cls-8{stroke:gray;}.cls-11,.cls-12,.cls-7,.cls-8{stroke-width:0.65px;}.cls-9{fill:#d8cac3;}.cls-10{fill:#ccbab0;}.cls-11{fill:#c9b197;stroke:#917e69;}.cls-12,.cls-13{fill:#e8e2da;}.cls-13{stroke-width:0.59px;}.cls-14{fill:#f3c663;}.cls-15{fill:#f9d895;}.cls-16{stroke:#b1824b;stroke-width:1.29px;}.cls-17{fill:#bc8e5d;}.cls-18{fill:#f7e8db;}.cls-19{fill:#bfafa7;}.cls-20{fill:#7a8456;}.cls-21{fill:#6d7570;}.cls-22{fill:#b1824b;}.cls-23{fill:#c0cec7;}.cls-24{fill:#abbfb6;}.cls-25{stroke:#d2e1da;}.cls-25,.cls-27{stroke-width:0.4px;}.cls-26{fill:#c8dad2;}.cls-27,.cls-30{stroke:#afc9bc;}.cls-28{fill:#afc9bc;}.cls-29{fill:#d2e1da;}.cls-30{stroke-width:0.42px;}.cls-31{fill:#fcfcfc;stroke:#e2dad5;stroke-width:1.55px;}.cls-32{fill:#f4f2f4;stroke:#cec8c4;stroke-width:0.39px;}.cls-33{fill:#efecce;}.cls-34{fill:#b8ccc9;}</style></defs><title>Recurso 1</title><g id="Capa_2" data-name="Capa 2"><g id="Capa_1-2" data-name="Capa 1"><rect class="cls-1" x="0.21" y="369.2" width="399.61" height="31.08"/><rect class="cls-2" x="0.49" y="339.41" width="399.33" height="31.08"/><rect class="cls-1" x="0.21" y="308.98" width="399.61" height="31.08"/><rect class="cls-2" x="0.49" y="277.9" width="399.33" height="31.08"/><rect class="cls-3" x="0.21" y="1.06" width="399.29" height="278.45"/><path class="cls-4" d="M340.64,235.8c3.23,3.24-1.29,38.21-2.58,43.39-.7,2.81-254.08,1.94-262.46.65-.18,0-.6.48-1.14.42-5.3-.54-5.15-39.24-2.73-48.34-.11,0-.18,0-.2-.06-.35-1,38.25-15.46,38.25-18.72l.64-20.08c0-3.38,6.31-7.77,9.67-7.77,28.51,0,81.26-1.29,88.77,1.29a.69.69,0,0,0,.45,0c6.87-2.58,58.93-2.94,93.93-1.29a7.85,7.85,0,0,1,4.49,3,10.2,10.2,0,0,1,2,5.47L309,213.14C314.85,216.38,338.26,233.41,340.64,235.8Z"/><path class="cls-5" d="M322.7,268.18H86.22c-3.39,0-4-9.93-1.6-12.3,0,0,22-22.47,31.6-25.9,18.71-5.83,84.46,2.59,92.87,2.59s63-5.22,92.21.64c6.45,1.3,20.78,18.37,25.78,25.59A5.72,5.72,0,0,1,322.7,268.18Z"/><polygon class="cls-6" points="74.31 303.15 78.18 303.15 93.01 282.43 317.43 283.08 333.55 303.15 336.77 303.15 329.68 279.84 81.4 279.84 74.31 303.15"/><path class="cls-7" d="M86.24,258.79c-1.94-7.77,125.43-14.57,117,.33"/><path class="cls-7" d="M322.53,260.06c.06-13.25-108.93-11.95-108.93-.94"/><line class="cls-7" x1="209.09" y1="186.59" x2="209.09" y2="228.03"/><line class="cls-7" x1="209.09" y1="234.51" x2="209.09" y2="266.24"/><path class="cls-7" d="M223.27,198.25c3.87.64,3.23,18.13,3.23,18.13"/><path class="cls-7" d="M218.76,208.61c13.54-2.59,16.77.64,16.77.64"/><ellipse class="cls-8" cx="226.18" cy="207.63" rx="0.97" ry="0.97"/><path class="cls-7" d="M254.87,197.6c.65,3.88-.32,19.1-.32,19.1"/><path class="cls-7" d="M245.2,208c13.54-2.59,20,.65,20,.65"/><ellipse class="cls-8" cx="254.87" cy="206.66" rx="0.97" ry="0.97"/><path class="cls-7" d="M190.39,199.54c-1.29,5.18-.33,17.16-.33,17.16"/><path class="cls-7" d="M180.07,206.66c2.58-.64,7.44,1.16,9.67,1.3,0,0,3.22-1.3,9.67-.65h0"/><ellipse class="cls-8" cx="189.74" cy="207.96" rx="0.97" ry="0.97"/><path class="cls-7" d="M158.79,197.27s-.33,14.09-.33,18.78"/><path class="cls-7" d="M151.37,207.31s10.64-.65,16.44,1.3"/><ellipse class="cls-8" cx="158.79" cy="207.31" rx="0.97" ry="0.97"/><path class="cls-7" d="M72.05,232.89c12.57-6.8,10,36.59,10,36.59s239.84.51,245.05-.65c5.8-1.3-4.51-36.26,14.51-33.35"/><polygon class="cls-6" points="134.99 358.84 137.16 358.84 145.48 324.59 271.42 325.66 280.47 358.84 282.28 358.84 278.3 320.31 138.97 320.31 134.99 358.84"/><path class="cls-9" d="M284.4,323.18c-.67,8.19-33.93,14.89-75.78,14.89s-74.79-6.73-75.77-14.89c-2.76-22.94,33.92-14.9,75.77-14.9S286.15,301.53,284.4,323.18Z"/><path class="cls-10" d="M284.54,318c-.24,8.23-33.93,14.9-75.78,14.9s-76-6.67-75.77-14.9c.32-12.62,33.93-14.89,75.77-14.89S284.86,306.71,284.54,318Z"/><path class="cls-11" d="M289.13,232.57s29,0,44.5,3.88c2.58.65,4-20.53,3.87-21.37-1.29-9.06,1.29-14.24,1.29-14.24s-39.19,4-47.7-3.85c-.68-.63,0,8.38-1.31,14.85,0,0-1.77,5.74-.65,20.73Z"/><path class="cls-12" d="M177.57,228c1,4.24-2.11,3.78-3.23,3.89-4.6.43-9.05.14-16.12,1.94-14,3.57-17.41,5.18-22.57,5.18-1.29,0,1.29-5.18-5.16-16.83-3.23-5.84-1.93-14.9-3.26-18.87-.22-.65.53-1.25,1.22-1.32,6.41-.58,36.9-3.47,42.67-6.37.64-.59,3.87,11,4.54,15.14C176.18,214,176.08,221.58,177.57,228Z"/><path class="cls-12" d="M169.18,200.19s.65,3.88,0,4.53c-.91.92-3.87-3.88-3.87-3.88"/><path class="cls-12" d="M171.12,208s.77,3.15.13,3.8c-.92.91-3.36-3.15-3.36-3.15"/><path class="cls-12" d="M173.05,214.43s.13,3.16-.51,3.8c-.92.92-4-3.15-4-3.15"/><path class="cls-12" d="M174.34,220.91s.13,3.15-.51,3.8c-.92.92-2.71-2.5-2.71-2.5"/><path class="cls-12" d="M175.63,226.74s0,2.59-.64,3.24c-.91.91-3.87-2.59-3.87-2.59"/><path class="cls-12" d="M160.8,218.32a5.26,5.26,0,0,1,.65-2.59c.86-1,4.24,2.76,4.24,2.76"/><path class="cls-12" d="M159.51,212.49a7.89,7.89,0,0,1,1-2.67c.87-1,3.5,3,3.5,3"/><path class="cls-12" d="M158.24,207.61a7.67,7.67,0,0,1,1-2.67c.86-1,3.5,3,3.5,3"/><path class="cls-12" d="M161.46,201.78s-1.34-1.56-2-2.24c-.86-1-3.22,3.89-3.22,3.89"/><path class="cls-12" d="M161.45,224.15s.67-3.21,1.29-3.89c.86-1,3.23,2.55,3.23,2.55"/><path class="cls-12" d="M164.72,225.26c.87-1,3.24,2.55,3.24,2.55"/><path class="cls-12" d="M163.43,229.15s.68-3.21,1.29-3.89"/><path class="cls-12" d="M166,230.44c.86-1,2.53,1.48,2.53,1.48"/><path class="cls-12" d="M165.31,232.57a4.29,4.29,0,0,1,.7-2.13"/><path class="cls-12" d="M153.71,206a10.38,10.38,0,0,1-.93,3.29c-.82,1-4.23-2.65-4.23-2.65"/><path class="cls-12" d="M156.93,221.56s-.43,3.27-1,4c-.82,1-4.15-3.32-4.15-3.32"/><path class="cls-12" d="M157.43,230.35c-.82,1-3.65-2.81-3.65-2.81"/><path class="cls-12" d="M158.31,227.63a7.83,7.83,0,0,1-.88,2.72"/><path class="cls-12" d="M154.31,211.27s0,2.46-.6,3.16c-.82,1-4.52-2.59-4.52-2.59"/><path class="cls-12" d="M151.63,204.48c-.82,1-3.36-2.39-3.36-2.39"/><path class="cls-12" d="M152.73,200.54s-.52,3.23-1.1,3.94"/><path class="cls-12" d="M155,216.7s0,2.46-.6,3.17c-.82,1-4-3.49-4-3.49"/><line class="cls-12" x1="160.16" y1="231.92" x2="159.51" y2="233.21"/><line class="cls-12" x1="156.29" y1="234.51" x2="155.64" y2="233.21"/><path class="cls-12" d="M143.39,229.33a17.73,17.73,0,0,1,1.55-3.77c.87-1,3.51,3,3.51,3"/><path class="cls-12" d="M144.56,221.46c-.86-1-2.46,3.34-2.46,3.34"/><path class="cls-12" d="M147.26,223.5a21.74,21.74,0,0,1-2.7-2"/><path class="cls-12" d="M141.51,218.79a5.33,5.33,0,0,1,.64-2.59c.87-1,4.25,2.76,4.25,2.76"/><path class="cls-12" d="M139.57,209.73a7.92,7.92,0,0,1,1-2.68c.87-1,3.5,3,3.5,3"/><path class="cls-12" d="M142,211.55c.87-1,3.24,2.55,3.24,2.55"/><path class="cls-12" d="M140.72,215.44s.68-3.21,1.29-3.89"/><path class="cls-12" d="M145.93,229.5c.87-1,3.24,2.55,3.24,2.55"/><path class="cls-12" d="M144.64,233.39s.68-3.21,1.29-3.89"/><path class="cls-12" d="M140.38,201.75c.87-1,3.24,2.55,3.24,2.55"/><path class="cls-12" d="M139.09,205.63s.68-3.2,1.29-3.88"/><path class="cls-12" d="M147.48,233.93c.86-1,3,1.87,3,1.87"/><path class="cls-12" d="M146.61,237.1s.26-2.49.87-3.17"/><path class="cls-13" d="M135.64,206.34a13.81,13.81,0,0,1-1.69,3.11c-.9.77-3.39-2.58-3.39-2.58"/><path class="cls-12" d="M134.21,214.81c.83,1,2.57-3.25,2.57-3.25"/><path class="cls-12" d="M131.58,212.69a20.94,20.94,0,0,1,2.63,2.12"/><path class="cls-12" d="M137.17,217.58a5.27,5.27,0,0,1-.73,2.57c-.89.93-4.15-2.9-4.15-2.9"/><path class="cls-12" d="M140.1,228a7.68,7.68,0,0,1-1.1,2.64c-.89.94-3.4-3.09-3.4-3.09"/><path class="cls-12" d="M137.72,226.1c-.9.93-3.15-2.66-3.15-2.66"/><path class="cls-12" d="M139.13,222.26s-.78,3.18-1.41,3.84"/><path class="cls-12" d="M133.75,205.44c-.9.93-3.16-2.66-3.16-2.66"/><path class="cls-12" d="M135.16,201.59s-.78,3.19-1.41,3.85"/><path class="cls-12" d="M140.31,236c-.89.93-3.15-2.66-3.15-2.66"/><path class="cls-12" d="M141.73,232.11s-.78,3.18-1.42,3.84"/><path class="cls-12" d="M166.93,199.21c-.9.93-2.9-1.61-2.9-1.61"/><path class="cls-12" d="M167.89,197a5.89,5.89,0,0,1-1,2.26"/><path class="cls-14" d="M198.84,66.38c0-5.18,3.87-9.07,5.8-10.36,1.06-.71,6.12-.65,7.09,0,1.94,1.29,5.81,6.1,5.81,10.36,0,5.54-3.83,9.71-9.35,9.71S198.84,71.92,198.84,66.38Z"/><path class="cls-15" d="M205.79,57.61c-.43.78-.9,1.48-1.35,2.18l-.57,1.11a6.9,6.9,0,0,0-.54,1.09c-.14.38-.28.75-.44,1.11a11.24,11.24,0,0,0-.3,1.14l-.14.56-.06.57a5.45,5.45,0,0,0,0,1.14A10.14,10.14,0,0,0,203.47,71a21.9,21.9,0,0,0,2.78,4.14,10.27,10.27,0,0,1-4-3.39,9.11,9.11,0,0,1-1.75-5.19,9.56,9.56,0,0,1,1.58-5.24,16.08,16.08,0,0,1,1.67-2.07A22.67,22.67,0,0,1,205.79,57.61Z"/><line class="cls-16" x1="208.39" y1="37.8" x2="208.19"/><path class="cls-17" d="M171.11,93.58c0-15.17,6.95-35.16,23.32-41.68,14.08-5.6,14.08-18.55,14.08-18.55a21.31,21.31,0,0,0,14.35,19C238,58,245.27,78.11,245.27,92.93,245.27,96.81,171.11,96.17,171.11,93.58Zm6.33-3c1.93-22,13.92-33.92,16.87-36.46a.1.1,0,0,0-.11-.17c-3.27,1.5-17.41,6.84-20.63,36.63C173.45,91.74,177.34,91.74,177.44,90.61Zm5.56,0c1.94-22,10.84-32.41,13.78-34.95.1-.08.11-.7,0-.65-3.26,1.51-14.18,8.42-17.65,35.6C179,91.72,182.9,91.72,183,90.59Zm1.53.67c-.07.64,5.14.64,5.16,0,.65-18.14,7.85-32.39,9-35,.07-.16-.5-.1-.65,0C196.14,57.61,187.11,67.3,184.53,91.26Zm18.17-35.7s-7.21,2.67-10.43,35.7c-.09.91,6.45.64,6.45,0,0-21.38,4.29-35.64,4.29-35.64A.16.16,0,0,0,202.7,55.56Zm3.58-.58s-4.34,9.73-5,36.28c0,1.13,4.51,1.14,4.51,0,0-11,.63-36.27.63-36.27A.08.08,0,0,0,206.28,55Zm13.07,1c3,2.54,11.85,12.93,13.79,35,.1,1.13,4,1.13,3.87,0-3.47-27.18-14.39-34.09-17.66-35.6Zm-1.93.65c1.18,2.58,8.38,16.83,9,35,0,.64,5.23.64,5.16,0-2.58-24-11.61-33.65-13.55-35ZM213.13,56s4.29,14.26,4.29,35.64c0,.64,6.54.91,6.45,0-3.23-33-10.43-35.7-10.43-35.7Zm-3.43-.63s.63,25.26.63,36.27c0,1.14,4.54,1.13,4.51,0-.64-26.55-5-36.28-5-36.28l11.88-.91c3,2.53,15,14.52,17,36.54.1,1.13,4,1.13,3.87,0-3.22-29.79-17.58-35-20.84-36.54"/><path class="cls-18" d="M200.14,297.45c-.25,2.55-.42,4.22-8,3.79-5-.28-7.56-.42-8-3.79-.52-4.2,3.57-3.79,8-3.79S200.56,293.24,200.14,297.45Z"/><path class="cls-18" d="M200.33,303.91c-.27,2.7-.45,4.45-8.47,4-5.35-.3-8-.45-8.46-4-.55-4.43,3.79-4,8.46-4S200.77,299.46,200.33,303.91Z"/><path class="cls-18" d="M201.78,311.33c-.32,2.8-.53,4.63-10,4.17-6.35-.31-9.5-.46-10-4.17-.65-4.62,4.49-4.17,10-4.17S202.31,306.69,201.78,311.33Z"/><path class="cls-19" d="M195.52,300a4.31,4.31,0,0,1,1.19-.23,3.12,3.12,0,0,0,.61,0,1.9,1.9,0,0,0,.56-.21,2.66,2.66,0,0,0,1.4-1.65h0a1.24,1.24,0,0,1-.22,1.27,2.07,2.07,0,0,1-1.14.61,5,5,0,0,0-1.2.33,2.39,2.39,0,0,1-1.24-.08Z"/><path class="cls-19" d="M193.85,306.69a3.4,3.4,0,0,1,1.51-.28,2.26,2.26,0,0,0,1.52-.09c.47-.21.93-.38,1.34-.58s.84-.34,1-.82h.06a.86.86,0,0,1-.12.87,2,2,0,0,1-.66.57,3.38,3.38,0,0,1-1.58.31,4,4,0,0,0-.78,0c-.25.06-.5.17-.76.23a2.77,2.77,0,0,1-1.55-.18Z"/><path class="cls-19" d="M193.85,315.11a6,6,0,0,1,2.2-.42,5.27,5.27,0,0,0,1.12.07,2.66,2.66,0,0,0,1.06-.32,10.09,10.09,0,0,0,1.75-1.1,2.31,2.31,0,0,0,.93-1.67l.08,0a1.63,1.63,0,0,1,.24,1.23,2.22,2.22,0,0,1-.65,1.13,3.7,3.7,0,0,1-2.23.88,7,7,0,0,0-1.13.15c-.37.1-.73.28-1.1.36a4.21,4.21,0,0,1-2.27-.2Z"/><path class="cls-20" d="M197.2,289s0-6.74,5-10.95c2.58-2.16,11.9-7.15,15-8.76a.21.21,0,0,1,.26.33c-2.05,2.41-7.9,9.37-9.36,11.8C203.08,289.87,197.2,289,197.2,289Z"/><path class="cls-20" d="M177.64,293.1a.3.3,0,0,1-.35-.41c.57-1.33,2.07-4.65,3.13-5.35,1.4-.93,5.87-.84,5.87-.84s-3.08,4.3-4.19,5.05A18.87,18.87,0,0,1,177.64,293.1Z"/><path class="cls-20" d="M176.22,271.32s.53,6,1.68,7.59c1,1.37,5.87,3.37,5.87,3.37s-.7-5.31-1.67-6.74-5.88-4.22-5.88-4.22"/><path class="cls-20" d="M187.15,278.41a10.63,10.63,0,0,1-4.94-6.8c-.51-2.17-1-7.89-1.23-10.2a.31.31,0,0,1,.55-.23c1.2,1.44,3.73,4.58,4.31,6.05,1,2.63,1.31,11.18,1.31,11.18"/><path class="cls-20" d="M188.19,251a.18.18,0,0,0-.35,0c-.44,2.52-1.76,10.55-1.55,13.56.19,2.63,2.8,8.68,3.81,10.94a.26.26,0,0,0,.49-.08,102.88,102.88,0,0,0,.74-10.86C191.18,261.5,188.91,253.49,188.19,251Z"/><path class="cls-20" d="M195.52,280.6s3.12-7.9,8.4-11.8c2.42-1.8,9.53-4.72,14.42-5.31.23,0,.38.22.2.37-2.46,2-9.47,7.77-11.34,9.9C200.73,281.13,195.52,280.6,195.52,280.6Z"/><path class="cls-20" d="M195.52,273s-4-7.91-1.67-11.8c6.18-10.34,17.42-16.17,21.3-17.95a.7.7,0,0,1,1,.85,64.08,64.08,0,0,1-8,16.26C200.37,272,195.52,273,195.52,273Z"/><path class="cls-21" d="M178.35,274.25c1.32,1.53,2.62,3.09,3.8,4.74s2.29,3.36,3.33,5.1a44.21,44.21,0,0,1,2.82,5.42,30.42,30.42,0,0,1,1.81,5.82l-.08,0c-.81-1.86-1.62-3.7-2.5-5.51s-1.68-3.65-2.64-5.43a72,72,0,0,0-6.6-10.12Z"/><path class="cls-21" d="M182.13,262.87a26.35,26.35,0,0,1,3.48,7.83c.81,2.76,1.22,5.6,2.12,8.29s1.55,5.52,2.14,8.32,1.08,5.61,1.5,8.45l-.08,0c-.92-2.73-1.56-5.51-2.25-8.28s-1.19-5.58-1.92-8.33-1.18-5.62-1.89-8.37a25.82,25.82,0,0,0-3.17-7.88Z"/><path class="cls-21" d="M194.64,295.77a18.77,18.77,0,0,1,3-7.84,45,45,0,0,1,5.11-6.71c.92-1.07,1.94-2,2.91-3.06s2.07-1.92,3.15-2.82,2.2-1.75,3.34-2.56,2.32-1.59,3.51-2.33l.05.07c-1,.94-2.12,1.83-3.2,2.72L209.33,276l-3.12,2.78c-1,1-2,1.9-3,2.92a44.15,44.15,0,0,0-5.25,6.48,18.59,18.59,0,0,0-3.24,7.61Z"/><path class="cls-21" d="M192.13,295.77c-.08-3.46-.37-6.91-.73-10.35s-.79-6.87-1.25-10.3-1-6.85-1.36-10.29-.72-6.89-.86-10.36H188c.62,3.42,1.1,6.84,1.61,10.27s.83,6.87,1.2,10.31a177.31,177.31,0,0,1,1.39,20.73Z"/><path class="cls-21" d="M193,295.76c.32-3.27.73-6.52,1-9.79a13.36,13.36,0,0,1,1.27-4.82,17.73,17.73,0,0,1,2.9-4.07,47.55,47.55,0,0,1,7.5-6.46,93.58,93.58,0,0,1,8.36-5.23l0,.07c-2.63,2-5.31,3.85-7.91,5.83a68.42,68.42,0,0,0-7.49,6.26,17.14,17.14,0,0,0-2.9,3.85,12.89,12.89,0,0,0-1.33,4.62c-.34,3.26-.89,6.5-1.33,9.75Z"/><path class="cls-21" d="M193,295.77a132.83,132.83,0,0,1,.4-14,29,29,0,0,1,.55-3.46c.26-1.15.6-2.27.88-3.39a53.32,53.32,0,0,0,1.13-6.84,18.23,18.23,0,0,1,2.15-6.74,28.58,28.58,0,0,1,4.3-5.59,78.33,78.33,0,0,1,10.75-8.94l.06.07a125.24,125.24,0,0,0-10.2,9.45,31.67,31.67,0,0,0-4.18,5.43,17.41,17.41,0,0,0-2.22,6.42,52.61,52.61,0,0,1-1.26,6.88c-.31,1.13-.67,2.23-.93,3.36a29.9,29.9,0,0,0-.62,3.4,131.55,131.55,0,0,0-.72,13.91Z"/><path class="cls-22" d="M330.13,38.76c-.72.39-2.15,2.07-1.66,2.7.73.94,3.74-.14,5,0,.94.12,2.78.68,3.73.78,1.54.15,6.22,0,6.22,0a22.92,22.92,0,0,0,4.14,1.15c3.62.11,14.09-3.08,14.09-3.08s5.94,1.13,7.88.77a23.38,23.38,0,0,0,4.56-2.32h5V37.6s-5.6-.18-7.46,0c-1.47.15-5.8,1.16-5.8,1.16l-17,1.16-9.12.77s-4.62-1.57-6.21-1.93A6.55,6.55,0,0,0,330.13,38.76Z"/><path class="cls-23" d="M382.63,70.22c.2,7-7.67,14.28-10.57,14.28-3.32,0-10.78-7-10.78-14.28,0-4.8,3.31-10.81,10.78-10.81C379.1,59.41,382.48,65.42,382.63,70.22Z"/><path class="cls-24" d="M372.3,59.22c0,2.09,0,4.18,0,6.27v6.28l0,6.27c0,2.1-.05,4.19-.1,6.28Q372,81.19,372,78l-.05-6.27C372,67.58,372,63.39,372.3,59.22Z"/><path class="cls-24" d="M363.81,63.76a5.36,5.36,0,0,1,1.76-1.55,12.69,12.69,0,0,1,2.14-1A25.62,25.62,0,0,1,372.27,60h.07a21.15,21.15,0,0,1,5.2,2.21,11.51,11.51,0,0,1,2.22,1.77,5.55,5.55,0,0,1,1.41,2.42,5.7,5.7,0,0,0-1.54-2.29,11.21,11.21,0,0,0-2.24-1.64,23.29,23.29,0,0,0-5.13-2.14h.07a32.08,32.08,0,0,0-4.54,1.14,15.06,15.06,0,0,0-2.15.91A5.29,5.29,0,0,0,363.81,63.76Z"/><path class="cls-24" d="M362.79,65.78a6,6,0,0,1,2.08-1.54,22,22,0,0,1,2.4-1,43.19,43.19,0,0,1,5-1.46h.07a11.86,11.86,0,0,1,3.13,1.14,15,15,0,0,1,2.76,1.82,15.22,15.22,0,0,1,2.28,2.4A17.14,17.14,0,0,1,382.21,70a16.72,16.72,0,0,0-1.86-2.69,15.6,15.6,0,0,0-5.05-4,13.28,13.28,0,0,0-3-1.11h.07c-1.68.38-3.35.85-5,1.37-.82.26-1.63.56-2.42.9A5.89,5.89,0,0,0,362.79,65.78Z"/><path class="cls-24" d="M362.36,67.62a5.9,5.9,0,0,1,2.18-1.56,22.61,22.61,0,0,1,2.51-1,47.39,47.39,0,0,1,5.21-1.46h.07a10.41,10.41,0,0,1,3,1.2,15.23,15.23,0,0,1,2.58,1.86A16.41,16.41,0,0,1,380,69a19,19,0,0,1,1.6,2.72,20.14,20.14,0,0,0-1.75-2.61,16,16,0,0,0-2.16-2.27,15.17,15.17,0,0,0-2.55-1.79,11.77,11.77,0,0,0-2.86-1.16h.07c-1.75.38-3.49.85-5.21,1.37-.85.26-1.7.56-2.53.9A5.72,5.72,0,0,0,362.36,67.62Z"/><path class="cls-24" d="M362.32,69.46a5.82,5.82,0,0,1,2.18-1.56,24.74,24.74,0,0,1,2.51-1,49.71,49.71,0,0,1,5.21-1.46h.08a10.1,10.1,0,0,1,2.86,1.28,15.27,15.27,0,0,1,2.46,1.91,17.58,17.58,0,0,1,2,2.38,20.41,20.41,0,0,1,1.54,2.68,21.89,21.89,0,0,0-1.69-2.57,17.09,17.09,0,0,0-2.06-2.27A14.59,14.59,0,0,0,375,67a11.39,11.39,0,0,0-2.76-1.24h.08c-1.75.38-3.49.85-5.21,1.37-.85.26-1.7.56-2.53.9A5.72,5.72,0,0,0,362.32,69.46Z"/><path class="cls-24" d="M362.32,71.65a5.73,5.73,0,0,1,2.18-1.57,24.74,24.74,0,0,1,2.51-1,49.71,49.71,0,0,1,5.21-1.46h.08a10.72,10.72,0,0,1,2.75,1.14,11.52,11.52,0,0,1,2.36,1.8,11.37,11.37,0,0,1,1.8,2.35,12.87,12.87,0,0,1,1.14,2.71,13,13,0,0,0-1.3-2.61,10.47,10.47,0,0,0-1.84-2.24,11.76,11.76,0,0,0-5-2.81h.08c-1.75.37-3.49.85-5.21,1.36-.85.27-1.7.56-2.53.91A5.72,5.72,0,0,0,362.32,71.65Z"/><path class="cls-24" d="M362.74,74a14.39,14.39,0,0,1,2.06-1.66A15.81,15.81,0,0,1,367.13,71a18.49,18.49,0,0,1,5.11-1.42h0a5.58,5.58,0,0,1,2.61,1,8.92,8.92,0,0,1,2,1.83,15,15,0,0,1,1.53,2.26L379,75.9l.5,1.27-.58-1.23-.66-1.17a14.23,14.23,0,0,0-1.59-2.17,9.2,9.2,0,0,0-2-1.74,5.69,5.69,0,0,0-2.43-.89h0a20.22,20.22,0,0,0-5,1.32,15.86,15.86,0,0,0-2.34,1.15A14.65,14.65,0,0,0,362.74,74Z"/><path class="cls-24" d="M363.45,76.13a16.86,16.86,0,0,1,4.09-2.95,19,19,0,0,1,4.77-1.71h.08a6.2,6.2,0,0,1,2.08,1.26,10.38,10.38,0,0,1,1.62,1.76,15.9,15.9,0,0,1,1.26,2,23.09,23.09,0,0,1,.92,2.19l-.51-1.07-.57-1a17.41,17.41,0,0,0-1.32-1.94A11.73,11.73,0,0,0,374.26,73a6.71,6.71,0,0,0-2-1.17h.07a19.84,19.84,0,0,0-4.71,1.6,16.74,16.74,0,0,0-2.19,1.22A19.46,19.46,0,0,0,363.45,76.13Z"/><path class="cls-24" d="M364.16,78.68a22.73,22.73,0,0,1,3.65-3,21.44,21.44,0,0,1,4.2-2.18l.07,0,.07,0a10.1,10.1,0,0,1,1.68,1.21,10.49,10.49,0,0,1,1.41,1.49,10,10,0,0,1,1.1,1.73,10.9,10.9,0,0,1,.69,1.91,11,11,0,0,0-2-3.47,11.22,11.22,0,0,0-3-2.55h.13A23.76,23.76,0,0,0,368,75.92,30.06,30.06,0,0,0,364.16,78.68Z"/><path class="cls-24" d="M365.93,80.5c.88-.9,1.8-1.78,2.77-2.6a23.81,23.81,0,0,1,3.07-2.26,1.1,1.1,0,0,1,1.06.08,3,3,0,0,1,.79.62,7.87,7.87,0,0,1,1.12,1.57,19.46,19.46,0,0,1,1.46,3.5,31.17,31.17,0,0,0-1.71-3.36,8.54,8.54,0,0,0-1.11-1.48,3,3,0,0,0-.71-.54.82.82,0,0,0-.73-.08,29.41,29.41,0,0,0-3.08,2.16C367.87,78.88,366.89,79.68,365.93,80.5Z"/><path class="cls-24" d="M367.35,82a20.15,20.15,0,0,1,2-2.27,12,12,0,0,1,1.13-1,7.3,7.3,0,0,1,1.28-.85l-.07,0a.69.69,0,0,1,.91,0,2.53,2.53,0,0,1,.57.56,7.94,7.94,0,0,1,.78,1.31,19,19,0,0,1,1,2.81c-.43-.9-.82-1.82-1.3-2.68a8.55,8.55,0,0,0-.78-1.23,2.06,2.06,0,0,0-.5-.48c-.17-.13-.38-.14-.45-.07l0,0h0a8.08,8.08,0,0,0-1.22.78c-.39.3-.76.63-1.14,1C368.76,80.55,368.05,81.25,367.35,82Z"/><path class="cls-24" d="M369.57,83.34a7,7,0,0,1,.92-1.72,5.53,5.53,0,0,1,1.43-1.38h0a.61.61,0,0,1,.67.07,1.63,1.63,0,0,1,.37.43,4,4,0,0,1,.42,1,9.19,9.19,0,0,1,.34,2c-.2-.65-.37-1.3-.61-1.92a4.49,4.49,0,0,0-.43-.88c-.15-.26-.45-.46-.57-.39h0a6.51,6.51,0,0,0-1.39,1.24A12.28,12.28,0,0,0,369.57,83.34Z"/><line class="cls-25" x1="372.06" y1="37.6" x2="372.06" y2="59.02"/><path class="cls-26" d="M366.56,92.57c.22,7.56-8.19,15.54-11.29,15.54-3.54,0-11.51-7.56-11.51-15.54,0-5.22,3.54-11.76,11.51-11.76C362.79,80.81,366.4,87.35,366.56,92.57Z"/><path class="cls-27" d="M355.53,80.6c-.38,6.53-.19,27.31-.19,27.31"/><path class="cls-27" d="M346.46,85.55c1.89-2.77,9.07-4,9.07-4s8.15,2.16,9.48,6.78"/><path class="cls-27" d="M345.38,87.74c1.46-2.19,10.15-4.17,10.15-4.17a16,16,0,0,1,10.58,8.71"/><path class="cls-27" d="M344.91,89.74c1.46-2.19,10.62-4.19,10.62-4.19s6.14,1.18,9.92,8.7"/><path class="cls-27" d="M344.87,91.75c1.46-2.2,10.62-4.2,10.62-4.2s5.74,1.28,9.52,8.8"/><path class="cls-27" d="M344.87,94.12c1.46-2.19,10.62-4.2,10.62-4.2a12.52,12.52,0,0,1,8.63,8.53"/><path class="cls-27" d="M345.33,96.63c4.15-4,10.16-4.53,10.16-4.53s4.65.05,7.75,8"/><path class="cls-27" d="M346.08,99a20.45,20.45,0,0,1,9.49-4.88s3.68,1,6.34,7.69"/><path class="cls-27" d="M346.84,101.77a26.07,26.07,0,0,1,8.44-5.43,11.9,11.9,0,0,1,5.3,6.73"/><path class="cls-27" d="M348.73,103.75a35.26,35.26,0,0,1,6.41-5.16s1.9-1,4.56,6.16"/><path class="cls-27" d="M350.24,105.34c3-3.57,4.75-4.31,4.75-4.31s1.11-1.36,3.38,5"/><path class="cls-27" d="M352.61,106.85a7.45,7.45,0,0,1,2.6-3.21s1.07-.73,1.83,3.63"/><line class="cls-27" x1="355.62" y1="39.53" x2="355.62" y2="81.81"/><path class="cls-23" d="M355.68,72.54c.21,6.94-7.66,14.28-10.57,14.28-3.31,0-10.77-6.95-10.77-14.28,0-4.8,3.31-10.81,10.77-10.81C352.16,61.73,355.54,67.74,355.68,72.54Z"/><path class="cls-24" d="M345.36,61.53c-.05,2.1,0,4.19,0,6.28v6.27l0,6.28c0,2.09,0,4.18-.1,6.28-.08-2.09-.14-4.19-.17-6.28L345,74.08C345,69.9,345,65.71,345.36,61.53Z"/><path class="cls-24" d="M336.86,66.08a5.61,5.61,0,0,1,1.76-1.56,14,14,0,0,1,2.15-1,26.49,26.49,0,0,1,4.56-1.24h.07a20.77,20.77,0,0,1,5.2,2.21,11.1,11.1,0,0,1,2.22,1.76,5.77,5.77,0,0,1,1.41,2.42,5.67,5.67,0,0,0-1.54-2.28,11.21,11.21,0,0,0-2.24-1.64,23.29,23.29,0,0,0-5.13-2.14h.07a30.77,30.77,0,0,0-4.54,1.14,15.06,15.06,0,0,0-2.15.91A5.33,5.33,0,0,0,336.86,66.08Z"/><path class="cls-24" d="M335.85,68.1a5.85,5.85,0,0,1,2.07-1.54,25.52,25.52,0,0,1,2.41-1,47.56,47.56,0,0,1,5-1.46h.07a12.39,12.39,0,0,1,3.12,1.14,14.29,14.29,0,0,1,2.77,1.83,15.62,15.62,0,0,1,2.28,2.39,17.23,17.23,0,0,1,1.71,2.82,18,18,0,0,0-1.86-2.7,15.15,15.15,0,0,0-2.32-2.28,14.24,14.24,0,0,0-2.73-1.75,12.83,12.83,0,0,0-3-1.11h.07c-1.68.38-3.35.85-5,1.36-.82.27-1.63.57-2.42.91A5.81,5.81,0,0,0,335.85,68.1Z"/><path class="cls-24" d="M335.41,69.94a5.71,5.71,0,0,1,2.19-1.56,22.68,22.68,0,0,1,2.51-1,52.27,52.27,0,0,1,5.21-1.46h.07a11,11,0,0,1,3,1.2A14.75,14.75,0,0,1,350.94,69a15.76,15.76,0,0,1,2.1,2.37,19.75,19.75,0,0,1,1.61,2.73,19.24,19.24,0,0,0-1.76-2.61,15.41,15.41,0,0,0-2.15-2.27,14.1,14.1,0,0,0-2.55-1.79,11.77,11.77,0,0,0-2.86-1.16h.06c-1.75.38-3.48.84-5.2,1.36-.86.27-1.7.56-2.53.91A5.83,5.83,0,0,0,335.41,69.94Z"/><path class="cls-24" d="M335.37,71.78a5.93,5.93,0,0,1,2.19-1.56,24.81,24.81,0,0,1,2.51-1,52.27,52.27,0,0,1,5.21-1.46h.08A10.55,10.55,0,0,1,348.22,69,15.15,15.15,0,0,1,350.68,71a17.58,17.58,0,0,1,2,2.38A19.78,19.78,0,0,1,354.23,76a20.05,20.05,0,0,0-1.7-2.57,17,17,0,0,0-2-2.28A16.77,16.77,0,0,0,348,69.32a11.53,11.53,0,0,0-2.76-1.23h.07c-1.75.38-3.48.84-5.2,1.36-.86.27-1.7.57-2.53.91A5.83,5.83,0,0,0,335.37,71.78Z"/><path class="cls-24" d="M335.37,74a5.93,5.93,0,0,1,2.19-1.56,24.81,24.81,0,0,1,2.51-1,52.22,52.22,0,0,1,5.21-1.45h.07a10,10,0,0,1,2.76,1.14,11.17,11.17,0,0,1,2.36,1.8,10.87,10.87,0,0,1,1.8,2.35,12.13,12.13,0,0,1,1.13,2.71,12.76,12.76,0,0,0-1.29-2.62,10.41,10.41,0,0,0-1.85-2.23,11.52,11.52,0,0,0-5-2.81h.07c-1.75.37-3.48.84-5.2,1.36a25.42,25.42,0,0,0-2.53.91A5.69,5.69,0,0,0,335.37,74Z"/><path class="cls-24" d="M335.8,76.27a14.39,14.39,0,0,1,2.06-1.66,15.87,15.87,0,0,1,2.33-1.26,18.75,18.75,0,0,1,5.11-1.42h0a5.85,5.85,0,0,1,2.61,1,9.4,9.4,0,0,1,2,1.84A13.75,13.75,0,0,1,351.49,77l.59,1.23.49,1.26L352,78.26l-.66-1.18a13.45,13.45,0,0,0-1.58-2.16,9.25,9.25,0,0,0-2-1.75,6,6,0,0,0-2.43-.89h0a20.56,20.56,0,0,0-5,1.31,17.67,17.67,0,0,0-2.35,1.16A14.34,14.34,0,0,0,335.8,76.27Z"/><path class="cls-24" d="M336.51,78.45a16.34,16.34,0,0,1,4.09-3,18.24,18.24,0,0,1,4.77-1.71h.07A6.29,6.29,0,0,1,347.53,75a10.84,10.84,0,0,1,1.62,1.77,15.16,15.16,0,0,1,1.25,2,20,20,0,0,1,.93,2.19L350.82,80l-.58-1a15.17,15.17,0,0,0-1.32-2,10.67,10.67,0,0,0-1.61-1.68,6.53,6.53,0,0,0-1.95-1.17h.07a20.56,20.56,0,0,0-4.72,1.61A17.3,17.3,0,0,0,338.53,77,16.17,16.17,0,0,0,336.51,78.45Z"/><path class="cls-24" d="M337.22,81a23.73,23.73,0,0,1,3.64-3,21.77,21.77,0,0,1,4.21-2.17l.07,0,.07,0a10,10,0,0,1,1.67,1.2,11.09,11.09,0,0,1,1.42,1.49,10.06,10.06,0,0,1,1.09,1.73,10.27,10.27,0,0,1,.7,1.92,11,11,0,0,0-2-3.47,11.29,11.29,0,0,0-3-2.56h.14A23.81,23.81,0,0,0,341,78.24,30.06,30.06,0,0,0,337.22,81Z"/><path class="cls-24" d="M339,82.82a37.69,37.69,0,0,1,2.76-2.6A24.26,24.26,0,0,1,344.82,78a1.09,1.09,0,0,1,1.07.08,2.81,2.81,0,0,1,.78.62,7.33,7.33,0,0,1,1.12,1.56,19.91,19.91,0,0,1,1.47,3.51,31.24,31.24,0,0,0-1.72-3.36,7.34,7.34,0,0,0-1.11-1.48,2.58,2.58,0,0,0-.7-.54.85.85,0,0,0-.73-.09,29.41,29.41,0,0,0-3.08,2.16C340.93,81.2,340,82,339,82.82Z"/><path class="cls-24" d="M340.4,84.27a20.15,20.15,0,0,1,2-2.26,11.77,11.77,0,0,1,1.12-1,7.54,7.54,0,0,1,1.28-.86l-.06,0a.68.68,0,0,1,.91,0,2.53,2.53,0,0,1,.57.56,7.5,7.5,0,0,1,.77,1.31,19,19,0,0,1,1,2.81c-.43-.91-.82-1.82-1.3-2.68a9.26,9.26,0,0,0-.78-1.24,2,2,0,0,0-.5-.47c-.17-.13-.38-.14-.45-.07l0,0,0,0a7.37,7.37,0,0,0-1.22.78c-.39.3-.77.62-1.14.95C341.82,82.86,341.11,83.56,340.4,84.27Z"/><path class="cls-24" d="M342.63,85.66a6.79,6.79,0,0,1,.92-1.72A5.53,5.53,0,0,1,345,82.56h0a.61.61,0,0,1,.68.07,1.84,1.84,0,0,1,.37.43,3.66,3.66,0,0,1,.41,1,9.4,9.4,0,0,1,.35,2c-.2-.65-.37-1.31-.61-1.92a4.79,4.79,0,0,0-.43-.88c-.15-.27-.45-.46-.57-.39h0a6,6,0,0,0-1.39,1.24A11.6,11.6,0,0,0,342.63,85.66Z"/><line class="cls-25" x1="345.11" y1="40.3" x2="345.11" y2="61.73"/><path class="cls-28" d="M352.51,86.57c.22,7.56-8.19,15.54-11.29,15.54-3.54,0-11.5-7.56-11.5-15.54,0-5.22,3.54-11.76,11.5-11.76C348.75,74.81,352.36,81.35,352.51,86.57Z"/><path class="cls-24" d="M341.49,74.6c-.05,2.28,0,4.55,0,6.83v6.82l0,6.83c0,2.28-.06,4.55-.11,6.83-.09-2.28-.16-4.55-.19-6.83l-.05-6.83C341.11,83.7,341.11,79.14,341.49,74.6Z"/><path class="cls-24" d="M332.41,79.55a6.05,6.05,0,0,1,1.87-1.69,14.17,14.17,0,0,1,2.29-1.1,26.76,26.76,0,0,1,4.88-1.35h.08a22.08,22.08,0,0,1,5.57,2.42,12.16,12.16,0,0,1,2.37,1.92A6.24,6.24,0,0,1,351,82.37a6.2,6.2,0,0,0-1.64-2.48,11.61,11.61,0,0,0-2.39-1.78,24.2,24.2,0,0,0-5.49-2.34h.08A33.61,33.61,0,0,0,336.66,77a16.1,16.1,0,0,0-2.3,1A6,6,0,0,0,332.41,79.55Z"/><path class="cls-24" d="M331.33,81.74a6.28,6.28,0,0,1,2.21-1.67A26.22,26.22,0,0,1,336.1,79a48.05,48.05,0,0,1,5.34-1.59h.08a12.28,12.28,0,0,1,3.35,1.25,15.55,15.55,0,0,1,5.38,4.59,18.07,18.07,0,0,1,1.82,3,19.46,19.46,0,0,0-2-2.92,15.25,15.25,0,0,0-2.47-2.48A16.1,16.1,0,0,0,344.71,79a13.94,13.94,0,0,0-3.26-1.21h.08c-1.8.41-3.58.92-5.34,1.48-.87.3-1.74.62-2.58,1A6.22,6.22,0,0,0,331.33,81.74Z"/><path class="cls-24" d="M330.87,83.75a6.13,6.13,0,0,1,2.32-1.7A23.88,23.88,0,0,1,335.87,81a51.42,51.42,0,0,1,5.58-1.59h.07a11.6,11.6,0,0,1,3.19,1.31,16.06,16.06,0,0,1,2.75,2,17.13,17.13,0,0,1,2.24,2.58,20.14,20.14,0,0,1,1.7,3,21.58,21.58,0,0,0-1.86-2.83A17.25,17.25,0,0,0,347.25,83a15.47,15.47,0,0,0-2.73-2,12.22,12.22,0,0,0-3.07-1.27h.07c-1.87.41-3.73.92-5.56,1.48q-1.38.44-2.7,1A6.07,6.07,0,0,0,330.87,83.75Z"/><path class="cls-24" d="M330.82,85.75a6.28,6.28,0,0,1,2.33-1.7A25.05,25.05,0,0,1,335.83,83a53.61,53.61,0,0,1,5.57-1.59h.08a11.31,11.31,0,0,1,3.08,1.4,17.12,17.12,0,0,1,2.63,2.09,19.33,19.33,0,0,1,2.13,2.58A21.92,21.92,0,0,1,351,90.35c-.28-.48-.55-1-.85-1.43s-.61-.93-.95-1.36A20.57,20.57,0,0,0,347,85.09a16.94,16.94,0,0,0-2.61-2,12,12,0,0,0-3-1.35h.08c-1.87.41-3.73.92-5.56,1.49a28.07,28.07,0,0,0-2.7,1A6.16,6.16,0,0,0,330.82,85.75Z"/><path class="cls-24" d="M330.82,88.12a6.3,6.3,0,0,1,2.32-1.69,26.16,26.16,0,0,1,2.69-1.1,53.61,53.61,0,0,1,5.57-1.59h.08a11,11,0,0,1,3,1.26A12.33,12.33,0,0,1,347,87a12.54,12.54,0,0,1,1.92,2.55,14.15,14.15,0,0,1,1.19,2.94,13.42,13.42,0,0,0-3.33-5.27,12.57,12.57,0,0,0-5.35-3.07h.08c-1.87.41-3.73.92-5.56,1.49a28,28,0,0,0-2.7,1A6.27,6.27,0,0,0,330.82,88.12Z"/><path class="cls-24" d="M331.28,90.63a15.2,15.2,0,0,1,2.19-1.8A16.19,16.19,0,0,1,336,87.47a19.17,19.17,0,0,1,5.46-1.55h0a6,6,0,0,1,2.81,1,10.12,10.12,0,0,1,2.18,2,15.83,15.83,0,0,1,1.62,2.46l.61,1.33.53,1.37-.62-1.32-.7-1.28a14.54,14.54,0,0,0-1.68-2.35,9.71,9.71,0,0,0-2.14-1.91,6.21,6.21,0,0,0-2.61-1h0a21.15,21.15,0,0,0-5.39,1.43A17.84,17.84,0,0,0,333.56,89,14.69,14.69,0,0,0,331.28,90.63Z"/><path class="cls-24" d="M332,93a17.59,17.59,0,0,1,4.35-3.2,19.94,19.94,0,0,1,5.11-1.87h0l0,0a6.66,6.66,0,0,1,2.24,1.37,12.11,12.11,0,0,1,1.73,1.92,17.74,17.74,0,0,1,1.33,2.21l.53,1.17.45,1.2-.54-1.16-.61-1.12a17.61,17.61,0,0,0-1.41-2.11,12.5,12.5,0,0,0-1.72-1.84,7.06,7.06,0,0,0-2.1-1.28h.08a21.68,21.68,0,0,0-5,1.75,19.76,19.76,0,0,0-2.33,1.33A18,18,0,0,0,332,93Z"/><path class="cls-24" d="M332.79,95.78a24.15,24.15,0,0,1,3.89-3.24,23,23,0,0,1,4.49-2.38l.08,0,.08.05a10.17,10.17,0,0,1,1.79,1.31,11.17,11.17,0,0,1,1.52,1.63A10.92,10.92,0,0,1,345.8,95a11.08,11.08,0,0,1,.73,2.07,12,12,0,0,0-2.13-3.76,12.39,12.39,0,0,0-3.25-2.8l.15,0a24.54,24.54,0,0,0-4.46,2.25A31.87,31.87,0,0,0,332.79,95.78Z"/><path class="cls-24" d="M334.68,97.75c.94-1,1.92-1.93,3-2.82a25,25,0,0,1,3.29-2.47,1.19,1.19,0,0,1,1.15.11,3.43,3.43,0,0,1,.83.68A8.32,8.32,0,0,1,344.1,95a21.1,21.1,0,0,1,1.55,3.79,36.34,36.34,0,0,0-1.82-3.64,9,9,0,0,0-1.18-1.61,3,3,0,0,0-.75-.6.87.87,0,0,0-.78-.11,32.94,32.94,0,0,0-3.3,2.35C336.76,96,335.71,96.86,334.68,97.75Z"/><path class="cls-24" d="M336.19,99.34a21.41,21.41,0,0,1,2.11-2.46,12.42,12.42,0,0,1,1.2-1.09,7.85,7.85,0,0,1,1.37-.93l-.07,0a.74.74,0,0,1,1,0,2.71,2.71,0,0,1,.6.62,8.1,8.1,0,0,1,.83,1.42,21,21,0,0,1,1.1,3.05c-.45-1-.87-2-1.38-2.91a9.77,9.77,0,0,0-.83-1.35,2.61,2.61,0,0,0-.53-.52.45.45,0,0,0-.49-.08l0,0,0,0a7.43,7.43,0,0,0-1.3.85c-.42.33-.82.68-1.22,1C337.7,97.8,337,98.57,336.19,99.34Z"/><path class="cls-24" d="M338.57,100.85a7.6,7.6,0,0,1,1-1.87,5.28,5.28,0,0,1,.69-.81,4.68,4.68,0,0,1,.83-.69h0a.65.65,0,0,1,.73.09,1.76,1.76,0,0,1,.4.47,4.58,4.58,0,0,1,.44,1,10.67,10.67,0,0,1,.36,2.18c-.21-.71-.39-1.41-.65-2.09a5.92,5.92,0,0,0-.45-1c-.17-.29-.49-.51-.62-.43h0a6.76,6.76,0,0,0-1.49,1.35A13.87,13.87,0,0,0,338.57,100.85Z"/><line class="cls-27" x1="341.12" y1="40.69" x2="341.22" y2="74.81"/><path class="cls-29" d="M344.22,71c.21,7-7.66,14.28-10.57,14.28-3.31,0-10.77-7-10.77-14.28,0-4.8,3.31-10.81,10.77-10.81C340.7,60.19,344.08,66.2,344.22,71Z"/><path class="cls-24" d="M333.9,60c0,2.1,0,4.19,0,6.28v6.28l0,6.27c0,2.09-.05,4.19-.1,6.28-.08-2.09-.14-4.19-.17-6.28l-.05-6.28C333.55,68.36,333.55,64.17,333.9,60Z"/><path class="cls-24" d="M325.4,64.54A5.72,5.72,0,0,1,327.16,63a14,14,0,0,1,2.15-1,25.62,25.62,0,0,1,4.56-1.24h.07a20.77,20.77,0,0,1,5.2,2.21,11.86,11.86,0,0,1,2.22,1.76,5.64,5.64,0,0,1,1.41,2.43,5.7,5.7,0,0,0-1.54-2.29A11.21,11.21,0,0,0,339,63.21a23.29,23.29,0,0,0-5.13-2.14h.07a30.77,30.77,0,0,0-4.54,1.14,15.06,15.06,0,0,0-2.15.91A5.42,5.42,0,0,0,325.4,64.54Z"/><path class="cls-24" d="M324.39,66.56A6,6,0,0,1,326.46,65a23.07,23.07,0,0,1,2.41-1,43.19,43.19,0,0,1,5-1.46h.07a12,12,0,0,1,3.12,1.15,13.8,13.8,0,0,1,2.77,1.82,14.8,14.8,0,0,1,2.28,2.4,16.73,16.73,0,0,1,1.71,2.81A17.26,17.26,0,0,0,342,68a15.15,15.15,0,0,0-2.32-2.28A14.24,14.24,0,0,0,336.9,64a13.28,13.28,0,0,0-3-1.11h.07c-1.68.38-3.35.85-5,1.36-.82.27-1.63.57-2.42.91A5.89,5.89,0,0,0,324.39,66.56Z"/><path class="cls-24" d="M324,68.4a5.93,5.93,0,0,1,2.19-1.56,24.81,24.81,0,0,1,2.51-1,52.27,52.27,0,0,1,5.21-1.46h.07a11,11,0,0,1,3,1.2,15.28,15.28,0,0,1,2.58,1.87,15.84,15.84,0,0,1,2.1,2.38,18.18,18.18,0,0,1,1.61,2.72,19.24,19.24,0,0,0-1.76-2.61,15.38,15.38,0,0,0-2.15-2.27,14.62,14.62,0,0,0-2.55-1.79,11.77,11.77,0,0,0-2.86-1.16h.07c-1.76.38-3.49.84-5.21,1.36-.86.27-1.7.57-2.53.91A5.83,5.83,0,0,0,324,68.4Z"/><path class="cls-24" d="M323.91,70.24a5.93,5.93,0,0,1,2.19-1.56,24.81,24.81,0,0,1,2.51-1,49.66,49.66,0,0,1,5.21-1.45h.08a10.23,10.23,0,0,1,2.86,1.28,14.73,14.73,0,0,1,2.46,1.91,17.58,17.58,0,0,1,2,2.38,19.78,19.78,0,0,1,1.54,2.68,21.89,21.89,0,0,0-1.69-2.57A17.09,17.09,0,0,0,339,69.63a15.45,15.45,0,0,0-2.44-1.84,11.57,11.57,0,0,0-2.76-1.24h.07c-1.75.38-3.48.85-5.2,1.36-.86.27-1.7.57-2.53.91A5.83,5.83,0,0,0,323.91,70.24Z"/><path class="cls-24" d="M323.91,72.43a5.85,5.85,0,0,1,2.19-1.57,22.61,22.61,0,0,1,2.51-1,49.71,49.71,0,0,1,5.21-1.46h.08a10.38,10.38,0,0,1,2.75,1.14,11.52,11.52,0,0,1,2.36,1.8,11.11,11.11,0,0,1,1.8,2.35,12.33,12.33,0,0,1,1.13,2.71,12.76,12.76,0,0,0-1.29-2.62,10.41,10.41,0,0,0-1.85-2.23,11.56,11.56,0,0,0-5-2.81h.08c-1.76.37-3.49.84-5.21,1.36-.85.27-1.7.56-2.53.91A5.71,5.71,0,0,0,323.91,72.43Z"/><path class="cls-24" d="M324.34,74.73a14.39,14.39,0,0,1,2.06-1.66,16.87,16.87,0,0,1,2.33-1.26,18.73,18.73,0,0,1,5.11-1.41h0a5.81,5.81,0,0,1,2.61,1,9.17,9.17,0,0,1,2,1.84A15,15,0,0,1,340,75.45l.58,1.23.5,1.27-.59-1.23-.65-1.18a14.14,14.14,0,0,0-1.59-2.16,9.2,9.2,0,0,0-2-1.74,5.85,5.85,0,0,0-2.43-.9h0a20.64,20.64,0,0,0-5.05,1.31,17.67,17.67,0,0,0-2.35,1.16A14.34,14.34,0,0,0,324.34,74.73Z"/><path class="cls-24" d="M325.05,76.91a16.59,16.59,0,0,1,4.09-3,18.61,18.61,0,0,1,4.77-1.71H334a6.29,6.29,0,0,1,2.09,1.25,10.84,10.84,0,0,1,1.62,1.77,15.16,15.16,0,0,1,1.25,2,20,20,0,0,1,.93,2.19l-.51-1.07-.58-1a15.06,15.06,0,0,0-1.32-1.94,10.74,10.74,0,0,0-1.61-1.69,6.53,6.53,0,0,0-2-1.17H334a20.33,20.33,0,0,0-4.71,1.61,16.74,16.74,0,0,0-2.19,1.22A16.17,16.17,0,0,0,325.05,76.91Z"/><path class="cls-24" d="M325.76,79.46a22.73,22.73,0,0,1,3.65-3,21.44,21.44,0,0,1,4.2-2.18l.07,0,.07,0a10.1,10.1,0,0,1,1.68,1.21A11,11,0,0,1,336.84,77a10.06,10.06,0,0,1,1.09,1.73,10.27,10.27,0,0,1,.7,1.92,11.14,11.14,0,0,0-2-3.47,11.29,11.29,0,0,0-3-2.56h.14a24.53,24.53,0,0,0-4.17,2.07A30.06,30.06,0,0,0,325.76,79.46Z"/><path class="cls-24" d="M327.53,81.28c.88-.91,1.8-1.78,2.76-2.6a25.27,25.27,0,0,1,3.07-2.26,1.12,1.12,0,0,1,1.07.08,2.81,2.81,0,0,1,.78.62,7.14,7.14,0,0,1,1.12,1.57,19.5,19.5,0,0,1,1.47,3.5,31.24,31.24,0,0,0-1.72-3.36,7.69,7.69,0,0,0-1.1-1.48,3,3,0,0,0-.71-.54.82.82,0,0,0-.73-.08,29.32,29.32,0,0,0-3.08,2.15C329.47,79.66,328.49,80.46,327.53,81.28Z"/><path class="cls-24" d="M328.94,82.73a20.15,20.15,0,0,1,2-2.26,11.77,11.77,0,0,1,1.12-1,8.18,8.18,0,0,1,1.28-.86l-.06,0a.68.68,0,0,1,.91,0,2.53,2.53,0,0,1,.57.56,7.5,7.5,0,0,1,.77,1.31,18,18,0,0,1,1.05,2.81c-.43-.9-.82-1.82-1.3-2.68a9.26,9.26,0,0,0-.78-1.24A2,2,0,0,0,334,79c-.17-.13-.38-.14-.45-.07l0,0,0,0a7.37,7.37,0,0,0-1.22.78c-.39.3-.76.62-1.14,1C330.36,81.32,329.65,82,328.94,82.73Z"/><path class="cls-24" d="M331.17,84.12a6.79,6.79,0,0,1,.92-1.72A5.53,5.53,0,0,1,333.52,81h0a.62.62,0,0,1,.68.07,1.84,1.84,0,0,1,.37.43,4.06,4.06,0,0,1,.42,1,10,10,0,0,1,.34,2c-.2-.65-.37-1.3-.61-1.92a4.49,4.49,0,0,0-.43-.88c-.15-.26-.45-.46-.57-.39h0a6,6,0,0,0-1.39,1.24A11.6,11.6,0,0,0,331.17,84.12Z"/><line class="cls-25" x1="333.65" y1="38.76" x2="333.65" y2="60.19"/><path class="cls-28" d="M378.16,85.81c.22,7.56-8.19,15.54-11.28,15.54-3.55,0-11.51-7.56-11.51-15.54,0-5.22,3.54-11.76,11.51-11.76C374.4,74.05,378,80.6,378.16,85.81Z"/><path class="cls-24" d="M367.14,73.84c-.05,2.28,0,4.56,0,6.83V87.5l0,6.82q0,3.42-.11,6.83c-.09-2.27-.16-4.55-.19-6.82l-.05-6.83C366.76,82.94,366.76,78.39,367.14,73.84Z"/><path class="cls-24" d="M358.07,78.79a5.91,5.91,0,0,1,1.86-1.69,15.52,15.52,0,0,1,2.29-1.1,28.32,28.32,0,0,1,4.89-1.35h.07a22.51,22.51,0,0,1,5.58,2.42A12.47,12.47,0,0,1,375.12,79a6.15,6.15,0,0,1,1.49,2.62A6.09,6.09,0,0,0,375,79.14a11.87,11.87,0,0,0-2.38-1.79,24.47,24.47,0,0,0-5.5-2.34h.08a33,33,0,0,0-4.86,1.25,16.6,16.6,0,0,0-2.29,1A5.78,5.78,0,0,0,358.07,78.79Z"/><path class="cls-24" d="M357,81a6.28,6.28,0,0,1,2.21-1.67,25,25,0,0,1,2.56-1.1,49.77,49.77,0,0,1,5.35-1.59h.07a12.28,12.28,0,0,1,3.35,1.25,15.65,15.65,0,0,1,3,2,16.25,16.25,0,0,1,2.43,2.61,19,19,0,0,1,1.81,3,20.74,20.74,0,0,0-2-2.92,17.33,17.33,0,0,0-5.39-4.4A15,15,0,0,0,367.11,77h.07c-1.8.41-3.58.92-5.34,1.49-.87.29-1.74.61-2.58,1A6.12,6.12,0,0,0,357,81Z"/><path class="cls-24" d="M356.52,83a6.24,6.24,0,0,1,2.32-1.7,26.09,26.09,0,0,1,2.69-1.09,50.62,50.62,0,0,1,5.57-1.59h.07a11.32,11.32,0,0,1,3.19,1.32,16.08,16.08,0,0,1,2.76,2,18.34,18.34,0,0,1,2.24,2.58,21.61,21.61,0,0,1,1.69,2.95,21.9,21.9,0,0,0-1.86-2.83,17.21,17.21,0,0,0-2.29-2.46,15.77,15.77,0,0,0-2.72-2A13.08,13.08,0,0,0,367.1,79h.08c-1.88.41-3.73.92-5.57,1.49-.91.29-1.82.61-2.7,1A6.12,6.12,0,0,0,356.52,83Z"/><path class="cls-24" d="M356.47,85a6.25,6.25,0,0,1,2.33-1.69,26,26,0,0,1,2.68-1.1,54.32,54.32,0,0,1,5.57-1.59h.08A11.33,11.33,0,0,1,370.21,82a17.06,17.06,0,0,1,2.63,2.08A18.8,18.8,0,0,1,375,86.69a22.45,22.45,0,0,1,1.64,2.9c-.28-.47-.55-1-.85-1.43s-.6-.92-.95-1.35a19.14,19.14,0,0,0-2.19-2.48,17.29,17.29,0,0,0-2.6-2,12,12,0,0,0-3-1.35h.08c-1.87.41-3.73.92-5.56,1.48q-1.38.44-2.7,1A6.27,6.27,0,0,0,356.47,85Z"/><path class="cls-24" d="M356.47,87.37a6.17,6.17,0,0,1,2.33-1.7,26,26,0,0,1,2.68-1.1A51.2,51.2,0,0,1,367.05,83h.08a10.63,10.63,0,0,1,3,1.25,12.69,12.69,0,0,1,2.53,2,12.82,12.82,0,0,1,1.92,2.55,14.38,14.38,0,0,1,1.19,2.94,13.38,13.38,0,0,0-3.33-5.26,12.49,12.49,0,0,0-5.35-3.08h.08c-1.87.41-3.73.92-5.56,1.49a28.07,28.07,0,0,0-2.7,1A6.16,6.16,0,0,0,356.47,87.37Z"/><path class="cls-24" d="M356.93,89.87a14.5,14.5,0,0,1,2.19-1.79,15.87,15.87,0,0,1,2.49-1.37,19.81,19.81,0,0,1,5.47-1.55h0a6,6,0,0,1,2.8,1,9.93,9.93,0,0,1,2.18,2,14.93,14.93,0,0,1,1.62,2.46l.62,1.33.52,1.36-.62-1.32-.7-1.28a15,15,0,0,0-1.68-2.35,9.92,9.92,0,0,0-2.14-1.9,6.1,6.1,0,0,0-2.61-1h0A21.17,21.17,0,0,0,361.72,87a17.26,17.26,0,0,0-2.51,1.25A15.38,15.38,0,0,0,356.93,89.87Z"/><path class="cls-24" d="M357.69,92.25a17.34,17.34,0,0,1,4.35-3.2,19.57,19.57,0,0,1,5.11-1.87h.08a6.66,6.66,0,0,1,2.24,1.37,12.18,12.18,0,0,1,1.73,1.93,17.62,17.62,0,0,1,1.33,2.2l.53,1.17.45,1.2L373,93.9l-.61-1.12A17,17,0,0,0,371,90.66a12.5,12.5,0,0,0-1.72-1.84,7.14,7.14,0,0,0-2.1-1.28h.08a21.38,21.38,0,0,0-5,1.75,17.94,17.94,0,0,0-2.33,1.33A17.53,17.53,0,0,0,357.69,92.25Z"/><path class="cls-24" d="M358.44,95a24.15,24.15,0,0,1,3.89-3.24,22.73,22.73,0,0,1,4.5-2.37l.07,0,.08,0a10.68,10.68,0,0,1,1.8,1.32,11.59,11.59,0,0,1,1.51,1.62,11.06,11.06,0,0,1,1.16,1.88,11.88,11.88,0,0,1,.74,2.07,12.19,12.19,0,0,0-2.14-3.76,12,12,0,0,0-3.25-2.79H367A25.55,25.55,0,0,0,362.49,92,32.6,32.6,0,0,0,358.44,95Z"/><path class="cls-24" d="M360.33,97c.95-1,1.92-1.94,3-2.83a24.94,24.94,0,0,1,3.29-2.46,1.19,1.19,0,0,1,1.15.1,3.51,3.51,0,0,1,.83.69,8.26,8.26,0,0,1,1.19,1.7A21.1,21.1,0,0,1,371.3,98a35.14,35.14,0,0,0-1.82-3.63,8.74,8.74,0,0,0-1.18-1.62,2.83,2.83,0,0,0-.75-.59.91.91,0,0,0-.78-.12,31.5,31.5,0,0,0-3.3,2.36C362.41,95.24,361.36,96.11,360.33,97Z"/><path class="cls-24" d="M361.85,98.58a19.55,19.55,0,0,1,2.1-2.45,14,14,0,0,1,1.2-1.1,8.44,8.44,0,0,1,1.37-.93l-.07.05a.75.75,0,0,1,1,0,2.92,2.92,0,0,1,.6.62,8.49,8.49,0,0,1,.83,1.42,19.84,19.84,0,0,1,1.1,3c-.45-1-.87-2-1.37-2.91a10.1,10.1,0,0,0-.84-1.34,2.17,2.17,0,0,0-.53-.52c-.19-.15-.41-.16-.49-.08l0,0,0,0a7,7,0,0,0-1.3.86c-.42.32-.82.67-1.22,1C363.35,97.05,362.6,97.81,361.85,98.58Z"/><path class="cls-24" d="M364.22,100.09a7.36,7.36,0,0,1,1-1.86,5.88,5.88,0,0,1,.69-.82,4.83,4.83,0,0,1,.84-.69h0a.63.63,0,0,1,.73.08,1.73,1.73,0,0,1,.4.47,4.78,4.78,0,0,1,.44,1,10.92,10.92,0,0,1,.37,2.18c-.22-.7-.4-1.41-.66-2.08a5.65,5.65,0,0,0-.45-1c-.16-.29-.49-.51-.61-.43h0a7,7,0,0,0-1.49,1.35A15.61,15.61,0,0,0,364.22,100.09Z"/><line class="cls-27" x1="367.23" y1="38.38" x2="367.23" y2="75.05"/><path class="cls-26" d="M372,70.67c.25,7.56-9.08,15.54-12.52,15.54-3.92,0-12.76-7.56-12.76-15.54,0-5.22,3.93-11.76,12.76-11.76A12.14,12.14,0,0,1,372,70.67Z"/><path class="cls-28" d="M359.76,58.7c-.05,2.27,0,4.55,0,6.83v6.82l0,6.83c0,2.28-.06,4.55-.12,6.83-.1-2.28-.17-4.55-.2-6.83s0-4.55-.06-6.83C359.35,67.8,359.35,63.24,359.76,58.7Z"/><path class="cls-28" d="M349.7,63.65a6.32,6.32,0,0,1,2.14-1.73,16.8,16.8,0,0,1,2.54-1.1,32.69,32.69,0,0,1,5.35-1.33h.08a24.91,24.91,0,0,1,3.1,1,22.7,22.7,0,0,1,3,1.37,12.74,12.74,0,0,1,2.64,1.9,6.41,6.41,0,0,1,1.76,2.71,6.38,6.38,0,0,0-1.9-2.54,12.9,12.9,0,0,0-2.67-1.77,28.44,28.44,0,0,0-6-2.27h.07a39,39,0,0,0-5.32,1.22,18.36,18.36,0,0,0-2.55,1A6.26,6.26,0,0,0,349.7,63.65Z"/><path class="cls-28" d="M348.5,65.84a7.3,7.3,0,0,1,2.5-1.7,28.66,28.66,0,0,1,2.84-1.09,57.31,57.31,0,0,1,5.88-1.58h.07a14.53,14.53,0,0,1,3.62,1.2,17.36,17.36,0,0,1,3.26,2,17,17,0,0,1,2.74,2.62,18.16,18.16,0,0,1,2.09,3.13,19.39,19.39,0,0,0-2.26-3,16.83,16.83,0,0,0-2.78-2.48A18.05,18.05,0,0,0,363.25,63a16.5,16.5,0,0,0-3.52-1.16h.07c-2,.41-3.93.92-5.87,1.47-1,.29-1.92.61-2.86,1A7.06,7.06,0,0,0,348.5,65.84Z"/><path class="cls-28" d="M348,67.84a7.28,7.28,0,0,1,2.63-1.72,31.08,31.08,0,0,1,3-1.1c2-.64,4.07-1.13,6.13-1.58h.08a13.72,13.72,0,0,1,3.43,1.27,17.54,17.54,0,0,1,3,2,18.28,18.28,0,0,1,2.53,2.6,19.93,19.93,0,0,1,2,3,20.93,20.93,0,0,0-2.12-2.9A17.29,17.29,0,0,0,366.05,67a17.77,17.77,0,0,0-3-1.92,14.55,14.55,0,0,0-3.32-1.21h.07c-2.06.4-4.1.91-6.12,1.47-1,.29-2,.6-3,1A7.28,7.28,0,0,0,348,67.84Z"/><path class="cls-28" d="M347.94,69.85a7.31,7.31,0,0,1,2.63-1.73c1-.43,2-.76,3-1.09a62.12,62.12,0,0,1,6.14-1.58h.08a13,13,0,0,1,3.31,1.36,16.71,16.71,0,0,1,2.9,2,19.83,19.83,0,0,1,2.42,2.6,22.71,22.71,0,0,1,1.88,3,22.23,22.23,0,0,0-2-2.86,19.21,19.21,0,0,0-2.47-2.47,17.59,17.59,0,0,0-2.87-2,14,14,0,0,0-3.2-1.3h.08c-2.06.4-4.11.91-6.13,1.47-1,.29-2,.6-3,1A7.22,7.22,0,0,0,347.94,69.85Z"/><path class="cls-28" d="M347.94,72.22a7.31,7.31,0,0,1,2.63-1.73c1-.43,2-.76,3-1.09,2-.64,4.07-1.14,6.14-1.58h.08A13.75,13.75,0,0,1,365.7,71a12.17,12.17,0,0,1,2.19,2.56,13.72,13.72,0,0,1,1.4,3,13.06,13.06,0,0,0-1.58-2.92,11.68,11.68,0,0,0-2.22-2.43,14,14,0,0,0-5.81-3h.08c-2.06.4-4.11.91-6.13,1.47-1,.29-2,.6-3,1A7.2,7.2,0,0,0,347.94,72.22Z"/><path class="cls-28" d="M348.45,74.73a16.51,16.51,0,0,1,2.47-1.84,18.88,18.88,0,0,1,2.78-1.37,23.73,23.73,0,0,1,6-1.53h0a7.23,7.23,0,0,1,3,1,10.16,10.16,0,0,1,2.42,2A15,15,0,0,1,367,75.44c.25.45.48.92.72,1.37l.61,1.42-.7-1.37c-.27-.44-.53-.88-.81-1.31a14.52,14.52,0,0,0-1.9-2.37,11.19,11.19,0,0,0-2.38-1.85,7.06,7.06,0,0,0-2.81-.92h0a25.28,25.28,0,0,0-5.92,1.41A21.73,21.73,0,0,0,351,73.06,17.4,17.4,0,0,0,348.45,74.73Z"/><path class="cls-28" d="M349.28,77.1a20.34,20.34,0,0,1,2.32-1.81,20.85,20.85,0,0,1,2.57-1.44,23,23,0,0,1,2.74-1.09,19.83,19.83,0,0,1,2.87-.75h0l0,0a7.57,7.57,0,0,1,2.4,1.32,12,12,0,0,1,1.93,1.91,15.32,15.32,0,0,1,1.51,2.23c.21.39.4.8.61,1.2l.53,1.23-.62-1.19c-.23-.38-.45-.77-.69-1.14A17.53,17.53,0,0,0,364,75.45,13.68,13.68,0,0,0,362,73.64a7.26,7.26,0,0,0-2.27-1.22h.08a25.16,25.16,0,0,0-5.53,1.73,21.15,21.15,0,0,0-2.6,1.32A20.61,20.61,0,0,0,349.28,77.1Z"/><path class="cls-28" d="M350.12,79.87c.68-.6,1.36-1.21,2.09-1.75s1.49-1.06,2.26-1.54,1.59-.89,2.42-1.29a19.59,19.59,0,0,1,2.54-1l.08,0,.07,0a12.76,12.76,0,0,1,1.94,1.28,11.49,11.49,0,0,1,1.66,1.61A9.86,9.86,0,0,1,364.5,79a10.33,10.33,0,0,1,.86,2.13,9.9,9.9,0,0,0-1-2A10.94,10.94,0,0,0,363,77.35a13.38,13.38,0,0,0-3.56-2.72h.15a28.86,28.86,0,0,0-4.9,2.24A36.55,36.55,0,0,0,350.12,79.87Z"/><path class="cls-28" d="M352.22,81.85c1-1,2.12-1.94,3.25-2.82a30.11,30.11,0,0,1,3.58-2.44,1.32,1.32,0,0,1,1.21,0,3.65,3.65,0,0,1,.95.63,8,8,0,0,1,1.36,1.72,19.87,19.87,0,0,1,1.81,3.92,31.75,31.75,0,0,0-2.08-3.75A9.08,9.08,0,0,0,361,77.5a3.16,3.16,0,0,0-.84-.54.88.88,0,0,0-.86,0,35.84,35.84,0,0,0-3.58,2.32C354.5,80.12,353.36,81,352.22,81.85Z"/><path class="cls-28" d="M353.9,83.44a22.16,22.16,0,0,1,2.35-2.5c.42-.39.88-.74,1.34-1.09a9,9,0,0,1,1.5-.92L359,79a.84.84,0,0,1,1,0,2.39,2.39,0,0,1,.67.59,7.3,7.3,0,0,1,.93,1.43,18.63,18.63,0,0,1,1.27,3.11c-.5-1-1-2-1.55-3a9.69,9.69,0,0,0-.93-1.34,2.53,2.53,0,0,0-.59-.5c-.2-.13-.45-.13-.52,0l0,0-.05,0a8.75,8.75,0,0,0-1.43.84c-.46.31-.9.67-1.35,1C355.58,81.9,354.74,82.67,353.9,83.44Z"/><path class="cls-28" d="M356.53,85A7.33,7.33,0,0,1,357.64,83a6.52,6.52,0,0,1,1.68-1.49h0a.73.73,0,0,1,.75.07,1.48,1.48,0,0,1,.45.45,3.77,3.77,0,0,1,.51,1,10.81,10.81,0,0,1,.43,2.24c-.24-.72-.45-1.44-.74-2.12a4.7,4.7,0,0,0-.51-.94c-.19-.29-.53-.47-.67-.39h0a7.05,7.05,0,0,0-1.63,1.32A13.26,13.26,0,0,0,356.53,85Z"/><line class="cls-30" x1="359.77" y1="39.15" x2="359.87" y2="81.91"/><rect class="cls-31" x="42.96" y="65.65" width="68.17" height="71.57"/><rect class="cls-32" x="48.77" y="72.26" width="56.55" height="59.12"/><ellipse class="cls-33" cx="71.62" cy="91.32" rx="9.68" ry="9.72"/><path class="cls-34" d="M48.77,113.5v17.88h56.55V116.19L99,114.73a14.34,14.34,0,0,0-10.2,1.46l-5.33,2.93A10.17,10.17,0,0,1,72,118l-9.17-7.49a6.94,6.94,0,0,0-8.22-.58Z"/></g></g></svg>