<svg xmlns="http://www.w3.org/2000/svg" viewBox="0 0 102.62 45.78"><defs><style>.cls-1{fill:#95a89e;}.cls-1,.cls-2,.cls-3,.cls-4{stroke:#434c57;stroke-miterlimit:10;}.cls-1,.cls-2{stroke-width:0.21px;}.cls-2{fill:#9cada6;}.cls-3{font-size:39.24px;stroke-width:0.24px;font-family:Arial;font-weight:700;letter-spacing:0.16em;}.cls-3,.cls-4{fill:#e1d4cf;}.cls-4{stroke-width:0.23px;}</style></defs><title>Recurso 2</title><g id="Capa_2" data-name="Capa 2"><g id="Capa_1-2" data-name="Capa 1"><path class="cls-1" d="M32.12,18.81s1.05,7.38,1.9,9.4c3,7.07,11.55,8,15.25,8.46,4.43.51,11.39,1,15.75-.51,2.53-.88,7.71-2,12.17-7.52,1.22-1.51,1.93-10.84,1.93-10.84Z"/><path class="cls-1" d="M79.12,17.8c0,7.38-10.52,13.36-23.5,13.36-3.8,0-10.1-2-13.4-2.52-1.47-.22-1.59,2.09-1.6,2.71,0,0,0,0,0,0-.19-.68-1.11-3.73-3.13-5.13-1.32-.92-5.53-4.06-5.33-8.43.33-7.35,10.52-13.36,23.49-13.36S79.12,10.42,79.12,17.8Z"/><path class="cls-1" d="M77.86,18.1c0,6.3-10,11.4-22.27,11.4a37.65,37.65,0,0,1-11-1.55,3,3,0,0,0-3.87,1.61,6,6,0,0,0-2.36-4.27c-1.25-.78-5.24-3.46-5.05-7.19.31-6.27,10-11.4,22.26-11.4S77.86,11.8,77.86,18.1Z"/><path class="cls-2" d="M77.3,18.13a4.76,4.76,0,0,1-.85,4.11c-3.19,4.3-11.31,7.35-20.82,7.35a38,38,0,0,1-11-1.54,3,3,0,0,0-3.87,1.61s-.2-2.93-2.36-4.28a13.41,13.41,0,0,1-3.65-3.19,7.18,7.18,0,0,1-.64-4.39c.91-2.84,4.65-5,8.39-6.51,4.09-1.61,6.94-2.13,13.36-2.13,6,0,7,.57,10.95,1.59C69.5,11.44,75.85,13.36,77.3,18.13Z"/><text class="cls-3" transform="translate(0.12 33.18)"><tspan xml:space="preserve">H   I</tspan></text><path class="cls-4" d="M50.81,11c3.9,3.7,7,9,5.61,10.67s-9.28,1.79-13.17-1.91S38.81,7.6,38.81,7.6,46.92,7.31,50.81,11Z"/><path class="cls-4" d="M56.88,12c2.32,5,1.36,8.74-.46,9.73S49.15,22,46.82,17,46.93,4,46.93,4,54.55,7,56.88,12Z"/><path class="cls-4" d="M62.12,11c-3.9,3.7-7,9-5.61,10.67s9.28,1.79,13.17-1.91S74.12,7.6,74.12,7.6,66,7.31,62.12,11Z"/><path class="cls-4" d="M56.05,12c-2.32,5-1.36,8.74.46,9.73s7.27.35,9.6-4.65S66,4,66,4,58.38,7,56.05,12Z"/><path class="cls-4" d="M62,14.74c0,5.6-3.52,7.56-5.56,7.56S50.88,20,50.88,14.42,56.42,2.78,56.42,2.78,62,9.15,62,14.74Z"/></g></g></svg>