<svg id="Capa_1" data-name="Capa 1" xmlns="http://www.w3.org/2000/svg" viewBox="0 0 164.09 63.15"><defs><style>.cls-1{font-size:53.4px;fill:#006837;font-family:ArialRoundedMTBold, Arial Rounded MT Bold;}.cls-2{fill:#40845d;stroke-width:0.53px;}.cls-2,.cls-3,.cls-4{stroke:#006837;stroke-miterlimit:10;}.cls-3,.cls-4{fill:none;}.cls-3{stroke-width:0.42px;}.cls-4{stroke-width:0.21px;}</style></defs><title>logo-nuevo-hoi</title><text class="cls-1" transform="translate(0 50.75) scale(1 1.1)"><tspan xml:space="preserve">H   I     </tspan></text><path class="cls-2" d="M46.19,37.79a8.45,8.45,0,0,1-2.47-5.28,18.41,18.41,0,0,0-1.29-5.29c-1-2.34.6-3.25-.09-5.3-.39-1.14.58-3.44,1-4.73a12.46,12.46,0,0,1,1.84-3.85c.29-.38,1.45.27,2.26,1.15.55.6,2.05.27,2.26,1.15s1.19,1.55,1.88,2S54.33,19,55,19.4c1.5,1,2.55,1.26,2.59.86,0-.59-2-.46-3-3.21a12.05,12.05,0,0,0-2.85-4.39c-.8-.87-2.56-1.6-2.69-2.91-.22-2.39,2.82-3.68,3.35-4.17,3.24-3,8.3-3.34,10.3-2.48a10.86,10.86,0,0,0,4.36.83c2.62,0,8.17,5.2,10.38,9.3,2.52,4.69,3.34,5,3.49,7,.26,3.54.84,4.34.84,5.89a24.94,24.94,0,0,1-.53,3.54c-.17,1.49-.15,3.44-.44,4.72a19.66,19.66,0,0,1-1.3,4.44c-1,1.49-4.48,3.59-4.48,3.59s-1.79,3.27-5.29,3.27c-.9,0,.47.16-4,1-3.41.62-3.71,1-5.87-.52-.8-.58-2.5.42-3.82-.24a19.8,19.8,0,0,1-2.75-2.33c-.54-.43-.32.3-1.72-.57-.51-.31-.73-1.36-1.61-1.74C48,40.42,46.75,38.4,46.19,37.79Z" transform="translate(-0.96 4.75)"/><path class="cls-3" d="M57.59,20.26c6.72,4,13.87,16.33,17.65,22.07" transform="translate(-0.96 4.75)"/><path class="cls-4" d="M77.59,40.64c-.75-.81-4.31-1.42-4.31-1.42s.38,2.35.85,4.45" transform="translate(-0.96 4.75)"/><path class="cls-4" d="M58.61,22" transform="translate(-0.96 4.75)"/><path class="cls-4" d="M72.36,37.84s-.49,5.61.63,6.83" transform="translate(-0.96 4.75)"/><path class="cls-4" d="M71.15,35.82s-1.86,8.17.67,9.61" transform="translate(-0.96 4.75)"/><path class="cls-4" d="M69.33,33.19c.29,4-2.89,9.65.39,12.56" transform="translate(-0.96 4.75)"/><path class="cls-4" d="M66.51,29.28c.95,7.25-2.66,12.71-.73,17.4" transform="translate(-0.96 4.75)"/><path class="cls-4" d="M63.29,25.79c1.32,11.18-3,16.83-1.12,21.53" transform="translate(-0.96 4.75)"/><path class="cls-4" d="M50.27,41.57c4.8-.65,7.07-2.74,7.07-2.74s4.39-10.37,3.8-15.38c0,0-4.6,11.26-17.33,9.61" transform="translate(-0.96 4.75)"/><path class="cls-4" d="M62,41.71c-.65,2.08-3.67,4.35-3.67,4.35s.23-5.94-1-7.23" transform="translate(-0.96 4.75)"/><line class="cls-4" x1="52.91" y1="45.45" x2="52.77" y2="48.67"/><path class="cls-4" d="M45.21,13.34c4.72,9.66,15.66,9.82,15.66,9.82S52,26.52,42.94,18.67" transform="translate(-0.96 4.75)"/><path class="cls-4" d="M60.64,24.46c-5.17,2.6-9.91,2.66-18.41.25" transform="translate(-0.96 4.75)"/><path class="cls-4" d="M48.41,14.89s1.21,1.93.63,3.54" transform="translate(-0.96 4.75)"/><path class="cls-4" d="M47,14a5.44,5.44,0,0,0,.87,2.87" transform="translate(-0.96 4.75)"/><path class="cls-4" d="M48.3,17.72s-4,0-4.8-.89" transform="translate(-0.96 4.75)"/><path class="cls-4" d="M54,31.29c-1.75-1.89-8.91.62-10.66-1.27" transform="translate(-0.96 4.75)"/><path class="cls-4" d="M45.42,17.46s1,3.33,1.75,4.14" transform="translate(-0.96 4.75)"/><path class="cls-4" d="M49,22.46s-5.41,1.46-6.45.34" transform="translate(-0.96 4.75)"/><path class="cls-4" d="M47.86,26s-4.15,3.24-5,2.32" transform="translate(-0.96 4.75)"/><path class="cls-4" d="M52,32.41s-1.36,5-3.78,7.7" transform="translate(-0.96 4.75)"/><path class="cls-4" d="M48.7,33.06s-3.34,3.83-2.51,4.73" transform="translate(-0.96 4.75)"/><path class="cls-4" d="M72.26,37.47s5.79.54,6.63,2" transform="translate(-0.96 4.75)"/><path class="cls-4" d="M71.24,35.71s3-.63,4.42.24" transform="translate(-0.96 4.75)"/><path class="cls-4" d="M68.88,32.5c5.55.81,9.25.85,11.09,4.87" transform="translate(-0.96 4.75)"/><path class="cls-4" d="M66.51,29.28c3.93,2.31,12.6.53,14.45,4.54" transform="translate(-0.96 4.75)"/><path class="cls-4" d="M61.73,23.45c4.52,2.3,14.39-1.95,19.61,6.24" transform="translate(-0.96 4.75)"/><path class="cls-4" d="M64.65,26.91c1.67,1.81,7.69.24,10.33.5" transform="translate(-0.96 4.75)"/><path class="cls-4" d="M79,29.13s-2-.27-4.73,1.75" transform="translate(-0.96 4.75)"/><path class="cls-4" d="M80.57,30.88a12.74,12.74,0,0,0-3.41.47" transform="translate(-0.96 4.75)"/><path class="cls-4" d="M61.19,22.86c3.61-.63,10.85-8.38,19.68-3.34" transform="translate(-0.96 4.75)"/><path class="cls-4" d="M75.2,25.05s5.26-2.09,6.3-1" transform="translate(-0.96 4.75)"/><path class="cls-4" d="M70.68,24.33a10.54,10.54,0,0,1,7.16-2.82,4.85,4.85,0,0,1,3.41,1.2" transform="translate(-0.96 4.75)"/><path class="cls-4" d="M65.66,24.23c6.91-5.93,9.84-6.38,9.84-6.38a17.81,17.81,0,0,0,3.33-2.24" transform="translate(-0.96 4.75)"/><path class="cls-4" d="M57.69,3a22.91,22.91,0,0,1,3.5,19.89s-3.48-13.51-12-14.19" transform="translate(-0.96 4.75)"/><path class="cls-4" d="M65.91,3.94s.65-.59,2,4.11c1.89,6.62-6.65,14.63-6.65,14.63" transform="translate(-0.96 4.75)"/><path class="cls-4" d="M69,18.94s7-8.23,5.25-10.15" transform="translate(-0.96 4.75)"/><path class="cls-4" d="M70.84,5.69s.5,6.73-3.84,9.12" transform="translate(-0.96 4.75)"/><path class="cls-4" d="M64.43,3.65c1.33,1.44-2.79,8-2.79,8s-1.77,0-8.4-6.7" transform="translate(-0.96 4.75)"/><path class="cls-4" d="M61.28,2.82s.43,1.76-1,5" transform="translate(-0.96 4.75)"/><path class="cls-4" d="M56.41,3.32s.82,4.86,4.3,5.43" transform="translate(-0.96 4.75)"/><path class="cls-4" d="M50.07,7.33c2.15.61,2,1.75,2.6,2.4" transform="translate(-0.96 4.75)"/><path class="cls-4" d="M51.92,6.22c2.15.62,2.39,4,3,4.64" transform="translate(-0.96 4.75)"/><path class="cls-4" d="M54.86,11.45s-4.25.46-5.07-.43" transform="translate(-0.96 4.75)"/></svg>