<svg xmlns="http://www.w3.org/2000/svg" viewBox="0 0 402.11 400"><defs><style>.cls-1{fill:#f4f4f4;}.cls-2{fill:#eee5dd;}.cls-17,.cls-18,.cls-19,.cls-20,.cls-21,.cls-22,.cls-23,.cls-25,.cls-26,.cls-29,.cls-3,.cls-31,.cls-33,.cls-8{fill:none;}.cls-3{stroke:#1e1d1b;stroke-width:3.19px;}.cls-16,.cls-17,.cls-18,.cls-19,.cls-20,.cls-21,.cls-22,.cls-23,.cls-25,.cls-26,.cls-29,.cls-3,.cls-31,.cls-33,.cls-8{stroke-miterlimit:10;}.cls-4{fill:#a15f22;}.cls-5{fill:#cb9156;}.cls-6{fill:#7a8456;}.cls-7{fill:#966f38;}.cls-8{stroke:#282623;stroke-width:1.3px;}.cls-9{fill:#282623;}.cls-10{fill:#a18823;}.cls-11{fill:#68644e;}.cls-12{fill:#000100;}.cls-13{fill:#f7e8db;}.cls-14{fill:#bfafa7;}.cls-15{fill:#6d7570;}.cls-16{fill:#f2f7f7;stroke-width:1.59px;}.cls-16,.cls-17,.cls-18,.cls-19,.cls-20,.cls-21,.cls-22,.cls-23{stroke:#736357;}.cls-17{stroke-width:0.81px;}.cls-18{stroke-width:0.78px;}.cls-19{stroke-width:0.8px;}.cls-20{stroke-width:0.8px;}.cls-21{stroke-width:0.81px;}.cls-22{stroke-width:0.82px;}.cls-23{stroke-width:0.8px;}.cls-24{fill:#140206;}.cls-25,.cls-26{stroke:#020001;}.cls-25{stroke-width:0.67px;}.cls-26{stroke-width:0.7px;}.cls-27{fill:#020001;}.cls-28{fill:#f2f4df;}.cls-29,.cls-31{stroke:#cdceb6;}.cls-29{stroke-width:0.16px;}.cls-30{fill:#f4bd40;}.cls-31{stroke-width:0.2px;}.cls-32{fill:#6e8985;}.cls-33{stroke:#ffe6cd;stroke-width:1.41px;}.cls-34{fill:#baccca;}</style></defs><title>Recurso 2</title><g id="Capa_2" data-name="Capa 2"><g id="Capa_9" data-name="Capa 9"><rect class="cls-1" x="1.05" width="400" height="400"/></g><g id="Capa_5" data-name="Capa 5"><ellipse class="cls-2" cx="201.9" cy="301.5" rx="183.49" ry="73.33"/><path class="cls-2" d="M375.42,277.93c.65-1.84,1.37-3.64,2.06-5.46s1.44-3.6,2.2-5.38a31.48,31.48,0,0,1,2.34-5.31,21.83,21.83,0,0,1,1.73-2.38,14.1,14.1,0,0,1,2.15-2.15l.28.14a13.92,13.92,0,0,1-.46,3,20.31,20.31,0,0,1-.9,2.8,31.21,31.21,0,0,1-2.9,5q-1.49,2.49-3,4.95c-1.06,1.63-2.08,3.28-3.18,4.89Z"/><path class="cls-2" d="M379.94,286.79c.84-1.65,1.76-3.25,2.63-4.88s1.82-3.21,2.77-4.79a27.83,27.83,0,0,1,2.89-4.7,19.36,19.36,0,0,1,2-2,12.59,12.59,0,0,1,2.35-1.72l.26.18a13,13,0,0,1-.8,2.8,21.68,21.68,0,0,1-1.19,2.53,27.84,27.84,0,0,1-3.41,4.34q-1.74,2.15-3.54,4.25c-1.22,1.38-2.41,2.8-3.67,4.16Z"/><path class="cls-2" d="M367.88,271.19c.65-1.84,1.37-3.64,2.06-5.46s1.44-3.6,2.2-5.38a31.48,31.48,0,0,1,2.34-5.31,21.83,21.83,0,0,1,1.73-2.38,14.62,14.62,0,0,1,2.15-2.16l.28.15a13.92,13.92,0,0,1-.46,3,21.77,21.77,0,0,1-.9,2.8,30.7,30.7,0,0,1-2.9,5q-1.49,2.5-3,5c-1.06,1.63-2.08,3.28-3.18,4.89Z"/><path class="cls-2" d="M360.79,266.29c.51-1.94,1.1-3.85,1.65-5.77s1.17-3.82,1.79-5.71a32.58,32.58,0,0,1,1.94-5.66,23,23,0,0,1,1.55-2.59,14.86,14.86,0,0,1,2-2.42l.29.12a14.46,14.46,0,0,1-.24,3.12,22.18,22.18,0,0,1-.68,3,32.86,32.86,0,0,1-2.52,5.42q-1.29,2.69-2.66,5.36c-.94,1.76-1.84,3.55-2.81,5.3Z"/><path class="cls-2" d="M354.75,262.93c.42-2,.92-4,1.38-5.94s1-3.93,1.53-5.88a33.35,33.35,0,0,1,1.67-5.84,23.44,23.44,0,0,1,1.43-2.71,14.49,14.49,0,0,1,1.88-2.56l.3.1a15.83,15.83,0,0,1-.09,3.17,24.75,24.75,0,0,1-.55,3,33.82,33.82,0,0,1-2.27,5.63q-1.17,2.81-2.42,5.58c-.85,1.85-1.67,3.7-2.56,5.53Z"/><path class="cls-2" d="M341.24,255c.23-2.08.55-4.13.82-6.2s.62-4.12,1-6.16a35,35,0,0,1,1.13-6.13,22.8,22.8,0,0,1,1.17-2.92,16,16,0,0,1,1.63-2.81l.31.07a15.59,15.59,0,0,1,.2,3.24,23.19,23.19,0,0,1-.26,3.14,36.11,36.11,0,0,1-1.73,6q-.92,3-1.89,6c-.68,2-1.32,3.95-2,5.91Z"/><path class="cls-2" d="M347.39,257.73c.46-2,1-3.92,1.48-5.88s1.06-3.89,1.63-5.82a33.26,33.26,0,0,1,1.78-5.77,22.47,22.47,0,0,1,1.47-2.67,15.49,15.49,0,0,1,1.92-2.51l.3.11a15,15,0,0,1-.15,3.16,24.7,24.7,0,0,1-.59,3,33.81,33.81,0,0,1-2.37,5.55q-1.22,2.76-2.51,5.5c-.89,1.81-1.74,3.64-2.66,5.44Z"/><path class="cls-2" d="M332.64,251.73c.24-2.07.55-4.13.82-6.2s.63-4.11,1-6.16a35.19,35.19,0,0,1,1.12-6.13,25,25,0,0,1,1.17-2.92,15.8,15.8,0,0,1,1.64-2.81l.3.07a16.43,16.43,0,0,1,.21,3.25,27,27,0,0,1-.26,3.13,36,36,0,0,1-1.74,6c-.6,2-1.23,4-1.89,5.94s-1.32,4-2,5.91Z"/><path class="cls-2" d="M326.18,248.2c.08-2.12.24-4.22.36-6.34s.31-4.21.51-6.31a35.59,35.59,0,0,1,.67-6.28,21.87,21.87,0,0,1,2.37-6l.31.05a21.85,21.85,0,0,1,.42,6.46,36.5,36.5,0,0,1-1.29,6.18c-.45,2.06-.94,4.12-1.44,6.17s-1,4.1-1.6,6.14Z"/><path class="cls-2" d="M318.4,245.69c0-2.13.05-4.26.07-6.38s.12-4.25.23-6.37a36.36,36.36,0,0,1,.38-6.35,22.22,22.22,0,0,1,2.09-6.16l.32,0a22.23,22.23,0,0,1,.71,6.47,37.34,37.34,0,0,1-1,6.28q-.54,3.14-1.16,6.27c-.44,2.08-.84,4.17-1.32,6.24Z"/><path class="cls-2" d="M310.84,242.77c.07-2.11.24-4.22.35-6.33s.32-4.21.52-6.31a35.81,35.81,0,0,1,.67-6.29,21.81,21.81,0,0,1,2.37-6l.31,0a21.89,21.89,0,0,1,.42,6.46,36.82,36.82,0,0,1-1.29,6.19q-.69,3.09-1.44,6.16c-.54,2-1,4.1-1.6,6.14Z"/><path class="cls-2" d="M303.76,242.74c.08-2.12.24-4.22.36-6.34s.32-4.21.51-6.31a37.58,37.58,0,0,1,.67-6.28,22.09,22.09,0,0,1,2.38-6l.31.05a21.79,21.79,0,0,1,.41,6.45,35.44,35.44,0,0,1-1.28,6.19q-.69,3.09-1.45,6.17c-.53,2-1,4.1-1.6,6.14Z"/><path class="cls-2" d="M294.89,240.23c.19-2.08.47-4.15.7-6.24s.55-4.14.86-6.2a36.27,36.27,0,0,1,1-6.17,27.2,27.2,0,0,1,1.12-3,15.74,15.74,0,0,1,1.58-2.85l.31.06a16.62,16.62,0,0,1,.27,3.26,25.38,25.38,0,0,1-.21,3.15,35.7,35.7,0,0,1-1.62,6q-.86,3-1.78,6c-.65,2-1.25,4-1.93,6Z"/><path class="cls-2" d="M280.67,235.4c0-2.13.09-4.25.13-6.38s.16-4.24.28-6.36a36.34,36.34,0,0,1,.44-6.34,21.89,21.89,0,0,1,2.15-6.13l.31,0a22.21,22.21,0,0,1,.65,6.47,36.35,36.35,0,0,1-1.06,6.27c-.38,2.08-.78,4.17-1.21,6.25s-.88,4.15-1.37,6.22Z"/><path class="cls-2" d="M287.05,236.75c.23-2.07.54-4.13.81-6.2s.62-4.11,1-6.16a35,35,0,0,1,1.12-6.13,25.12,25.12,0,0,1,1.16-2.93,16.16,16.16,0,0,1,1.64-2.81l.3.07a15.71,15.71,0,0,1,.21,3.25A23.47,23.47,0,0,1,293,219a34.28,34.28,0,0,1-1.73,6q-.9,3-1.88,5.95c-.68,2-1.31,4-2,5.92Z"/><path class="cls-2" d="M271.83,234.16c0-2.13.09-4.25.13-6.38s.16-4.24.28-6.35a36.2,36.2,0,0,1,.43-6.34,22.16,22.16,0,0,1,2.15-6.14l.32,0a22.15,22.15,0,0,1,.65,6.47,37.05,37.05,0,0,1-1.06,6.26c-.38,2.09-.78,4.17-1.22,6.25s-.87,4.16-1.37,6.23Z"/><path class="cls-2" d="M265.06,232.13c-.16-2.14-.23-4.27-.35-6.41s-.15-4.27-.19-6.4a37.89,37.89,0,0,1,0-6.39,22.58,22.58,0,0,1,1.7-6.32h.31a22.62,22.62,0,0,1,1.13,6.45,36.9,36.9,0,0,1-.6,6.36q-.33,3.18-.75,6.36c-.31,2.12-.56,4.24-.91,6.35Z"/><path class="cls-2" d="M257.1,231.41c-.25-2.13-.42-4.26-.63-6.39s-.35-4.27-.48-6.4a37,37,0,0,1-.32-6.39,22.38,22.38,0,0,1,1.4-6.4h.31a22.27,22.27,0,0,1,1.42,6.4,37,37,0,0,1-.3,6.39q-.19,3.19-.46,6.39c-.21,2.13-.38,4.27-.62,6.4Z"/><path class="cls-2" d="M248.07,228.39c-.19-2.14-.3-4.27-.45-6.41s-.23-4.26-.3-6.4a36.9,36.9,0,0,1-.14-6.39,22.18,22.18,0,0,1,1.59-6.35h.31a22.37,22.37,0,0,1,1.24,6.43,36.91,36.91,0,0,1-.49,6.38c-.19,2.13-.4,4.25-.64,6.38s-.5,4.25-.81,6.37Z"/><path class="cls-2" d="M239.19,228.8c-.19-2.13-.3-4.27-.45-6.4s-.23-4.27-.3-6.4a37,37,0,0,1-.14-6.4,22.18,22.18,0,0,1,1.59-6.35h.31a22.24,22.24,0,0,1,1.24,6.42,36.91,36.91,0,0,1-.49,6.38c-.19,2.13-.4,4.25-.64,6.38s-.5,4.25-.81,6.37Z"/><path class="cls-2" d="M232.29,228c-.35-2.11-.61-4.23-.92-6.35s-.54-4.23-.77-6.35A36.92,36.92,0,0,1,230,209a22.51,22.51,0,0,1,1.11-6.44l.32,0a22.58,22.58,0,0,1,1.7,6.32,36.86,36.86,0,0,1,0,6.39c0,2.13-.09,4.27-.17,6.4s-.18,4.27-.34,6.41Z"/><path class="cls-2" d="M224.48,228.9c-.25-2.13-.42-4.26-.63-6.4s-.34-4.26-.47-6.39a37,37,0,0,1-.31-6.39,22.4,22.4,0,0,1,1.41-6.4h.31a22.76,22.76,0,0,1,1.42,6.4,37,37,0,0,1-.32,6.39q-.19,3.19-.47,6.39c-.21,2.14-.38,4.27-.63,6.4Z"/><path class="cls-2" d="M216.74,228.37c-.21-2.14-.34-4.27-.51-6.41s-.27-4.26-.36-6.4a36.94,36.94,0,0,1-.2-6.39,22.3,22.3,0,0,1,1.52-6.37h.31a22.59,22.59,0,0,1,1.31,6.41,38.06,38.06,0,0,1-.43,6.39c-.17,2.13-.36,4.25-.58,6.38s-.46,4.26-.74,6.38Z"/><path class="cls-2" d="M207.87,229c-.22-2.14-.34-4.27-.52-6.4s-.26-4.27-.36-6.4a37.06,37.06,0,0,1-.2-6.4,22.33,22.33,0,0,1,1.53-6.37h.31a22.23,22.23,0,0,1,1.3,6.41,37,37,0,0,1-.43,6.39c-.16,2.13-.36,4.26-.58,6.38s-.45,4.26-.74,6.38Z"/><path class="cls-2" d="M201,228.34c-.37-2.11-.65-4.23-1-6.34s-.58-4.23-.83-6.35a37.7,37.7,0,0,1-.67-6.35,22.47,22.47,0,0,1,1.05-6.45l.32,0a22.57,22.57,0,0,1,1.77,6.29,37.87,37.87,0,0,1,0,6.39q0,3.21-.12,6.4c-.09,2.14-.13,4.27-.27,6.41Z"/><path class="cls-2" d="M193,229.26c-.47-2.09-.85-4.18-1.27-6.27s-.77-4.18-1.12-6.27a37.63,37.63,0,0,1-1-6.3,22.66,22.66,0,0,1,.76-6.47l.32,0a22.67,22.67,0,0,1,2.05,6.18,37.51,37.51,0,0,1,.33,6.36c.08,2.12.14,4.25.18,6.37s.05,4.26,0,6.39Z"/><path class="cls-2" d="M119,236.53c-.68-2-1.28-4-1.93-6s-1.21-4-1.78-6a35.2,35.2,0,0,1-1.62-6,25.12,25.12,0,0,1-.21-3.15,16.52,16.52,0,0,1,.27-3.25l.31-.07a15.49,15.49,0,0,1,1.58,2.86,26.28,26.28,0,0,1,1.12,3,36.59,36.59,0,0,1,1,6.17c.31,2.07.59,4.14.86,6.21s.51,4.15.7,6.24Z"/><path class="cls-2" d="M134.57,233.54c-.5-2.07-.92-4.15-1.38-6.23s-.83-4.16-1.21-6.25a36.08,36.08,0,0,1-1.06-6.26,22.15,22.15,0,0,1,.65-6.47l.31,0a22.19,22.19,0,0,1,2.16,6.14,37.19,37.19,0,0,1,.43,6.34q.18,3.16.28,6.36c0,2.12.13,4.24.13,6.37Z"/><path class="cls-2" d="M128.19,234.93c-.71-2-1.35-3.94-2-5.91s-1.28-4-1.88-6a34.38,34.38,0,0,1-1.73-6,23.18,23.18,0,0,1-.26-3.13,15.66,15.66,0,0,1,.21-3.25l.3-.07a15.8,15.8,0,0,1,1.64,2.81,25,25,0,0,1,1.16,2.92,35.19,35.19,0,0,1,1.12,6.13q.52,3.07,1,6.17c.27,2.07.58,4.12.81,6.2Z"/><path class="cls-2" d="M143.41,232.3c-.5-2.07-.91-4.15-1.37-6.22s-.84-4.17-1.22-6.25a37.34,37.34,0,0,1-1.06-6.27,21.89,21.89,0,0,1,.66-6.47l.31,0a22.21,22.21,0,0,1,2.15,6.13,36.33,36.33,0,0,1,.43,6.34q.18,3.18.29,6.36c0,2.13.12,4.25.12,6.38Z"/><path class="cls-2" d="M150.18,232.13c-.34-2.12-.6-4.23-.91-6.35s-.53-4.24-.75-6.36a36.92,36.92,0,0,1-.6-6.37,22.55,22.55,0,0,1,1.13-6.44h.31a22.52,22.52,0,0,1,1.7,6.31,38,38,0,0,1,0,6.4q-.06,3.19-.19,6.4c-.12,2.13-.19,4.27-.35,6.41Z"/><path class="cls-2" d="M158.14,231.39c-.25-2.13-.42-4.26-.62-6.39s-.34-4.26-.47-6.39a37.14,37.14,0,0,1-.3-6.4,22.28,22.28,0,0,1,1.42-6.39h.31a22.59,22.59,0,0,1,1.41,6.4,38,38,0,0,1-.33,6.39q-.19,3.19-.48,6.39c-.21,2.13-.38,4.26-.63,6.39Z"/><path class="cls-2" d="M184.93,228.24c-.46-2.09-.83-4.18-1.25-6.27s-.75-4.19-1.08-6.29a37.56,37.56,0,0,1-.93-6.3,22,22,0,0,1,.79-6.47l.31,0a22.05,22.05,0,0,1,2,6.2,36.4,36.4,0,0,1,.31,6.36q.1,3.18.15,6.38c0,2.13,0,4.25,0,6.39Z"/><path class="cls-2" d="M175.69,228.9c-.39-2.11-.7-4.22-1.06-6.32s-.63-4.22-.91-6.33a36.79,36.79,0,0,1-.74-6.34,22.11,22.11,0,0,1,1-6.46l.31,0a22.49,22.49,0,0,1,1.85,6.26,37.86,37.86,0,0,1,.12,6.39q0,3.19,0,6.39c-.07,2.14-.09,4.27-.2,6.41Z"/><path class="cls-2" d="M166.93,229.17c-.39-2.11-.7-4.22-1.06-6.32s-.63-4.22-.9-6.33a36.92,36.92,0,0,1-.75-6.35,22.09,22.09,0,0,1,1-6.45l.32,0a22.87,22.87,0,0,1,1.84,6.27,36.72,36.72,0,0,1,.12,6.38c0,2.13,0,4.27,0,6.4s-.09,4.27-.19,6.4Z"/><path class="cls-2" d="M65.65,252.35c-.72-2-1.35-3.94-2-5.91s-1.28-4-1.89-5.94a36.22,36.22,0,0,1-1.73-6,23.18,23.18,0,0,1-.26-3.13,15.68,15.68,0,0,1,.2-3.25l.31-.07a15.8,15.8,0,0,1,1.64,2.81A25,25,0,0,1,63,233.79a35.21,35.21,0,0,1,1.13,6.13q.52,3.08,1,6.16c.27,2.07.59,4.13.82,6.2Z"/><path class="cls-2" d="M73.43,250.68c-.58-2-1.07-4.1-1.6-6.14s-1-4.11-1.45-6.17a36.5,36.5,0,0,1-1.29-6.18,22.19,22.19,0,0,1,.42-6.46l.31,0a22.22,22.22,0,0,1,2.38,6,37.58,37.58,0,0,1,.67,6.28c.19,2.1.36,4.21.51,6.31s.28,4.22.36,6.34Z"/><path class="cls-2" d="M79.89,246.27c-.48-2.07-.87-4.16-1.32-6.24s-.8-4.18-1.16-6.27a37.32,37.32,0,0,1-1-6.28,22.23,22.23,0,0,1,.71-6.47l.31,0a22.25,22.25,0,0,1,2.1,6.16,37.36,37.36,0,0,1,.38,6.35c.1,2.12.18,4.24.22,6.37s.09,4.25.07,6.38Z"/><path class="cls-2" d="M87.46,243.37c-.58-2-1.07-4.09-1.6-6.14s-1-4.1-1.45-6.16a35.83,35.83,0,0,1-1.28-6.19,21.88,21.88,0,0,1,.41-6.46l.31,0a22.34,22.34,0,0,1,2.38,6,37.81,37.81,0,0,1,.67,6.29q.28,3.15.51,6.31c.12,2.11.28,4.22.36,6.33Z"/><path class="cls-2" d="M94.53,243.34c-.57-2-1.06-4.1-1.6-6.14s-1-4.11-1.44-6.17a36.61,36.61,0,0,1-1.29-6.19,21.8,21.8,0,0,1,.42-6.45l.31,0a21.74,21.74,0,0,1,2.37,6,35.59,35.59,0,0,1,.67,6.28c.2,2.1.37,4.21.51,6.31s.28,4.22.36,6.34Z"/><path class="cls-2" d="M103.41,240.85c-.69-2-1.29-4-1.93-6s-1.22-4-1.78-6a35.73,35.73,0,0,1-1.63-6,23.58,23.58,0,0,1-.2-3.15,15.81,15.81,0,0,1,.26-3.26l.31-.06a16.44,16.44,0,0,1,1.59,2.85,25.75,25.75,0,0,1,1.11,2.95,35.57,35.57,0,0,1,1,6.18q.46,3.09.86,6.2c.23,2.08.51,4.16.7,6.24Z"/><path class="cls-2" d="M111.25,237.38c-.72-2-1.36-3.95-2-5.92s-1.28-4-1.88-6a36.11,36.11,0,0,1-1.73-6,25.24,25.24,0,0,1-.26-3.14,16.43,16.43,0,0,1,.21-3.25l.31-.07a16.37,16.37,0,0,1,1.63,2.81,25.19,25.19,0,0,1,1.17,2.93,35,35,0,0,1,1.11,6.13q.53,3.08,1,6.16c.27,2.07.58,4.13.81,6.2Z"/><path class="cls-2" d="M25.83,278c-1.1-1.61-2.12-3.26-3.18-4.88s-2-3.3-3-5a30.43,30.43,0,0,1-2.91-5,21.25,21.25,0,0,1-.89-2.8,14.45,14.45,0,0,1-.47-3l.28-.14a13.78,13.78,0,0,1,2.16,2.16,20.7,20.7,0,0,1,1.72,2.37A30.73,30.73,0,0,1,21.85,267c.75,1.79,1.49,3.58,2.2,5.39s1.41,3.61,2.06,5.45Z"/><path class="cls-2" d="M21.33,286.92c-1.25-1.36-2.44-2.77-3.66-4.16s-2.38-2.82-3.54-4.25a27.84,27.84,0,0,1-3.41-4.34,18.29,18.29,0,0,1-1.19-2.53,12.44,12.44,0,0,1-.8-2.8l.26-.18a13.42,13.42,0,0,1,2.35,1.72,20.44,20.44,0,0,1,2,2,28.23,28.23,0,0,1,2.89,4.7c.94,1.59,1.87,3.18,2.77,4.79s1.79,3.23,2.63,4.88Z"/><path class="cls-2" d="M33.37,271.28c-1.1-1.61-2.12-3.26-3.18-4.88s-2.05-3.3-3-5a29.68,29.68,0,0,1-2.9-5,19.89,19.89,0,0,1-.9-2.8,14.45,14.45,0,0,1-.47-3l.28-.14a13.78,13.78,0,0,1,2.16,2.16A22.08,22.08,0,0,1,27.05,255a31.48,31.48,0,0,1,2.34,5.31c.75,1.79,1.49,3.58,2.2,5.39s1.41,3.61,2.06,5.45Z"/><path class="cls-2" d="M40.44,266.36c-1-1.75-1.87-3.53-2.81-5.3s-1.8-3.56-2.66-5.36a32.07,32.07,0,0,1-2.52-5.42,22.06,22.06,0,0,1-.69-2.94,14.52,14.52,0,0,1-.23-3.12l.29-.12a14.39,14.39,0,0,1,2,2.41,22.27,22.27,0,0,1,1.55,2.6,32.77,32.77,0,0,1,1.94,5.65c.62,1.9,1.21,3.8,1.79,5.71s1.13,3.84,1.64,5.78Z"/><path class="cls-2" d="M47.79,261.11c-.89-1.83-1.71-3.69-2.57-5.53s-1.63-3.71-2.41-5.58a33.65,33.65,0,0,1-2.27-5.63,25.11,25.11,0,0,1-.55-3,15.93,15.93,0,0,1-.09-3.18l.3-.1a15.41,15.41,0,0,1,1.88,2.56,22.78,22.78,0,0,1,1.43,2.72,34.13,34.13,0,0,1,1.67,5.83c.54,2,1,3.92,1.53,5.89s1,3.94,1.38,5.94Z"/><path class="cls-2" d="M56.4,257c-.72-2-1.36-3.94-2-5.91s-1.29-4-1.89-5.95a34.94,34.94,0,0,1-1.74-6,27,27,0,0,1-.26-3.13,16.38,16.38,0,0,1,.21-3.25l.3-.07a15.8,15.8,0,0,1,1.64,2.81,25,25,0,0,1,1.17,2.92,35,35,0,0,1,1.12,6.13q.53,3.07,1,6.16c.27,2.07.58,4.12.81,6.2Z"/><path class="cls-2" d="M377.48,323.7c1.09,1.61,2.12,3.26,3.18,4.89s2,3.29,3,5a31.1,31.1,0,0,1,2.9,5,23.29,23.29,0,0,1,.9,2.79,13.91,13.91,0,0,1,.46,3l-.28.14a14.15,14.15,0,0,1-2.15-2.16A21.72,21.72,0,0,1,383.8,340a30.46,30.46,0,0,1-2.34-5.32q-1.14-2.67-2.2-5.38c-.69-1.82-1.41-3.62-2.06-5.45Z"/><path class="cls-2" d="M382,314.8c1.26,1.37,2.44,2.78,3.67,4.17s2.38,2.81,3.54,4.25a28.38,28.38,0,0,1,3.4,4.34,20.09,20.09,0,0,1,1.2,2.52,13.67,13.67,0,0,1,.8,2.81l-.26.18a12.71,12.71,0,0,1-2.35-1.72,19.43,19.43,0,0,1-2-2,28.13,28.13,0,0,1-2.9-4.7q-1.41-2.37-2.76-4.79c-.88-1.62-1.79-3.23-2.64-4.88Z"/><path class="cls-2" d="M369.94,330.44c1.09,1.61,2.11,3.26,3.18,4.89s2.05,3.29,3,5a31.1,31.1,0,0,1,2.9,5,23.29,23.29,0,0,1,.9,2.79,13.91,13.91,0,0,1,.46,3l-.28.14a14.15,14.15,0,0,1-2.15-2.16,20.47,20.47,0,0,1-1.73-2.37,30.46,30.46,0,0,1-2.34-5.32q-1.14-2.67-2.2-5.38c-.69-1.82-1.41-3.62-2.06-5.45Z"/><path class="cls-2" d="M362.86,335.36c1,1.76,1.88,3.54,2.81,5.31s1.81,3.56,2.67,5.36a32.49,32.49,0,0,1,2.52,5.42,23.7,23.7,0,0,1,.68,2.94,15.13,15.13,0,0,1,.24,3.12l-.29.12a15,15,0,0,1-2-2.42,22.64,22.64,0,0,1-1.54-2.59A32.77,32.77,0,0,1,366,347c-.62-1.9-1.22-3.8-1.79-5.72s-1.14-3.83-1.65-5.77Z"/><path class="cls-2" d="M356.83,338.74c.89,1.83,1.7,3.69,2.56,5.53s1.64,3.71,2.42,5.58a34.17,34.17,0,0,1,2.27,5.63,23.26,23.26,0,0,1,.54,3,14.5,14.5,0,0,1,.09,3.17l-.29.11a15.48,15.48,0,0,1-1.89-2.56,24.25,24.25,0,0,1-1.42-2.72,33.27,33.27,0,0,1-1.68-5.83q-.8-2.94-1.52-5.89c-.46-2-1-3.95-1.38-5.94Z"/><path class="cls-2" d="M343.33,346.75c.72,2,1.35,3.94,2,5.91s1.28,4,1.88,5.95a35.2,35.2,0,0,1,1.74,6,23.33,23.33,0,0,1,.26,3.14,16.26,16.26,0,0,1-.2,3.24l-.31.08a15.8,15.8,0,0,1-1.64-2.81,25.77,25.77,0,0,1-1.17-2.92,36.15,36.15,0,0,1-1.12-6.13c-.35-2.05-.67-4.1-1-6.17s-.59-4.12-.82-6.19Z"/><path class="cls-2" d="M349.46,343.94c.93,1.8,1.78,3.63,2.66,5.44s1.7,3.66,2.52,5.5a33.86,33.86,0,0,1,2.36,5.56,22.6,22.6,0,0,1,.6,3,15.59,15.59,0,0,1,.15,3.15l-.3.11a14.88,14.88,0,0,1-1.92-2.5,25,25,0,0,1-1.48-2.67,33.77,33.77,0,0,1-1.77-5.77c-.57-1.93-1.11-3.88-1.63-5.83s-1-3.9-1.48-5.87Z"/><path class="cls-2" d="M334.73,350c.72,2,1.36,3.94,2,5.91s1.28,4,1.89,5.95a35.83,35.83,0,0,1,1.73,6,23.18,23.18,0,0,1,.26,3.13,15.64,15.64,0,0,1-.2,3.25l-.31.07a16,16,0,0,1-1.63-2.81,22.8,22.8,0,0,1-1.17-2.92,35,35,0,0,1-1.13-6.13c-.35-2-.67-4.1-1-6.16s-.58-4.12-.82-6.2Z"/><path class="cls-2" d="M328.27,353.53c.57,2,1.06,4.09,1.59,6.14s1,4.1,1.45,6.16A36.61,36.61,0,0,1,332.6,372a21.8,21.8,0,0,1-.42,6.45l-.31,0a21.74,21.74,0,0,1-2.37-6,35.59,35.59,0,0,1-.67-6.28q-.3-3.15-.52-6.31c-.11-2.11-.28-4.22-.35-6.34Z"/><path class="cls-2" d="M320.49,356.05c.48,2.08.88,4.16,1.32,6.25s.8,4.17,1.16,6.26a36.34,36.34,0,0,1,1,6.28,21.89,21.89,0,0,1-.71,6.47l-.31,0a22.14,22.14,0,0,1-2.1-6.16,37.36,37.36,0,0,1-.38-6.35q-.15-3.18-.22-6.36c0-2.13-.09-4.25-.07-6.39Z"/><path class="cls-2" d="M312.92,359c.58,2,1.07,4.09,1.6,6.14s1,4.11,1.45,6.16a36.82,36.82,0,0,1,1.29,6.19,22.21,22.21,0,0,1-.42,6.46l-.31.05a22.22,22.22,0,0,1-2.38-6,36.67,36.67,0,0,1-.66-6.29q-.3-3.15-.52-6.31c-.12-2.11-.28-4.21-.36-6.33Z"/><path class="cls-2" d="M305.85,359c.57,2,1.06,4.09,1.6,6.14s1,4.1,1.44,6.16a36.61,36.61,0,0,1,1.29,6.19,21.79,21.79,0,0,1-.41,6.45l-.31.05a21.84,21.84,0,0,1-2.38-6,36.78,36.78,0,0,1-.67-6.29q-.3-3.15-.51-6.31c-.12-2.11-.28-4.22-.36-6.33Z"/><path class="cls-2" d="M297,361.47c.69,2,1.29,4,1.94,6s1.21,4,1.78,6a35.56,35.56,0,0,1,1.62,6.05,25.12,25.12,0,0,1,.21,3.15,16.52,16.52,0,0,1-.27,3.25l-.31.07a15.82,15.82,0,0,1-1.58-2.86,23.48,23.48,0,0,1-1.12-2.95,36.54,36.54,0,0,1-1-6.18q-.47-3.09-.86-6.2c-.23-2.08-.51-4.15-.7-6.24Z"/><path class="cls-2" d="M282.76,366.34c.5,2.07.92,4.15,1.37,6.23s.84,4.16,1.22,6.24a36.35,36.35,0,0,1,1.06,6.27,22.15,22.15,0,0,1-.65,6.47l-.32,0a22.16,22.16,0,0,1-2.15-6.14,36.2,36.2,0,0,1-.43-6.34c-.12-2.12-.22-4.23-.28-6.36s-.13-4.24-.13-6.37Z"/><path class="cls-2" d="M289.13,365c.72,2,1.36,3.94,2,5.91s1.28,4,1.88,5.95a35.27,35.27,0,0,1,1.73,6,23.18,23.18,0,0,1,.26,3.13,15.66,15.66,0,0,1-.21,3.25l-.3.07a15.8,15.8,0,0,1-1.64-2.81,25.69,25.69,0,0,1-1.16-2.92,35.19,35.19,0,0,1-1.12-6.13q-.53-3.08-1-6.17c-.27-2.07-.58-4.12-.81-6.2Z"/><path class="cls-2" d="M273.92,367.58c.5,2.07.91,4.15,1.37,6.22s.84,4.17,1.22,6.25a37.34,37.34,0,0,1,1.06,6.27,22.23,22.23,0,0,1-.66,6.47l-.31,0a22.21,22.21,0,0,1-2.15-6.13,37.34,37.34,0,0,1-.44-6.34q-.18-3.18-.28-6.36c0-2.13-.12-4.25-.12-6.38Z"/><path class="cls-2" d="M267.15,369.63c.34,2.11.6,4.23.91,6.35s.53,4.24.75,6.36a37.94,37.94,0,0,1,.6,6.37,22.55,22.55,0,0,1-1.13,6.44H268a22.52,22.52,0,0,1-1.7-6.31,38,38,0,0,1,0-6.4q.06-3.19.19-6.4c.12-2.14.19-4.27.34-6.41Z"/><path class="cls-2" d="M259.19,370.37c.25,2.13.41,4.26.62,6.39s.34,4.26.47,6.39a37.14,37.14,0,0,1,.3,6.4,22.28,22.28,0,0,1-1.42,6.39h-.31a22.25,22.25,0,0,1-1.41-6.4,39.1,39.1,0,0,1,.32-6.39q.21-3.19.48-6.39c.22-2.13.39-4.26.64-6.39Z"/><path class="cls-2" d="M250.16,373.38c.31,2.12.53,4.24.8,6.37s.46,4.25.65,6.37a38.09,38.09,0,0,1,.49,6.38,22.58,22.58,0,0,1-1.24,6.43h-.31a22.34,22.34,0,0,1-1.59-6.35,37,37,0,0,1,.14-6.4c.07-2.13.17-4.27.29-6.4s.27-4.27.46-6.41Z"/><path class="cls-2" d="M241.28,373c.31,2.13.53,4.25.8,6.37s.46,4.25.65,6.38a38,38,0,0,1,.49,6.38,22.71,22.71,0,0,1-1.24,6.43h-.31a22.18,22.18,0,0,1-1.59-6.35,36.9,36.9,0,0,1,.14-6.39q.1-3.21.29-6.4c.16-2.14.27-4.27.46-6.41Z"/><path class="cls-2" d="M234.38,373.74c.15,2.14.22,4.28.33,6.41s.15,4.27.18,6.4a37,37,0,0,1,0,6.4,22.3,22.3,0,0,1-1.71,6.31h-.31a22.6,22.6,0,0,1-1.12-6.45,37.84,37.84,0,0,1,.61-6.36q.35-3.18.77-6.36c.31-2.12.57-4.24.92-6.35Z"/><path class="cls-2" d="M226.57,372.88c.25,2.13.42,4.26.63,6.39s.34,4.26.47,6.39a37.05,37.05,0,0,1,.31,6.4,22.26,22.26,0,0,1-1.41,6.39h-.31a22.62,22.62,0,0,1-1.42-6.39,37.06,37.06,0,0,1,.32-6.4q.19-3.2.47-6.39c.21-2.13.38-4.26.63-6.39Z"/><path class="cls-2" d="M218.83,373.4c.29,2.13.5,4.25.74,6.38s.42,4.26.59,6.38a37.09,37.09,0,0,1,.42,6.39,22.36,22.36,0,0,1-1.3,6.42H219a22.26,22.26,0,0,1-1.53-6.36,38.05,38.05,0,0,1,.21-6.4c.09-2.13.21-4.27.35-6.4s.31-4.27.52-6.4Z"/><path class="cls-2" d="M210,372.81c.29,2.13.49,4.25.74,6.38s.41,4.25.58,6.38a37,37,0,0,1,.43,6.39,22.57,22.57,0,0,1-1.3,6.41h-.32a22.64,22.64,0,0,1-1.52-6.37,36.94,36.94,0,0,1,.2-6.39q.14-3.21.36-6.4c.17-2.14.3-4.27.51-6.4Z"/><path class="cls-2" d="M203.05,373.45c.13,2.14.18,4.27.27,6.41s.1,4.27.12,6.4a37.86,37.86,0,0,1-.05,6.39,22.45,22.45,0,0,1-1.76,6.29h-.32a22.59,22.59,0,0,1-1.05-6.46,36.9,36.9,0,0,1,.67-6.35c.25-2.12.52-4.23.82-6.35s.62-4.23,1-6.34Z"/><path class="cls-2" d="M195.11,372.55c0,2.13,0,4.26,0,6.39s-.09,4.25-.17,6.37a36.51,36.51,0,0,1-.34,6.36,21.91,21.91,0,0,1-2,6.18l-.31,0a22.31,22.31,0,0,1-.76-6.47,37.36,37.36,0,0,1,1-6.29c.34-2.1.72-4.19,1.11-6.28s.81-4.18,1.27-6.26Z"/><path class="cls-2" d="M121.13,365.31c-.2,2.09-.47,4.16-.71,6.24s-.54,4.15-.86,6.21a34.53,34.53,0,0,1-1,6.17,25.21,25.21,0,0,1-1.11,3,15.8,15.8,0,0,1-1.59,2.85l-.3-.06a15.88,15.88,0,0,1-.27-3.26,27.46,27.46,0,0,1,.2-3.15,36.7,36.7,0,0,1,1.63-6q.86-3,1.78-6c.64-2,1.25-4,1.93-6Z"/><path class="cls-2" d="M136.65,368.27c0,2.13-.08,4.25-.12,6.38s-.16,4.24-.28,6.35a36.2,36.2,0,0,1-.44,6.34,22.16,22.16,0,0,1-2.15,6.14l-.31,0a22.15,22.15,0,0,1-.65-6.47,36.24,36.24,0,0,1,1.06-6.26c.37-2.09.78-4.17,1.21-6.25s.87-4.16,1.37-6.23Z"/><path class="cls-2" d="M130.28,366.91c-.23,2.08-.55,4.14-.82,6.2s-.61,4.12-1,6.17a36.15,36.15,0,0,1-1.12,6.13,24.36,24.36,0,0,1-1.17,2.92,15.81,15.81,0,0,1-1.63,2.82l-.31-.08a16.28,16.28,0,0,1-.21-3.24,27.13,27.13,0,0,1,.26-3.14,35.83,35.83,0,0,1,1.73-6c.61-2,1.23-4,1.89-5.95s1.31-4,2-5.92Z"/><path class="cls-2" d="M145.5,369.51c0,2.13-.09,4.25-.13,6.37s-.16,4.24-.28,6.36a37.19,37.19,0,0,1-.43,6.34,22.19,22.19,0,0,1-2.16,6.14l-.31,0a22.15,22.15,0,0,1-.65-6.47A36.08,36.08,0,0,1,142.6,382q.57-3.13,1.21-6.25c.46-2.08.88-4.16,1.38-6.23Z"/><path class="cls-2" d="M152.27,369.66c.16,2.13.23,4.27.35,6.4s.15,4.27.18,6.41a35.89,35.89,0,0,1,0,6.39,22.22,22.22,0,0,1-1.69,6.32l-.31,0a22.15,22.15,0,0,1-1.13-6.44,37,37,0,0,1,.59-6.37q.35-3.18.76-6.35c.3-2.12.56-4.24.91-6.36Z"/><path class="cls-2" d="M160.23,370.38c.25,2.13.42,4.26.63,6.39s.35,4.26.48,6.4a37,37,0,0,1,.32,6.39,22.58,22.58,0,0,1-1.4,6.39h-.32a23,23,0,0,1-1.42-6.39,38,38,0,0,1,.31-6.39q.19-3.19.46-6.4c.21-2.13.37-4.26.62-6.39Z"/><path class="cls-2" d="M187,373.57c0,2.13,0,4.26,0,6.39s-.07,4.25-.14,6.38a36.5,36.5,0,0,1-.31,6.36,21.89,21.89,0,0,1-2,6.19l-.31,0a22,22,0,0,1-.79-6.47,36.56,36.56,0,0,1,.93-6.3q.5-3.15,1.08-6.28c.42-2.09.79-4.19,1.24-6.27Z"/><path class="cls-2" d="M177.78,372.9c.11,2.14.13,4.27.19,6.4s.05,4.27,0,6.4a37.72,37.72,0,0,1-.12,6.38,22.46,22.46,0,0,1-1.85,6.27l-.31,0a22.52,22.52,0,0,1-1-6.46,37.7,37.7,0,0,1,.75-6.34q.42-3.18.91-6.33c.35-2.11.66-4.22,1.06-6.32Z"/><path class="cls-2" d="M169,372.63c.11,2.14.13,4.27.2,6.4s0,4.27,0,6.4a37.72,37.72,0,0,1-.12,6.38,22.46,22.46,0,0,1-1.85,6.27l-.31,0a22.16,22.16,0,0,1-1-6.46,36.68,36.68,0,0,1,.74-6.34q.42-3.17.91-6.33c.36-2.11.67-4.22,1.06-6.32Z"/><path class="cls-2" d="M67.74,349.49c-.24,2.08-.55,4.13-.82,6.2s-.62,4.12-1,6.16A36,36,0,0,1,64.82,368a24.36,24.36,0,0,1-1.17,2.92A16,16,0,0,1,62,373.71l-.31-.07a16.38,16.38,0,0,1-.21-3.25,24.93,24.93,0,0,1,.27-3.13,36.11,36.11,0,0,1,1.73-6q.91-3,1.89-5.95c.68-2,1.32-3.95,2-5.91Z"/><path class="cls-2" d="M75.52,351.14c-.08,2.12-.25,4.23-.36,6.34s-.32,4.21-.52,6.31a35.59,35.59,0,0,1-.67,6.28,21.74,21.74,0,0,1-2.37,6l-.31,0a21.8,21.8,0,0,1-.42-6.45,36.61,36.61,0,0,1,1.29-6.19q.69-3.09,1.45-6.16c.53-2.05,1-4.1,1.6-6.14Z"/><path class="cls-2" d="M82,355.53c0,2.14,0,4.26-.07,6.39s-.12,4.24-.22,6.36a37.36,37.36,0,0,1-.38,6.35,22.64,22.64,0,0,1-2.1,6.17l-.31,0a21.89,21.89,0,0,1-.71-6.47,36.34,36.34,0,0,1,1-6.28q.54-3.13,1.16-6.26c.44-2.09.84-4.17,1.32-6.25Z"/><path class="cls-2" d="M89.55,358.45c-.08,2.12-.25,4.22-.36,6.33s-.32,4.22-.52,6.31a35.71,35.71,0,0,1-.67,6.29,21.87,21.87,0,0,1-2.37,6l-.31,0a22.19,22.19,0,0,1-.42-6.46,36.5,36.5,0,0,1,1.29-6.18q.69-3.09,1.45-6.17c.53-2.05,1-4.1,1.6-6.14Z"/><path class="cls-2" d="M96.62,358.49c-.08,2.11-.24,4.22-.36,6.33s-.32,4.21-.51,6.31a36.78,36.78,0,0,1-.67,6.29,21.84,21.84,0,0,1-2.38,6l-.31,0a21.88,21.88,0,0,1-.41-6.46,36.61,36.61,0,0,1,1.29-6.19q.67-3.09,1.44-6.16c.54-2.05,1-4.1,1.6-6.14Z"/><path class="cls-2" d="M105.49,361c-.19,2.09-.47,4.16-.7,6.24s-.55,4.14-.86,6.21a36.59,36.59,0,0,1-1,6.17,23.48,23.48,0,0,1-1.12,2.95,15.82,15.82,0,0,1-1.58,2.86l-.31-.07a16.52,16.52,0,0,1-.27-3.25,25.12,25.12,0,0,1,.21-3.15,35.2,35.2,0,0,1,1.62-6c.57-2,1.16-4,1.78-6s1.25-4,1.94-6Z"/><path class="cls-2" d="M113.33,364.47c-.23,2.08-.54,4.13-.81,6.2s-.62,4.12-1,6.17a35.19,35.19,0,0,1-1.12,6.13,25.69,25.69,0,0,1-1.16,2.92,15.8,15.8,0,0,1-1.64,2.81l-.3-.07a15.66,15.66,0,0,1-.21-3.25,23.18,23.18,0,0,1,.26-3.13,35.27,35.27,0,0,1,1.73-6q.9-3,1.88-5.95c.68-2,1.32-3.95,2-5.91Z"/><path class="cls-2" d="M27.89,323.89c-.65,1.84-1.38,3.64-2.07,5.46s-1.44,3.6-2.2,5.38A30.69,30.69,0,0,1,21.28,340a21.73,21.73,0,0,1-1.72,2.38,14.17,14.17,0,0,1-2.16,2.15l-.28-.14a13.92,13.92,0,0,1,.47-3,21.73,21.73,0,0,1,.89-2.8,31.53,31.53,0,0,1,2.9-5c1-1.66,2-3.31,3-4.95s2.09-3.28,3.19-4.89Z"/><path class="cls-2" d="M23.37,315c-.85,1.65-1.76,3.25-2.64,4.88s-1.82,3.21-2.76,4.79a28.28,28.28,0,0,1-2.9,4.7,19.25,19.25,0,0,1-2,2,12.67,12.67,0,0,1-2.36,1.72l-.25-.18a13,13,0,0,1,.79-2.8,20.22,20.22,0,0,1,1.2-2.53,27.84,27.84,0,0,1,3.41-4.34c1.16-1.43,2.33-2.85,3.54-4.25s2.41-2.8,3.66-4.16Z"/><path class="cls-2" d="M35.43,330.63c-.65,1.84-1.38,3.64-2.06,5.46s-1.45,3.6-2.21,5.38a30.69,30.69,0,0,1-2.34,5.31,21.73,21.73,0,0,1-1.72,2.38,13.73,13.73,0,0,1-2.16,2.15l-.28-.14a14.56,14.56,0,0,1,.47-3,21.73,21.73,0,0,1,.89-2.8,31.53,31.53,0,0,1,2.9-5q1.48-2.49,3-4.95c1.06-1.63,2.08-3.28,3.18-4.89Z"/><path class="cls-2" d="M42.51,335.53c-.51,1.94-1.1,3.84-1.65,5.77s-1.17,3.82-1.79,5.71a33.41,33.41,0,0,1-1.93,5.66,24.61,24.61,0,0,1-1.55,2.59,14.39,14.39,0,0,1-2,2.41l-.29-.11a14.47,14.47,0,0,1,.23-3.12,23.86,23.86,0,0,1,.68-2.95,33.7,33.7,0,0,1,2.52-5.42q1.3-2.69,2.67-5.36c.94-1.76,1.83-3.55,2.81-5.3Z"/><path class="cls-2" d="M49.86,340.77c-.42,2-.92,4-1.37,5.94s-1,3.93-1.53,5.88a33.38,33.38,0,0,1-1.68,5.84,23.36,23.36,0,0,1-1.42,2.71A15.56,15.56,0,0,1,42,363.7l-.3-.1a15.24,15.24,0,0,1,.09-3.18,22.83,22.83,0,0,1,.55-3,33.37,33.37,0,0,1,2.26-5.64c.79-1.86,1.59-3.72,2.42-5.58s1.67-3.7,2.57-5.52Z"/><path class="cls-2" d="M58.48,344.83c-.23,2.08-.55,4.14-.82,6.2s-.62,4.12-1,6.17a35.86,35.86,0,0,1-1.12,6.12,24.36,24.36,0,0,1-1.17,2.92,15.46,15.46,0,0,1-1.64,2.81l-.3-.07a15.57,15.57,0,0,1-.21-3.24,27,27,0,0,1,.26-3.14,35.2,35.2,0,0,1,1.74-6q.9-3,1.89-5.95c.68-2,1.32-3.95,2-5.91Z"/><path class="cls-2" d="M18.28,297.76c-1.53-.27-3-.61-4.54-.91s-3-.68-4.49-1.06a19.76,19.76,0,0,1-4.43-1.21,13.27,13.27,0,0,1-2-1.19A9.73,9.73,0,0,1,1,291.75l.1-.3a9.59,9.59,0,0,1,2.48-.14,13.5,13.5,0,0,1,2.32.31,19.16,19.16,0,0,1,4.23,1.8q2.1.93,4.18,1.94c1.37.7,2.76,1.36,4.12,2.1Z"/><path class="cls-2" d="M19,307.8c-1.49.82-3,1.56-4.51,2.34s-3,1.49-4.57,2.2a23,23,0,0,1-4.63,2,16.11,16.11,0,0,1-2.53.44,11,11,0,0,1-2.69,0l-.11-.3a11.15,11.15,0,0,1,2-1.76,16.56,16.56,0,0,1,2.2-1.31A23.62,23.62,0,0,1,9.09,310q2.43-.69,4.89-1.31c1.65-.38,3.29-.81,4.95-1.16Z"/><path class="cls-2" d="M383.73,295.6c1.36-.73,2.75-1.39,4.12-2.09s2.78-1.32,4.18-1.95a19.16,19.16,0,0,1,4.23-1.8,14.57,14.57,0,0,1,2.32-.31,10.06,10.06,0,0,1,2.48.14l.1.3a9.8,9.8,0,0,1-1.86,1.65,14.15,14.15,0,0,1-2,1.19,19.17,19.17,0,0,1-4.44,1.2c-1.48.38-3,.73-4.48,1.06s-3,.65-4.54.91Z"/><path class="cls-2" d="M383.17,305.65c1.67.35,3.3.78,5,1.17s3.27.84,4.89,1.31a23,23,0,0,1,4.85,1.45,17.71,17.71,0,0,1,2.2,1.31,11.16,11.16,0,0,1,2,1.77L402,313a11.64,11.64,0,0,1-2.7,0,17.46,17.46,0,0,1-2.52-.44,23.58,23.58,0,0,1-4.63-2q-2.29-1.07-4.57-2.19c-1.5-.78-3-1.52-4.51-2.34Z"/></g><g id="mesa"><path class="cls-3" d="M123.74,238.05l2,74.19c0,6.51,13.54,7.34,21.52,6.51l33.25-6.51c2-.21,27.65-7.05,29.34-7.81l17.6-6.51c3.66-1.66,9.67-8.77,9.79-11.71V239.35"/><path class="cls-3" d="M256.75,238.05l-2,74.19c0,6.51-13.54,7.34-21.52,6.51,0,0-32.35-7.75-43-10.42-15.65-3.9-37.16-13-37.16-13-3.66-1.66-7.71-6.17-7.83-9.11V239.35"/><path class="cls-4" d="M285.64,219.24c.45,20.11-42.48,23.43-94.87,23.43S95.9,240.08,95.9,219.24c0-11.06-1.5-18.93,96.83-19.52C257.27,199.33,285.22,200.24,285.64,219.24Z"/><path class="cls-5" d="M286.09,214c2.93,18.22-42.48,23.42-94.87,23.42S96.35,234.81,96.35,214c0-11.07,32.28-19.53,96.82-19.53S284.82,206.11,286.09,214Z"/></g><g id="banderin"><path class="cls-6" d="M261.49,67.56s-2.6,36.44,0,49.45c1.76,8.81,28.06,22.45,28.06,22.45a6.87,6.87,0,0,0,8.81-.18S322.12,124,324,115.71c2.61-11.71,0-48.15,0-48.15Z"/><rect class="cls-7" x="253.68" y="64.95" width="76.79" height="2.6"/><path class="cls-8" d="M257.59,72.76V65l34.65-33.39a1.56,1.56,0,0,1,2.22.06L325.73,65l.19,5.86"/><circle class="cls-9" cx="293.38" cy="30.46" r="1.3"/><path class="cls-10" d="M273.26,75.36h37.27a.5.5,0,0,1,.38.81l-14.6,17.51a3.93,3.93,0,0,1-5.67.24L272.92,76.2A.49.49,0,0,1,273.26,75.36Z"/><path class="cls-11" d="M272.17,86.87a55.19,55.19,0,0,1,5.8,4.56c.92.81,1.81,1.64,2.69,2.49a33.3,33.3,0,0,1,2.54,2.64c1.62,1.84,3.05,3.86,4.72,5.64.83.89,1.71,1.74,2.6,2.57.45.42.91.82,1.38,1.22a2.15,2.15,0,0,0,1.26.73,1.49,1.49,0,0,0,1.13-.33c.18-.16.62-.79,1-1.24.76-1,1.55-1.89,2.34-2.82,1.57-1.87,3.17-3.72,4.83-5.51a102.44,102.44,0,0,1,10.83-9.95l.19.18a102.33,102.33,0,0,1-9,11.64c-1.64,1.81-3.34,3.56-5.07,5.29-.86.87-1.72,1.74-2.61,2.58l-.67.62a3.8,3.8,0,0,1-.93.71,3.08,3.08,0,0,1-2.39.2,2.83,2.83,0,0,1-1-.58,9.75,9.75,0,0,1-.67-.74c-.39-.47-.8-.93-1.22-1.38-.83-.89-1.68-1.77-2.57-2.6-1.78-1.67-3.8-3.1-5.65-4.71-.92-.81-1.8-1.65-2.64-2.54s-1.68-1.77-2.48-2.69a54,54,0,0,1-4.57-5.8Z"/><path class="cls-12" d="M269.6,100.14a.49.49,0,0,1,.8-.33l22.29,17.54a2.21,2.21,0,0,0,3.08-.06L315,96.94a.49.49,0,0,1,.85.27l1.42,10.26a.49.49,0,0,1-.74.49l-3.48-2.09a.49.49,0,0,0-.75.42v9a.49.49,0,0,1-.75.42l-3.74-2.24a.49.49,0,0,0-.74.34l-1.47,9.28a.5.5,0,0,1-.77.33l-5.62-3.81a.5.5,0,0,0-.75.26L295.61,129a.5.5,0,0,1-.89.12l-5.94-9.37a.5.5,0,0,0-.75-.11l-5.56,5a.5.5,0,0,1-.83-.37v-8.72a.49.49,0,0,0-.77-.41l-5.4,3.65a.49.49,0,0,1-.77-.33l-1.44-9.09a.49.49,0,0,0-.82-.29L269,112.22a.5.5,0,0,1-.83-.43Z"/></g><g id="plantas"><path class="cls-13" d="M153.47,193.15c-.4,3.94-.65,6.51-12.37,5.86-7.82-.44-11.71-.65-12.36-5.86-.81-6.49,5.53-5.86,12.36-5.86S154.12,186.64,153.47,193.15Z"/><path class="cls-13" d="M153.76,203.13c-.42,4.16-.7,6.87-13.13,6.18-8.3-.46-12.43-.68-13.12-6.18-.86-6.85,5.88-6.18,13.12-6.18S154.45,196.26,153.76,203.13Z"/><path class="cls-13" d="M156,214.58c-.49,4.33-.82,7.16-15.54,6.44-9.84-.48-14.73-.71-15.55-6.44-1-7.14,7-6.44,15.55-6.44S156.83,207.42,156,214.58Z"/><path class="cls-14" d="M146.31,197a5.76,5.76,0,0,1,1.84-.35,4.92,4.92,0,0,0,.94,0,2.42,2.42,0,0,0,.86-.32,6.29,6.29,0,0,0,1.37-1.06,2.86,2.86,0,0,0,.81-1.49h.07a1.88,1.88,0,0,1-.36,2,3.07,3.07,0,0,1-1.76.93,7.27,7.27,0,0,0-1,.2c-.3.07-.6.25-.91.32a3.66,3.66,0,0,1-1.91-.12Z"/><path class="cls-14" d="M143.71,207.42a5.3,5.3,0,0,1,2.35-.44,8,8,0,0,0,1.19.14,2.9,2.9,0,0,0,1.15-.28c.37-.15.72-.32,1.08-.44s.69-.29,1-.45c.65-.29,1.3-.52,1.58-1.26l.09,0A1.31,1.31,0,0,1,152,206a2.87,2.87,0,0,1-1,.88,5,5,0,0,1-2.45.48,5.4,5.4,0,0,0-1.21.07c-.39.08-.78.27-1.18.35a4.42,4.42,0,0,1-2.4-.27Z"/><path class="cls-14" d="M143.71,220.42a6.48,6.48,0,0,1,1.71-.49,8.88,8.88,0,0,1,1.7-.15,10.24,10.24,0,0,0,1.74.11,4.09,4.09,0,0,0,1.63-.51c.27-.11.5-.28.75-.41s.5-.23.72-.39.45-.28.66-.43.41-.3.59-.46a3.55,3.55,0,0,0,1.45-2.58l.12,0a2.45,2.45,0,0,1,.37,1.9,3.6,3.6,0,0,1-1,1.75,4.85,4.85,0,0,1-.79.58c-.28.16-.58.26-.87.39a5.91,5.91,0,0,1-1.79.38,11.14,11.14,0,0,0-1.76.23c-.57.14-1.12.44-1.7.56a6.54,6.54,0,0,1-3.52-.31Z"/><path class="cls-6" d="M148.91,180.14s0-10.42,7.81-16.92c4-3.34,18.46-11,23.21-13.53a.33.33,0,0,1,.41.51c-3.18,3.73-12.26,14.47-14.51,18.22C158,181.44,148.91,180.14,148.91,180.14Z"/><path class="cls-6" d="M118.58,186.43a.47.47,0,0,1-.55-.64c.89-2,3.21-7.17,4.85-8.26,2.17-1.43,9.11-1.3,9.11-1.3s-4.77,6.66-6.51,7.81C124,185,120.29,186,118.58,186.43Z"/><path class="cls-6" d="M116.37,152.8s.83,9.3,2.61,11.72c1.55,2.11,9.11,5.2,9.11,5.2s-1.1-8.19-2.61-10.41-9.11-6.51-9.11-6.51"/><path class="cls-6" d="M133.32,163.74a16.44,16.44,0,0,1-7.67-10.5c-.78-3.35-1.59-12.18-1.9-15.74a.49.49,0,0,1,.86-.36c1.86,2.23,5.78,7.07,6.68,9.34,1.59,4.06,2,17.26,2,17.26"/><path class="cls-6" d="M134.94,121.42a.28.28,0,0,0-.55,0c-.68,3.9-2.73,16.29-2.4,20.94.29,4.06,4.34,13.41,5.9,16.89a.4.4,0,0,0,.77-.12c.39-3.59,1.33-12.85,1.14-16.77C139.57,137.63,136.06,125.27,134.94,121.42Z"/><path class="cls-6" d="M146.31,167.12s4.83-12.18,13-18.22c3.76-2.77,14.78-7.28,22.36-8.2.36,0,.6.34.31.57-3.81,3.1-14.67,12-17.57,15.29C154.38,167.94,146.31,167.12,146.31,167.12Z"/><path class="cls-6" d="M146.31,155.41s-6.21-12.21-2.6-18.22c9.58-16,27-25,33-27.73a1.09,1.09,0,0,1,1.49,1.32,98.84,98.84,0,0,1-12.4,25.1C153.82,153.91,146.31,155.41,146.31,155.41Z"/><path class="cls-15" d="M119.68,157.32c2,2.36,4,4.77,5.89,7.32s3.54,5.18,5.16,7.88a65.08,65.08,0,0,1,4.37,8.36,45.4,45.4,0,0,1,2.81,9l-.12,0q-1.87-4.31-3.88-8.5c-1.36-2.8-2.61-5.64-4.09-8.38s-3-5.43-4.79-8-3.54-5.13-5.45-7.61Z"/><path class="cls-15" d="M125.54,139.75a40.44,40.44,0,0,1,5.39,12.09c1.25,4.26,1.89,8.64,3.3,12.8,1.24,4.26,2.39,8.53,3.3,12.85s1.68,8.67,2.33,13l-.12,0c-1.42-4.2-2.42-8.5-3.49-12.78s-1.85-8.62-3-12.87c-.28-1-.61-2.12-.85-3.21s-.47-2.17-.69-3.25c-.43-2.17-.87-4.32-1.4-6.45a39.9,39.9,0,0,0-4.91-12.17Z"/><path class="cls-15" d="M144.94,190.55c.38-4.39,2.41-8.39,4.62-12.11l.86-1.39c.3-.46.63-.9.94-1.34.63-.89,1.23-1.8,1.93-2.64l2-2.55,2.16-2.45c.71-.83,1.48-1.6,2.24-2.38l2.28-2.34c1.6-1.48,3.2-3,4.87-4.35s3.42-2.7,5.19-3.95,3.6-2.45,5.44-3.6l.07.11c-1.62,1.45-3.28,2.83-5,4.2l-4.9,4.23c-.84.69-1.61,1.44-2.41,2.16l-2.43,2.13-2.34,2.23c-.78.74-1.57,1.48-2.29,2.27L156,171.14,154,173.6c-.72.8-1.33,1.69-2,2.54-.32.44-.66.86-1,1.3l-.89,1.35c-2.32,3.57-4.5,7.47-5,11.76Z"/><path class="cls-15" d="M141,190.55c-.11-5.34-.56-10.67-1.13-16S138.69,164,138,158.67s-1.54-10.58-2.12-15.89-1.11-10.64-1.33-16h.13c1,5.27,1.71,10.56,2.49,15.84s1.29,10.61,1.86,15.93c1.15,10.63,2.26,21.3,2.16,32Z"/><path class="cls-15" d="M142.34,190.54l.8-7.57.39-3.78c.12-1.26.2-2.53.33-3.8a20.31,20.31,0,0,1,2-7.44,27,27,0,0,1,4.5-6.28,73.43,73.43,0,0,1,11.62-10,142,142,0,0,1,12.95-8.07l.07.11c-4.08,3-8.24,5.94-12.26,9a104.61,104.61,0,0,0-11.61,9.65,26.36,26.36,0,0,0-4.5,5.94,19.91,19.91,0,0,0-2.08,7.13l-.44,3.78-.53,3.77-1.09,7.54Z"/><path class="cls-15" d="M142.34,190.55c0-3.6-.06-7.19,0-10.79s.2-7.19.59-10.78a46.38,46.38,0,0,1,.87-5.36c.39-1.77.92-3.5,1.36-5.22a52.19,52.19,0,0,0,1-5.24l.71-5.34a27.74,27.74,0,0,1,3.35-10.4,43.24,43.24,0,0,1,6.67-8.63A119,119,0,0,1,173.6,115l.08.1a198.56,198.56,0,0,0-15.79,14.57,49.72,49.72,0,0,0-6.49,8.38A26.66,26.66,0,0,0,148,148l-.8,5.33a53.25,53.25,0,0,1-1.16,5.3c-.48,1.75-1,3.45-1.45,5.18a44.75,44.75,0,0,0-1,5.27c-.47,3.54-.69,7.13-.85,10.72s-.22,7.18-.28,10.77Z"/></g><g id="Capa_8" data-name="Capa 8"><circle class="cls-16" cx="80.7" cy="75.38" r="25.9"/><ellipse class="cls-17" cx="100.84" cy="44.94" rx="10.22" ry="9.65"/><ellipse class="cls-18" cx="113.79" cy="60.46" rx="9.55" ry="9.65"/><ellipse class="cls-18" cx="116.97" cy="81.18" rx="9.55" ry="9.65"/><ellipse class="cls-17" cx="92.14" cy="40.54" rx="10.22" ry="9.65"/><ellipse class="cls-17" cx="108.88" cy="51.69" rx="10.22" ry="9.65"/><ellipse class="cls-19" cx="116.97" cy="70.46" rx="9.55" ry="10.09"/><ellipse class="cls-20" cx="80.7" cy="39.12" rx="9.96" ry="9.56"/><ellipse class="cls-17" cx="60.92" cy="45" rx="10.22" ry="9.65"/><ellipse class="cls-17" cx="69.62" cy="40.6" rx="10.22" ry="9.65"/><ellipse class="cls-17" cx="52.88" cy="51.76" rx="10.22" ry="9.65"/><ellipse class="cls-20" cx="47.31" cy="90.26" rx="9.56" ry="9.96" transform="translate(-32.88 27.37) rotate(-24.23)"/><ellipse class="cls-17" cx="44.09" cy="69.71" rx="9.65" ry="10.22" transform="translate(-24.73 24.24) rotate(-24.23)"/><ellipse class="cls-17" cx="44.44" cy="80.24" rx="10.22" ry="9.65" transform="translate(-39.63 116.93) rotate(-84.6)"/><ellipse class="cls-17" cx="46.95" cy="59.61" rx="9.65" ry="10.22" transform="translate(-20.33 24.52) rotate(-24.23)"/><ellipse class="cls-21" cx="108.92" cy="98.92" rx="10" ry="9.8" transform="translate(-32.86 138.26) rotate(-57.75)"/><ellipse class="cls-17" cx="114.24" cy="90.8" rx="9.65" ry="10.22" transform="translate(-23.51 138.97) rotate(-57.75)"/><ellipse class="cls-17" cx="91.2" cy="110.88" rx="9.65" ry="10.22" transform="translate(-41.34 55.69) rotate(-27.96)"/><ellipse class="cls-17" cx="100.26" cy="106.45" rx="9.65" ry="10.22" transform="translate(-39.79 64.39) rotate(-30)"/><ellipse class="cls-22" cx="60.42" cy="105.94" rx="9.75" ry="10.32" transform="translate(-61.23 114.51) rotate(-64.33)"/><ellipse class="cls-23" cx="70.81" cy="110.53" rx="9.73" ry="9.9" transform="translate(-59.48 126.48) rotate(-64.33)"/><ellipse class="cls-17" cx="80.99" cy="112.25" rx="10.22" ry="9.65"/><ellipse class="cls-17" cx="53.1" cy="99.5" rx="10.22" ry="9.65"/></g><g id="Capa_6" data-name="Capa 6"><path class="cls-24" d="M326.19,326.62c0,1.69-6.84,3.06-15.27,3.06s-15.27-1.37-15.27-3.06-.55-4.05,1.35-5.09c.85-.46,8.33-2,13.58-2,5.45-.08,13.29,1.52,14.25,2C326.75,322.56,326.19,324.87,326.19,326.62Z"/><path class="cls-25" d="M326.19,282.16c0,1.36-6.5,1.36-14.93,1.36s-15.61,0-15.61-1.36c0-.74,6.83-1.35,15.27-1.35S326.19,281.42,326.19,282.16Z"/><path class="cls-26" d="M294,289.9c0-.75,7.44-1.36,16.63-1.36s16.63.61,16.63,1.36"/><path class="cls-26" d="M327.21,289.9c0,1.36-7.45,2.45-16.63,2.45S294,291.26,294,289.9"/><path class="cls-26" d="M296.32,285.56l-2.71-.68s-2.72-31.22,18.33-29.86,16.28,29.86,16.28,29.86l-3.39.68"/><path class="cls-26" d="M319.4,283.52l.45,8.41s9,15.35,2.27,32.32"/><path class="cls-26" d="M323.47,283.52l.68,7.47c2.72,2,14.26,17,1.36,31.9"/><path class="cls-26" d="M326.19,324.25c22.4-12.9,1-33.84,1-33.84l-1-8.25"/><path class="cls-26" d="M302.41,283.45l-.45,8.41s-11.73,12.77-2.24,32.39"/><path class="cls-26" d="M298.34,283.45l-.68,7.47c-2.71,2-19,17.72-.66,31.29"/><path class="cls-26" d="M295.63,281.42l-1,8.24s-23.38,19.72,1.71,33.91"/><path class="cls-26" d="M302.15,280.72l-.2,8.83s-3.59,10.94-.2,31.3"/><path class="cls-26" d="M308,280.39l-.2,8.83s-3.37,10.59,0,30.95"/><path class="cls-26" d="M314,280.81l.56,8.41s3.51,10.59.12,30.95"/><path class="cls-26" d="M318.72,280.81l.68,8.14s6.11,8.83.68,31.9"/><path class="cls-27" d="M326.25,326.72c0,1.69-6.84,3.06-15.28,3.06s-15.27-1.37-15.27-3.06-.55-4.05,1.36-5.09c.85-.46-3.79,3,13.86,3,17,0,13-3.47,14-3C326.81,322.66,326.25,325,326.25,326.72Z"/><path class="cls-26" d="M314,283.52l.2,8.83s2.52,10.18,1.84,32.58"/><path class="cls-26" d="M307.84,283.45l-.2,8.83s-4.51,9-1.81,33.32"/><path class="cls-28" d="M242.33,222.66V214.3a8,8,0,0,1,1-3.85c.64-1.29,9-1.29,10.29,0s.83,3.11,1,3.85v8.36C254.55,226,242.33,226,242.33,222.66Z"/><path class="cls-29" d="M243.3,210.45c.32,2.25,10,2.25,10.29,0"/><path class="cls-30" d="M247.8,211.73c-.21-.24,0-.92,0-1.28,0-.58.71-2,1.28-1.93.36,0-.08,1.58,0,1.93s.25,1.07,0,1.28A1.27,1.27,0,0,1,247.8,211.73Z"/><path class="cls-28" d="M224.11,216.61V205.44a12.3,12.3,0,0,1,1.1-5.16c.74-1.71,10.28-1.71,11.75,0s1,4.17,1.1,5.16v11.17C238.06,221.1,224.11,221.1,224.11,216.61Z"/><path class="cls-31" d="M225.21,200.28c.37,3,11.39,3,11.75,0"/><path class="cls-30" d="M230.35,202c-.23-.33,0-1.24,0-1.72,0-.77.81-2.62,1.47-2.57.41,0-.09,2.11,0,2.57.13.63.28,1.44,0,1.72A1.28,1.28,0,0,1,230.35,202Z"/></g><g id="Capa_7" data-name="Capa 7"><path class="cls-32" d="M202.76,173.58c0,1-1.58,1.51-3.17,1.51s-3.11-.51-3.11-1.51c0-.71,1.51-1.42,3.11-1.42S202.76,172.87,202.76,173.58Z"/><line class="cls-33" x1="191.6" y1="148.78" x2="199.27" y2="182.08"/><line class="cls-33" x1="200.67" y1="177.12" x2="203.46" y2="160.82"/><line class="cls-33" x1="199.27" y1="173.58" x2="196.48" y2="150.9"/><line class="cls-33" x1="199.27" y1="176.41" x2="201.36" y2="145.23"/><line class="cls-33" x1="200.67" y1="177.12" x2="202.76" y2="154.44"/><path class="cls-34" d="M196.22,173.39a.24.24,0,0,1,.36-.22,6.89,6.89,0,0,0,3.49.73,4.53,4.53,0,0,0,2.51-.7.24.24,0,0,1,.37.21v11.11a.23.23,0,0,0,.11.2l1.6,1.09a9,9,0,0,1,3.91,7.71l-.44,13.93a2.12,2.12,0,0,1-2,2.62H191.31a1.42,1.42,0,0,1-1.35-1.79l.41-17.37a5.5,5.5,0,0,1,3-4.81l2.71-1.38a.24.24,0,0,0,.14-.22Z"/></g></g></svg>