<svg xmlns="http://www.w3.org/2000/svg" viewBox="0 0 400.45 400.58"><defs><style>.cls-1,.cls-2,.cls-3,.cls-4,.cls-5,.cls-6,.cls-7,.cls-8,.cls-9{fill:#ede6e2;stroke:#f4f2ed;}.cls-1,.cls-14,.cls-2,.cls-3,.cls-4,.cls-5,.cls-6,.cls-7,.cls-8,.cls-9{stroke-miterlimit:10;}.cls-1{stroke-width:0.46px;}.cls-2{stroke-width:0.46px;}.cls-3{stroke-width:0.46px;}.cls-4{stroke-width:0.46px;}.cls-5{stroke-width:0.46px;}.cls-6{stroke-width:0.46px;}.cls-7{stroke-width:0.46px;}.cls-8{stroke-width:0.46px;}.cls-9{stroke-width:0.45px;}.cls-10{fill:#b79b95;}.cls-11{fill:#e1d4cf;}.cls-12{fill:#434c57;}.cls-13,.cls-14{fill:#e2bfb0;}.cls-14{stroke:#755c46;stroke-width:0.25px;}.cls-15{fill:#473854;}.cls-16{fill:#892b3f;}.cls-17{fill:#8d9a8d;}</style></defs><title>Recurso 2</title><g id="Capa_2" data-name="Capa 2"><g id="Capa_4" data-name="Capa 4"><rect class="cls-1" x="181.92" y="181.99" width="400" height="36.6" transform="translate(181.63 582.21) rotate(-90)"/><rect class="cls-2" x="146.39" y="181.87" width="399.75" height="36.6" transform="translate(146.09 546.43) rotate(-90)"/><rect class="cls-3" x="109.39" y="181.87" width="399.75" height="36.6" transform="translate(109.09 509.43) rotate(-90)"/><rect class="cls-4" x="72.43" y="182.02" width="400.06" height="36.6" transform="translate(72.13 472.78) rotate(-90)"/><rect class="cls-5" x="35.89" y="181.89" width="399.81" height="36.6" transform="translate(35.6 435.99) rotate(-90)"/><rect class="cls-5" x="-0.11" y="181.89" width="399.81" height="36.6" transform="translate(-0.4 399.99) rotate(-90)"/><rect class="cls-6" x="-36.97" y="181.93" width="399.88" height="36.6" transform="translate(-37.26 363.2) rotate(-90)"/><rect class="cls-7" x="-73.5" y="181.81" width="399.63" height="36.6" transform="translate(-73.8 326.42) rotate(-90)"/><rect class="cls-8" x="-110.5" y="181.81" width="399.63" height="36.6" transform="translate(-110.8 289.42) rotate(-90)"/><rect class="cls-8" x="-146.66" y="181.74" width="399.63" height="36.6" transform="translate(-146.89 253.2) rotate(-90)"/><rect class="cls-9" x="-182.48" y="183.21" width="399.63" height="34.23" transform="translate(-182.98 217.66) rotate(-90)"/><path class="cls-10" d="M256.77,22.55a9.82,9.82,0,0,1,0-5.48c.31-.86.87-1.69,1.09-2.56a7.79,7.79,0,0,0,.19-2.72A14,14,0,0,1,258,9a17.58,17.58,0,0,1,.31-2.7,15.49,15.49,0,0,1,2.12-5.13l.26.05A15.19,15.19,0,0,1,261,6.8a17.39,17.39,0,0,1-.61,2.64,14.78,14.78,0,0,1-.95,2.58,7.83,7.83,0,0,0-.74,2.63c-.08.9.17,1.85.18,2.77a8.57,8.57,0,0,1-.54,2.65A9,9,0,0,1,257,22.61Z"/><path class="cls-10" d="M257.76,17.67a4.32,4.32,0,0,1,0-2,3.6,3.6,0,0,1,.74-1.61,14,14,0,0,0,1.38-1.29,3.27,3.27,0,0,0,.55-1.71,6.86,6.86,0,0,1,.36-1.79,7.83,7.83,0,0,1,.67-1.65A7.3,7.3,0,0,1,264.2,5l.22.11a7.08,7.08,0,0,1-.5,3.69,8.51,8.51,0,0,1-.95,1.51,6.6,6.6,0,0,1-1.29,1.35,3.4,3.4,0,0,0-1.06,1.45A14.73,14.73,0,0,0,260.4,15a3.72,3.72,0,0,1-.87,1.56,4.73,4.73,0,0,1-1.56,1.2Z"/><path class="cls-10" d="M257,3.66a4.29,4.29,0,0,1,1,1.69,3.63,3.63,0,0,1,.2,1.76,14.21,14.21,0,0,0-.52,1.8,3.48,3.48,0,0,0,.41,1.73,6.21,6.21,0,0,1,.67,1.73,7,7,0,0,1,.29,1.75,7.14,7.14,0,0,1-1,3.6l-.26,0a6.59,6.59,0,0,1-1.45-5.2,6.49,6.49,0,0,1,.37-1.79A3.37,3.37,0,0,0,256.85,9a15.41,15.41,0,0,0-.77-1.71A3.54,3.54,0,0,1,256,5.49a4.49,4.49,0,0,1,.73-1.85Z"/><path class="cls-10" d="M247.21,23.79a9.54,9.54,0,0,1-.39-2.81,8.42,8.42,0,0,1,.4-2.68c.31-.86.86-1.68,1.09-2.57a7.71,7.71,0,0,0,.18-2.71,14.76,14.76,0,0,1,0-2.74,18.76,18.76,0,0,1,.31-2.7,15.63,15.63,0,0,1,2.12-5.14l.25.05a15.15,15.15,0,0,1,.3,5.53,18.53,18.53,0,0,1-.62,2.65,14.11,14.11,0,0,1-.95,2.59,7.29,7.29,0,0,0-.74,2.62c-.08.9.17,1.86.18,2.77a10,10,0,0,1-1.83,5.19Z"/><path class="cls-10" d="M248.21,18.9a4.41,4.41,0,0,1,0-2,3.84,3.84,0,0,1,.75-1.61,13,13,0,0,0,1.38-1.3,3.42,3.42,0,0,0,.55-1.69,6.13,6.13,0,0,1,.36-1.8,8.12,8.12,0,0,1,.66-1.65,7.3,7.3,0,0,1,2.7-2.62l.23.11a7.08,7.08,0,0,1-.51,3.69,7.34,7.34,0,0,1-.94,1.51,6.35,6.35,0,0,1-1.29,1.35,3.43,3.43,0,0,0-1.06,1.46,14.31,14.31,0,0,0-.22,1.86,3.73,3.73,0,0,1-.86,1.54A4.7,4.7,0,0,1,248.41,19Z"/><path class="cls-10" d="M247.41,4.89a4.41,4.41,0,0,1,1,1.69,3.72,3.72,0,0,1,.19,1.75,14.32,14.32,0,0,0-.51,1.81,3.24,3.24,0,0,0,.41,1.74,6.61,6.61,0,0,1,.67,1.73,7.43,7.43,0,0,1,.28,1.75,7.09,7.09,0,0,1-1,3.59l-.24,0a7.18,7.18,0,0,1-1.48-3.43,8.05,8.05,0,0,1,0-1.77,6.13,6.13,0,0,1,.36-1.8,3.28,3.28,0,0,0,.16-1.78,13.83,13.83,0,0,0-.78-1.71,3.62,3.62,0,0,1-.05-1.76,4.44,4.44,0,0,1,.73-1.85Z"/><path class="cls-10" d="M239.28,24.78a9.77,9.77,0,0,1,0-5.49c.32-.87.87-1.68,1.1-2.57a7.71,7.71,0,0,0,.18-2.71,14.85,14.85,0,0,1,0-2.75,17.46,17.46,0,0,1,.31-2.69,15.25,15.25,0,0,1,2.12-5.14l.25,0A15,15,0,0,1,243.48,9a18.68,18.68,0,0,1-.61,2.64,14.81,14.81,0,0,1-1,2.58,8.07,8.07,0,0,0-.74,2.63c-.07.9.18,1.85.18,2.77a8.28,8.28,0,0,1-.53,2.65,9,9,0,0,1-1.31,2.54Z"/><path class="cls-10" d="M240.26,19.89a4.41,4.41,0,0,1,.05-2,3.78,3.78,0,0,1,.73-1.62A14,14,0,0,0,242.42,15a3.27,3.27,0,0,0,.55-1.71,7.31,7.31,0,0,1,.37-1.79A7.51,7.51,0,0,1,244,9.86a7.2,7.2,0,0,1,2.71-2.63l.22.1a7.1,7.1,0,0,1-.5,3.7,8.16,8.16,0,0,1-1,1.51,6.36,6.36,0,0,1-1.29,1.35,3.44,3.44,0,0,0-1.06,1.45,14.73,14.73,0,0,0-.22,1.86,3.62,3.62,0,0,1-.87,1.55A4.79,4.79,0,0,1,240.47,20Z"/><path class="cls-10" d="M239.48,5.88a4.29,4.29,0,0,1,1,1.69,3.6,3.6,0,0,1,.2,1.75,14.21,14.21,0,0,0-.52,1.8,3.55,3.55,0,0,0,.41,1.75,6.28,6.28,0,0,1,.67,1.73,6.89,6.89,0,0,1,.29,1.75,7.18,7.18,0,0,1-1,3.59l-.26,0a7.18,7.18,0,0,1-1.48-3.43,7.4,7.4,0,0,1,0-1.76,6.14,6.14,0,0,1,.37-1.8,3.47,3.47,0,0,0,.15-1.78,18.64,18.64,0,0,0-.77-1.71,3.5,3.5,0,0,1-.06-1.76,4.48,4.48,0,0,1,.73-1.86Z"/><path class="cls-10" d="M231.33,25.76a8.86,8.86,0,0,1-.39-2.8,8.42,8.42,0,0,1,.4-2.68c.31-.87.86-1.69,1.09-2.57a7.74,7.74,0,0,0,.18-2.71,14.85,14.85,0,0,1,0-2.75,20.46,20.46,0,0,1,.3-2.7A15.72,15.72,0,0,1,235,4.42l.25,0a15.48,15.48,0,0,1,.29,5.55,18.68,18.68,0,0,1-.61,2.64,14,14,0,0,1-1,2.58,7.5,7.5,0,0,0-.75,2.63c-.08.9.18,1.85.19,2.77a10,10,0,0,1-1.84,5.19Z"/><path class="cls-10" d="M232.33,20.88a4.18,4.18,0,0,1,0-2,3.84,3.84,0,0,1,.75-1.61A14,14,0,0,0,234.49,16a3.49,3.49,0,0,0,.55-1.71,6.13,6.13,0,0,1,.36-1.79,6.7,6.7,0,0,1,3.36-4.27l.23.11a7.19,7.19,0,0,1-.51,3.69,7.92,7.92,0,0,1-.94,1.51,6.6,6.6,0,0,1-1.29,1.35,3.4,3.4,0,0,0-1.06,1.45,14.73,14.73,0,0,0-.22,1.86,3.73,3.73,0,0,1-.87,1.55A4.42,4.42,0,0,1,232.53,21Z"/><path class="cls-10" d="M231.55,6.87a4.32,4.32,0,0,1,1,1.69,3.66,3.66,0,0,1,.2,1.76,12.73,12.73,0,0,0-.52,1.8,3.3,3.3,0,0,0,.42,1.74,6.72,6.72,0,0,1,.66,1.73,6.88,6.88,0,0,1,.28,1.75,7,7,0,0,1-1,3.59l-.25,0a7.1,7.1,0,0,1-1.47-3.44,6.91,6.91,0,0,1,0-1.76,6.13,6.13,0,0,1,.36-1.8,3.27,3.27,0,0,0,.15-1.78,12.44,12.44,0,0,0-.77-1.71,3.75,3.75,0,0,1-.06-1.76,4.54,4.54,0,0,1,.74-1.85Z"/><path class="cls-10" d="M220.91,26.28a8.38,8.38,0,0,1-.39-2.81,8.1,8.1,0,0,1,.39-2.68c.32-.86.87-1.69,1.1-2.56a7.55,7.55,0,0,0,.17-2.72,14.85,14.85,0,0,1,0-2.75,18.78,18.78,0,0,1,.31-2.69,15.54,15.54,0,0,1,2.12-5.14l.23,0a15.36,15.36,0,0,1,.29,5.53,18.72,18.72,0,0,1-.62,2.64,14.11,14.11,0,0,1-.95,2.59,7.78,7.78,0,0,0-.74,2.62c-.07.9.17,1.86.18,2.77a8.39,8.39,0,0,1-.53,2.66,9.09,9.09,0,0,1-1.31,2.53Z"/><path class="cls-10" d="M221.9,21.39a4.41,4.41,0,0,1,0-2,3.69,3.69,0,0,1,.73-1.61,13.13,13.13,0,0,0,1.39-1.3,3.46,3.46,0,0,0,.55-1.7A6.06,6.06,0,0,1,225,13a7.62,7.62,0,0,1,.67-1.65,7.3,7.3,0,0,1,2.7-2.62l.22.11a7,7,0,0,1-.51,3.69,7.45,7.45,0,0,1-.94,1.51,6.87,6.87,0,0,1-1.29,1.35,3.4,3.4,0,0,0-1.06,1.45,14.67,14.67,0,0,0-.22,1.87,3.73,3.73,0,0,1-.86,1.54,4.55,4.55,0,0,1-1.58,1.2Z"/><path class="cls-10" d="M221.11,7.37a4.52,4.52,0,0,1,1,1.71,3.6,3.6,0,0,1,.2,1.75,16.09,16.09,0,0,0-.52,1.8,3.29,3.29,0,0,0,.42,1.73,6.75,6.75,0,0,1,.67,1.73,8,8,0,0,1,.29,1.75,7.17,7.17,0,0,1-1,3.61h-.24A7.09,7.09,0,0,1,220.45,18a7.49,7.49,0,0,1,0-1.77,6.86,6.86,0,0,1,.36-1.79,3.28,3.28,0,0,0,.16-1.78,14.62,14.62,0,0,0-.77-1.71,3.54,3.54,0,0,1-.06-1.77,4.49,4.49,0,0,1,.73-1.85Z"/><path class="cls-10" d="M211.72,27a8.91,8.91,0,0,1-.38-2.81,8.14,8.14,0,0,1,.39-2.68c.32-.86.87-1.69,1.1-2.56a7.55,7.55,0,0,0,.17-2.72,14,14,0,0,1,0-2.75,17.44,17.44,0,0,1,.3-2.69,15.4,15.4,0,0,1,2.13-5.15l.24,0a15.15,15.15,0,0,1,.3,5.53,18.09,18.09,0,0,1-.62,2.64,14.2,14.2,0,0,1-.95,2.6,7.72,7.72,0,0,0-.74,2.61c-.08.91.17,1.87.18,2.79a8.34,8.34,0,0,1-.54,2.65,8.8,8.8,0,0,1-1.3,2.53Z"/><path class="cls-10" d="M212.72,22.14a4.41,4.41,0,0,1,0-2,3.83,3.83,0,0,1,.74-1.61,15.5,15.5,0,0,0,1.39-1.3,3.28,3.28,0,0,0,.54-1.69,6.55,6.55,0,0,1,.37-1.81,7,7,0,0,1,.66-1.64,7.33,7.33,0,0,1,2.71-2.62l.22.11a7,7,0,0,1-.51,3.68,7.34,7.34,0,0,1-.94,1.51,6.65,6.65,0,0,1-1.29,1.36,3.35,3.35,0,0,0-1.06,1.46,12.77,12.77,0,0,0-.22,1.86,3.76,3.76,0,0,1-.87,1.54,4.51,4.51,0,0,1-1.57,1.2Z"/><path class="cls-10" d="M211.93,8.13a4.84,4.84,0,0,1,1,1.7,3.6,3.6,0,0,1,.2,1.75,14.36,14.36,0,0,0-.52,1.81,3.44,3.44,0,0,0,.41,1.74,6,6,0,0,1,.67,1.72A8,8,0,0,1,214,18.6a7.12,7.12,0,0,1-1,3.6l-.25,0a7.19,7.19,0,0,1-1.48-3.42,8.14,8.14,0,0,1,0-1.78,7.31,7.31,0,0,1,.37-1.79,3.37,3.37,0,0,0,.15-1.78,12.56,12.56,0,0,0-.77-1.72A3.7,3.7,0,0,1,211,10a4.65,4.65,0,0,1,.74-1.85Z"/><path class="cls-10" d="M203.83,28a8.74,8.74,0,0,1-.39-2.82,8.08,8.08,0,0,1,.39-2.67c.32-.87.87-1.68,1.1-2.57a7.48,7.48,0,0,0,.17-2.71,14.14,14.14,0,0,1,0-2.76,17.18,17.18,0,0,1,.3-2.68,15.45,15.45,0,0,1,2.12-5.14l.26.05a15.36,15.36,0,0,1,.29,5.53,18.53,18.53,0,0,1-.62,2.65,14,14,0,0,1-.95,2.58,8.09,8.09,0,0,0-.75,2.63c-.07.9.18,1.85.19,2.77a8.69,8.69,0,0,1-.54,2.66,8.75,8.75,0,0,1-1.3,2.52Z"/><path class="cls-10" d="M204.82,23.14a4.41,4.41,0,0,1,0-2,3.68,3.68,0,0,1,.74-1.62A12.93,12.93,0,0,0,207,18.25a3.42,3.42,0,0,0,.55-1.7,6.54,6.54,0,0,1,.36-1.8,7.54,7.54,0,0,1,.67-1.64,7.33,7.33,0,0,1,2.7-2.63l.22.11a7.17,7.17,0,0,1-.5,3.69,7.23,7.23,0,0,1-.95,1.51,6.12,6.12,0,0,1-1.29,1.35,3.41,3.41,0,0,0-1.06,1.46,14.73,14.73,0,0,0-.22,1.86A3.71,3.71,0,0,1,206.6,22,4.8,4.8,0,0,1,205,23.22Z"/><path class="cls-10" d="M204,9.11a4.52,4.52,0,0,1,1,1.71,3.6,3.6,0,0,1,.2,1.75,16.09,16.09,0,0,0-.52,1.8,3.4,3.4,0,0,0,.42,1.74,6.4,6.4,0,0,1,.67,1.73,7.43,7.43,0,0,1,.28,1.75,7,7,0,0,1-1,3.6l-.25,0a7.07,7.07,0,0,1-1.47-3.43,7.49,7.49,0,0,1,0-1.77,6.93,6.93,0,0,1,.36-1.8,3.45,3.45,0,0,0,.16-1.77,17.75,17.75,0,0,0-.78-1.72,3.5,3.5,0,0,1-.06-1.76,4.49,4.49,0,0,1,.73-1.85Z"/><path class="cls-10" d="M194.63,28.77a8.32,8.32,0,0,1-.39-2.8,8.19,8.19,0,0,1,.39-2.69c.31-.86.87-1.68,1.1-2.56A7.78,7.78,0,0,0,195.9,18a14.76,14.76,0,0,1,0-2.74,18.76,18.76,0,0,1,.31-2.7,15.42,15.42,0,0,1,2.12-5.14l.26,0a15.14,15.14,0,0,1,.28,5.53,18.19,18.19,0,0,1-.61,2.65,14.88,14.88,0,0,1-.95,2.59,8,8,0,0,0-.75,2.62c-.07.9.18,1.86.19,2.77a8.63,8.63,0,0,1-.54,2.66,9.09,9.09,0,0,1-1.31,2.53Z"/><path class="cls-10" d="M195.61,23.9a4.42,4.42,0,0,1,0-2,3.49,3.49,0,0,1,.73-1.6A14.24,14.24,0,0,0,197.77,19a3.23,3.23,0,0,0,.55-1.69,6.13,6.13,0,0,1,.36-1.8,8.4,8.4,0,0,1,.67-1.65,7.3,7.3,0,0,1,2.7-2.62l.23.11a7.07,7.07,0,0,1-.52,3.69,7.3,7.3,0,0,1-.93,1.51,6.88,6.88,0,0,1-1.29,1.35,3.35,3.35,0,0,0-1.06,1.46,14.32,14.32,0,0,0-.23,1.86,3.63,3.63,0,0,1-.86,1.54A4.7,4.7,0,0,1,195.81,24Z"/><path class="cls-10" d="M194.83,9.87a4.53,4.53,0,0,1,1,1.7,3.59,3.59,0,0,1,.2,1.75,16.09,16.09,0,0,0-.52,1.8,3.41,3.41,0,0,0,.41,1.74,5.7,5.7,0,0,1,.67,1.73,7.44,7.44,0,0,1,.29,1.75,7.15,7.15,0,0,1-1,3.6l-.25,0a7.18,7.18,0,0,1-1.48-3.43,7.48,7.48,0,0,1,0-1.77,6.85,6.85,0,0,1,.36-1.8,3.18,3.18,0,0,0,.15-1.78,14.46,14.46,0,0,0-.77-1.71,3.62,3.62,0,0,1-.05-1.76,4.49,4.49,0,0,1,.73-1.85Z"/><path class="cls-10" d="M185.72,29.92a9.79,9.79,0,0,1-.53-5.46c.23-.89.7-1.76.84-2.65a7.53,7.53,0,0,0-.08-2.72,13.94,13.94,0,0,1-.32-2.73,22.45,22.45,0,0,1,.05-2.72,15.3,15.3,0,0,1,1.62-5.31l.25,0a15,15,0,0,1,.82,5.49,18.53,18.53,0,0,1-.34,2.68,15.12,15.12,0,0,1-.71,2.66,7.7,7.7,0,0,0-.47,2.69c0,.9.34,1.83.44,2.74a8.45,8.45,0,0,1-.28,2.69A8.9,8.9,0,0,1,186,30Z"/><path class="cls-10" d="M186.23,25a4.43,4.43,0,0,1-.15-2,3.56,3.56,0,0,1,.58-1.67,16.71,16.71,0,0,0,1.25-1.42,3.32,3.32,0,0,0,.38-1.75,6.59,6.59,0,0,1,.19-1.82,7.36,7.36,0,0,1,.5-1.7,7.3,7.3,0,0,1,2.43-2.86l.24.08a7.15,7.15,0,0,1-.15,3.73,7.37,7.37,0,0,1-.79,1.59,6.83,6.83,0,0,1-1.16,1.47,3.46,3.46,0,0,0-.91,1.54,14.56,14.56,0,0,0,0,1.87,3.68,3.68,0,0,1-.71,1.62A4.53,4.53,0,0,1,186.45,25Z"/><path class="cls-10" d="M184.11,11.1a4.42,4.42,0,0,1,1.15,1.59,3.68,3.68,0,0,1,.37,1.72,14.5,14.5,0,0,0-.34,1.86,3.39,3.39,0,0,0,.58,1.68,6.82,6.82,0,0,1,.84,1.66,8.54,8.54,0,0,1,.45,1.72,7.24,7.24,0,0,1-.61,3.67l-.26,0a6.59,6.59,0,0,1-1.94-5,6.22,6.22,0,0,1,.18-1.82,3.26,3.26,0,0,0,0-1.78,13.28,13.28,0,0,0-.93-1.64,3.71,3.71,0,0,1-.24-1.75,4.45,4.45,0,0,1,.56-1.91Z"/><path class="cls-10" d="M177.59,30.74a9.9,9.9,0,0,1-1.07-5.39c.15-.9.53-1.81.59-2.71a8,8,0,0,0-.35-2.71,14.49,14.49,0,0,1-.58-2.69,18.77,18.77,0,0,1-.21-2.7A15.29,15.29,0,0,1,177,9.11h.25a15.3,15.3,0,0,1,1.36,5.39,18.89,18.89,0,0,1-.09,2.71,14.72,14.72,0,0,1-.44,2.71,7.49,7.49,0,0,0-.21,2.71c.09.9.52,1.79.7,2.69a8.5,8.5,0,0,1,0,2.71,9,9,0,0,1-.79,2.73Z"/><path class="cls-10" d="M177.61,25.72a4.39,4.39,0,0,1-.34-2,3.55,3.55,0,0,1,.42-1.71,16.54,16.54,0,0,0,1.11-1.53,3.5,3.5,0,0,0,.21-1.78,6.6,6.6,0,0,1,0-1.83,7.8,7.8,0,0,1,.34-1.73,7.28,7.28,0,0,1,2.15-3.08l.25.07a7.09,7.09,0,0,1,.21,3.71,7.6,7.6,0,0,1-.64,1.66,6.68,6.68,0,0,1-1,1.57,3.36,3.36,0,0,0-.75,1.62,12.94,12.94,0,0,0,.14,1.86,3.75,3.75,0,0,1-.55,1.69,4.5,4.5,0,0,1-1.31,1.47Z"/><path class="cls-10" d="M174.13,12.14a4.4,4.4,0,0,1,1.29,1.49,3.62,3.62,0,0,1,.54,1.69,14.44,14.44,0,0,0-.16,1.86,3.42,3.42,0,0,0,.74,1.63,6.85,6.85,0,0,1,1,1.57,8.36,8.36,0,0,1,.61,1.67,7.1,7.1,0,0,1-.25,3.71l-.25.07A6.64,6.64,0,0,1,175.22,21a6.6,6.6,0,0,1,0-1.83,3.38,3.38,0,0,0-.19-1.78A13.69,13.69,0,0,0,174,15.85a3.72,3.72,0,0,1-.4-1.73,4.24,4.24,0,0,1,.37-1.95Z"/><path class="cls-10" d="M115.76,35.9a10.16,10.16,0,0,1-2.91-4.7,27.17,27.17,0,0,0-.41-2.75A7.44,7.44,0,0,0,111.15,26a13.89,13.89,0,0,1-1.48-2.33,19,19,0,0,1-1.17-2.45,15.32,15.32,0,0,1-.9-5.49l.23-.09A15.57,15.57,0,0,1,111,20.25a18.2,18.2,0,0,1,.87,2.58,13.84,13.84,0,0,1,.56,2.69,7.53,7.53,0,0,0,.76,2.62c.41.82,1.13,1.5,1.61,2.29a8.61,8.61,0,0,1,1,2.54,9.21,9.21,0,0,1,.22,2.82Z"/><path class="cls-10" d="M113.79,31.32a4.42,4.42,0,0,1-1.79-.85,3.82,3.82,0,0,1-1.19-1.34,13.7,13.7,0,0,0-.61-1.77,3.4,3.4,0,0,0-1.35-1.2,7.21,7.21,0,0,1-1.55-1.06,8,8,0,0,1-1.24-1.29,7.08,7.08,0,0,1-1.29-3.5l.2-.16a6.78,6.78,0,0,1,4.2,3.49,6.15,6.15,0,0,1,.74,1.68,3.56,3.56,0,0,0,.9,1.56,15,15,0,0,0,1.63,1,3.82,3.82,0,0,1,1.07,1.42,4.23,4.23,0,0,1,.46,1.94Z"/><path class="cls-10" d="M111.93,17.31A4.4,4.4,0,0,1,113.05,19a3.6,3.6,0,0,1,.32,1.74,14.18,14.18,0,0,0-.39,1.83,3.26,3.26,0,0,0,.54,1.71,6.82,6.82,0,0,1,.74,1.68,7.93,7.93,0,0,1,.39,1.72,7.13,7.13,0,0,1-.7,3.66l-.25,0A7.06,7.06,0,0,1,112,28a7.41,7.41,0,0,1-.11-1.76,6.66,6.66,0,0,1,.29-1.83,3.36,3.36,0,0,0,0-1.78,13.88,13.88,0,0,0-.89-1.66,3.64,3.64,0,0,1-.19-1.76,4.4,4.4,0,0,1,.61-1.86Z"/><path class="cls-10" d="M126.1,34.24A9.17,9.17,0,0,1,124.28,32a8.53,8.53,0,0,1-1.1-2.49c-.18-.89-.15-1.88-.41-2.75a7.85,7.85,0,0,0-1.29-2.4A14.79,14.79,0,0,1,120,22a20.3,20.3,0,0,1-1.16-2.45,15.48,15.48,0,0,1-.91-5.47l.22-.09a15.44,15.44,0,0,1,3.17,4.6,17.7,17.7,0,0,1,.88,2.57,15.41,15.41,0,0,1,.56,2.7,7.57,7.57,0,0,0,.75,2.62c.41.8,1.13,1.5,1.62,2.27a8,8,0,0,1,.95,2.55,8.69,8.69,0,0,1,.23,2.83Z"/><path class="cls-10" d="M124.1,29.7a4.67,4.67,0,0,1-1.8-.85,3.77,3.77,0,0,1-1.17-1.34,16.31,16.31,0,0,0-.62-1.78,3.48,3.48,0,0,0-1.35-1.2,6.87,6.87,0,0,1-1.55-1.06,7.21,7.21,0,0,1-1.24-1.29,7,7,0,0,1-1.29-3.49l.19-.16a7.42,7.42,0,0,1,3.21,2,7.78,7.78,0,0,1,1,1.47,6.09,6.09,0,0,1,.74,1.67,3.33,3.33,0,0,0,.9,1.56,15,15,0,0,0,1.63,1,3.72,3.72,0,0,1,1.06,1.43,4.46,4.46,0,0,1,.47,1.93Z"/><path class="cls-10" d="M122.26,15.66a4.53,4.53,0,0,1,1.11,1.66,3.6,3.6,0,0,1,.32,1.74,14.15,14.15,0,0,0-.38,1.83,3.25,3.25,0,0,0,.53,1.71,6.82,6.82,0,0,1,.74,1.68A7.82,7.82,0,0,1,125,26a7.13,7.13,0,0,1-.71,3.66l-.24,0a7.17,7.17,0,0,1-1.73-3.33,7.49,7.49,0,0,1-.09-1.77,6.35,6.35,0,0,1,.28-1.83,3.26,3.26,0,0,0,0-1.78,16.41,16.41,0,0,0-.9-1.65,3.63,3.63,0,0,1-.18-1.76,4.56,4.56,0,0,1,.59-1.86Z"/><path class="cls-10" d="M135.2,33.09a9.21,9.21,0,0,1-1.82-2.21,8.6,8.6,0,0,1-1.09-2.48,27.81,27.81,0,0,0-.42-2.76,7.66,7.66,0,0,0-1.28-2.41,14.27,14.27,0,0,1-1.49-2.34,19,19,0,0,1-1.17-2.45A15.26,15.26,0,0,1,127,13l.23-.09a15.61,15.61,0,0,1,3.18,4.59,19.93,19.93,0,0,1,.87,2.57,14.72,14.72,0,0,1,.56,2.7,7.51,7.51,0,0,0,.75,2.62c.41.81,1.13,1.51,1.62,2.29a8.27,8.27,0,0,1,1,2.53,9.3,9.3,0,0,1,.23,2.83Z"/><path class="cls-10" d="M133.24,28.55a4.6,4.6,0,0,1-1.8-.85,3.74,3.74,0,0,1-1.17-1.33,13.88,13.88,0,0,0-.62-1.78,3.5,3.5,0,0,0-1.35-1.21,6.83,6.83,0,0,1-1.55-1.05A7.56,7.56,0,0,1,125.51,21a7,7,0,0,1-1.29-3.5l.19-.16a7.51,7.51,0,0,1,3.21,2,7.78,7.78,0,0,1,1,1.47,6.08,6.08,0,0,1,.74,1.69,3.27,3.27,0,0,0,.9,1.54,13.62,13.62,0,0,0,1.63,1A3.93,3.93,0,0,1,133,26.51a4.6,4.6,0,0,1,.46,1.93Z"/><path class="cls-10" d="M131.41,14.53a4.62,4.62,0,0,1,1.11,1.66,3.56,3.56,0,0,1,.32,1.73,14.33,14.33,0,0,0-.39,1.84,3.34,3.34,0,0,0,.53,1.7,7,7,0,0,1,.74,1.68,7.92,7.92,0,0,1,.41,1.73,7,7,0,0,1-.72,3.65l-.24,0a7.36,7.36,0,0,1-1.73-3.33,8.69,8.69,0,0,1-.09-1.77,6.29,6.29,0,0,1,.29-1.82,3.36,3.36,0,0,0,0-1.78,14.69,14.69,0,0,0-.89-1.66,3.6,3.6,0,0,1-.19-1.75,4.78,4.78,0,0,1,.6-1.87Z"/><path class="cls-10" d="M145.15,34.43a9,9,0,0,1-1.82-2.21,8.72,8.72,0,0,1-1.09-2.48c-.19-.9-.15-1.89-.42-2.75a7.85,7.85,0,0,0-1.29-2.42,14.56,14.56,0,0,1-1.48-2.33,18.47,18.47,0,0,1-1.17-2.46,15.25,15.25,0,0,1-.9-5.47l.23-.1a15.3,15.3,0,0,1,3.18,4.59,18,18,0,0,1,.88,2.56,15.77,15.77,0,0,1,.55,2.7,7.73,7.73,0,0,0,.75,2.62A27.3,27.3,0,0,0,144.2,29a8.51,8.51,0,0,1,1,2.53,8.7,8.7,0,0,1,.22,2.83Z"/><path class="cls-10" d="M143.18,29.87a4.62,4.62,0,0,1-1.8-.86,3.68,3.68,0,0,1-1.18-1.33,13.74,13.74,0,0,0-.62-1.77,3.33,3.33,0,0,0-1.34-1.21,6.71,6.71,0,0,1-1.56-1.06,8,8,0,0,1-1.25-1.29,7.12,7.12,0,0,1-1.28-3.5l.2-.15a7.37,7.37,0,0,1,3.2,2,8.16,8.16,0,0,1,1,1.47,7.06,7.06,0,0,1,.74,1.69,3.34,3.34,0,0,0,.9,1.55,14.08,14.08,0,0,0,1.63,1,3.75,3.75,0,0,1,1.06,1.43,4.46,4.46,0,0,1,.47,1.93Z"/><path class="cls-10" d="M141.36,15.83a4.36,4.36,0,0,1,1.12,1.66,3.44,3.44,0,0,1,.31,1.73c-.16.61-.29,1.22-.39,1.84a3.43,3.43,0,0,0,.53,1.7,6.49,6.49,0,0,1,.75,1.68,8.52,8.52,0,0,1,.4,1.73,7.13,7.13,0,0,1-.71,3.66l-.25,0a7.12,7.12,0,0,1-1.72-3.32,7.51,7.51,0,0,1-.09-1.77,6,6,0,0,1,.28-1.83,3.4,3.4,0,0,0,0-1.79,14.55,14.55,0,0,0-.89-1.65,3.65,3.65,0,0,1-.19-1.76,4.43,4.43,0,0,1,.6-1.86Z"/><path class="cls-10" d="M154.31,33.27a8.94,8.94,0,0,1-1.82-2.2,8.5,8.5,0,0,1-1.09-2.49c-.19-.9-.16-1.88-.42-2.75a7.8,7.8,0,0,0-1.29-2.41,14.56,14.56,0,0,1-1.48-2.33A19.2,19.2,0,0,1,147,18.62a15.22,15.22,0,0,1-.91-5.47l.24-.1a15.4,15.4,0,0,1,3.17,4.59,18.29,18.29,0,0,1,.89,2.58,15.47,15.47,0,0,1,.55,2.69,7.51,7.51,0,0,0,.75,2.62c.41.81,1.13,1.5,1.62,2.28a8.38,8.38,0,0,1,1,2.55,8.62,8.62,0,0,1,.22,2.82Z"/><path class="cls-10" d="M152.35,28.74a4.81,4.81,0,0,1-1.81-.86,3.77,3.77,0,0,1-1.17-1.34,16.15,16.15,0,0,0-.62-1.77,3.5,3.5,0,0,0-1.35-1.21,7.05,7.05,0,0,1-1.55-1,7.57,7.57,0,0,1-1.24-1.29,7,7,0,0,1-1.29-3.5l.19-.15a7.31,7.31,0,0,1,3.21,2,8.16,8.16,0,0,1,1,1.47,6.59,6.59,0,0,1,.73,1.68,3.38,3.38,0,0,0,.9,1.55,13,13,0,0,0,1.64,1,3.76,3.76,0,0,1,1.05,1.42,4.46,4.46,0,0,1,.47,1.93Z"/><path class="cls-10" d="M150.49,12.73a4.44,4.44,0,0,1,1.12,1.66,3.56,3.56,0,0,1,.32,1.73,14.33,14.33,0,0,0-.39,1.84,3.24,3.24,0,0,0,.53,1.7,7.44,7.44,0,0,1,.75,1.68,8.52,8.52,0,0,1,.4,1.73,7.24,7.24,0,0,1-.71,3.66l-.25,0a7.26,7.26,0,0,1-1.72-3.32,8.1,8.1,0,0,1-.1-1.77,6,6,0,0,1,.29-1.83,3.4,3.4,0,0,0,0-1.79,16.33,16.33,0,0,0-.89-1.65,3.65,3.65,0,0,1-.19-1.76,4.53,4.53,0,0,1,.6-1.85Z"/><path class="cls-10" d="M164.29,32.62a9.41,9.41,0,0,1-1.82-2.21,8.78,8.78,0,0,1-1.09-2.49c-.19-.9-.16-1.88-.43-2.74a7.71,7.71,0,0,0-1.28-2.42,15.35,15.35,0,0,1-1.49-2.33A19.74,19.74,0,0,1,157,18a15.28,15.28,0,0,1-.91-5.48l.23-.09A15.42,15.42,0,0,1,159.53,17a21.19,21.19,0,0,1,.88,2.58,13.79,13.79,0,0,1,.54,2.69,7.75,7.75,0,0,0,.76,2.62c.41.81,1.13,1.5,1.63,2.28a9.86,9.86,0,0,1,1.17,5.37Z"/><path class="cls-10" d="M162.31,28.05a4.62,4.62,0,0,1-1.8-.86,3.74,3.74,0,0,1-1.17-1.33,15.6,15.6,0,0,0-.62-1.78,3.68,3.68,0,0,0-1.34-1.2,6.61,6.61,0,0,1-1.56-1.06,7.57,7.57,0,0,1-1.25-1.28A7.21,7.21,0,0,1,153.28,17l.2-.15a7.42,7.42,0,0,1,3.21,2,7.33,7.33,0,0,1,1,1.47,6.44,6.44,0,0,1,.73,1.68,3.48,3.48,0,0,0,.91,1.56,19,19,0,0,0,1.63,1A3.64,3.64,0,0,1,162,26a4.46,4.46,0,0,1,.47,1.93Z"/><path class="cls-10" d="M160.44,14a4.4,4.4,0,0,1,1.12,1.65,3.88,3.88,0,0,1,.32,1.74,14.54,14.54,0,0,0-.39,1.83A3.41,3.41,0,0,0,162,21a6.09,6.09,0,0,1,.74,1.67,6.52,6.52,0,0,1-.3,5.38l-.26,0a7.24,7.24,0,0,1-1.71-3.32,8,8,0,0,1-.1-1.76,6.65,6.65,0,0,1,.28-1.83,3.26,3.26,0,0,0,0-1.78,13.44,13.44,0,0,0-.9-1.67,3.59,3.59,0,0,1-.17-1.75,4.24,4.24,0,0,1,.59-1.86Z"/><path class="cls-10" d="M173.46,31.47a9.21,9.21,0,0,1-1.82-2.21,8.78,8.78,0,0,1-1.09-2.49,27,27,0,0,0-.43-2.74,7.51,7.51,0,0,0-1.28-2.42,15.35,15.35,0,0,1-1.49-2.33,19.74,19.74,0,0,1-1.16-2.46,15.48,15.48,0,0,1-.91-5.47l.23-.1a15.33,15.33,0,0,1,3.15,4.59,17.74,17.74,0,0,1,.89,2.57,13.74,13.74,0,0,1,.54,2.7,8,8,0,0,0,.76,2.62c.41.81,1.13,1.51,1.62,2.28a9.82,9.82,0,0,1,1.18,5.36Z"/><path class="cls-10" d="M171.42,26.87a4.56,4.56,0,0,1-1.79-.85,3.79,3.79,0,0,1-1.18-1.34,13.23,13.23,0,0,0-.62-1.77,3.47,3.47,0,0,0-1.34-1.21,6.61,6.61,0,0,1-1.55-1.05,8,8,0,0,1-1.25-1.29,7,7,0,0,1-1.29-3.5l.2-.16a7.48,7.48,0,0,1,3.2,2,7.82,7.82,0,0,1,1,1.47,6.82,6.82,0,0,1,.74,1.68,3.43,3.43,0,0,0,.9,1.55,16.84,16.84,0,0,0,1.63,1,3.64,3.64,0,0,1,1.07,1.42,4.46,4.46,0,0,1,.47,1.93Z"/><path class="cls-10" d="M169.61,12.88a4.36,4.36,0,0,1,1.12,1.66,3.67,3.67,0,0,1,.31,1.73,14.69,14.69,0,0,0-.39,1.84,3.51,3.51,0,0,0,.54,1.71,6.32,6.32,0,0,1,.74,1.68,6.5,6.5,0,0,1-.3,5.37l-.26,0a7.15,7.15,0,0,1-1.71-3.32,7.52,7.52,0,0,1-.1-1.77,6.71,6.71,0,0,1,.28-1.83,3.26,3.26,0,0,0,0-1.78,13.12,13.12,0,0,0-.89-1.65,3.81,3.81,0,0,1-.18-1.77,4.43,4.43,0,0,1,.6-1.86Z"/><path class="cls-10" d="M295.69,364a9.23,9.23,0,0,1,1.81,2.23,8.45,8.45,0,0,1,1.07,2.49,27.59,27.59,0,0,0,.41,2.75,7.93,7.93,0,0,0,1.26,2.43,14.85,14.85,0,0,1,1.47,2.34,17.14,17.14,0,0,1,1.14,2.46,15.08,15.08,0,0,1,.87,5.49l-.24.09a15.58,15.58,0,0,1-3.14-4.61,18.16,18.16,0,0,1-.86-2.58,13.71,13.71,0,0,1-.52-2.7,8.09,8.09,0,0,0-.75-2.63c-.4-.81-1.12-1.51-1.6-2.29a9.83,9.83,0,0,1-1.13-5.37Z"/><path class="cls-10" d="M297.65,368.62a4.56,4.56,0,0,1,1.78.87,3.8,3.8,0,0,1,1.17,1.35,14.32,14.32,0,0,0,.6,1.78,3.47,3.47,0,0,0,1.34,1.21,6.54,6.54,0,0,1,1.54,1.07,8,8,0,0,1,1.24,1.29,7.07,7.07,0,0,1,1.26,3.51l-.2.16a7.55,7.55,0,0,1-3.19-2,8.13,8.13,0,0,1-1-1.48,7,7,0,0,1-.73-1.68,3.3,3.3,0,0,0-.89-1.57,17.4,17.4,0,0,0-1.61-1,3.52,3.52,0,0,1-1.06-1.42,4.53,4.53,0,0,1-.46-1.94Z"/><path class="cls-10" d="M299.37,382.67a4.43,4.43,0,0,1-1.1-1.67,3.49,3.49,0,0,1-.3-1.74c.16-.6.3-1.22.4-1.83a3.49,3.49,0,0,0-.52-1.72,6.44,6.44,0,0,1-.73-1.68,6.57,6.57,0,0,1,.34-5.38l.26,0a7.23,7.23,0,0,1,1.69,3.34,7.46,7.46,0,0,1,.08,1.77,6.25,6.25,0,0,1-.3,1.82,3.47,3.47,0,0,0-.05,1.78A14.62,14.62,0,0,0,300,379a3.8,3.8,0,0,1,.18,1.77,4.28,4.28,0,0,1-.62,1.85Z"/><path class="cls-10" d="M286.1,364.72a10,10,0,0,1,2.87,4.71c.18.9.13,1.89.39,2.76a7.42,7.42,0,0,0,1.28,2.42A14.53,14.53,0,0,1,292.1,377a19.2,19.2,0,0,1,1.15,2.48,15.21,15.21,0,0,1,.86,5.47l-.23.1a15.42,15.42,0,0,1-3.15-4.61,19.51,19.51,0,0,1-.86-2.58,14.65,14.65,0,0,1-.53-2.7,7.71,7.71,0,0,0-.74-2.62c-.4-.82-1.11-1.51-1.6-2.3a8.71,8.71,0,0,1-.94-2.55,9.2,9.2,0,0,1-.2-2.82Z"/><path class="cls-10" d="M288,369.29a4.86,4.86,0,0,1,1.8.87,4,4,0,0,1,1.16,1.35,13.65,13.65,0,0,0,.6,1.77,3.42,3.42,0,0,0,1.34,1.22,6.81,6.81,0,0,1,1.54,1.06,8,8,0,0,1,1.24,1.3,7.24,7.24,0,0,1,1.26,3.52l-.2.15a7.56,7.56,0,0,1-3.19-2,7.72,7.72,0,0,1-1-1.49,6.5,6.5,0,0,1-.73-1.69,3.39,3.39,0,0,0-.88-1.55,15,15,0,0,0-1.62-1,3.85,3.85,0,0,1-1.07-1.43,4.43,4.43,0,0,1-.44-1.93Z"/><path class="cls-10" d="M289.77,383.34a4.43,4.43,0,0,1-1.1-1.67,3.56,3.56,0,0,1-.32-1.73,13,13,0,0,0,.41-1.83,3.33,3.33,0,0,0-.52-1.71,6.31,6.31,0,0,1-.73-1.69,8.5,8.5,0,0,1-.39-1.73,7.1,7.1,0,0,1,.74-3.65l.25,0a7.13,7.13,0,0,1,1.68,3.33,6.58,6.58,0,0,1,.09,1.77,6.66,6.66,0,0,1-.29,1.83,3.3,3.3,0,0,0,0,1.79,15.52,15.52,0,0,0,.88,1.66,3.59,3.59,0,0,1,.17,1.75,4.41,4.41,0,0,1-.62,1.86Z"/><path class="cls-10" d="M278.1,365.32a9,9,0,0,1,1.81,2.22A8.51,8.51,0,0,1,281,370c.18.9.14,1.88.4,2.75a8,8,0,0,0,1.27,2.42,14.62,14.62,0,0,1,1.46,2.35,17.19,17.19,0,0,1,1.15,2.46,15.06,15.06,0,0,1,.87,5.48l-.24.1a15.58,15.58,0,0,1-3.14-4.61,18.16,18.16,0,0,1-.86-2.58,14.65,14.65,0,0,1-.53-2.7,7.93,7.93,0,0,0-.73-2.62c-.41-.82-1.12-1.51-1.61-2.3a9.93,9.93,0,0,1-1.14-5.37Z"/><path class="cls-10" d="M280.05,369.9a4.69,4.69,0,0,1,1.79.88,3.59,3.59,0,0,1,1.17,1.34,14.32,14.32,0,0,0,.6,1.78,3.47,3.47,0,0,0,1.34,1.21,6.54,6.54,0,0,1,1.54,1.07,7.57,7.57,0,0,1,1.24,1.29A7.11,7.11,0,0,1,289,381l-.2.14a7.32,7.32,0,0,1-3.19-2,8.13,8.13,0,0,1-1-1.48,7,7,0,0,1-.73-1.69,3.23,3.23,0,0,0-.89-1.56,14.92,14.92,0,0,0-1.62-1,3.56,3.56,0,0,1-1.05-1.44,4.45,4.45,0,0,1-.46-1.93Z"/><path class="cls-10" d="M281.78,383.94a4.59,4.59,0,0,1-1.1-1.66,3.49,3.49,0,0,1-.3-1.74c.16-.61.3-1.22.4-1.83a3.49,3.49,0,0,0-.52-1.72,6.12,6.12,0,0,1-.73-1.68,7.35,7.35,0,0,1-.39-1.73,7.11,7.11,0,0,1,.73-3.65l.26,0a7.24,7.24,0,0,1,1.69,3.33,7.51,7.51,0,0,1,.08,1.77,6.32,6.32,0,0,1-.3,1.83,3.5,3.5,0,0,0,0,1.79,13.18,13.18,0,0,0,.88,1.66,3.72,3.72,0,0,1,.17,1.75,4.28,4.28,0,0,1-.62,1.86Z"/><path class="cls-10" d="M270.13,365.91a10.11,10.11,0,0,1,2.88,4.73,27.57,27.57,0,0,0,.39,2.75,7.39,7.39,0,0,0,1.27,2.42,14,14,0,0,1,1.47,2.35,19.68,19.68,0,0,1,1.15,2.46,15.5,15.5,0,0,1,.85,5.49l-.23.09a15.58,15.58,0,0,1-3.14-4.61,18.16,18.16,0,0,1-.86-2.58,14.65,14.65,0,0,1-.53-2.7,7.78,7.78,0,0,0-.74-2.62c-.41-.82-1.12-1.51-1.6-2.3a8.24,8.24,0,0,1-.94-2.55,8.9,8.9,0,0,1-.2-2.82Z"/><path class="cls-10" d="M272.07,370.5a4.56,4.56,0,0,1,1.78.87,3.74,3.74,0,0,1,1.18,1.35,13.65,13.65,0,0,0,.6,1.77A3.33,3.33,0,0,0,277,375.7a7.51,7.51,0,0,1,1.55,1.07,8.89,8.89,0,0,1,1.23,1.3,7.17,7.17,0,0,1,1.26,3.51l-.2.16a6.8,6.8,0,0,1-4.18-3.52,6.15,6.15,0,0,1-.72-1.69A3.52,3.52,0,0,0,275,375a12.75,12.75,0,0,0-1.62-1,3.93,3.93,0,0,1-1.06-1.43,4.24,4.24,0,0,1-.44-1.94Z"/><path class="cls-10" d="M273.82,384.53a4.53,4.53,0,0,1-1.11-1.66,3.71,3.71,0,0,1-.3-1.74,14.21,14.21,0,0,0,.4-1.83,3.24,3.24,0,0,0-.52-1.71,6.5,6.5,0,0,1-.73-1.69,7.9,7.9,0,0,1-.38-1.72,7.15,7.15,0,0,1,.73-3.66l.25,0a7,7,0,0,1,1.69,3.33,7.4,7.4,0,0,1,.09,1.76,7.07,7.07,0,0,1-.3,1.83,3.36,3.36,0,0,0-.05,1.78,14.62,14.62,0,0,0,.88,1.66,3.8,3.8,0,0,1,.18,1.77,4.51,4.51,0,0,1-.62,1.85Z"/><path class="cls-10" d="M259.78,367.5a9,9,0,0,1,1.81,2.23,8.45,8.45,0,0,1,1.07,2.49c.18.89.14,1.88.4,2.75a7.8,7.8,0,0,0,1.27,2.42,15,15,0,0,1,1.47,2.35,18.3,18.3,0,0,1,1.14,2.46,15.24,15.24,0,0,1,.87,5.48l-.22.08a15.62,15.62,0,0,1-3.14-4.62,17.62,17.62,0,0,1-.86-2.57,14.76,14.76,0,0,1-.53-2.71,7.54,7.54,0,0,0-.73-2.62c-.41-.81-1.12-1.51-1.61-2.29a8.22,8.22,0,0,1-.93-2.55,8.41,8.41,0,0,1-.2-2.83Z"/><path class="cls-10" d="M261.75,372.06a4.64,4.64,0,0,1,1.79.86,3.87,3.87,0,0,1,1.17,1.34,14.47,14.47,0,0,0,.6,1.79,3.47,3.47,0,0,0,1.34,1.21,6.54,6.54,0,0,1,1.54,1.07,6.82,6.82,0,0,1,1.23,1.29,7.09,7.09,0,0,1,1.27,3.51l-.2.15a7.43,7.43,0,0,1-3.19-2,8.13,8.13,0,0,1-1-1.48,6.44,6.44,0,0,1-.73-1.68,3.3,3.3,0,0,0-.89-1.57,14,14,0,0,0-1.62-1,3.76,3.76,0,0,1-1.05-1.44,4.45,4.45,0,0,1-.46-1.93Z"/><path class="cls-10" d="M263.48,386.1a4.29,4.29,0,0,1-1.09-1.66,3.5,3.5,0,0,1-.31-1.74,16.11,16.11,0,0,0,.4-1.83,3.16,3.16,0,0,0-.53-1.71,10,10,0,0,1-1.11-3.42,7.14,7.14,0,0,1,.74-3.65l.24,0a7.12,7.12,0,0,1,1.7,3.33,8.08,8.08,0,0,1,.08,1.77,6.32,6.32,0,0,1-.3,1.83,3.36,3.36,0,0,0,0,1.78,14.62,14.62,0,0,0,.88,1.66,3.64,3.64,0,0,1,.17,1.76,4.59,4.59,0,0,1-.61,1.86Z"/><path class="cls-10" d="M250.67,368.59a9.09,9.09,0,0,1,1.8,2.21,8.54,8.54,0,0,1,1.08,2.5c.18.9.13,1.88.4,2.76a7.61,7.61,0,0,0,1.26,2.41,14.42,14.42,0,0,1,1.47,2.35,17.83,17.83,0,0,1,1.15,2.47,15.23,15.23,0,0,1,.86,5.48l-.23.09a15.69,15.69,0,0,1-3.16-4.62,21.47,21.47,0,0,1-.85-2.57,14.76,14.76,0,0,1-.53-2.71,7.48,7.48,0,0,0-.73-2.62c-.41-.81-1.12-1.51-1.61-2.3a8,8,0,0,1-.93-2.54,8.43,8.43,0,0,1-.21-2.83Z"/><path class="cls-10" d="M252.6,373.14a4.58,4.58,0,0,1,1.79.86,3.77,3.77,0,0,1,1.17,1.34,13.79,13.79,0,0,0,.6,1.78,3.5,3.5,0,0,0,1.34,1.22,6.81,6.81,0,0,1,1.55,1.07,7.52,7.52,0,0,1,1.23,1.29,7.07,7.07,0,0,1,1.26,3.51l-.19.16a7.52,7.52,0,0,1-3.2-2,7.65,7.65,0,0,1-1-1.48,6.65,6.65,0,0,1-.73-1.69,3.43,3.43,0,0,0-.88-1.56,14.15,14.15,0,0,0-1.63-1,3.93,3.93,0,0,1-1.06-1.43,4.51,4.51,0,0,1-.44-1.94Z"/><path class="cls-10" d="M254.33,387.17a4.55,4.55,0,0,1-1.1-1.67,3.55,3.55,0,0,1-.31-1.73,12.84,12.84,0,0,0,.4-1.84,3.23,3.23,0,0,0-.52-1.7,7,7,0,0,1-.72-1.69,7.35,7.35,0,0,1-.39-1.73,7,7,0,0,1,.74-3.65l.24,0a7.25,7.25,0,0,1,1.7,3.34,8,8,0,0,1,.08,1.77,6.18,6.18,0,0,1-.3,1.81,3.3,3.3,0,0,0,0,1.79,13.18,13.18,0,0,0,.88,1.66,3.77,3.77,0,0,1,.17,1.76,4.75,4.75,0,0,1-.61,1.86Z"/><path class="cls-10" d="M242.72,369.14a10.27,10.27,0,0,1,2.88,4.71c.18.9.13,1.89.39,2.76a8,8,0,0,0,1.27,2.42,14.59,14.59,0,0,1,1.47,2.34,17.83,17.83,0,0,1,1.15,2.47,15.27,15.27,0,0,1,.86,5.48l-.24.1a15.71,15.71,0,0,1-3.14-4.61,18.11,18.11,0,0,1-.85-2.58,14.68,14.68,0,0,1-.54-2.7,7.59,7.59,0,0,0-.73-2.63c-.41-.81-1.12-1.51-1.61-2.29a8.26,8.26,0,0,1-.93-2.54,8.76,8.76,0,0,1-.2-2.84Z"/><path class="cls-10" d="M244.66,373.71a4.81,4.81,0,0,1,1.79.87,3.71,3.71,0,0,1,1.17,1.35,14.18,14.18,0,0,0,.6,1.77,3.42,3.42,0,0,0,1.34,1.22,6.39,6.39,0,0,1,1.55,1.07,8,8,0,0,1,1.24,1.29,7.23,7.23,0,0,1,1.25,3.52l-.19.15a7.43,7.43,0,0,1-3.19-2,7.85,7.85,0,0,1-1-1.48,6.7,6.7,0,0,1-.73-1.69,3.31,3.31,0,0,0-.88-1.55,14.22,14.22,0,0,0-1.63-1,3.8,3.8,0,0,1-1-1.43,4.44,4.44,0,0,1-.45-1.93Z"/><path class="cls-10" d="M246.36,387.77a4.52,4.52,0,0,1-1.09-1.67,3.46,3.46,0,0,1-.31-1.74,16.14,16.14,0,0,0,.41-1.83,3.42,3.42,0,0,0-.52-1.7,6.65,6.65,0,0,1-.73-1.69,7.46,7.46,0,0,1-.39-1.73,7.1,7.1,0,0,1,.74-3.65l.25,0a7.06,7.06,0,0,1,1.69,3.33,7.48,7.48,0,0,1,.08,1.77,5.65,5.65,0,0,1-.3,1.82,3.51,3.51,0,0,0,0,1.79,15.66,15.66,0,0,0,.88,1.67,3.59,3.59,0,0,1,.17,1.75,4.44,4.44,0,0,1-.61,1.86Z"/><path class="cls-10" d="M233.55,370.23a9,9,0,0,1,1.81,2.22,8.73,8.73,0,0,1,1.07,2.49c.18.9.14,1.88.39,2.75a7.76,7.76,0,0,0,1.28,2.43,14.53,14.53,0,0,1,1.46,2.34,17.83,17.83,0,0,1,1.15,2.47,15.28,15.28,0,0,1,.87,5.48l-.24.1a15.25,15.25,0,0,1-3.14-4.62,17.74,17.74,0,0,1-.86-2.58,15.45,15.45,0,0,1-.54-2.69,7.59,7.59,0,0,0-.73-2.63,26.92,26.92,0,0,0-1.6-2.29,8.18,8.18,0,0,1-.94-2.55,8.7,8.7,0,0,1-.2-2.83Z"/><path class="cls-10" d="M235.48,374.78a4.78,4.78,0,0,1,1.8.87,3.69,3.69,0,0,1,1.16,1.35,16.08,16.08,0,0,0,.61,1.77,3.36,3.36,0,0,0,1.34,1.22,6.81,6.81,0,0,1,1.54,1.06,8,8,0,0,1,1.23,1.3,7.09,7.09,0,0,1,1.27,3.52l-.2.14a7.32,7.32,0,0,1-3.19-2,8.18,8.18,0,0,1-1-1.48,6.62,6.62,0,0,1-.72-1.69,3.33,3.33,0,0,0-.89-1.55,14.29,14.29,0,0,0-1.63-1,3.57,3.57,0,0,1-1-1.42,4.45,4.45,0,0,1-.46-1.93Z"/><path class="cls-10" d="M237.23,388.85a4.43,4.43,0,0,1-1.1-1.67,3.6,3.6,0,0,1-.32-1.74,12.73,12.73,0,0,0,.41-1.83,3.23,3.23,0,0,0-.52-1.7,7,7,0,0,1-.73-1.69,8.5,8.5,0,0,1-.39-1.73,7.1,7.1,0,0,1,.74-3.65l.25,0a7.31,7.31,0,0,1,1.7,3.33,7.48,7.48,0,0,1,.07,1.77,6,6,0,0,1-.29,1.83,3.26,3.26,0,0,0-.05,1.78,17.72,17.72,0,0,0,.88,1.67,3.59,3.59,0,0,1,.17,1.75,4.4,4.4,0,0,1-.61,1.85Z"/><path class="cls-10" d="M224.6,370.87a9.11,9.11,0,0,1,1.58,2.39,8.66,8.66,0,0,1,.83,2.58c.09.91,0,1.88.13,2.77a7.74,7.74,0,0,0,1,2.53,15.42,15.42,0,0,1,1.24,2.47,19.43,19.43,0,0,1,.9,2.56,15,15,0,0,1,.32,5.54l-.23.07a15.24,15.24,0,0,1-2.69-4.88,21.66,21.66,0,0,1-.61-2.65,14.68,14.68,0,0,1-.26-2.73,7.47,7.47,0,0,0-.48-2.68,27.87,27.87,0,0,0-1.37-2.43,9.82,9.82,0,0,1-.61-5.46Z"/><path class="cls-10" d="M226.1,375.61a4.69,4.69,0,0,1,1.69,1,3.71,3.71,0,0,1,1,1.45,14.56,14.56,0,0,0,.43,1.82,3.44,3.44,0,0,0,1.21,1.33,6.65,6.65,0,0,1,1.43,1.21,7.12,7.12,0,0,1,1.11,1.4,7.2,7.2,0,0,1,.92,3.62l-.22.13a7.41,7.41,0,0,1-3-2.33,7.08,7.08,0,0,1-.83-1.56,6.28,6.28,0,0,1-.56-1.75,3.46,3.46,0,0,0-.74-1.63,17.3,17.3,0,0,0-1.52-1.15,3.48,3.48,0,0,1-.91-1.52,4.39,4.39,0,0,1-.27-2Z"/><path class="cls-10" d="M226.48,389.74a4.42,4.42,0,0,1-.94-1.76,3.75,3.75,0,0,1-.13-1.76,13.7,13.7,0,0,0,.58-1.78,3.46,3.46,0,0,0-.35-1.76,6,6,0,0,1-.56-1.74,6.55,6.55,0,0,1,.86-5.32h.26a7.15,7.15,0,0,1,1.35,3.48,7.4,7.4,0,0,1-.08,1.76,6.64,6.64,0,0,1-.47,1.8,3.23,3.23,0,0,0-.22,1.76,12.57,12.57,0,0,0,.71,1.75,3.62,3.62,0,0,1,0,1.76,4.25,4.25,0,0,1-.79,1.79Z"/><path class="cls-10" d="M216.44,371.7a8.85,8.85,0,0,1,1.34,2.52,8.54,8.54,0,0,1,.57,2.64c0,.92-.23,1.88-.13,2.78a7.28,7.28,0,0,0,.77,2.61,15.15,15.15,0,0,1,1,2.57,18.79,18.79,0,0,1,.64,2.64,15.19,15.19,0,0,1-.21,5.54l-.24.05A15.24,15.24,0,0,1,218,388a18.82,18.82,0,0,1-.35-2.7,14.75,14.75,0,0,1,0-2.74,7.78,7.78,0,0,0-.22-2.72c-.24-.87-.8-1.69-1.13-2.54a9.86,9.86,0,0,1-.08-5.49Z"/><path class="cls-10" d="M217.52,376.6a4.38,4.38,0,0,1,1.58,1.18,3.73,3.73,0,0,1,.89,1.54,13.18,13.18,0,0,0,.25,1.86,3.42,3.42,0,0,0,1.07,1.43,6.4,6.4,0,0,1,1.31,1.34,7.4,7.4,0,0,1,1,1.5,7,7,0,0,1,.56,3.67l-.23.12a7.23,7.23,0,0,1-2.73-2.59,7.56,7.56,0,0,1-.7-1.63,6.5,6.5,0,0,1-.38-1.79,3.55,3.55,0,0,0-.57-1.7,18.93,18.93,0,0,0-1.41-1.28,3.55,3.55,0,0,1-.76-1.6,4.27,4.27,0,0,1-.07-2Z"/><path class="cls-10" d="M216.48,390.67a4.32,4.32,0,0,1-.76-1.84,3.54,3.54,0,0,1,0-1.77,14.66,14.66,0,0,0,.75-1.72,3.48,3.48,0,0,0-.18-1.78,6,6,0,0,1-.39-1.79,6.58,6.58,0,0,1,1.37-5.21l.26,0a7.06,7.06,0,0,1,1,3.58,7.39,7.39,0,0,1-.25,1.75,6.41,6.41,0,0,1-.65,1.74,3.39,3.39,0,0,0-.39,1.74,12.34,12.34,0,0,0,.55,1.79,3.8,3.8,0,0,1-.18,1.77,4.49,4.49,0,0,1-1,1.7Z"/><path class="cls-10" d="M154.87,379a9.14,9.14,0,0,1,.37,2.8,8.73,8.73,0,0,1-.42,2.68c-.31.86-.87,1.68-1.11,2.56a7.49,7.49,0,0,0-.2,2.71,14.86,14.86,0,0,1,0,2.75,18.82,18.82,0,0,1-.33,2.69,15.44,15.44,0,0,1-2.16,5.12l-.25-.05a15.18,15.18,0,0,1-.25-5.54,20.26,20.26,0,0,1,.63-2.64,14.75,14.75,0,0,1,1-2.57,7.33,7.33,0,0,0,.77-2.62c.08-.9-.16-1.86-.17-2.78a10,10,0,0,1,1.88-5.17Z"/><path class="cls-10" d="M153.84,383.85a4.32,4.32,0,0,1-.05,2,3.76,3.76,0,0,1-.76,1.6,14.15,14.15,0,0,0-1.39,1.29,3.34,3.34,0,0,0-.56,1.7,6.5,6.5,0,0,1-.38,1.79,6.71,6.71,0,0,1-3.39,4.25l-.23-.12a7,7,0,0,1,.54-3.68,7.62,7.62,0,0,1,.94-1.51,7.22,7.22,0,0,1,1.31-1.34,3.45,3.45,0,0,0,1.07-1.44,13.12,13.12,0,0,0,.23-1.86,3.77,3.77,0,0,1,.89-1.55,4.55,4.55,0,0,1,1.58-1.19Z"/><path class="cls-10" d="M154.51,397.87a4.4,4.4,0,0,1-1-1.7,3.56,3.56,0,0,1-.18-1.77,15.37,15.37,0,0,0,.53-1.79,3.39,3.39,0,0,0-.41-1.74,7.15,7.15,0,0,1-.65-1.74,7.33,7.33,0,0,1-.27-1.74,7,7,0,0,1,1-3.6l.25,0a7.25,7.25,0,0,1,1.45,3.45,7.4,7.4,0,0,1,0,1.76,6,6,0,0,1-.38,1.79,3.39,3.39,0,0,0-.17,1.78,14.71,14.71,0,0,0,.76,1.72,3.66,3.66,0,0,1,.05,1.77,4.57,4.57,0,0,1-.75,1.84Z"/><path class="cls-10" d="M165.29,378.53a8.42,8.42,0,0,1,.37,2.82,7.9,7.9,0,0,1-.41,2.68,27.3,27.3,0,0,0-1.11,2.55,7.49,7.49,0,0,0-.2,2.71,14.86,14.86,0,0,1,0,2.75,17.34,17.34,0,0,1-.33,2.69,15.37,15.37,0,0,1-2.16,5.13l-.23,0a15.19,15.19,0,0,1-.24-5.54,18.3,18.3,0,0,1,.63-2.63,15,15,0,0,1,1-2.59,7.71,7.71,0,0,0,.77-2.61c.07-.9-.16-1.87-.17-2.77a8.59,8.59,0,0,1,.56-2.65,8.76,8.76,0,0,1,1.33-2.53Z"/><path class="cls-10" d="M164.27,383.41a4.41,4.41,0,0,1-.06,2,3.61,3.61,0,0,1-.75,1.61,15.38,15.38,0,0,0-1.39,1.29,3.31,3.31,0,0,0-.56,1.7,6.16,6.16,0,0,1-.38,1.79,7.57,7.57,0,0,1-.68,1.64,7.23,7.23,0,0,1-2.72,2.6l-.22-.11a6.68,6.68,0,0,1,1.49-5.19,7.17,7.17,0,0,1,1.3-1.34,3.45,3.45,0,0,0,1.07-1.44,14.71,14.71,0,0,0,.24-1.87,3.69,3.69,0,0,1,.87-1.54,4.65,4.65,0,0,1,1.59-1.19Z"/><path class="cls-10" d="M165,397.44a4.49,4.49,0,0,1-1-1.71,3.48,3.48,0,0,1-.18-1.75,16.14,16.14,0,0,0,.53-1.8,3.28,3.28,0,0,0-.4-1.74,6,6,0,0,1-.66-1.74A7.89,7.89,0,0,1,163,387a7.13,7.13,0,0,1,1-3.59h.24a7,7,0,0,1,1.45,3.44,7.49,7.49,0,0,1,0,1.77,6.82,6.82,0,0,1-.38,1.78,3.31,3.31,0,0,0-.17,1.79,16.2,16.2,0,0,0,.76,1.71,3.54,3.54,0,0,1,0,1.77,4.29,4.29,0,0,1-.74,1.84Z"/><path class="cls-10" d="M174.49,377.87a8.9,8.9,0,0,1,.36,2.81,8.32,8.32,0,0,1-.41,2.67c-.33.87-.89,1.69-1.12,2.56a7.56,7.56,0,0,0-.19,2.72,14.86,14.86,0,0,1,0,2.75,18.8,18.8,0,0,1-.32,2.69,15.39,15.39,0,0,1-2.17,5.13l-.24-.05a15.19,15.19,0,0,1-.26-5.54,18.33,18.33,0,0,1,.64-2.63,14.18,14.18,0,0,1,1-2.59,7.47,7.47,0,0,0,.76-2.61c.09-.91-.16-1.86-.16-2.78a8.31,8.31,0,0,1,.56-2.65,9.06,9.06,0,0,1,1.32-2.52Z"/><path class="cls-10" d="M173.46,382.73a4.72,4.72,0,0,1-.05,2,3.86,3.86,0,0,1-.76,1.61,12.93,12.93,0,0,0-1.39,1.28,3.34,3.34,0,0,0-.56,1.7,6.09,6.09,0,0,1-.38,1.79,7.83,7.83,0,0,1-.67,1.65,7.41,7.41,0,0,1-2.73,2.6l-.22-.12a7,7,0,0,1,.54-3.68,7.16,7.16,0,0,1,.95-1.5,6.39,6.39,0,0,1,1.3-1.35,3.42,3.42,0,0,0,1.07-1.45,14.4,14.4,0,0,0,.24-1.85,3.63,3.63,0,0,1,.87-1.54,4.56,4.56,0,0,1,1.59-1.19Z"/><path class="cls-10" d="M174.14,396.74a4.65,4.65,0,0,1-1-1.7,3.53,3.53,0,0,1-.18-1.76,16,16,0,0,0,.53-1.79,3.44,3.44,0,0,0-.4-1.75,6,6,0,0,1-.66-1.73,8,8,0,0,1-.28-1.75,7.28,7.28,0,0,1,1-3.6h.25a7.09,7.09,0,0,1,1.46,3.44,8.06,8.06,0,0,1,0,1.77,6.89,6.89,0,0,1-.38,1.79,3.35,3.35,0,0,0-.16,1.77,12.1,12.1,0,0,0,.76,1.73,3.7,3.7,0,0,1,0,1.75,4.42,4.42,0,0,1-.75,1.85Z"/><path class="cls-10" d="M183.94,374.6a8.69,8.69,0,0,1,.37,2.82,8.36,8.36,0,0,1-.41,2.67c-.32.86-.88,1.68-1.12,2.56a7.49,7.49,0,0,0-.19,2.71,14.86,14.86,0,0,1,0,2.75,17.34,17.34,0,0,1-.33,2.69,15,15,0,0,1-2.15,5.12l-.26-.05a15.14,15.14,0,0,1-.24-5.53,17.3,17.3,0,0,1,.63-2.65,15.16,15.16,0,0,1,1-2.58,7.71,7.71,0,0,0,.77-2.61c.07-.91-.16-1.86-.17-2.78a8.65,8.65,0,0,1,.56-2.65,8.84,8.84,0,0,1,1.33-2.52Z"/><path class="cls-10" d="M182.92,379.48a4.41,4.41,0,0,1-.06,2,3.73,3.73,0,0,1-.75,1.61,14.15,14.15,0,0,0-1.39,1.29,3.3,3.3,0,0,0-.56,1.69,6.57,6.57,0,0,1-.38,1.8,7.57,7.57,0,0,1-.68,1.64,7.38,7.38,0,0,1-2.72,2.6l-.22-.11a7.09,7.09,0,0,1,.53-3.69,8.08,8.08,0,0,1,.95-1.5,6.4,6.4,0,0,1,1.31-1.34A3.42,3.42,0,0,0,180,384a14.76,14.76,0,0,0,.23-1.86,3.89,3.89,0,0,1,.88-1.54,4.71,4.71,0,0,1,1.59-1.2Z"/><path class="cls-10" d="M183.61,393.51a4.53,4.53,0,0,1-1-1.71,3.6,3.6,0,0,1-.19-1.75,14.26,14.26,0,0,0,.53-1.8,3.31,3.31,0,0,0-.4-1.74,6.41,6.41,0,0,1-.65-1.74,8,8,0,0,1-.28-1.75,7.12,7.12,0,0,1,1-3.59l.25,0a7.17,7.17,0,0,1,1.45,3.44,7.49,7.49,0,0,1,0,1.77,7,7,0,0,1-.38,1.8,3.45,3.45,0,0,0-.17,1.77,17.6,17.6,0,0,0,.76,1.72,3.39,3.39,0,0,1,.05,1.76,4.51,4.51,0,0,1-.74,1.85Z"/><path class="cls-10" d="M193.15,373.92a8.63,8.63,0,0,1,.37,2.81,8.43,8.43,0,0,1-.41,2.68c-.33.86-.88,1.68-1.12,2.56a7.49,7.49,0,0,0-.19,2.71,14.86,14.86,0,0,1,0,2.75,17.49,17.49,0,0,1-.33,2.69,15.23,15.23,0,0,1-2.16,5.12l-.25-.05a15.36,15.36,0,0,1-.25-5.53,18.59,18.59,0,0,1,.64-2.65,14,14,0,0,1,1-2.57,7.81,7.81,0,0,0,.76-2.62c.08-.9-.16-1.86-.16-2.78a8.37,8.37,0,0,1,.56-2.65,8.87,8.87,0,0,1,1.32-2.51Z"/><path class="cls-10" d="M192.13,378.78a4.46,4.46,0,0,1-.06,2,3.54,3.54,0,0,1-.75,1.59,14.25,14.25,0,0,0-1.39,1.3,3.3,3.3,0,0,0-.56,1.69,6.16,6.16,0,0,1-.38,1.79,7.65,7.65,0,0,1-.68,1.65,7.13,7.13,0,0,1-2.72,2.59l-.22-.1a7,7,0,0,1,.54-3.69,7.23,7.23,0,0,1,1-1.51,6.55,6.55,0,0,1,1.3-1.33,3.42,3.42,0,0,0,1.07-1.45,14.33,14.33,0,0,0,.24-1.86,3.76,3.76,0,0,1,.87-1.54,5,5,0,0,1,1.59-1.2Z"/><path class="cls-10" d="M193.21,394.73a4.38,4.38,0,0,1-1-1.7,3.6,3.6,0,0,1-.19-1.75,14.31,14.31,0,0,0,.54-1.8,3.31,3.31,0,0,0-.4-1.74,6.12,6.12,0,0,1-.66-1.74,8,8,0,0,1-.28-1.75,7.22,7.22,0,0,1,1-3.59l.25,0a7,7,0,0,1,1.45,3.44,7.48,7.48,0,0,1,0,1.77,7,7,0,0,1-.38,1.8,3.24,3.24,0,0,0-.17,1.77,13.9,13.9,0,0,0,.77,1.72,3.62,3.62,0,0,1,0,1.76,4.51,4.51,0,0,1-.74,1.85Z"/><path class="cls-10" d="M203.06,372.6a9.86,9.86,0,0,1,0,5.49c-.32.86-.88,1.67-1.12,2.55a7.52,7.52,0,0,0-.2,2.71,14,14,0,0,1,0,2.75,22.13,22.13,0,0,1-.34,2.7,15.32,15.32,0,0,1-2.16,5.12l-.25-.05a15.24,15.24,0,0,1-.24-5.55,18.27,18.27,0,0,1,.62-2.63,15.75,15.75,0,0,1,1-2.58,7.75,7.75,0,0,0,.76-2.62c.08-.9-.16-1.85-.16-2.77a8.59,8.59,0,0,1,.56-2.65,8.76,8.76,0,0,1,1.33-2.53Z"/><path class="cls-10" d="M202,377.48a4.27,4.27,0,0,1-.05,2,3.53,3.53,0,0,1-.76,1.61,16.86,16.86,0,0,0-1.39,1.28,3.37,3.37,0,0,0-.56,1.7,6.43,6.43,0,0,1-.38,1.79,7.54,7.54,0,0,1-.67,1.64,7.33,7.33,0,0,1-2.72,2.61l-.23-.11a7.1,7.1,0,0,1,.54-3.69,7.6,7.6,0,0,1,.95-1.5,6.7,6.7,0,0,1,1.31-1.35,3.63,3.63,0,0,0,1.07-1.44,16.4,16.4,0,0,0,.23-1.85,3.55,3.55,0,0,1,.88-1.54,4.46,4.46,0,0,1,1.58-1.2Z"/><path class="cls-10" d="M202.69,391.49a4.26,4.26,0,0,1-1-1.7,3.6,3.6,0,0,1-.2-1.75,14.45,14.45,0,0,0,.54-1.81,3.41,3.41,0,0,0-.41-1.74,7.23,7.23,0,0,1-.65-1.73,7.5,7.5,0,0,1-.27-1.75,7.21,7.21,0,0,1,1-3.59l.26,0a7.76,7.76,0,0,1,1,7,3.47,3.47,0,0,0-.17,1.78,15.34,15.34,0,0,0,.76,1.71,3.66,3.66,0,0,1,.05,1.77,4.3,4.3,0,0,1-.75,1.84Z"/><path class="cls-10" d="M212.25,371.92a9.82,9.82,0,0,1,0,5.48c-.32.86-.89,1.68-1.12,2.55a7.79,7.79,0,0,0-.2,2.72,14.87,14.87,0,0,1,0,2.75,17.62,17.62,0,0,1-.33,2.7,15.29,15.29,0,0,1-2.13,5.11l-.25-.05a15.19,15.19,0,0,1-.24-5.54,18.72,18.72,0,0,1,.62-2.64,15.64,15.64,0,0,1,1-2.57,7.81,7.81,0,0,0,.76-2.62c.08-.9-.16-1.86-.16-2.78a8.37,8.37,0,0,1,.56-2.65,8.84,8.84,0,0,1,1.33-2.52Z"/><path class="cls-10" d="M211.21,376.84a4.28,4.28,0,0,1-.05,2,3.65,3.65,0,0,1-.76,1.6,17,17,0,0,0-1.39,1.29,3.34,3.34,0,0,0-.56,1.7,6.89,6.89,0,0,1-.38,1.79,7.57,7.57,0,0,1-.68,1.64,7.38,7.38,0,0,1-2.72,2.6l-.23-.11a7,7,0,0,1,.54-3.68,8.16,8.16,0,0,1,1-1.51,6.65,6.65,0,0,1,1.31-1.34,3.63,3.63,0,0,0,1.07-1.44,16.87,16.87,0,0,0,.23-1.86,3.64,3.64,0,0,1,.88-1.55,4.64,4.64,0,0,1,1.58-1.19Z"/><path class="cls-10" d="M211.9,390.81a4.31,4.31,0,0,1-1-1.7,3.76,3.76,0,0,1-.19-1.76,12.78,12.78,0,0,0,.53-1.8,3.27,3.27,0,0,0-.4-1.73,6.54,6.54,0,0,1-.65-1.74,7.42,7.42,0,0,1-.27-1.75,7.21,7.21,0,0,1,1-3.59l.26,0a7.76,7.76,0,0,1,1,7,3.48,3.48,0,0,0-.17,1.78,13.83,13.83,0,0,0,.76,1.72,3.62,3.62,0,0,1,.05,1.76,4.29,4.29,0,0,1-.75,1.85Z"/><path class="cls-11" d="M295.72,363.18c-27,11.72-134,16.6-142,17.58-12.9,1.58-40-344.79-40-344.79l144-13.68S306.88,358.34,295.72,363.18Z"/><path class="cls-12" d="M159.22,99.94c1.91-46-3.12-94.18,33.62-96.55,38.69-2.5,39,43,45.37,89.7"/><path class="cls-13" d="M190.5,61.87h12.38l.29,2.49c.47,4,1.6,7.69,4.87,9.7l3.09,1.11L208,91.8,190.5,92.91l-7.82-16.45,4.73-1.29c2.58-1.35,3.91-5.37,3.6-8.43Z"/><path class="cls-13" d="M214.67,34.43c-.14-.8,2.25-1.51,3.08-1,1.34.81,1.08,4.51.26,6-2.34,4.42-4.16,4.43-4.16,4.43A20.41,20.41,0,0,0,214.67,34.43Z"/><path class="cls-13" d="M175.55,37.44c0-.81-2.45-1.17-3.19-.55-1.21,1-.41,4.62.62,6,3,4,4.77,3.78,4.77,3.78A20.44,20.44,0,0,1,175.55,37.44Z"/><path class="cls-14" d="M215.12,39.94c-.62,10.13-5.35,18.66-11.62,22.69A15.43,15.43,0,0,1,197.16,65a13.19,13.19,0,0,1-8-1.62C182.92,60,177.76,52,175.66,42.34c-2.87-13.12,7.47-20.72,19.29-21.49,5.11-.34,10.59-1.85,11.08-1.11A30,30,0,0,0,210.34,25C215.14,30.26,215.3,37.11,215.12,39.94Z"/><path class="cls-15" d="M197.44,32.59a17.87,17.87,0,0,1,4-1.83c.68-.22,1.36-.44,2-.6s1.37-.35,2.07-.45l.37-.06.25.09a11.59,11.59,0,0,1,1.58.64,9.93,9.93,0,0,1,1.48.85,6.93,6.93,0,0,1,1.35,1.15,3.89,3.89,0,0,1,.55.76,1.34,1.34,0,0,1,.16,1h-.14a2,2,0,0,0-1-1.16,10.51,10.51,0,0,0-1.4-.76,24.77,24.77,0,0,0-3-1.13h.07c-1.39.3-2.78.55-4.17.83l-4.17.83Z"/><path class="cls-15" d="M190.72,33.05a18.62,18.62,0,0,1-4.34.51c-.71,0-1.42,0-2.13-.07s-1.41-.1-2.11-.22l.61-.08c-.46.17-.95.38-1.43.55s-1,.36-1.45.54-1,.35-1.42.56a2.44,2.44,0,0,0-1.2.83h-.14A2.1,2.1,0,0,1,178,34.3a10.22,10.22,0,0,1,1.33-.93,23.9,23.9,0,0,1,2.9-1.47h.06c1.41.15,2.82.34,4.22.5l4.22.52Z"/><path d="M199.74,39.79a11.21,11.21,0,0,0,2.65.63,12.25,12.25,0,0,0,2.64,0,10.81,10.81,0,0,0,2.55-.63A10.21,10.21,0,0,0,210,38.44a5.15,5.15,0,0,1-2,2.07,7.32,7.32,0,0,1-2.78.93,7.62,7.62,0,0,1-2.93-.21A5.43,5.43,0,0,1,199.74,39.79Z"/><path d="M180.59,41.47a11.4,11.4,0,0,0,2.66.63,11.65,11.65,0,0,0,2.64,0,10.81,10.81,0,0,0,2.55-.63,10,10,0,0,0,2.37-1.32,5.07,5.07,0,0,1-2,2.07,7.26,7.26,0,0,1-2.78.93,7.62,7.62,0,0,1-2.93-.21A5.34,5.34,0,0,1,180.59,41.47Z"/><path class="cls-16" d="M190.34,53.21a39.94,39.94,0,0,1,5.75-1,23.34,23.34,0,0,1,5.8.48s-2.24,3.45-5.78,3.89C193.22,56.9,190.34,53.21,190.34,53.21Z"/><path class="cls-13" d="M121.51,205.76c-.1-3.1,5.06-12,5.06-12,.16-.35.31-1.3,0-1.11l-6.48,4.06c-.81.42-2.25.08-1.77-.74l4.12-5.54a11.27,11.27,0,0,1,2.06-2.22l3.11-.56a10.16,10.16,0,0,0,4.53-5.08c2.21-5.34,6.35-16.81,7.83-23.18C140.87,155.57,146,146,146,146a39.18,39.18,0,0,0,4.58-11.78l6.53-30.65c2.2-10.32,9.65-24,17.15-24.09l1.79-1v27.71L160.65,146a1.34,1.34,0,0,0-.09.26L156,160.19a44.37,44.37,0,0,1-8,14.52l-6.81,8.23a19.52,19.52,0,0,0-4.38,12.4h0c0,4.46-3.77,10-6.19,11.75a27,27,0,0,1-5.16,2.22C123.4,210.07,121.59,208.18,121.51,205.76Z"/><polygon class="cls-13" points="226.6 157.2 179.16 158.31 179.16 149.44 226.6 147.23 226.6 157.2"/><path class="cls-13" d="M169.36,358.41l14.44,1.11s-1,10,2.24,16.86c1.49,3.14-1.89,6.69-5.16,7l-3.9.38c-4.53.44-7.89,1.84-10.71,5.68L164.39,391a23.5,23.5,0,0,1-17.27,1.2l-2.37-.76c-1.59-.32-2.12-3.33,1.93-4.19,10.31-2.22,21.83-19.63,22.13-22.93Z"/><path class="cls-13" d="M255.55,353.45l-14.19,3.07s2.2,9.76-.23,17c-1.12,3.32,2.66,6.38,5.94,6.25l3.92-.15c4.54-.18,8,.75,11.29,4.17l2.05,1.27a23.49,23.49,0,0,0,17.27-1.16l2.26-1.07c1.54-.54,1.71-3.59-2.41-3.9-10.49-.8-24-16.5-24.66-19.73Z"/><path class="cls-17" d="M202.36,155.54l24.75-1.11,7.46,17.92a132.23,132.23,0,0,1,10.07,50.73v48c0,1.31,3.1,10.84,7.22,34.12C257.13,334.92,256,354,256,354l-15.47,2.21c-3.22-17.08-10.18-30.58-13.41-47.66-1.93-10.26-1.16-24.11-3.09-34.37-2-10.56-2.82-5.31-9.28-32.15-3.3-13.67-6.64-32.54-8.25-39.91h-3.1Z"/><path class="cls-17" d="M203.43,155.4l-24.73,1.51-5.79,18.62a133.2,133.2,0,0,0-5.39,51.55l4.39,47.77c.12,1.3-2.09,11.11-4.07,34.72-2.52,30.13.36,49,.36,49l15.59.58c1.65-17.35,7.34-31.51,9-48.86,1-10.41-1.05-24.11-.06-34.52,1-10.72,2.31-5.59,6.3-33,2-13.95,3.63-33.09,4.56-40.58l3.08-.33Z"/><path class="cls-13" d="M289,194.78c-.25-3.09-6.38-11.21-6.38-11.21-.2-.32-.46-1.25-.12-1.1l6.89,3.17c.84.32,2.24-.21,1.67-1l-4.72-5a11,11,0,0,0-2.3-1.92l-3.15-.15a9.89,9.89,0,0,1-5.07-4.45c-2.81-5-8.23-15.85-10.42-22-1.33-3.71-7.53-12.48-7.53-12.48A38.59,38.59,0,0,1,252,127.66L242,98.1c-3.36-9.95-12.31-22.56-19.76-21.65l-1.86-.17,3.13,26.89,19.84,37.45.12.24,6.09,13.24a43.23,43.23,0,0,0,9.54,13.36l7.7,7.28a19.14,19.14,0,0,1,5.76,11.73h0c.51,4.42,4.88,9.43,7.48,10.84a26.42,26.42,0,0,0,5.37,1.53C287.65,199.31,289.23,197.19,289,194.78Z"/><path class="cls-17" d="M176.07,78.5l7.22-2.22s4.93,10.34,7.21,13.3c2,2.54,15,1.76,16.5-1.11,1.61-3,4.13-13.3,4.13-13.3l10.31,1.11C223,81.83,224,88.47,225.57,94c1.42,5,3.42,9,4.85,14a39.16,39.16,0,0,1,.79,12l-4.61,27.18-47.44,2.21s-3.82-17.78-6.19-23.28c-1.56-3.62-3.09-13.3-2.06-16.62.92-5.52,3.21-11.12,4.13-16.63C175.84,88.07,175.26,83.33,176.07,78.5Z"/></g></g></svg>