<svg xmlns="http://www.w3.org/2000/svg" viewBox="0 0 72.52 87.07"><defs><style>.cls-1{fill:#55475f;}.cls-2{fill:#d2bba7;}.cls-2,.cls-3,.cls-4,.cls-5,.cls-7,.cls-8{stroke:#000;stroke-miterlimit:10;}.cls-2,.cls-5,.cls-8{stroke-width:0.07px;}.cls-3{fill:#eddfdf;stroke-width:0.08px;}.cls-4,.cls-5{fill:#edbc9a;}.cls-4,.cls-7{stroke-width:0.07px;}.cls-6{fill:#892b3f;}.cls-7,.cls-8{fill:none;}</style></defs><title>Recurso 1</title><g id="Capa_2" data-name="Capa 2"><g id="Capa_1-2" data-name="Capa 1"><path class="cls-1" d="M50.42,35.61C51.65,55.26,49.93,69,35.2,69.11,21.28,69.19,17.73,55.57,20,36,22,18.45,25.82,0,35.57,0,44.87,0,49.28,17.56,50.42,35.61Z"/><path class="cls-2" d="M28,61.32l14.66.09L47,70s18.7.52,23.51,4.65c2.37,2,2.58,4.15.64,6.78s-7.25,4.85-10.06,5.16a71.32,71.32,0,0,1-26.2-2.11s-20.09,3.4-26.71,2.36C3.51,86.1,2.32,84.32,1,82.45-.81,79.74.07,76,2.22,74.76c4.11-2.42,20.67-4.93,20.67-4.93Z"/><path class="cls-3" d="M34.92,62.08c1.92,0,7.69-.67,7.69-.67l1.46-10.83a2.26,2.26,0,0,1,.37-1c1.19-1.82,2-6.71,2-6.71l5,11-6.61.36-.06,3.54,6.14.53c1.12.12,5.09-.39,5.84-1.18.47-.5.23-1.77,0-2.42-2.3-6.37-8.38-19.64-8.38-19.64-.29-.59-1.47-2.6-2.8-2.73l-10,1.81a1.59,1.59,0,0,1-.75,0L25,32.22c-1.33.14-2.51,2.14-2.81,2.73,0,0-6.07,13.27-8.37,19.64-.24.65-.48,1.92,0,2.42.74.79,4.71,1.3,5.84,1.18l6.13-.53-.06-3.54-6.6-.35,5-11s.8,4.89,2,6.71a2.24,2.24,0,0,1,.36,1L28,61.32S33.18,62.07,34.92,62.08Z"/><path class="cls-4" d="M45.62,32.47a22.92,22.92,0,0,1-10.41,2.36C28.6,34.85,25,32.14,25,32.14s5.14-2.67,6.2-4.21c.79-1.16,1.27-5.49,1.27-5.49l5.5.11s.38,4.32,1.06,5.39C40.17,29.68,45.62,32.47,45.62,32.47Z"/><path class="cls-5" d="M43.05,12.49c0-.31.91-.51,1.21-.3.49.35.28,1.76-.07,2.32-1,1.63-1.72,1.58-1.72,1.58A7.75,7.75,0,0,0,43.05,12.49Z"/><path class="cls-5" d="M28,12.55c0-.31-.9-.52-1.21-.3-.49.35-.28,1.76.07,2.32,1,1.63,1.72,1.58,1.72,1.58A7.9,7.9,0,0,1,28,12.55Z"/><path class="cls-4" d="M43.1,14.19c-.52,3.86-2.57,7-5.09,8.36a5.93,5.93,0,0,1-2.49.74,5.06,5.06,0,0,1-3-.85c-2.3-1.46-4-4.68-4.58-8.44C27.2,8.9,31,5.47,35.59,5.51A7.31,7.31,0,0,1,43.1,14.19Z"/><path d="M36.51,11.31a7.31,7.31,0,0,1,1.57-.59c.26-.07.53-.11.8-.16a4.29,4.29,0,0,1,.8-.12h.17l.07,0a5.24,5.24,0,0,1,1.12.66,3.63,3.63,0,0,1,.49.47c.12.19.3.42.23.68H41.7c0-.19-.18-.34-.34-.47a4.45,4.45,0,0,0-.51-.33A9.46,9.46,0,0,0,39.73,11h0l-3.24.4Z"/><path d="M33.92,11.29a7.24,7.24,0,0,1-1.67.07l-.81-.09a5.49,5.49,0,0,1-.81-.14h.23c-.37.08-.74.25-1.13.33-.19.05-.37.12-.56.18a1,1,0,0,0-.48.29h-.05a.78.78,0,0,1,.38-.5,3.25,3.25,0,0,1,.53-.32,8.22,8.22,0,0,1,1.15-.48h0l3.2.63Z"/><path d="M37.18,14.13a4.22,4.22,0,0,0,2,.37,3.67,3.67,0,0,0,1.94-.61,2.36,2.36,0,0,1-1.92,1A2.54,2.54,0,0,1,37.18,14.13Z"/><path d="M29.81,14.23a4.08,4.08,0,0,0,2,.38A3.76,3.76,0,0,0,33.76,14a2.43,2.43,0,0,1-1.92,1A2.54,2.54,0,0,1,29.81,14.23Z"/><path class="cls-6" d="M33.21,19a14.91,14.91,0,0,1,2.23-.23,8.89,8.89,0,0,1,2.21.34,3.57,3.57,0,0,1-2.32,1.33C34.21,20.49,33.21,19,33.21,19Z"/><path class="cls-4" d="M25.71,54.12l7.34-.28s-.95-4.32-.63-5.65c1.28-5.35,2.86-6.3,2.86-6.3s.38,8.15-.09,10.81a6.73,6.73,0,0,1-1.75,3.19c-1.54,1.15-7.67,1.77-7.67,1.77Z"/><path class="cls-7" d="M34.84,42.37a54.89,54.89,0,0,0-.32,5.69"/><path class="cls-7" d="M34.55,42.79a28.55,28.55,0,0,0-1,4.56"/><path class="cls-4" d="M44.85,54.22l-7.19-.44s1-4.32.63-5.65c-1.29-5.36-3-6.24-3-6.24S35,50,35.52,52.64a6.71,6.71,0,0,0,1.74,3.19c1.54,1.15,7.53,1.93,7.53,1.93Z"/><path class="cls-7" d="M35.87,42.31s.32,4.26.32,5.68"/><path class="cls-7" d="M36.16,42.73a28.88,28.88,0,0,1,1,4.55"/><path class="cls-4" d="M23.71,75.94l-1.77-.88s-1.06-3.18-2.17-3.65c-1.43-.61-3.84,1.08-3.84,1.08S10.18,69.76,8.3,69.9c-1,.08-2.79,1.83-2.79,1.83a.3.3,0,0,0,.08.53s4.58-.68,7.38,2.2c1.57,1.63,7.88,4.44,7.88,4.44Z"/><path class="cls-4" d="M46.42,75.42l1.51-.51S49,71.74,50.1,71.26c1.43-.61,3.85,1.08,3.85,1.08s5.74-2.73,7.62-2.59c1,.08,2.79,1.83,2.79,1.83a.3.3,0,0,1-.08.53,13.21,13.21,0,0,0-7.38,2.21c-1,.72-3.4,3-6,3.22a42.09,42.09,0,0,1-4.41,0Z"/><path class="cls-8" d="M25,70.78s6.44,4,6.44,6.19"/><path class="cls-8" d="M47,70s-2.53-1.25-8.29,6.24"/><path class="cls-8" d="M20.85,78.9s8.41,4.55,14.07,5.57"/><path class="cls-8" d="M23.71,75.94C33,77.88,46.5,77.57,46.5,77.57s15.09-.15,15.32,1.19"/><path class="cls-8" d="M7.52,78.53s6.59-3,8.51-1.91"/><path class="cls-8" d="M46.42,75.42s-4.8.38-13.73,1.69"/></g></g></svg>